<svg width="24" height="24" viewBox="0 0 24 24" fill="none" xmlns="http://www.w3.org/2000/svg">
<path d="M15.4 2.18176C15.1621 2.60785 14.9501 3.04789 14.7651 3.49948C12.9476 3.21204 11.0961 3.21204 9.2786 3.49948C9.09363 3.04789 8.88161 2.60785 8.6437 2.18176C6.93161 2.4743 5.26723 2.99819 3.69627 3.73906C0.887066 7.79319 -0.386931 12.7151 0.102496 17.623C1.93321 18.9993 3.98791 20.0489 6.17597 20.7256C6.67421 20.0675 7.11886 19.3705 7.50567 18.6412C6.7918 18.378 6.10565 18.045 5.45722 17.647C5.63506 17.5286 5.8033 17.3965 5.96035 17.2517C7.85122 18.1625 9.92304 18.6354 12.0218 18.6354C14.1206 18.6354 16.1925 18.1625 18.0833 17.2517C18.2511 17.3954 18.4188 17.5272 18.5865 17.647C17.9345 18.0419 17.249 18.3786 16.538 18.6532C16.9088 19.399 17.3416 20.1123 17.8318 20.7855C20.0171 20.1111 22.0683 19.0612 23.8933 17.6829C24.3945 12.7741 23.1194 7.84817 20.2995 3.79896C18.7462 3.04276 17.0983 2.49882 15.4 2.18176ZM8.04474 14.8199C7.44528 14.7768 6.8858 14.5032 6.48375 14.0565C6.0817 13.6098 5.86834 13.0247 5.88847 12.424C5.8653 11.8226 6.07761 11.2358 6.48026 10.7884C6.88291 10.341 7.44417 10.0683 8.04474 10.0282C8.6453 10.0683 9.20656 10.341 9.60921 10.7884C10.0119 11.2358 10.2242 11.8226 10.201 12.424C10.2242 13.0255 10.0119 13.6123 9.60921 14.0597C9.20656 14.507 8.6453 14.7798 8.04474 14.8199ZM15.999 14.8199C15.3995 14.7768 14.84 14.5032 14.438 14.0565C14.0359 13.6098 13.8226 13.0247 13.8427 12.424C13.8195 11.8226 14.0318 11.2358 14.4345 10.7884C14.8371 10.341 15.3984 10.0683 15.999 10.0282C16.6006 10.0653 17.1637 10.3371 17.567 10.7852C17.9702 11.2333 18.1815 11.8218 18.1552 12.424C18.1815 13.0263 17.9702 13.6148 17.567 14.0628C17.1637 14.5109 16.6006 14.7828 15.999 14.8199Z" fill="" />
</svg>
