<svg
      width="18"
      height="18"
      viewBox="0 0 18 18"
      xmlns="http://www.w3.org/2000/svg"
  
    >
      <path
        d="M15.621 6.00825L10.7085 2.07825C9.74851 1.31325 8.24851 1.30575 7.29601 2.07075L2.38351 6.00825C1.67851 6.57075 1.25101 7.69575 1.40101 8.58075L2.34601 14.2357C2.56351 15.5032 3.74101 16.5007 5.02351 16.5007H12.9735C14.241 16.5007 15.441 15.4807 15.6585 14.2282L16.6035 8.57325C16.7385 7.69575 16.311 6.57075 15.621 6.00825ZM9.56101 13.5007C9.56101 13.8082 9.30601 14.0632 8.99851 14.0632C8.69101 14.0632 8.43601 13.8082 8.43601 13.5007V11.2507C8.43601 10.9432 8.69101 10.6882 8.99851 10.6882C9.30601 10.6882 9.56101 10.9432 9.56101 11.2507V13.5007Z"
        fill=""
      />
    </svg>