<svg width="24" height="24" viewBox="0 0 24 24" fill="none" xmlns="http://www.w3.org/2000/svg">
<path d="M18.4167 1H5.58333C3.05242 1 1 3.05242 1 5.58333V18.4167C1 20.9476 3.05242 23 5.58333 23H18.4167C20.9485 23 23 20.9476 23 18.4167V5.58333C23 3.05242 20.9485 1 18.4167 1ZM8.33333 18.4167H5.58333V8.33333H8.33333V18.4167ZM6.95833 7.171C6.07283 7.171 5.35417 6.44683 5.35417 5.554C5.35417 4.66117 6.07283 3.937 6.95833 3.937C7.84383 3.937 8.5625 4.66117 8.5625 5.554C8.5625 6.44683 7.84475 7.171 6.95833 7.171ZM19.3333 18.4167H16.5833V13.2797C16.5833 10.1923 12.9167 10.4261 12.9167 13.2797V18.4167H10.1667V8.33333H12.9167V9.95125C14.1963 7.58075 19.3333 7.40567 19.3333 12.2209V18.4167Z" fill=""/>
</svg>
