<svg width="154" height="28" viewBox="0 0 154 28" fill="none" xmlns="http://www.w3.org/2000/svg">
<path d="M23.2595 9.68839L24.1578 10.6238C26.0706 12.6155 26.0086 15.7826 24.0192 17.6978L17.2785 24.1871C15.2892 26.1022 12.1259 26.0401 10.2131 24.0484L3.73161 17.2995C1.81881 15.3077 1.88083 12.1406 3.87015 10.2255L10.6109 3.73613C12.6002 1.82101 15.7635 1.88311 17.6763 3.87484L18.4669 4.69809" stroke="#714EFF" stroke-width="2.4" stroke-linecap="round"/>
<path d="M18.535 18.3116L17.6367 17.3762C15.7239 15.3845 15.7859 12.2174 17.7752 10.3022L24.5159 3.8129C26.5052 1.89778 29.6685 1.95988 31.5813 3.95161L38.0628 10.7005C39.9756 12.6923 39.9136 15.8594 37.9243 17.7745L31.1836 24.2639C29.1942 26.179 26.031 26.1169 24.1181 24.1252L23.3275 23.3019" stroke="#B9C0DA" stroke-width="2.4" stroke-linecap="round"/>
<path d="M46.2222 22.6462C45.5922 22.6462 45.2772 22.3296 45.2772 21.6965V6.47616C45.2772 5.84305 45.5922 5.5265 46.2222 5.5265C46.8437 5.5265 47.1545 5.84305 47.1545 6.47616V20.7597H54.4592C55.0892 20.7597 55.4042 21.0719 55.4042 21.6965C55.4042 22.3296 55.0892 22.6462 54.4592 22.6462H46.2222Z" fill="#714EFF"/>
<path d="M59.3463 7.74667C58.6142 7.74667 58.2481 7.37022 58.2481 6.61733V5.92433C58.2481 5.18855 58.6142 4.82067 59.3463 4.82067H60.0359C60.7426 4.82067 61.0959 5.18855 61.0959 5.92433V6.61733C61.0959 7.37022 60.7426 7.74667 60.0359 7.74667H59.3463ZM59.6911 22.6462C59.0611 22.6462 58.7461 22.3296 58.7461 21.6965V10.8652C58.7461 10.2406 59.0611 9.92833 59.6911 9.92833C60.3126 9.92833 60.6234 10.2406 60.6234 10.8652V21.6965C60.6234 22.3296 60.3126 22.6462 59.6911 22.6462Z" fill="#714EFF"/>
<path d="M66.7 22.6462C66.0699 22.6462 65.7549 22.3296 65.7549 21.6965V10.8652C65.7549 10.2406 66.0699 9.92833 66.7 9.92833C67.3215 9.92833 67.6322 10.2406 67.6322 10.8652V11.5582C68.5006 10.4716 69.8756 9.92833 71.7571 9.92833H72.4722C74.1324 9.92833 75.3584 10.3262 76.1501 11.1218C76.9419 11.9175 77.3378 13.1495 77.3378 14.8178V21.6965C77.3378 22.3296 77.027 22.6462 76.4056 22.6462C75.7755 22.6462 75.4605 22.3296 75.4605 21.6965V14.8178C75.4605 13.6628 75.2434 12.8757 74.8092 12.4565C74.3836 12.0287 73.6045 11.8148 72.4722 11.8148H71.7571C70.6333 11.8148 69.6925 11.9646 68.9348 12.264C68.1771 12.5549 67.7429 13.0169 67.6322 13.65V21.6965C67.6322 22.3296 67.3215 22.6462 66.7 22.6462Z" fill="#714EFF"/>
<path d="M83.1619 22.6462C82.5319 22.6462 82.2169 22.3296 82.2169 21.6965V5.6035C82.2169 4.97894 82.5319 4.66667 83.1619 4.66667C83.7834 4.66667 84.0942 4.97894 84.0942 5.6035V15.5878L90.3134 10.2235C90.7817 9.81283 91.2201 9.84278 91.6288 10.3133C92.0375 10.7924 92.0077 11.2331 91.5394 11.6352L86.8654 15.6905L91.5394 21.0292C91.9566 21.5083 91.931 21.9489 91.4628 22.351C90.9945 22.7617 90.5518 22.7317 90.1346 22.2612L85.4223 16.9353L84.0942 18.0903V21.6965C84.0942 22.3296 83.7834 22.6462 83.1619 22.6462Z" fill="#714EFF"/>
<path d="M97.8492 22.6333C96.7765 22.6333 95.9379 22.4109 95.3334 21.966C94.729 21.5126 94.3501 20.8324 94.1969 19.9255C94.1458 19.6175 94.2054 19.3737 94.3757 19.194C94.5544 19.0143 94.8013 18.9245 95.1163 18.9245C95.4143 18.9245 95.6314 19.0015 95.7676 19.1555C95.9124 19.3095 96.0273 19.5405 96.1124 19.8485C96.2061 20.1993 96.3849 20.4388 96.6488 20.5672C96.9127 20.6869 97.3129 20.7468 97.8492 20.7468H102.038C102.745 20.7468 103.221 20.6271 103.468 20.3875C103.724 20.1394 103.851 19.6517 103.851 18.9245C103.851 18.1973 103.724 17.7096 103.468 17.4615C103.221 17.2134 102.745 17.0893 102.038 17.0893H97.9131C96.7297 17.0893 95.84 16.7942 95.2441 16.2038C94.6481 15.6049 94.3501 14.7109 94.3501 13.5217C94.3501 12.3068 94.6396 11.4042 95.2185 10.8138C95.806 10.2149 96.7041 9.9155 97.9131 9.9155H101.91C103.885 9.9155 105.031 10.7668 105.346 12.4693C105.397 12.7859 105.333 13.0297 105.154 13.2008C104.984 13.3719 104.741 13.4575 104.426 13.4575C104.137 13.4575 103.919 13.3805 103.775 13.2265C103.63 13.0725 103.519 12.8543 103.443 12.572C103.358 12.2726 103.196 12.0715 102.957 11.9688C102.728 11.8576 102.379 11.802 101.91 11.802H97.9131C97.232 11.802 96.7808 11.9132 96.5594 12.1357C96.3381 12.3581 96.2274 12.8201 96.2274 13.5217C96.2274 14.1719 96.3423 14.6168 96.5722 14.8563C96.8106 15.0873 97.2575 15.2028 97.9131 15.2028H102.038C103.281 15.2028 104.205 15.5108 104.809 16.1268C105.422 16.7428 105.729 17.6754 105.729 18.9245C105.729 20.1736 105.422 21.1062 104.809 21.7222C104.205 22.3296 103.281 22.6333 102.038 22.6333H97.8492Z" fill="#714EFF"/>
<path d="M118.645 4.93036H122.629V22.7174H118.645V15.1714H111.953V22.7174H107.969V4.93036H111.953V11.732H118.645V4.93036Z" fill="#B9C0DA"/>
<path d="M137.938 22.2554C137.291 22.4436 136.457 22.6147 135.435 22.7687C134.413 22.9398 133.341 23.0254 132.217 23.0254C131.076 23.0254 130.123 22.8714 129.356 22.5634C128.607 22.2554 128.011 21.8276 127.568 21.28C127.126 20.7154 126.811 20.048 126.623 19.278C126.436 18.508 126.342 17.661 126.342 16.737V9.21669H130.148V16.275C130.148 17.507 130.31 18.3968 130.633 18.9444C130.957 19.4919 131.561 19.7657 132.447 19.7657C132.719 19.7657 133.009 19.7571 133.315 19.74C133.622 19.7058 133.894 19.6716 134.132 19.6374V9.21669H137.938V22.2554Z" fill="#B9C0DA"/>
<path d="M150.118 15.8644C150.118 13.4004 149.215 12.1684 147.41 12.1684C147.019 12.1684 146.627 12.2197 146.236 12.3224C145.861 12.425 145.554 12.5534 145.316 12.7074V19.663C145.503 19.6973 145.742 19.7315 146.031 19.7657C146.321 19.7828 146.636 19.7914 146.976 19.7914C148.015 19.7914 148.798 19.432 149.326 18.7134C149.854 17.9947 150.118 17.045 150.118 15.8644ZM154 15.967C154 17.045 153.838 18.0204 153.515 18.893C153.208 19.7657 152.757 20.51 152.161 21.126C151.565 21.742 150.833 22.2211 149.965 22.5634C149.096 22.8885 148.109 23.051 147.002 23.051C146.542 23.051 146.057 23.0254 145.546 22.974C145.052 22.9398 144.558 22.8885 144.065 22.82C143.588 22.7516 143.128 22.6746 142.685 22.589C142.243 22.4864 141.851 22.3837 141.51 22.281V3.41603L145.316 2.80003V9.52469C145.742 9.33647 146.184 9.19103 146.644 9.08836C147.104 8.98569 147.598 8.93436 148.126 8.93436C149.079 8.93436 149.922 9.10547 150.654 9.44769C151.386 9.77281 151.999 10.2434 152.493 10.8594C152.987 11.4754 153.361 12.2197 153.617 13.0924C153.872 13.9479 154 14.9061 154 15.967Z" fill="#B9C0DA"/>
</svg>
