<svg width="154" height="28" viewBox="0 0 154 28" fill="none" xmlns="http://www.w3.org/2000/svg">
<path d="M23.2595 9.68845L24.1578 10.6238C26.0706 12.6156 26.0086 15.7827 24.0192 17.6978L17.2785 24.1872C15.2892 26.1023 12.1259 26.0402 10.2131 24.0485L3.73161 17.2995C1.81881 15.3078 1.88083 12.1407 3.87015 10.2255L10.6109 3.73619C12.6002 1.82107 15.7635 1.88317 17.6763 3.8749L18.4669 4.69815" stroke="#714EFF" stroke-width="2.4" stroke-linecap="round"/>
<path d="M18.535 18.3116L17.6367 17.3762C15.7239 15.3844 15.7859 12.2173 17.7752 10.3022L24.5159 3.81284C26.5052 1.89771 29.6685 1.95982 31.5813 3.95155L38.0628 10.7005C39.9756 12.6922 39.9136 15.8593 37.9243 17.7745L31.1836 24.2638C29.1942 26.1789 26.031 26.1168 24.1181 24.1251L23.3275 23.3019" stroke="#B9C0DA" stroke-width="2.4" stroke-linecap="round"/>
<path d="M117.645 5.13033H121.629V22.9173H117.645V15.3713H110.953V22.9173H106.969V5.13033H110.953V11.932H117.645V5.13033Z" fill="#B9C0DA"/>
<path d="M136.938 22.4553C136.291 22.6436 135.457 22.8147 134.435 22.9687C133.413 23.1398 132.341 23.2253 131.217 23.2253C130.076 23.2253 129.123 23.0713 128.356 22.7633C127.607 22.4553 127.011 22.0276 126.568 21.48C126.126 20.9153 125.811 20.248 125.623 19.478C125.436 18.708 125.342 17.861 125.342 16.937V9.41667H129.148V16.475C129.148 17.707 129.31 18.5968 129.633 19.1443C129.957 19.6919 130.561 19.9657 131.447 19.9657C131.719 19.9657 132.009 19.9571 132.315 19.94C132.622 19.9058 132.894 19.8716 133.132 19.8373V9.41667H136.938V22.4553Z" fill="#B9C0DA"/>
<path d="M149.118 16.0643C149.118 13.6003 148.215 12.3683 146.41 12.3683C146.019 12.3683 145.627 12.4197 145.236 12.5223C144.861 12.625 144.554 12.7533 144.316 12.9073V19.863C144.503 19.8972 144.742 19.9314 145.031 19.9657C145.321 19.9828 145.636 19.9913 145.976 19.9913C147.015 19.9913 147.798 19.632 148.326 18.9133C148.854 18.1947 149.118 17.245 149.118 16.0643ZM153 16.167C153 17.245 152.838 18.2203 152.515 19.093C152.208 19.9657 151.757 20.71 151.161 21.326C150.565 21.942 149.833 22.4211 148.965 22.7633C148.096 23.0884 147.109 23.251 146.002 23.251C145.542 23.251 145.057 23.2253 144.546 23.174C144.052 23.1398 143.558 23.0884 143.065 23.02C142.588 22.9516 142.128 22.8746 141.685 22.789C141.243 22.6863 140.851 22.5837 140.51 22.481V3.616L144.316 3V9.72467C144.742 9.53644 145.184 9.391 145.644 9.28833C146.104 9.18567 146.598 9.13433 147.126 9.13433C148.079 9.13433 148.922 9.30544 149.654 9.64767C150.386 9.97278 150.999 10.4433 151.493 11.0593C151.987 11.6753 152.361 12.4197 152.617 13.2923C152.872 14.1479 153 15.1061 153 16.167Z" fill="#B9C0DA"/>
<path d="M46.4399 5.96H49.4879V20.216H57.5519V22.736H46.4399V5.96Z" fill="#714EFF"/>
<path d="M61.1752 9.2C60.6952 9.2 60.2872 9.04 59.9512 8.72C59.6312 8.4 59.4712 8 59.4712 7.52C59.4712 7.04 59.6312 6.64 59.9512 6.32C60.2872 5.984 60.6952 5.816 61.1752 5.816C61.6552 5.816 62.0632 5.984 62.3992 6.32C62.7352 6.64 62.9032 7.04 62.9032 7.52C62.9032 8 62.7352 8.4 62.3992 8.72C62.0632 9.04 61.6552 9.2 61.1752 9.2ZM59.6392 11.216H62.7112V22.736H59.6392V11.216Z" fill="#714EFF"/>
<path d="M65.7759 11.216H68.7039V12.776C69.2479 12.12 69.8959 11.64 70.6479 11.336C71.3999 11.016 72.1919 10.856 73.0239 10.856C74.5759 10.856 75.7359 11.28 76.5039 12.128C77.2719 12.96 77.6559 14.072 77.6559 15.464V22.736H74.6319V15.752C74.6319 14.072 73.8479 13.232 72.2799 13.232C71.5919 13.232 70.9439 13.4 70.3359 13.736C69.7279 14.056 69.2159 14.544 68.7999 15.2V22.736H65.7759V11.216Z" fill="#714EFF"/>
<path d="M80.4243 5H83.4483V16.28L88.0323 11.216H91.5843L86.4483 16.856L92.1603 22.736H88.6083L83.4483 17.408V22.736H80.4243V5Z" fill="#714EFF"/>
<path d="M98.2014 23.096C97.3694 23.096 96.4814 23 95.5374 22.808C94.5934 22.616 93.8574 22.352 93.3294 22.016V19.448C93.9534 19.832 94.6974 20.144 95.5614 20.384C96.4254 20.608 97.2414 20.72 98.0094 20.72C98.7774 20.72 99.3374 20.656 99.6894 20.528C100.041 20.384 100.217 20.128 100.217 19.76C100.217 19.472 100.121 19.24 99.9294 19.064C99.7534 18.872 99.4574 18.704 99.0414 18.56C98.6414 18.4 98.0174 18.208 97.1694 17.984C96.2094 17.712 95.4494 17.432 94.8894 17.144C94.3454 16.856 93.9294 16.496 93.6414 16.064C93.3694 15.616 93.2334 15.04 93.2334 14.336C93.2334 13.184 93.6894 12.32 94.6014 11.744C95.5134 11.152 96.7454 10.856 98.2974 10.856C99.0974 10.856 99.8894 10.936 100.673 11.096C101.473 11.24 102.097 11.448 102.545 11.72V14.192C102.065 13.904 101.481 13.672 100.793 13.496C100.105 13.32 99.4014 13.232 98.6814 13.232C97.8974 13.232 97.3054 13.312 96.9054 13.472C96.5054 13.616 96.3054 13.904 96.3054 14.336C96.3054 14.624 96.4094 14.856 96.6174 15.032C96.8414 15.192 97.1294 15.336 97.4814 15.464C97.8334 15.576 98.4734 15.752 99.4014 15.992C100.393 16.264 101.169 16.56 101.729 16.88C102.289 17.2 102.689 17.584 102.929 18.032C103.169 18.48 103.289 19.04 103.289 19.712C103.289 20.736 102.849 21.56 101.969 22.184C101.105 22.792 99.8494 23.096 98.2014 23.096Z" fill="#714EFF"/>
</svg>
