<svg width="24" height="24" viewBox="0 0 24 24" fill="none" xmlns="http://www.w3.org/2000/svg">
<path d="M22.2584 16.2312C22.0862 15.9408 21.6022 15.489 20.3974 15.7041C19.7306 15.8259 19.0523 15.8728 18.3751 15.844C17.1664 15.7892 15.9809 15.4925 14.8889 14.9715C13.7969 14.4504 12.8206 13.7156 12.0176 12.8105C10.8876 11.573 10.1401 10.0349 9.86519 8.3818C9.59031 6.72872 9.79989 5.03142 10.4686 3.49487C10.9419 2.40841 10.6085 1.83828 10.3718 1.60163C10.1352 1.36497 9.54352 1.00999 8.40327 1.4833C6.26574 2.37566 4.46095 3.91442 3.24181 5.88395C2.02267 7.85348 1.45027 10.1551 1.60482 12.4662C1.79624 14.638 2.6136 16.7076 3.95778 18.4241C5.30196 20.1406 7.11524 21.4303 9.17778 22.1368C10.1792 22.4862 11.2268 22.6856 12.2866 22.7285C12.4587 22.7392 12.6308 22.75 12.8029 22.75C14.5755 22.753 16.3239 22.3388 17.9068 21.5408C19.4896 20.7429 20.8624 19.5836 21.9141 18.1567C22.6348 17.1563 22.4412 16.5227 22.2584 16.2312Z" fill=""/>
</svg>
