<svg width="20" height="20" viewBox="0 0 20 20" fill="none" xmlns="http://www.w3.org/2000/svg">
<path d="M11.3624 6.93816C11.3624 6.52325 11.2259 6.19035 10.953 5.93947C10.68 5.6886 10.3185 5.56316 9.86842 5.56316C9.59069 5.56316 9.3393 5.62346 9.11425 5.74408C8.8892 5.86469 8.69527 6.04079 8.53247 6.27237C8.37924 6.4943 8.17094 6.62215 7.90758 6.65592C7.64423 6.68969 7.41678 6.61974 7.22524 6.44605C7.09117 6.32061 7.01695 6.16623 7.00259 5.98289C6.98822 5.79956 7.03371 5.62588 7.13905 5.46184C7.44551 4.99868 7.83576 4.63925 8.30981 4.38355C8.78385 4.12785 9.30339 4 9.86842 4C10.7974 4 11.5515 4.26535 12.1309 4.79605C12.7103 5.32675 13 6.02149 13 6.88026C13 7.31447 12.909 7.70526 12.7271 8.05263C12.5451 8.4 12.2099 8.81009 11.7215 9.28289C11.3672 9.62061 11.1278 9.88355 11.0033 10.0717C10.8788 10.2599 10.7974 10.4746 10.759 10.7158C10.7207 10.9474 10.6226 11.1404 10.4646 11.2947C10.3066 11.4491 10.1174 11.5263 9.89715 11.5263C9.67688 11.5263 9.48774 11.4515 9.32973 11.302C9.17171 11.1524 9.0927 10.9667 9.0927 10.7447C9.0927 10.3684 9.1741 10.0235 9.33691 9.70987C9.49971 9.39627 9.77265 9.06579 10.1557 8.71842C10.6441 8.28421 10.9673 7.9489 11.1254 7.7125C11.2834 7.4761 11.3624 7.21798 11.3624 6.93816ZM9.86842 15C9.55238 15 9.28184 14.8866 9.05679 14.6599C8.83174 14.4331 8.71921 14.1605 8.71921 13.8421C8.71921 13.5237 8.83174 13.2511 9.05679 13.0243C9.28184 12.7976 9.55238 12.6842 9.86842 12.6842C10.1844 12.6842 10.455 12.7976 10.68 13.0243C10.9051 13.2511 11.0176 13.5237 11.0176 13.8421C11.0176 14.1605 10.9051 14.4331 10.68 14.6599C10.455 14.8866 10.1844 15 9.86842 15Z" fill=""/>
<path fill-rule="evenodd" clip-rule="evenodd" d="M10 19C14.9706 19 19 14.9706 19 10C19 5.02944 14.9706 1 10 1C5.02944 1 1 5.02944 1 10C1 14.9706 5.02944 19 10 19ZM10 20C15.5228 20 20 15.5228 20 10C20 4.47715 15.5228 0 10 0C4.47715 0 0 4.47715 0 10C0 15.5228 4.47715 20 10 20Z" fill=""/>
</svg>
