<svg width="" height="" viewBox="0 0 120 120" fill="none" xmlns="http://www.w3.org/2000/svg">
<path fill-rule="evenodd" clip-rule="evenodd" d="M118.029 108.565L95.3693 85.9723C102.68 76.6583 106.647 65.1567 106.632 53.3162C106.632 23.8705 82.7619 0 53.3162 0C23.8705 0 0 23.8705 0 53.3162C0 82.7619 23.8705 106.632 53.3162 106.632C65.1567 106.647 76.6583 102.68 85.9723 95.3693L108.565 118.029C109.816 119.29 111.52 120 113.297 120C115.074 120 116.777 119.29 118.029 118.029C119.29 116.777 120 115.074 120 113.297C120 111.52 119.29 109.816 118.029 108.565ZM64.4212 70.2375C66.03 71.8462 68.6287 71.8462 70.2375 70.2375C71.805 68.6287 71.805 65.9888 70.2375 64.4212L58.3162 52.5L70.2375 40.5787C71.8462 38.97 71.8462 36.3713 70.2375 34.7625C68.6287 33.1537 66.03 33.1537 64.4212 34.7625L52.5 46.6838L40.5787 34.7625C38.97 33.1537 36.3713 33.1537 34.7625 34.7625C33.1537 36.3713 33.1537 38.97 34.7625 40.5787L46.6838 52.5L34.7625 64.4212C33.1537 66.03 33.1537 68.6287 34.7625 70.2375C36.3713 71.8462 38.97 71.8462 40.5787 70.2375L52.5 58.3162L64.4212 70.2375Z" fill="#B9C0DA"/>
</svg>
