<svg width="24" height="24" viewBox="0 0 24 24" fill="none" xmlns="http://www.w3.org/2000/svg">
<path d="M18.7129 12.0189C18.7129 13.3428 18.3203 14.637 17.5848 15.7378C16.8492 16.8386 15.8038 17.6966 14.5807 18.2032C13.3575 18.7099 12.0116 18.8424 10.7131 18.5841C9.41466 18.3258 8.22193 17.6883 7.28578 16.7522C6.34963 15.816 5.7121 14.6233 5.45382 13.3248C5.19554 12.0263 5.3281 10.6804 5.83474 9.45729C6.34138 8.23415 7.19934 7.18872 8.30014 6.45319C9.40094 5.71766 10.6951 5.32507 12.019 5.32507C13.7944 5.32507 15.497 6.03031 16.7523 7.28565C18.0076 8.54099 18.7129 10.2436 18.7129 12.0189Z" fill=""/>
<path d="M12.0189 22.4995C11.8955 22.5035 11.7725 22.4827 11.6572 22.4385C11.5419 22.3942 11.4366 22.3274 11.3475 22.2418C11.2584 22.1563 11.1873 22.0538 11.1384 21.9404C11.0895 21.827 11.0637 21.705 11.0626 21.5815V21.505C11.0626 21.2514 11.1634 21.0082 11.3427 20.8288C11.522 20.6495 11.7653 20.5487 12.0189 20.5487C12.2725 20.5487 12.5157 20.6495 12.6951 20.8288C12.8744 21.0082 12.9752 21.2514 12.9752 21.505C12.9758 21.7624 12.8765 22.01 12.6981 22.1956C12.5196 22.3811 12.2761 22.4901 12.0189 22.4995ZM18.8466 19.8029C18.5929 19.8019 18.3495 19.7024 18.1677 19.5255L18.0433 19.4012C17.8867 19.2183 17.8048 18.983 17.8141 18.7423C17.8234 18.5017 17.9232 18.2734 18.0935 18.103C18.2638 17.9327 18.4921 17.833 18.7328 17.8237C18.9734 17.8144 19.2087 17.8962 19.3917 18.0529L19.516 18.1772C19.6941 18.3564 19.7941 18.5988 19.7941 18.8514C19.7941 19.104 19.6941 19.3464 19.516 19.5255C19.4283 19.6137 19.324 19.6836 19.2091 19.7312C19.0942 19.7788 18.971 19.8032 18.8466 19.8029ZM5.19117 19.8029C4.93748 19.8019 4.69407 19.7024 4.51223 19.5255C4.33412 19.3464 4.23415 19.104 4.23415 18.8514C4.23415 18.5988 4.33412 18.3564 4.51223 18.1772L4.63654 18.0529C4.81948 17.8962 5.05479 17.8144 5.29546 17.8237C5.53613 17.833 5.76442 17.9327 5.93473 18.103C6.10503 18.2734 6.2048 18.5017 6.2141 18.7423C6.22339 18.983 6.14153 19.2183 5.98487 19.4012L5.86056 19.5255C5.68244 19.7022 5.44204 19.8018 5.19117 19.8029ZM21.5815 12.9752H21.505C21.2514 12.9752 21.0082 12.8744 20.8288 12.6951C20.6495 12.5157 20.5487 12.2725 20.5487 12.0189C20.5487 11.7653 20.6495 11.522 20.8288 11.3427C21.0082 11.1634 21.2514 11.0626 21.505 11.0626C21.7624 11.062 22.01 11.1613 22.1956 11.3397C22.3811 11.5181 22.4901 11.7617 22.4995 12.0189C22.5035 12.1423 22.4827 12.2653 22.4385 12.3806C22.3942 12.4959 22.3274 12.6012 22.2418 12.6903C22.1563 12.7794 22.0538 12.8505 21.9404 12.8994C21.827 12.9483 21.705 12.9741 21.5815 12.9752ZM2.53276 12.9752H2.45626C2.20265 12.9752 1.95942 12.8744 1.78008 12.6951C1.60075 12.5157 1.5 12.2725 1.5 12.0189C1.5 11.7653 1.60075 11.522 1.78008 11.3427C1.95942 11.1634 2.20265 11.0626 2.45626 11.0626C2.71367 11.062 2.96127 11.1613 3.14682 11.3397C3.33237 11.5181 3.44135 11.7617 3.45078 12.0189C3.45473 12.1423 3.43397 12.2653 3.38972 12.3806C3.34547 12.4959 3.27861 12.6012 3.19308 12.6903C3.10756 12.7794 3.00508 12.8505 2.89169 12.8994C2.77829 12.9483 2.65626 12.9741 2.53276 12.9752ZM18.7223 6.27175C18.4686 6.27075 18.2252 6.17133 18.0433 5.99443C17.8652 5.81527 17.7653 5.5729 17.7653 5.32027C17.7653 5.06764 17.8652 4.82527 18.0433 4.6461L18.1677 4.52179C18.3506 4.36513 18.5859 4.28327 18.8266 4.29256C19.0672 4.30186 19.2955 4.40163 19.4658 4.57193C19.6361 4.74224 19.7359 4.97054 19.7452 5.2112C19.7545 5.45187 19.6726 5.68719 19.516 5.87012L19.3917 5.99443C19.304 6.0826 19.1996 6.1525 19.0847 6.2001C18.9698 6.2477 18.8467 6.27206 18.7223 6.27175ZM5.31549 6.27175C5.06179 6.27075 4.81839 6.17133 4.63654 5.99443L4.51223 5.86056C4.35557 5.67762 4.2737 5.44231 4.283 5.20164C4.2923 4.96097 4.39207 4.73268 4.56237 4.56237C4.73268 4.39207 4.96097 4.2923 5.20164 4.283C5.44231 4.2737 5.67762 4.35557 5.86056 4.51223L5.98487 4.63654C6.16298 4.81571 6.26295 5.05808 6.26295 5.31071C6.26295 5.56334 6.16298 5.8057 5.98487 5.98487C5.89842 6.07538 5.79455 6.14745 5.67951 6.19675C5.56447 6.24605 5.44065 6.27157 5.31549 6.27175ZM12.0189 3.45078C11.8955 3.45473 11.7725 3.43397 11.6572 3.38972C11.5419 3.34547 11.4366 3.27861 11.3475 3.19308C11.2584 3.10756 11.1873 3.00508 11.1384 2.89169C11.0895 2.77829 11.0637 2.65626 11.0626 2.53276V2.45626C11.0626 2.20265 11.1634 1.95942 11.3427 1.78008C11.522 1.60075 11.7653 1.5 12.0189 1.5C12.2725 1.5 12.5157 1.60075 12.6951 1.78008C12.8744 1.95942 12.9752 2.20265 12.9752 2.45626C12.9758 2.71367 12.8765 2.96127 12.6981 3.14682C12.5196 3.33237 12.2761 3.44135 12.0189 3.45078Z" fill=""/>
</svg>
