<svg width="59" height="85" viewBox="0 0 59 85" fill="none" xmlns="http://www.w3.org/2000/svg">
<path fill-rule="evenodd" clip-rule="evenodd" d="M16.5034 78.2916C17.71 79.0273 18.7185 80.0409 19.6138 81.1539C19.8588 81.4521 19.9718 81.8196 19.9622 82.197C19.9619 82.7434 19.7259 83.2896 19.3108 83.6271C18.5656 84.2327 17.5567 84.0335 16.9724 83.3081C16.9347 83.2584 16.897 83.2187 16.8593 83.1689C16.5483 82.8212 16.2373 82.4734 15.9074 82.1454C15.7 81.9665 15.4832 81.7876 15.257 81.6186C14.4215 81.0485 13.5539 80.5291 12.6883 80.0108C12.2256 79.7337 11.7635 79.457 11.3071 79.1731C10.1867 78.4758 9.10208 77.6937 8.02714 76.9185L7.94176 76.857C7.81877 76.7687 7.69553 76.6803 7.57217 76.5919C6.15429 75.5758 4.71857 74.5469 3.42656 73.3583C2.74793 72.7223 2.08816 72.0763 1.485 71.3607L1.45755 71.3277C1.00318 70.7802 0.508712 70.1846 0.231734 69.5126C-0.0319788 68.8569 -0.107072 68.1516 0.251573 67.516C0.402591 67.238 0.638467 66.9898 0.911995 66.8508C1.09081 66.7534 1.27945 66.6877 1.46998 66.6539C1.59579 66.4064 1.73502 66.167 1.89314 65.9375C2.77079 64.6124 3.82106 63.4109 4.86446 62.2172C5.11125 61.9349 5.35767 61.653 5.60132 61.37L5.59188 61.3799C6.66753 60.0693 7.7149 58.7487 8.69629 57.3685C9.70597 55.9585 10.678 54.5186 11.6311 53.0688C12.0369 52.4233 12.4333 51.768 12.8202 51.1026L13.4431 50.0004C13.7735 49.4046 14.3206 49.0273 14.9901 49.0276C15.9048 49.0281 16.6494 49.833 16.6583 50.7867C16.6675 51.2436 16.5259 51.6011 16.3183 51.9884C16.2239 52.1672 16.1012 52.326 15.9503 52.4451C15.3274 53.5375 14.6856 54.61 13.9967 55.6526C13.1285 56.9634 12.2509 58.2443 11.345 59.5252C10.4769 60.7565 9.55215 61.9382 8.59917 63.0999C7.85027 64.0111 7.08203 64.9087 6.31578 65.804C6.15524 65.9916 5.99478 66.179 5.83461 66.3665C5.41001 66.8829 4.99484 67.4091 4.61737 67.9651C4.5897 68.0015 4.56709 68.0433 4.54584 68.0825C4.53811 68.0969 4.53055 68.1108 4.52299 68.1241C4.53801 68.1346 4.55037 68.1424 4.56149 68.1488C4.5713 68.1545 4.58014 68.1591 4.58898 68.1638C4.71154 68.2235 4.8341 68.2831 4.95666 68.3328C5.42808 68.492 5.89008 68.6115 6.37095 68.7209L6.55104 68.7556C8.35913 69.103 10.1846 69.4537 12.019 69.6276C13.2442 69.7131 14.4556 69.668 15.6769 69.6225C15.8843 69.6148 16.092 69.6071 16.3002 69.6C16.5472 69.5806 16.7937 69.5621 17.04 69.5437C17.9221 69.4777 18.801 69.4119 19.6856 69.3036C20.8456 69.1552 21.9961 68.967 23.1561 68.7689C23.3037 68.7369 23.4513 68.7052 23.5988 68.6735C24.3658 68.5086 25.1317 68.344 25.891 68.1445L25.9005 68.1419C27.0668 67.8255 28.2331 67.509 29.39 67.1728C30.2845 66.9155 31.1791 66.6387 32.0686 66.3635C32.2763 66.2992 32.4838 66.235 32.691 66.1711C33.3153 65.9835 33.9267 65.7598 34.5369 65.5364C34.83 65.4291 35.1228 65.3219 35.4167 65.2189C35.3733 65.2303 35.3331 65.2449 35.2942 65.2591C35.2654 65.2696 35.2373 65.2799 35.2092 65.2883L35.3574 65.2291C36.873 64.6243 38.3787 64.0234 39.8402 63.2642C40.9532 62.6589 42.0192 61.974 43.0568 61.2494C43.9247 60.624 44.7548 59.9489 45.5473 59.2341C46.2077 58.6087 46.8304 57.9435 47.4248 57.2385C48.1136 56.4044 48.7458 55.5405 49.3498 54.6369C49.7745 53.9617 50.1614 53.2765 50.5201 52.5615C50.8411 51.8763 51.1149 51.1711 51.3604 50.4462C51.5871 49.6913 51.7855 48.9365 51.9462 48.1717C52.1258 47.2182 52.2489 46.2647 52.3153 45.3012C52.363 44.298 52.3541 43.2848 52.298 42.2716C52.2792 42.0431 52.2605 41.8245 52.2417 41.5961C50.8924 43.3337 49.3828 44.962 47.6659 46.2923C45.7509 47.7813 43.506 49.1808 41.0824 49.4279C38.7719 49.6651 36.4996 49.1177 34.4255 48.0538C32.474 47.0496 30.6265 45.5786 29.2978 43.7502C27.8277 41.733 26.9519 39.3686 26.7551 36.8355C26.5583 34.3422 27.1442 31.8691 28.4466 29.7738C29.7206 27.7183 31.7393 26.3187 33.9839 25.7338C36.4077 25.0992 38.9821 24.9713 41.462 25.2109C43.8288 25.4406 46.2615 25.9583 48.3637 27.1613C50.4283 28.3443 52.1247 30.2225 53.2364 32.3984C53.3023 32.5375 53.3683 32.6667 53.4342 32.8058C53.5758 32.4483 53.708 32.0808 53.8308 31.7233C54.1991 30.591 54.5015 29.439 54.7378 28.267C54.9114 27.307 55.041 26.3469 55.1266 25.3689C55.1276 25.3357 55.1299 25.3025 55.135 25.2693C55.1352 25.2621 55.1353 25.2548 55.1353 25.2475C55.2019 24.0854 55.2025 22.9231 55.137 21.7609L55.137 21.751C55.1371 21.714 55.1334 21.6733 55.1307 21.631C55.0176 20.2185 54.832 18.8341 54.5828 17.4496L54.4936 17.0414C54.177 15.5898 53.8627 14.1487 53.4064 12.7407C53.1992 12.1347 52.9638 11.5287 52.7095 10.9425C52.474 10.4656 52.229 10.0085 51.9557 9.56139C51.6354 9.08446 51.2961 8.6274 50.938 8.18022C50.5139 7.70324 50.0709 7.24607 49.6091 6.79884C48.7702 6.02361 47.8936 5.28813 46.9698 4.61223C46.6304 4.37367 46.2816 4.155 45.9234 3.95615C45.7348 3.85675 45.5463 3.76723 45.3483 3.68765C45.2539 3.6545 45.1596 3.63014 45.0652 3.60578C45.0181 3.59363 44.9711 3.58149 44.924 3.56825C44.8769 3.55828 44.8203 3.55825 44.7731 3.54829C44.7065 3.54286 44.6399 3.54034 44.5717 3.53921C44.5145 3.53822 44.4562 3.53819 44.396 3.53816C43.4813 3.53771 42.7273 2.74269 42.7277 1.7792C42.7282 0.815711 43.4924 0.0213836 44.3977 0.0218291L44.5014 0.0218801C45.2841 0.0421511 46.0573 0.171607 46.7832 0.499777C47.6506 0.887613 48.4707 1.39462 49.2248 1.97113C49.9789 2.54765 50.7047 3.17374 51.4305 3.79989C52.7973 4.96273 54.0319 6.39372 54.9552 7.97358C55.9822 9.73228 56.6508 11.6597 57.159 13.6366C57.8273 16.2195 58.2975 18.8819 58.4659 21.554C58.5033 22.1897 58.5218 22.8155 58.5121 23.4314C58.5103 27.0768 57.8484 30.722 56.5266 34.0986C56.0828 35.2308 55.5636 36.3431 54.9879 37.4156C55.1478 38.1408 55.2701 38.8659 55.3734 39.601C56.0781 44.7368 55.604 50.1701 53.1877 54.768C52.5553 55.9795 51.8192 57.1314 50.9982 58.2137C50.2622 59.1769 49.4885 60.1301 48.6489 60.9939C46.9412 62.7214 45.0073 64.2005 42.9604 65.4511C40.5645 66.92 37.9896 67.9915 35.3771 68.924C33.6417 69.5489 31.8875 70.0943 30.1144 70.6001C29.1996 70.8678 28.2753 71.1256 27.3511 71.3735C26.4551 71.6114 25.5592 71.8196 24.6538 72.0178C22.8431 72.4242 21.0136 72.6717 19.1747 72.8893C18.5238 72.9634 17.873 73.0041 17.2221 73.0448C17.0054 73.0583 16.7886 73.0718 16.5719 73.0867C15.4591 73.1755 14.3275 73.2047 13.2148 73.1843C11.4326 73.1546 9.66521 72.8854 7.90916 72.5652C8.61733 73.0995 9.33742 73.6161 10.0563 74.1319L10.2156 74.2457L10.4725 74.4244C11.7163 75.2901 12.9638 76.1583 14.2691 76.9396C15.0233 77.387 15.7586 77.8343 16.5034 78.2916ZM55.1349 25.2716C55.1322 25.3041 55.1294 25.3366 55.1266 25.3689C55.1258 25.3946 55.1258 25.4204 55.1258 25.4461C55.1258 25.4114 55.1282 25.3791 55.1305 25.3468C55.1324 25.3221 55.1342 25.2974 55.1349 25.2716ZM55.1349 25.2716L55.1353 25.2673L55.135 25.2693L55.1349 25.2716ZM30.2077 34.2545C30.151 34.5923 30.1131 34.93 30.0752 35.2776C30.0657 35.4763 30.0656 35.6749 30.0561 35.8835C30.056 36.0822 30.0559 36.2709 30.0652 36.4696C30.1027 36.9067 30.1591 37.3438 30.2343 37.7809C30.3284 38.218 30.4508 38.6551 30.5826 39.0823C30.705 39.4002 30.8369 39.7181 30.9782 40.036C31.1572 40.3838 31.3456 40.7216 31.5529 41.0595C31.7602 41.3774 31.9769 41.6755 32.2125 41.9736C32.5047 42.3214 32.8063 42.6394 33.1267 42.9575C33.5792 43.3649 34.0505 43.7427 34.5407 44.1005C34.9554 44.3789 35.3796 44.6373 35.8133 44.8759C36.2564 45.1045 36.7089 45.3035 37.1615 45.4726C37.548 45.6019 37.944 45.7113 38.34 45.8108C38.6983 45.8806 39.0755 45.9305 39.4432 45.9704C39.7639 45.9904 40.0751 45.9906 40.3862 45.9808C40.6503 45.9511 40.9049 45.9214 41.169 45.8718C41.4708 45.7925 41.7726 45.7132 42.0744 45.614C42.4893 45.4553 42.8855 45.2668 43.2817 45.0683C43.8665 44.7507 44.423 44.4033 44.9701 44.0162C45.6116 43.5397 46.2342 43.0335 46.8286 42.4974C47.5867 41.786 48.2919 41.0373 48.9697 40.2424C49.7255 39.3274 50.4448 38.3836 51.0934 37.3839C51.1972 37.225 51.301 37.0561 51.4048 36.8873C51.3389 36.6688 51.273 36.4403 51.2071 36.2217C51.0188 35.6654 50.8022 35.1189 50.5478 34.5725C50.3217 34.1154 50.0673 33.6584 49.7941 33.2212C49.5397 32.8436 49.2664 32.476 48.9837 32.1182C48.7292 31.8399 48.4747 31.5717 48.2108 31.3133C47.9469 31.0847 47.6735 30.866 47.3907 30.6572C47.1739 30.5181 46.9665 30.3889 46.7497 30.2596C46.2595 30.0111 45.7692 29.7923 45.2601 29.5934C44.619 29.3746 43.9779 29.1954 43.3178 29.0461C42.4787 28.8768 41.6394 28.7671 40.7908 28.6972C39.7818 28.647 38.7728 28.6366 37.7638 28.6957C37.0377 28.7549 36.321 28.834 35.5948 28.9727C35.0855 29.0917 34.5857 29.2306 34.0952 29.3992C33.9616 29.4554 33.831 29.5116 33.7017 29.5696C33.6028 29.614 33.5048 29.6594 33.4067 29.7068C33.152 29.8556 32.8974 30.0045 32.6521 30.1732C32.4823 30.3122 32.3219 30.4511 32.1615 30.5901C31.9917 30.7589 31.8408 30.9178 31.6898 31.0965C31.5388 31.2752 31.3973 31.4639 31.2652 31.6625C31.0953 31.9505 30.9348 32.2385 30.7838 32.5364C30.6516 32.8343 30.5289 33.1322 30.425 33.4401C30.34 33.7083 30.2739 33.9764 30.2077 34.2545Z" fill="#8B5CF6"/>
</svg>
