<svg width="325" height="318" viewBox="0 0 325 318" fill="none" xmlns="http://www.w3.org/2000/svg">
<path d="M266.98 217.672H210.504C208.357 217.672 206.613 215.928 206.613 213.782V167.963C206.613 165.817 208.357 164.073 210.504 164.073H266.98C269.126 164.073 270.87 165.817 270.87 167.963V213.782C270.87 215.928 269.126 217.672 266.98 217.672ZM210.504 164.803C208.76 164.803 207.359 166.219 207.359 167.948V213.767C207.359 215.511 208.775 216.912 210.504 216.912H266.98C268.723 216.912 270.125 215.496 270.125 213.767V167.948C270.125 166.204 268.709 164.803 266.98 164.803H210.504Z" fill="#E2209E"/>
<path d="M270.497 174.655H206.971C206.763 174.655 206.599 174.491 206.599 174.283C206.599 174.074 206.763 173.91 206.971 173.91H270.497C270.706 173.91 270.87 174.074 270.87 174.283C270.87 174.491 270.706 174.655 270.497 174.655Z" fill="#E2209E"/>
<path d="M263.044 171.854C262.954 171.854 262.88 171.824 262.805 171.764C262.656 171.63 262.626 171.391 262.76 171.242L266.144 167.263C266.278 167.114 266.517 167.084 266.666 167.218C266.815 167.352 266.845 167.591 266.71 167.74L263.327 171.719C263.252 171.809 263.148 171.854 263.044 171.854Z" fill="#E2209E"/>
<path d="M266.428 171.852C266.323 171.852 266.219 171.807 266.144 171.718L262.761 167.738C262.627 167.574 262.642 167.351 262.806 167.217C262.97 167.082 263.193 167.097 263.327 167.261L266.711 171.241C266.845 171.405 266.83 171.628 266.666 171.763C266.592 171.822 266.517 171.852 266.428 171.852Z" fill="#E2209E"/>
<path d="M88.9814 175.357L101.517 187.848L114.097 168.024L107.017 160.72L88.9814 175.357Z" fill="#FD8753"/>
<path d="M95.6137 142.043C94.3319 141.595 88.8468 147.781 88.176 148.109C87.5053 148.437 89.0703 153.311 87.5947 153.654C86.1191 153.997 83.4362 153.4 81.2749 153.937C79.2478 154.429 56.4129 174.417 52.4929 178.859C52.165 179.231 52.2246 179.813 52.627 180.14C53.5213 180.886 55.2652 182.227 57.3669 183.39C59.6325 184.657 62.3452 185.7 64.8195 185.521C70.6922 185.104 79.054 179.708 83.302 179.142C87.55 178.575 94.3021 180.245 95.2113 178.024C96.1205 175.818 95.9417 169.438 100.801 166.159C105.66 162.88 108.611 162.195 108.879 160.093C109.058 158.677 103.499 151.12 99.4891 146.246C97.5663 143.906 96.0162 142.177 95.5988 142.028L95.6137 142.043Z" fill="#E2209E"/>
<path d="M95.6137 142.043C94.3319 141.595 88.8468 147.781 88.176 148.109C87.5053 148.437 89.0703 153.311 87.5947 153.654C86.1191 153.997 83.4362 153.4 81.2749 153.937C79.2478 154.429 56.4129 174.417 52.4929 178.859C52.165 179.231 52.2246 179.813 52.627 180.14C53.5213 180.886 55.2652 182.227 57.3669 183.39L99.504 146.246C97.5812 143.906 96.0311 142.177 95.6137 142.028V142.043Z" fill="white"/>
<path d="M145.681 245.574L143.072 253.011L128.227 257.766L121.117 254.576L124.903 237.525L145.681 245.574Z" fill="#FD8753"/>
<path d="M119.045 127.897C119.045 127.897 116.376 141.252 115.124 152.595C113.872 163.938 111.845 179.171 111.845 179.171C111.845 179.171 102.53 214.094 124.917 217.18C152.671 221.01 151.255 188.1 151.255 188.1L142.908 119.237L119.059 127.897H119.045Z" fill="#FFB700"/>
<path d="M88.563 181.049L111.532 161.24L118.373 170.884L120.222 215.957C120.222 215.957 110.235 214.616 88.563 181.049Z" fill="#FFB700"/>
<path d="M163.418 124.768C163.418 124.768 172.674 161.688 169.753 188.905C166.817 216.137 153.327 249.51 153.327 249.51L117.301 242.803L129.345 202.454L138.049 126.572L163.448 124.768H163.418Z" fill="#FFB700"/>
<path d="M117.509 276.114C118.165 277.307 126.378 276.383 127.093 276.577C127.809 276.77 129.911 272.12 131.237 272.835C132.564 273.566 134.173 275.801 136.126 276.86C137.959 277.843 168.306 278.276 174.194 277.605C174.686 277.545 175.029 277.068 174.954 276.562C174.775 275.414 174.388 273.238 173.613 270.987C172.778 268.528 171.451 265.949 169.499 264.414C164.863 260.792 155.041 259.197 151.493 256.782C147.946 254.353 144.056 248.599 141.894 249.643C139.748 250.671 135.604 255.545 129.806 254.725C123.993 253.906 121.34 252.445 119.745 253.816C118.672 254.74 117.733 264.086 117.45 270.391C117.316 273.417 117.316 275.742 117.524 276.129L117.509 276.114Z" fill="#E2209E"/>
<path d="M126.93 217.657C125.648 217.657 124.858 217.553 124.828 217.553C124.619 217.523 124.485 217.33 124.515 217.136C124.545 216.927 124.724 216.793 124.932 216.823C125.066 216.838 137.915 218.582 146.575 207.149C158.603 191.29 150.39 145.74 150.316 145.278C150.301 145.173 150.316 145.069 150.39 144.979C150.45 144.89 150.554 144.845 150.659 144.83L162.896 143.847C163.105 143.847 163.283 143.981 163.298 144.19C163.313 144.398 163.164 144.577 162.956 144.592L151.121 145.546C151.985 150.42 158.916 192.095 147.171 207.596C140.374 216.569 131.043 217.657 126.915 217.657H126.93Z" fill="#E2209E"/>
<path d="M120.998 177.324C120.849 177.324 120.685 177.294 120.536 177.249C117.525 176.295 113.873 165.742 113.456 164.55C113.396 164.386 113.456 164.207 113.605 164.118C113.754 164.028 113.933 164.043 114.067 164.162C114.425 164.49 122.712 172.39 122.503 175.788C122.474 176.325 122.25 176.742 121.848 177.026C121.579 177.219 121.296 177.309 120.998 177.309V177.324ZM114.708 165.832C116.094 169.573 118.822 175.937 120.76 176.549C121.013 176.623 121.222 176.593 121.415 176.444C121.639 176.28 121.743 176.072 121.758 175.759C121.892 173.567 117.436 168.589 114.708 165.832Z" fill="#E2209E"/>
<path d="M121.042 143.012C120.908 143.012 120.774 142.937 120.714 142.803C120.625 142.624 120.714 142.401 120.893 142.311C125.663 139.986 128.867 133.934 128.897 133.875C128.987 133.696 129.225 133.621 129.404 133.711C129.583 133.8 129.657 134.024 129.568 134.218C129.434 134.471 126.229 140.552 121.236 142.982C121.176 143.012 121.132 143.027 121.072 143.027L121.042 143.012Z" fill="#E2209E"/>
<path d="M117.509 276.116C118.165 277.308 126.378 276.384 127.093 276.578C127.809 276.772 129.911 272.121 131.237 272.837C132.564 273.567 134.173 275.803 136.126 276.861C137.959 277.845 168.306 278.277 174.194 277.606C174.686 277.547 175.029 277.07 174.954 276.563C174.775 275.415 174.388 273.239 173.613 270.988L117.45 270.392C117.316 273.418 117.316 275.743 117.524 276.131L117.509 276.116Z" fill="white"/>
<path d="M126.021 77.9799C126.021 77.9799 109.253 81.587 103.648 99.6372C98.0289 117.687 120.67 136.722 120.67 136.722L163.418 124.767C163.418 124.767 158.291 78.4122 153.163 73.7766C148.036 69.1411 126.006 77.9799 126.006 77.9799H126.021Z" fill="#7E59D8"/>
<path d="M138.854 67.9785C138.854 67.9785 141.134 50.6735 163.418 46.4404C185.701 42.2073 199.041 69.8863 199.041 69.8863L133.414 81.9L138.854 67.9635V67.9785Z" fill="#7E59D8"/>
<path d="M137.229 60.4067C137.229 60.4067 144.354 55.4731 141.582 50.778C138.809 46.0977 131.908 50.1966 131.908 50.1966C131.908 50.1966 129.508 47.4541 125.737 49.2874C121.966 51.1208 121.191 56.1587 121.191 56.1587C121.191 56.1587 117.495 55.8159 116.973 60.3173C116.451 64.8038 121.027 69.1561 121.027 69.1561L137.214 60.4216L137.229 60.4067Z" fill="#5E1DBB"/>
<path d="M124.53 71.8833L123.859 80.4687C123.859 80.4687 125.216 83.0622 130.194 83.8522C133.906 84.4484 135.217 82.0785 135.217 82.0785L135.098 79.321L134.919 75.0432L126.006 72.3454L124.515 71.8833H124.53Z" fill="#FD8753"/>
<path d="M126.02 72.3301C126.02 72.5686 126.095 72.8518 126.199 73.1797C127.779 77.6214 132.966 78.948 135.098 79.3206L134.919 75.0428L126.005 72.345L126.02 72.3301Z" fill="black"/>
<path d="M138.377 55.6223C138.377 55.6223 142.043 66.7267 139.793 72.5695C137.557 78.4124 132.176 76.9517 129.016 75.491C125.856 74.0302 124.53 71.8839 124.53 71.8839C124.53 71.8839 121.385 72.6292 119.611 69.6034C117.837 66.5776 119.402 63.4326 121.206 62.8513C123.024 62.27 124.977 63.7158 124.977 63.7158L123.65 60.4665C123.65 60.4665 131.967 45.3526 138.392 55.6372L138.377 55.6223Z" fill="#FD8753"/>
<path d="M124.321 68.3508C124.232 68.3508 124.157 68.321 124.083 68.2614L120.431 65.176C120.267 65.0418 120.252 64.8034 120.386 64.6543C120.521 64.4904 120.759 64.4754 120.908 64.6096L124.56 67.695C124.724 67.8291 124.739 68.0676 124.605 68.2167C124.53 68.3061 124.426 68.3508 124.321 68.3508Z" fill="black"/>
<path d="M120.788 68.0229C120.61 68.0229 120.46 67.8888 120.416 67.7099C120.386 67.5012 120.52 67.3075 120.714 67.2777L123.307 66.8156C123.501 66.7709 123.71 66.9199 123.74 67.1137C123.769 67.3224 123.635 67.5161 123.442 67.546L120.848 68.008C120.848 68.008 120.803 68.008 120.788 68.008V68.0229Z" fill="black"/>
<path d="M130.85 59.6159C130.761 59.6159 130.671 59.5861 130.597 59.5265C130.448 59.3923 130.433 59.1539 130.567 59.0048C131.864 57.5739 133.414 57.9763 134.04 58.3937C134.219 58.5129 134.264 58.7365 134.144 58.9154C134.04 59.0942 133.801 59.139 133.623 59.0197C133.563 58.975 132.281 58.1999 131.104 59.5116C131.029 59.5861 130.925 59.6308 130.82 59.6308L130.85 59.6159Z" fill="black"/>
<path d="M139.211 59.8709C139.122 59.8709 139.033 59.8411 138.958 59.7666C138.123 58.9617 137.125 59.4238 137.11 59.4387C136.931 59.5281 136.707 59.4536 136.618 59.2747C136.528 59.0959 136.618 58.8723 136.782 58.7828C136.841 58.753 138.257 58.0823 139.465 59.2449C139.614 59.394 139.614 59.6175 139.465 59.7666C139.39 59.8411 139.301 59.8858 139.197 59.8858L139.211 59.8709Z" fill="black"/>
<path d="M136.856 68.828C136.856 68.828 136.767 68.828 136.722 68.7982C136.528 68.7237 136.439 68.515 136.514 68.3212C137.661 65.3551 135.858 63.477 135.783 63.4025C135.634 63.2535 135.634 63.015 135.783 62.8808C135.932 62.7318 136.156 62.7318 136.305 62.8808C136.394 62.9703 138.541 65.1613 137.214 68.6044C137.154 68.7535 137.02 68.8429 136.871 68.8429L136.856 68.828Z" fill="black"/>
<path d="M138.854 63.9841C138.675 63.9841 138.526 63.8648 138.482 63.686L138.094 61.6738C138.049 61.4651 138.183 61.2713 138.392 61.2415C138.601 61.1968 138.795 61.3309 138.824 61.5396L139.212 63.5518C139.257 63.7605 139.123 63.9543 138.914 63.9841C138.884 63.9841 138.869 63.9841 138.839 63.9841H138.854Z" fill="black"/>
<path d="M133.413 63.6706C133.234 63.6706 133.085 63.5514 133.041 63.3725L132.653 61.3603C132.608 61.1516 132.743 60.9578 132.951 60.928C133.16 60.8833 133.354 61.0175 133.383 61.2261L133.771 63.2383C133.816 63.447 133.682 63.6408 133.473 63.6706C133.443 63.6706 133.428 63.6706 133.398 63.6706H133.413Z" fill="black"/>
<path d="M139.077 58.1261C139.077 58.1261 138.287 56.3226 136.141 56.1437C133.994 55.9648 132.638 57.3659 132.638 57.3659C132.638 57.3659 133.294 61.0475 130.238 62.7318C127.183 64.4161 124.962 63.7007 124.962 63.7007L122.905 62.7765L121.593 59.5719L128.211 53.4757L136.439 49.9282L140.18 53.893L139.062 58.1112L139.077 58.1261Z" fill="#5E1DBB"/>
<path d="M134.725 71.1674C134.502 71.1674 132.445 71.1078 131.685 69.1105C131.61 68.9167 131.715 68.7081 131.908 68.6335C132.102 68.559 132.311 68.6634 132.385 68.8571C132.982 70.4371 134.651 70.4222 134.725 70.4371C134.904 70.4371 135.098 70.601 135.098 70.8097C135.098 71.0184 134.934 71.1823 134.725 71.1823H134.711L134.725 71.1674Z" fill="black"/>
<path d="M238.839 64.416H164.283C160.389 64.416 157.232 67.5725 157.232 71.4662V199.487C157.232 203.381 160.389 206.538 164.283 206.538H238.839C242.732 206.538 245.889 203.381 245.889 199.487V71.4662C245.889 67.5725 242.732 64.416 238.839 64.416Z" fill="white"/>
<path d="M232.996 64.416H158.44C154.546 64.416 151.39 67.5725 151.39 71.4662V199.487C151.39 203.381 154.546 206.538 158.44 206.538H232.996C236.89 206.538 240.046 203.381 240.046 199.487V71.4662C240.046 67.5725 236.89 64.416 232.996 64.416Z" fill="#352F75"/>
<path d="M143.415 101.262C143.415 101.262 154.147 95.5681 157.411 95.0762C160.66 94.5844 166.235 98.1616 166.235 98.1616L163.433 99.7863C163.433 99.7863 167.83 109.385 167.01 110.846C166.19 112.307 164.089 110.846 164.089 110.846C164.089 110.846 159.051 116.048 157.575 116.212C156.114 116.376 148.304 113.29 148.304 113.29L143.43 101.247L143.415 101.262Z" fill="#FD8753"/>
<path d="M144.876 98.9815L121.609 107.284L123.994 78.5762C123.994 78.5762 106.152 84.0166 101.442 102.41C96.7323 120.788 103.559 135.425 118.196 136.736C132.833 138.033 152.687 117.538 152.687 117.538L144.876 98.9964V98.9815Z" fill="#7E59D8"/>
<path d="M187.072 57.4701C187.072 57.4701 184.479 53.088 182.079 56.7547C179.679 60.4214 181.736 70.8699 183.674 71.3618C185.775 71.8835 187.072 67.8889 187.072 67.8889C187.072 67.8889 187.475 71.3022 189.666 71.3618C191.872 71.4214 192.87 67.8889 192.87 67.8889C192.87 67.8889 193.958 71.8835 195.866 71.3618C197.968 70.7954 199.071 57.4701 195.061 56.0839C193.139 55.4132 192.065 57.4701 192.065 57.4701C192.065 57.4701 191.32 54.9362 189.114 55.2642C186.908 55.5921 187.057 57.4701 187.057 57.4701H187.072Z" fill="#FD8753"/>
<path d="M228.464 142.342H162.955V148.14H228.464V142.342Z" fill="#7E59D8"/>
<path d="M228.464 154.638H162.955V160.436H228.464V154.638Z" fill="#7E59D8"/>
<path d="M228.464 167.501H162.955V173.299H228.464V167.501Z" fill="#7E59D8"/>
<path d="M208.119 86.9536H183.287C181.229 86.9536 179.561 88.6219 179.561 90.6799V115.512C179.561 117.57 181.229 119.238 183.287 119.238H208.119C210.177 119.238 211.845 117.57 211.845 115.512V90.6799C211.845 88.6219 210.177 86.9536 208.119 86.9536Z" fill="#07CBF5"/>
<path d="M208.968 106.077C209.191 105.123 209.296 104.124 209.296 103.096C209.296 102.007 209.177 100.964 208.923 99.9505H207L205.853 97.1931L207.224 95.8963C206.151 94.1673 204.69 92.7066 202.961 91.6185L201.471 93.0345L198.758 91.8719L198.847 89.8746C197.834 89.6361 196.79 89.502 195.702 89.502C194.719 89.502 193.765 89.6063 192.826 89.8001V91.9613L190.113 93.1388L188.548 91.5291C186.834 92.5873 185.358 94.0331 184.27 95.7323L185.79 97.1782L184.643 99.9058L182.466 99.9356C182.228 100.949 182.094 102.007 182.094 103.081C182.094 104.109 182.213 105.108 182.422 106.077H184.643L185.79 108.834L184.195 110.354C185.283 112.068 186.729 113.514 188.443 114.587L190.113 112.873L192.826 114.051V116.376C193.75 116.57 194.719 116.674 195.702 116.674C196.79 116.674 197.849 116.54 198.847 116.302L198.758 114.14L201.471 112.978L203.065 114.498C204.78 113.395 206.225 111.919 207.284 110.176L205.853 108.819L207 106.091H208.953L208.968 106.077ZM195.717 109.669C192.08 109.669 189.114 106.718 189.114 103.066C189.114 99.4139 192.065 96.4627 195.717 96.4627C199.369 96.4627 202.32 99.4139 202.32 103.066C202.32 106.718 199.369 109.669 195.717 109.669Z" fill="white"/>
<path d="M163.418 99.8014L171.199 95.0317L173.181 99.0114L165.132 103.811L163.418 99.8014Z" fill="white"/>
<path d="M175.67 100.337C174 100.337 172.033 99.8303 171.123 98.0119C169.737 95.2544 171.6 91.8858 171.809 91.5132L174.388 93.0037C174.045 93.5999 173.21 95.5525 173.777 96.6853C174.179 97.4902 175.938 97.4157 176.683 97.2666L177.309 100.188C176.847 100.292 176.281 100.352 175.67 100.352V100.337Z" fill="white"/>
<path d="M163.417 100.174C163.298 100.174 163.194 100.114 163.119 100.025L161.122 97.2378C161.003 97.0738 161.048 96.8353 161.211 96.7161C161.375 96.5968 161.614 96.6266 161.733 96.8055L163.73 99.5928C163.85 99.7567 163.805 99.9952 163.641 100.114C163.581 100.159 163.507 100.189 163.417 100.189V100.174Z" fill="black"/>
<path d="M164.073 111.233C163.954 111.233 163.85 111.174 163.775 111.084L162.643 109.489C162.523 109.325 162.568 109.087 162.732 108.968C162.896 108.849 163.134 108.893 163.254 109.057L164.386 110.652C164.506 110.816 164.461 111.054 164.297 111.174C164.237 111.218 164.148 111.248 164.073 111.248V111.233Z" fill="black"/>
<path d="M187.072 67.7996C186.864 67.7996 186.7 67.6357 186.7 67.427V57.4703C186.7 57.2616 186.864 57.0977 187.072 57.0977C187.281 57.0977 187.445 57.2616 187.445 57.4703V67.427C187.445 67.6357 187.281 67.7996 187.072 67.7996Z" fill="black"/>
<path d="M192.871 68.2612C192.677 68.2612 192.513 68.1122 192.498 67.9184L191.693 57.4997C191.679 57.291 191.828 57.1121 192.036 57.0972C192.23 57.0823 192.424 57.2314 192.439 57.44L193.244 67.8588C193.258 68.0675 193.109 68.2463 192.901 68.2612H192.871Z" fill="black"/>
<path d="M131.162 84.24C127.332 84.24 123.754 80.8714 123.605 80.7223C123.456 80.5733 123.456 80.3497 123.605 80.2007C123.754 80.0516 123.978 80.0516 124.127 80.2007C124.142 80.2156 125.811 81.7955 128.002 82.7495C130.849 84.0015 133.19 83.6885 134.978 81.8104C135.127 81.6614 135.351 81.6614 135.5 81.8104C135.649 81.9446 135.649 82.1831 135.5 82.3321C134.337 83.5543 132.936 84.2102 131.326 84.24C131.267 84.24 131.222 84.24 131.162 84.24Z" fill="white"/>
<path d="M115.96 108.059C115.811 108.059 115.676 107.97 115.617 107.835C115.542 107.642 115.617 107.433 115.811 107.344C125.752 103.14 139.972 100.01 140.121 99.9803C140.33 99.9356 140.523 100.07 140.568 100.264C140.613 100.457 140.479 100.666 140.285 100.711C140.136 100.74 125.991 103.856 116.109 108.029C116.064 108.044 116.004 108.059 115.96 108.059Z" fill="white"/>
<path d="M121.012 104.929C118.001 104.929 114.767 104.706 114.409 103.796C114.32 103.573 114.32 103.215 114.812 102.813C117.36 100.726 124.724 103.99 125.037 104.124C125.201 104.199 125.29 104.363 125.245 104.527C125.216 104.691 125.066 104.825 124.903 104.825C123.919 104.87 122.488 104.929 121.012 104.929ZM117.316 102.843C116.481 102.843 115.766 102.992 115.289 103.379C115.14 103.513 115.11 103.573 115.11 103.573C115.453 104.065 119.253 104.259 123.129 104.154C121.415 103.528 119.089 102.857 117.316 102.857V102.843Z" fill="white"/>
<path d="M161.092 64.7881C160.928 64.7881 160.794 64.6837 160.735 64.5347C160.586 64.0875 159.289 60.1078 160.183 58.6024C160.377 58.2745 160.675 58.0658 161.018 57.9913C161.465 57.9018 161.763 58.0956 161.912 58.2745C162.896 59.3775 161.689 63.6702 161.435 64.5198C161.391 64.6688 161.241 64.7881 161.078 64.7881H161.092ZM161.241 58.7216C161.241 58.7216 161.197 58.7216 161.167 58.7216C161.018 58.7514 160.914 58.826 160.824 58.975C160.377 59.7203 160.72 61.6133 161.078 63.0144C161.51 61.2406 161.793 59.2284 161.361 58.7664C161.346 58.7365 161.316 58.7067 161.227 58.7067L161.241 58.7216Z" fill="white"/>
<path d="M133.86 132.579C133.726 132.579 133.592 132.504 133.533 132.37C133.443 132.191 133.518 131.968 133.696 131.863C133.801 131.804 144.13 126.542 149.854 119.76C149.988 119.611 150.226 119.581 150.375 119.716C150.539 119.85 150.554 120.088 150.42 120.237C144.607 127.138 134.144 132.474 134.039 132.534C133.98 132.564 133.935 132.579 133.875 132.579H133.86Z" fill="white"/>
<g opacity="0.5">
<rect x="2.68522" y="25.3766" width="289.825" height="289.825" rx="37.5" transform="rotate(-4.41971 2.68522 25.3766)" stroke="#8B5CF6" stroke-width="5"/>
<rect x="33.0673" y="2.69126" width="289.825" height="289.825" rx="37.5" transform="rotate(4.57044 33.0673 2.69126)" stroke="#8B5CF6" stroke-width="5"/>
</g>
</svg>
