<svg width="326" height="318" viewBox="0 0 326 318" fill="none" xmlns="http://www.w3.org/2000/svg">
<path d="M186.097 59.003V131.532C186.097 133.735 184.571 135.535 182.684 135.535H74.0271C72.1552 135.535 70.6289 133.735 70.6289 131.532V59.003C70.6289 56.7999 72.1552 55 74.0271 55H182.684C184.571 55 186.097 56.7999 186.097 59.003Z" fill="#352F75"/>
<path d="M186.098 59.003V63.2508H70.6157V59.003C70.6157 56.7999 72.1421 55 74.014 55H182.671C184.557 55 186.084 56.7999 186.084 59.003H186.098Z" fill="white"/>
<path d="M91.5231 59.1185C91.5231 60.1984 90.6447 61.0768 89.5647 61.0768C88.4848 61.0768 87.6064 60.1984 87.6064 59.1185C87.6064 58.0385 88.4848 57.1602 89.5647 57.1602C90.6447 57.1602 91.5231 58.0385 91.5231 59.1185Z" fill="#FFB700"/>
<path d="M85.2442 59.1185C85.2442 60.1984 84.3659 61.0768 83.286 61.0768C82.206 61.0768 81.3276 60.1984 81.3276 59.1185C81.3276 58.0385 82.206 57.1602 83.286 57.1602C84.3659 57.1602 85.2442 58.0385 85.2442 59.1185Z" fill="#07CBF5"/>
<path d="M78.9669 59.1185C78.9669 60.1984 78.0885 61.0768 77.0086 61.0768C75.9286 61.0768 75.0503 60.1984 75.0503 59.1185C75.0503 58.0385 75.9286 57.1602 77.0086 57.1602C78.0885 57.1602 78.9669 58.0385 78.9669 59.1185Z" fill="#5E1DBB"/>
<path d="M173.167 88.4512H116.39V93.1453H173.167V88.4512Z" fill="#5E1DBB"/>
<path d="M173.167 78.5425H116.39V83.2367H173.167V78.5425Z" fill="#5E1DBB"/>
<path d="M173.167 98.0684H116.39V102.763H173.167V98.0684Z" fill="#5E1DBB"/>
<path d="M110.819 77.7642H84.7271V103.856H110.819V77.7642Z" fill="#2E2865"/>
<path d="M171.397 222.824C171.397 222.824 172.721 238.879 172.246 239.455C171.771 240.031 133.613 251.363 133.613 251.363L138.71 228.123L147.206 212.442L171.382 222.838L171.397 222.824Z" fill="#E5E1F4"/>
<path d="M249.223 221.083H190.618C187.437 221.083 184.858 223.661 184.858 226.842V250.342C184.858 253.523 187.437 256.102 190.618 256.102H249.223C252.404 256.102 254.983 253.523 254.983 250.342V226.842C254.983 223.661 252.404 221.083 249.223 221.083Z" fill="#2E2865"/>
<path d="M216.48 134.081C216.48 134.081 207.913 132.339 201.865 137.508C195.817 142.677 192.419 182.088 192.419 182.088C192.419 182.088 212.679 193.046 229.944 193.046C247.208 193.046 245.682 192.254 245.682 192.254L249.699 176.256L216.48 134.066V134.081Z" fill="#5E1DBB"/>
<path d="M243.939 221.083H185.334C182.153 221.083 179.574 223.661 179.574 226.842V250.342C179.574 253.523 182.153 256.102 185.334 256.102H243.939C247.12 256.102 249.699 253.523 249.699 250.342V226.842C249.699 223.661 247.12 221.083 243.939 221.083Z" fill="#3E3789"/>
<path d="M167.06 113.518C167.06 113.518 164.584 107.211 163.259 109.011C161.934 110.811 164.324 120.285 164.324 120.285C164.324 120.285 169.983 121.178 167.06 113.532V113.518Z" fill="#FD8753"/>
<path d="M204.14 111.358H178.826C177.911 111.358 177.17 112.099 177.17 113.014V138.328C177.17 139.242 177.911 139.984 178.826 139.984H204.14C205.054 139.984 205.796 139.242 205.796 138.328V113.014C205.796 112.099 205.054 111.358 204.14 111.358Z" fill="white"/>
<path d="M189.669 131.662C193.796 131.662 197.142 128.316 197.142 124.189C197.142 120.062 193.796 116.716 189.669 116.716C185.541 116.716 182.195 120.062 182.195 124.189C182.195 128.316 185.541 131.662 189.669 131.662Z" fill="#07CBF5"/>
<path d="M194.779 124.276L197.774 129.46L200.769 134.643H194.779H188.789L191.784 129.46L194.779 124.276Z" fill="#E2209E"/>
<path d="M172.993 137.694C172.993 137.694 179.041 132.021 178.753 129.011C178.465 126.002 177.054 119.249 177.054 119.249C177.054 119.249 183 113.071 182.727 111.747C182.439 110.422 177.874 112.495 177.874 112.495C177.874 112.495 182.756 107.672 182.741 105.785C182.727 103.899 180.178 104.835 180.178 104.835C180.178 104.835 180.553 102.661 179.041 102.848C177.529 103.035 168.083 109.558 165.347 113.043C162.611 116.542 165.534 125.469 165.347 126.722C165.16 127.975 163.273 130.523 163.273 130.523L173.007 137.68L172.993 137.694Z" fill="#FD8753"/>
<path d="M162.036 126.737L180.179 135.794C180.179 135.794 177.717 142.907 183.39 144.98C189.063 147.054 195.673 137.781 203.232 135.419C210.792 133.072 216.868 134.599 216.868 134.599L213.269 166.047C213.269 166.047 179.315 184.089 162.885 172.181C146.456 160.273 162.05 126.722 162.05 126.722L162.036 126.737Z" fill="#5E1DBB"/>
<path d="M164.253 116.527C164.008 116.498 163.864 116.311 163.893 116.124C163.908 116.023 164.268 113.503 165.794 112.02C165.938 111.876 166.168 111.891 166.298 112.02C166.442 112.164 166.428 112.395 166.298 112.524C164.959 113.834 164.613 116.196 164.613 116.21C164.584 116.383 164.44 116.527 164.253 116.527Z" fill="black"/>
<path d="M172.244 111.719C172.144 111.719 172.043 111.676 171.971 111.59C171.841 111.431 171.87 111.215 172.028 111.086L179.962 104.563C180.121 104.433 180.337 104.462 180.466 104.606C180.596 104.764 180.567 104.98 180.409 105.11L172.475 111.633C172.475 111.633 172.331 111.719 172.244 111.719Z" fill="black"/>
<path d="M175.255 114.569C175.139 114.569 175.024 114.512 174.952 114.411C174.837 114.238 174.895 114.022 175.053 113.907L177.659 112.193C177.832 112.078 178.048 112.136 178.163 112.294C178.278 112.467 178.221 112.683 178.062 112.798L175.456 114.512C175.456 114.512 175.327 114.569 175.255 114.569Z" fill="black"/>
<path d="M122.495 227.575C122.495 227.575 94.5747 242.564 91.0037 244.609C87.4327 246.654 85.2728 253.133 86.6983 254.329C88.1095 255.524 134.158 255.005 137.744 254.329C141.329 253.652 143.878 236.934 143.878 236.934L122.495 227.575Z" fill="white"/>
<path d="M113.482 235.423C113.482 235.423 113.395 235.423 113.352 235.394C112.949 235.236 103.402 231.564 104.18 225.919C104.295 225.041 104.655 224.523 105.217 224.393C106.613 224.062 108.96 226.524 110.775 228.771C109.522 225.991 108.226 222.363 108.975 220.693C109.191 220.203 109.594 219.886 110.112 219.771C110.616 219.656 111.12 219.771 111.581 220.102C114.331 222.089 115.368 231.953 115.411 232.385C115.426 232.586 115.282 232.759 115.094 232.774C114.878 232.802 114.72 232.644 114.706 232.457C114.418 229.692 113.223 222.176 111.163 220.693C110.875 220.477 110.587 220.405 110.271 220.477C109.968 220.549 109.767 220.707 109.637 220.995C108.716 223.04 111.869 229.606 113.165 231.967C113.251 232.14 113.208 232.342 113.035 232.442C112.877 232.543 112.661 232.5 112.546 232.342C110.343 229.145 106.7 224.811 105.389 225.099C105.087 225.171 104.957 225.646 104.9 226.02C104.209 231.103 113.525 234.689 113.611 234.732C113.799 234.804 113.885 235.005 113.813 235.193C113.755 235.337 113.626 235.423 113.482 235.423Z" fill="#FFB700"/>
<path d="M202.21 173.377C202.21 173.377 174.506 148.524 158.595 152.498C142.684 156.472 141.474 173.074 138.637 191.779C135.801 210.484 134.922 224.149 134.922 224.149L172.994 224.898L175.255 192.211L215.933 179.554L202.196 173.362L202.21 173.377Z" fill="#9364ED"/>
<path d="M245.681 192.254C245.681 192.254 243.219 212.6 234.795 218.648C226.372 224.695 211.886 222.809 197.818 215.134C183.966 207.575 179.891 204.781 178.307 204.781C176.723 204.781 149.292 242.795 149.292 242.795L117.268 226.063C117.268 226.063 141.675 167.084 161.906 162.721C181.475 158.502 225.436 186.177 225.436 186.177L245.695 192.254H245.681Z" fill="#AE8FF9"/>
<path d="M229.942 110.609C229.942 110.609 241.419 107.528 245.58 115.303C249.741 123.079 246.156 154.628 246.156 154.628L228.531 143.036L228.906 127.399L229.957 110.609H229.942Z" fill="white"/>
<path d="M206.774 151.475L193.339 163.412C193.339 163.412 212.433 193.42 239.648 188.625C266.848 183.845 254.882 158.646 250.346 151.849C243.291 141.266 234.651 135.233 226.904 134.685C219.157 134.153 206.76 151.475 206.76 151.475H206.774Z" fill="#5E1DBB"/>
<path d="M226.918 128.566L226.702 136.918C226.702 136.918 225.133 139.279 220.237 139.553C216.594 139.754 215.485 137.853 215.485 137.853L216.551 130.567L225.421 128.854L226.904 128.566H226.918Z" fill="#FD8753"/>
<path d="M225.421 128.854C225.392 129.085 225.306 129.344 225.162 129.661C223.189 133.793 218.049 134.557 215.946 134.701L216.551 130.582L225.421 128.869V128.854Z" fill="black"/>
<path d="M215.169 111.488C215.169 111.488 210.518 121.856 212.102 127.716C213.686 133.577 219.028 132.713 222.225 131.619C225.421 130.524 226.919 128.58 226.919 128.58C226.919 128.58 229.885 129.617 231.901 126.867C233.917 124.117 232.722 120.92 231.037 120.186C229.338 119.437 227.308 120.646 227.308 120.646L228.92 117.637C228.92 117.637 222.397 102.201 215.169 111.503V111.488Z" fill="#FD8753"/>
<path d="M221.375 117.062C221.245 117.062 221.13 116.99 221.058 116.875C220.799 116.4 220.453 116.112 220.065 116.011C219.374 115.838 218.682 116.256 218.682 116.256C218.51 116.356 218.293 116.313 218.193 116.14C218.092 115.968 218.135 115.752 218.308 115.651C218.351 115.622 219.258 115.075 220.237 115.32C220.842 115.478 221.317 115.881 221.692 116.529C221.793 116.702 221.735 116.918 221.562 117.019C221.505 117.048 221.447 117.062 221.389 117.062H221.375Z" fill="black"/>
<path d="M213.685 116.082C213.685 116.082 213.584 116.082 213.541 116.053C213.354 115.967 213.282 115.751 213.368 115.578C213.512 115.276 213.728 115.074 214.031 114.988C214.736 114.786 215.6 115.362 215.701 115.434C215.859 115.549 215.903 115.765 215.787 115.938C215.672 116.111 215.456 116.14 215.283 116.025C215.067 115.881 214.52 115.593 214.218 115.679C214.16 115.693 214.074 115.737 214.016 115.866C213.959 115.996 213.829 116.082 213.685 116.082Z" fill="black"/>
<path d="M221.03 119.265C220.915 119.265 220.8 119.208 220.728 119.093C220.598 118.877 220.425 118.761 220.238 118.733C219.792 118.661 219.245 119.035 219.072 119.179C218.914 119.309 218.698 119.294 218.568 119.136C218.438 118.977 218.453 118.761 218.611 118.632C218.698 118.56 219.504 117.897 220.353 118.027C220.757 118.085 221.102 118.329 221.347 118.718C221.448 118.891 221.405 119.107 221.232 119.222C221.174 119.265 221.102 119.28 221.045 119.28L221.03 119.265Z" fill="black"/>
<path d="M215.082 119.005C214.952 119.005 214.823 118.933 214.765 118.803C214.707 118.702 214.247 117.896 213.397 118.256C213.21 118.328 213.008 118.256 212.922 118.069C212.85 117.882 212.922 117.68 213.109 117.594C214.319 117.075 215.139 117.954 215.399 118.486C215.485 118.659 215.413 118.875 215.24 118.961C215.183 118.99 215.139 119.005 215.082 119.005Z" fill="black"/>
<path d="M215.486 124.087C215.299 124.087 215.141 123.943 215.126 123.756C214.939 121.639 216.105 119.191 216.163 119.09C216.249 118.918 216.465 118.831 216.638 118.918C216.811 119.004 216.897 119.22 216.811 119.393C216.811 119.422 215.673 121.769 215.846 123.684C215.861 123.885 215.717 124.058 215.515 124.073H215.486V124.087Z" fill="black"/>
<path d="M218.035 127.097C217.876 127.097 217.718 126.982 217.689 126.824C217.646 126.636 217.761 126.435 217.963 126.392C217.977 126.392 219.835 125.945 220.367 124.62C220.439 124.433 220.655 124.347 220.843 124.419C221.03 124.491 221.116 124.707 221.044 124.894C220.382 126.564 218.222 127.083 218.136 127.097C218.107 127.097 218.078 127.097 218.049 127.097H218.035Z" fill="black"/>
<path d="M227.625 125.125C227.524 125.125 227.423 125.082 227.351 124.996C227.222 124.837 227.25 124.621 227.409 124.492L230.778 121.756C230.937 121.626 231.153 121.655 231.282 121.814C231.412 121.972 231.383 122.188 231.225 122.318L227.855 125.053C227.855 125.053 227.711 125.14 227.625 125.14V125.125Z" fill="black"/>
<path d="M230.995 125.125C230.995 125.125 230.88 125.125 230.837 125.082L228.735 124.045C228.562 123.959 228.49 123.743 228.576 123.556C228.663 123.383 228.879 123.311 229.051 123.397L231.154 124.434C231.326 124.521 231.398 124.737 231.312 124.909C231.254 125.039 231.125 125.111 230.995 125.111V125.125Z" fill="black"/>
<path d="M227.308 120.633C227.308 120.633 223.651 120.23 221.376 117.206C219.101 114.182 218.035 111.101 218.035 111.101C218.035 111.101 216.48 111.345 215.487 112.569C214.752 113.462 213.888 114.772 213.888 114.772C213.888 114.772 213.845 110.553 215.976 108.509C218.107 106.464 219.936 107.198 219.936 107.198C219.936 107.198 224.616 104.592 229.31 108.826C234.004 113.059 231.715 120.647 231.715 120.647C231.715 120.647 229.324 119.668 227.308 120.647V120.633Z" fill="white"/>
<path d="M205.636 131.288C205.636 131.288 205.766 127.746 204.628 126.522C203.491 125.298 202.627 127.141 202.627 127.141C202.627 127.141 201.619 123.685 200.481 124.736C199.344 125.773 198.969 128.178 198.969 128.178C198.969 128.178 196.968 126.68 196.205 129.646C195.441 132.613 195.326 136.947 192.432 139.683C189.523 142.418 187.018 148.812 189.163 154.183C191.309 159.539 195.326 159.755 195.326 159.755L202.886 151.792C202.886 151.792 201.432 146.709 203.707 144.895C205.982 143.081 208.458 141.886 208.905 137.695C209.078 136.112 205.651 131.302 205.651 131.302L205.636 131.288ZM204.254 139.582L204.974 135.809C207.234 138.819 204.254 139.582 204.254 139.582Z" fill="#FD8753"/>
<path d="M204.254 139.941C204.254 139.941 204.168 139.941 204.139 139.927C203.952 139.855 203.851 139.653 203.923 139.466C205.032 136.312 205.277 131.33 205.277 131.273C205.277 131.071 205.464 130.898 205.651 130.927C205.853 130.927 206.011 131.1 205.997 131.301C205.997 131.503 205.738 136.442 204.6 139.696C204.542 139.84 204.413 139.941 204.254 139.941Z" fill="black"/>
<path d="M200.669 139.207C200.669 139.207 200.554 139.193 200.496 139.164C200.323 139.063 200.266 138.847 200.352 138.675C202.44 134.945 201.734 126.853 201.72 126.781C201.706 126.579 201.85 126.406 202.051 126.392C202.238 126.392 202.426 126.522 202.44 126.723C202.469 127.069 203.174 135.118 200.986 139.035C200.914 139.15 200.799 139.222 200.669 139.222V139.207Z" fill="black"/>
<path d="M197.17 139.207C197.084 139.207 196.983 139.178 196.911 139.106C196.767 138.962 196.767 138.732 196.911 138.602C198.452 137.061 198.654 130.567 198.596 128.206C198.596 128.004 198.754 127.846 198.941 127.832C199.143 127.832 199.301 127.99 199.316 128.177C199.316 128.537 199.489 137.033 197.415 139.106C197.343 139.178 197.257 139.207 197.156 139.207H197.17Z" fill="black"/>
<path d="M139.933 183.471C139.933 183.471 139.804 183.457 139.746 183.413C139.573 183.313 139.516 183.097 139.616 182.924C139.688 182.794 147.435 169.921 158.105 163.715C169.855 156.875 197.602 170.828 198.769 171.419C198.942 171.505 199.014 171.721 198.927 171.908C198.841 172.081 198.625 172.153 198.438 172.067C198.15 171.923 169.855 157.696 158.451 164.334C147.954 170.454 140.293 183.154 140.221 183.284C140.149 183.399 140.034 183.457 139.919 183.457L139.933 183.471Z" fill="white"/>
<path d="M178.308 205.128C178.308 205.128 178.25 205.128 178.207 205.128C178.092 205.099 178.005 205.012 177.962 204.897C177.717 204.177 175.586 197.841 177.631 196.286C178.092 195.941 178.552 195.984 178.883 196.402C179.949 197.741 179.474 204.264 178.523 205.056C178.466 205.113 178.38 205.142 178.293 205.142L178.308 205.128ZM178.235 196.776C178.235 196.776 178.149 196.805 178.077 196.862C176.983 197.697 177.602 201.24 178.365 203.788C178.797 202.046 179.085 197.784 178.322 196.848C178.293 196.819 178.264 196.79 178.235 196.79V196.776Z" fill="white"/>
<path d="M183.389 153.577C183.044 153.577 182.756 153.433 182.54 153.145C181.345 151.604 182.871 145.585 183.044 144.894C183.13 144.577 183.663 144.577 183.735 144.894C183.908 145.571 185.434 151.59 184.239 153.145C184.023 153.418 183.735 153.577 183.389 153.577ZM183.389 146.564C182.885 148.954 182.497 151.921 183.101 152.713C183.26 152.914 183.505 152.914 183.663 152.713C184.268 151.935 183.893 148.969 183.375 146.564H183.389Z" fill="#FFB700"/>
<path d="M220.267 140.056C216.855 140.056 214.436 137.997 214.393 137.954C214.249 137.824 214.234 137.594 214.364 137.45C214.493 137.306 214.724 137.291 214.868 137.421C215.098 137.623 220.44 142.158 226.445 136.658C226.589 136.528 226.819 136.528 226.949 136.687C227.078 136.831 227.078 137.061 226.92 137.191C224.53 139.365 222.226 140.056 220.239 140.056H220.267Z" fill="#FFB700"/>
<path d="M232.275 160.129C232.275 160.129 232.203 160.129 232.159 160.114C224.902 157.738 208.933 151.907 208.775 151.849C208.588 151.777 208.487 151.575 208.559 151.388C208.631 151.201 208.833 151.1 209.02 151.172C209.178 151.23 225.147 157.062 232.39 159.437C232.577 159.495 232.678 159.697 232.62 159.898C232.577 160.042 232.433 160.143 232.275 160.143V160.129Z" fill="#FFB700"/>
<path d="M238.899 162.173C236.293 162.173 231.454 159.955 230.835 159.667C230.677 159.595 230.605 159.437 230.634 159.264C230.662 159.106 230.806 158.976 230.979 158.976C232.362 158.947 239.374 158.89 240.468 160.445C240.656 160.718 240.699 161.021 240.569 161.338C240.454 161.654 240.209 161.87 239.864 162.014C239.59 162.115 239.259 162.173 238.884 162.173H238.899ZM232.707 159.696C234.997 160.646 238.409 161.827 239.619 161.352C239.82 161.266 239.892 161.165 239.921 161.078C239.964 160.978 239.936 160.92 239.892 160.862C239.331 160.056 235.688 159.739 232.707 159.696Z" fill="#FFB700"/>
<path d="M113.928 151.865H62.3927C61.0103 151.865 59.8872 150.742 59.8872 149.36V124.334C59.8872 122.951 61.0103 121.828 62.3927 121.828H113.928C115.31 121.828 116.433 122.951 116.433 124.334V149.36C116.433 150.742 115.31 151.865 113.928 151.865ZM62.3927 122.562C61.4135 122.562 60.6072 123.369 60.6072 124.348V149.374C60.6072 150.353 61.3991 151.159 62.3927 151.159H113.928C114.907 151.159 115.713 150.353 115.713 149.374V124.348C115.713 123.369 114.921 122.562 113.928 122.562H62.3927Z" fill="#E2209E"/>
<path d="M238.05 199.641C231.541 199.512 229.612 193.205 229.597 193.133C229.54 192.945 229.655 192.744 229.842 192.686C230.029 192.629 230.231 192.744 230.289 192.931C230.361 193.176 232.089 198.806 238.064 198.921C238.266 198.921 238.424 199.094 238.424 199.281C238.424 199.483 238.266 199.641 238.064 199.641H238.05Z" fill="white"/>
<path d="M116.073 127.097H60.2613C60.0598 127.097 59.9014 126.939 59.9014 126.737C59.9014 126.536 60.0598 126.377 60.2613 126.377H116.073C116.275 126.377 116.433 126.536 116.433 126.737C116.433 126.939 116.275 127.097 116.073 127.097Z" fill="#E2209E"/>
<g opacity="0.5">
<rect x="3.01757" y="25.6962" width="289.825" height="289.825" rx="37.5" transform="rotate(-4.53736 3.01757 25.6962)" stroke="#8B5CF6" stroke-width="5"/>
<rect x="33.6737" y="2.69126" width="289.825" height="289.825" rx="37.5" transform="rotate(4.57044 33.6737 2.69126)" stroke="#8B5CF6" stroke-width="5"/>
</g>
</svg>
