<svg width="326" height="318" viewBox="0 0 326 318" fill="none" xmlns="http://www.w3.org/2000/svg">
<g opacity="0.5">
<rect x="3.3469" y="25.3809" width="289.825" height="289.825" rx="37.5" transform="rotate(-4.42128 3.3469 25.3809)" stroke="#8B5CF6" stroke-width="5"/>
<rect x="33.7328" y="2.69126" width="289.825" height="289.825" rx="37.5" transform="rotate(4.57044 33.7328 2.69126)" stroke="#8B5CF6" stroke-width="5"/>
</g>
<path d="M175.455 128.279V172.581C175.455 173.935 176.706 175.02 178.251 175.02H267.163C268.695 175.02 269.947 173.922 269.947 172.581V128.279C269.947 126.925 268.695 125.839 267.163 125.839H178.251C176.706 125.839 175.455 126.938 175.455 128.279Z" fill="#352F75"/>
<path d="M175.455 129.109V132.582H269.947V129.109C269.947 127.308 268.695 125.827 267.163 125.827H178.251C176.706 125.827 175.455 127.295 175.455 129.109Z" fill="white"/>
<path d="M254.443 130.82C255.331 130.82 256.052 130.099 256.052 129.211C256.052 128.322 255.331 127.602 254.443 127.602C253.554 127.602 252.833 128.322 252.833 129.211C252.833 130.099 253.554 130.82 254.443 130.82Z" fill="#FFB700"/>
<path d="M259.59 130.82C260.478 130.82 261.199 130.099 261.199 129.211C261.199 128.322 260.478 127.602 259.59 127.602C258.701 127.602 257.98 128.322 257.98 129.211C257.98 130.099 258.701 130.82 259.59 130.82Z" fill="#9364ED"/>
<path d="M264.723 130.82C265.612 130.82 266.332 130.099 266.332 129.211C266.332 128.322 265.612 127.602 264.723 127.602C263.834 127.602 263.114 128.322 263.114 129.211C263.114 130.099 263.834 130.82 264.723 130.82Z" fill="#E2209E"/>
<path d="M133.988 67.4637V101.243C133.988 102.264 133.03 103.107 131.855 103.107H64.0668C62.8918 103.107 61.9468 102.264 61.9468 101.243V67.4637C61.9468 66.442 62.9046 65.5991 64.0668 65.5991H131.855C133.03 65.5991 133.988 66.442 133.988 67.4637Z" fill="#2E2865"/>
<path d="M133.988 68.1022V70.7458H61.9468V68.1022C61.9468 66.723 62.9046 65.5991 64.0668 65.5991H131.855C133.03 65.5991 133.988 66.723 133.988 68.1022Z" fill="white"/>
<path d="M74.9857 68.1782C74.9857 68.855 74.4365 69.4042 73.7597 69.4042C73.0828 69.4042 72.5337 68.855 72.5337 68.1782C72.5337 67.5013 73.0828 66.9521 73.7597 66.9521C74.4365 66.9521 74.9857 67.5013 74.9857 68.1782Z" fill="#FFB700"/>
<path d="M71.0648 68.1782C71.0648 68.855 70.5157 69.4042 69.8388 69.4042C69.162 69.4042 68.6128 68.855 68.6128 68.1782C68.6128 67.5013 69.162 66.9521 69.8388 66.9521C70.5157 66.9521 71.0648 67.5013 71.0648 68.1782Z" fill="#E2209E"/>
<path d="M67.1449 68.1782C67.1449 68.855 66.5957 69.4042 65.9189 69.4042C65.242 69.4042 64.6929 68.855 64.6929 68.1782C64.6929 67.5013 65.242 66.9521 65.9189 66.9521C66.5957 66.9521 67.1449 67.5013 67.1449 68.1782Z" fill="#5E1DBB"/>
<path d="M113.363 201.494L97.9609 199.183L100.413 182.338L113.988 183.27L113.363 201.494Z" fill="#FD8753"/>
<path d="M207.599 96.1212C207.599 96.1212 220.383 96.3383 222.694 96.1212C225.006 95.9041 222.694 94.2439 222.694 94.2439C222.694 94.2439 227.1 93.7969 225.555 92.5964C224.01 91.3832 209.438 91.115 206.156 91.5875C202.874 92.0473 198.11 92.7114 198.11 92.7114L207.586 96.1212H207.599Z" fill="#FD8753"/>
<path d="M158.023 87.4371C158.023 87.4371 165.737 87.7436 167.716 88.3949C169.696 89.059 183.692 96.5938 186.234 96.5938C188.775 96.5938 199.235 89.9402 199.235 89.9402L214.662 98.7521C214.662 98.7521 205.071 118.368 189.759 120.131C174.446 121.893 168.495 115.61 168.495 115.61L158.023 87.4243V87.4371Z" fill="#FFB700"/>
<path d="M171.342 226.384L170.104 241.901L153.118 240.611V227.01L171.342 226.384Z" fill="#FD8753"/>
<path d="M176.707 136.004C176.707 136.004 186.821 161.571 186.617 184.661C186.413 207.751 179.414 232.731 179.414 232.731L148.713 233.306C148.713 233.306 153.872 208.786 154.307 203.141C154.741 197.496 155.903 161.75 155.903 161.75L156.235 137.46L176.707 135.979V136.004Z" fill="#E2209E"/>
<path d="M139.109 128.432C139.109 128.432 135.916 147.18 134.639 158.035C133.783 165.34 127.794 172.964 120.923 175.225C114.052 177.472 107.526 178.52 107.526 178.52L106.645 205.198C106.645 205.198 129.863 211.418 146.171 201.214C162.479 191.01 161.419 169.733 161.419 169.733L162.633 135.431L139.109 128.432Z" fill="#E2209E"/>
<path d="M153.092 87.5005C164.535 86.3895 174.037 94.4224 175.595 105.814L176.514 112.595C176.514 112.595 179.515 135.098 179.017 135.979C178.519 136.86 168.136 139.082 158.086 138.597C148.048 138.099 140.015 137.154 139.517 136.771C139.376 136.656 134.728 132.416 134.779 126.656C134.906 112.685 142.186 89.2246 142.186 88.9564C142.186 88.7776 146.937 88.1008 153.079 87.5005H153.092Z" fill="#FFB700"/>
<path d="M155.135 192.376C155.072 192.376 154.995 192.35 154.931 192.312C154.791 192.197 154.765 192.006 154.88 191.865C169.579 173.245 162.657 145.877 162.594 145.609C162.568 145.519 162.594 145.417 162.645 145.341C162.696 145.264 162.785 145.213 162.875 145.2L172.197 144.306C172.389 144.306 172.529 144.421 172.542 144.6C172.555 144.779 172.427 144.932 172.261 144.945L163.309 145.813C164.088 149.146 169.362 174.573 155.391 192.274C155.327 192.35 155.238 192.401 155.135 192.401V192.376Z" fill="#5E1DBB"/>
<path d="M140.731 145.673C140.616 145.673 140.514 145.673 140.399 145.673C140.22 145.673 140.079 145.52 140.092 145.341C140.092 145.162 140.245 145.022 140.424 145.034C140.526 145.034 140.641 145.034 140.743 145.034C145.954 145.034 146.439 141.203 146.465 141.037C146.478 140.858 146.618 140.731 146.822 140.756C147.001 140.769 147.129 140.935 147.103 141.101C147.103 141.152 146.554 145.673 140.743 145.673H140.731Z" fill="#5E1DBB"/>
<path d="M133.553 175.544C133.208 175.544 132.876 175.429 132.557 175.199C130.667 173.832 129.951 168.596 129.926 168.379C129.913 168.239 129.977 168.111 130.105 168.047C130.232 167.983 130.373 168.009 130.475 168.111C131.28 168.941 135.251 173.143 134.715 174.828C134.638 175.084 134.421 175.403 133.872 175.518C133.77 175.544 133.668 175.544 133.553 175.544ZM130.73 169.324C131.063 171.099 131.803 173.871 132.927 174.688C133.195 174.879 133.463 174.943 133.744 174.892C134.038 174.828 134.089 174.701 134.102 174.65C134.383 173.756 132.403 171.176 130.718 169.337L130.73 169.324Z" fill="#5E1DBB"/>
<path d="M150.628 256.013C151.19 257.009 157.997 256.077 158.584 256.23C159.172 256.383 160.845 252.424 161.956 253.012C163.067 253.599 164.433 255.451 166.081 256.306C167.613 257.098 192.798 256.907 197.676 256.23C198.072 256.166 198.353 255.77 198.276 255.336C198.098 254.263 197.663 252.169 196.846 250.087C196.105 248.21 195.033 246.332 193.526 245.196C189.618 242.233 181.432 241.071 178.456 239.091C175.468 237.112 172.134 232.335 170.359 233.255C168.584 234.174 165.251 238.338 160.411 237.75C155.583 237.176 153.348 235.988 152.046 237.188C151.228 237.942 150.654 244.851 150.475 250.087C150.373 253.152 150.398 255.642 150.603 256.013H150.628Z" fill="#5E1DBB"/>
<path d="M154.446 71.2691C154.446 71.2691 161.061 71.5884 161.445 65.2412C161.84 58.4854 155.596 57.8341 152.939 60.567C150.283 63.3 150.781 66.0713 150.781 66.0713C150.781 66.0713 148.929 64.3983 146.911 66.4544C145.43 67.9614 146.196 70.4134 146.196 70.4134C146.196 70.4134 142.786 70.2857 143.106 73.2613C143.425 76.237 145.558 77.7567 145.558 77.7567L154.472 71.2691H154.446Z" fill="white"/>
<path d="M148.393 82.9546L149.082 89.9914C149.082 89.9914 150.551 91.8942 154.689 91.8176C157.779 91.7665 158.788 90.9747 158.788 90.9747L158.009 87.45L157.243 84.0146L149.657 83.1078L148.38 82.9546H148.393Z" fill="#FD8753"/>
<path d="M149.671 83.1079C149.709 83.2995 149.799 83.5166 149.939 83.772C151.855 87.1307 156.235 87.4628 158.023 87.45L157.257 84.0146L149.671 83.1079Z" fill="black"/>
<path d="M157.256 67.8333C157.256 67.8333 161.802 76.2876 160.832 81.3321C159.861 86.3767 155.302 85.968 152.543 85.24C149.785 84.5121 148.393 82.9668 148.393 82.9668C148.393 82.9668 145.954 84.0268 144.089 81.8302C142.225 79.6336 143.029 76.8751 144.408 76.1344C145.788 75.4064 147.576 76.3004 147.576 76.3004L146.03 73.8612C146.03 73.8612 150.577 60.4517 157.256 67.8461V67.8333Z" fill="#FD8753"/>
<path d="M147.665 80.145C147.665 80.145 147.55 80.1323 147.499 80.1067L144.115 78.14C143.962 78.0506 143.911 77.8591 144 77.7058C144.089 77.5525 144.281 77.5015 144.434 77.5909L147.831 79.5576C147.985 79.647 148.036 79.8385 147.946 79.9918C147.882 80.094 147.78 80.145 147.665 80.145Z" fill="black"/>
<path d="M144.778 80.3876C144.651 80.3876 144.523 80.311 144.472 80.1833C144.408 80.0173 144.497 79.8385 144.663 79.7746L146.694 79.0339C146.86 78.97 147.039 79.0594 147.103 79.2255C147.167 79.3915 147.077 79.5703 146.911 79.6341L144.881 80.3748C144.881 80.3748 144.804 80.4004 144.766 80.4004L144.778 80.3876Z" fill="black"/>
<path d="M151.7 72.1496C151.598 72.1496 151.496 72.0985 151.432 72.0091C151.33 71.8687 151.368 71.6643 151.509 71.5622C152.748 70.7065 153.961 70.6299 154.025 70.6299C154.216 70.6299 154.344 70.7576 154.357 70.9236C154.357 71.1024 154.229 71.2557 154.063 71.2557C154.063 71.2557 152.965 71.3323 151.879 72.073C151.828 72.1113 151.764 72.1241 151.7 72.1241V72.1496Z" fill="black"/>
<path d="M158.494 71.1541C158.494 71.1541 158.418 71.1541 158.379 71.1285C157.792 70.8859 157.179 71.1285 157.179 71.1285C157.013 71.1924 156.834 71.1158 156.758 70.9497C156.694 70.7837 156.758 70.6049 156.936 70.5411C156.975 70.5283 157.792 70.209 158.622 70.5411C158.788 70.6049 158.865 70.7965 158.801 70.9625C158.75 71.0902 158.635 71.1669 158.507 71.1669L158.494 71.1541Z" fill="black"/>
<path d="M157.551 79.1615C157.551 79.1615 157.436 79.1488 157.385 79.1232C157.231 79.0338 157.18 78.8423 157.27 78.689C158.381 76.8117 156.235 74.4746 156.21 74.4618C156.095 74.3341 156.095 74.1298 156.222 74.0148C156.35 73.8999 156.554 73.8999 156.669 74.0276C156.772 74.1426 159.173 76.7351 157.819 79.021C157.755 79.1232 157.653 79.1743 157.551 79.1743V79.1615Z" fill="black"/>
<path d="M158.788 74.538C158.661 74.538 158.533 74.4614 158.495 74.3337L157.894 72.7629C157.831 72.5969 157.92 72.4181 158.073 72.3542C158.239 72.2903 158.418 72.3797 158.482 72.5458L159.082 74.1166C159.146 74.2826 159.057 74.4614 158.903 74.5253C158.865 74.538 158.827 74.5508 158.788 74.5508V74.538Z" fill="black"/>
<path d="M154.344 75.062C154.217 75.062 154.089 74.9853 154.051 74.8576L153.451 73.2868C153.387 73.1208 153.476 72.942 153.629 72.8781C153.795 72.8143 153.974 72.9037 154.038 73.0697L154.638 74.6405C154.702 74.8065 154.613 74.9853 154.459 75.0492C154.421 75.062 154.383 75.0747 154.344 75.0747V75.062Z" fill="black"/>
<path d="M158.188 69.7498C158.188 69.7498 157.282 68.4088 155.532 68.5749C153.782 68.7281 152.876 70.0691 152.876 70.0691C152.876 70.0691 153.936 72.9425 151.701 74.756C149.466 76.5567 147.576 76.3013 147.576 76.3013L145.788 75.8543L144.268 73.4534L148.751 67.566L154.893 63.5176L158.482 66.1867L158.188 69.7626V69.7498Z" fill="white"/>
<path d="M154.779 91.8817C152.787 91.8817 150.475 91.3709 148.24 89.7362C148.1 89.634 148.074 89.4297 148.176 89.2892C148.279 89.1487 148.483 89.1104 148.623 89.2254C154.051 93.2099 159.9 90.1065 159.951 90.0682C160.104 89.9916 160.296 90.0427 160.385 90.1959C160.475 90.3492 160.411 90.5408 160.258 90.6302C160.219 90.6557 157.895 91.8817 154.779 91.8817Z" fill="white"/>
<path d="M179.005 242.221C178.851 242.221 178.724 242.119 178.685 241.965C178.647 241.787 178.762 241.621 178.941 241.595C180.959 241.225 186.335 239.858 187.063 238.07C187.114 237.955 187.114 237.879 187.076 237.828C186.527 237.24 182.223 238.185 178.558 239.386C178.404 239.437 178.238 239.36 178.175 239.22C178.111 239.079 178.149 238.9 178.277 238.811C179.682 237.853 183.385 234.992 183.602 233.332C183.641 233.077 183.589 232.885 183.436 232.719C183.321 232.579 183.155 232.528 182.964 232.528C181.278 232.566 177.6 236.755 176.336 238.364C176.221 238.504 176.029 238.53 175.889 238.415C175.748 238.3 175.723 238.109 175.838 237.968C176.323 237.355 180.678 231.94 182.964 231.889C183.334 231.889 183.692 232.017 183.921 232.298C184.19 232.604 184.292 232.975 184.228 233.409C184.036 234.916 181.75 236.946 180.154 238.198C182.747 237.432 186.693 236.461 187.536 237.368C187.689 237.534 187.829 237.815 187.651 238.275C186.667 240.701 179.835 242.042 179.056 242.195C179.03 242.195 179.017 242.195 178.992 242.195L179.005 242.221Z" fill="white"/>
<path d="M85.2288 178.787C84.1944 179.285 84.6669 186.13 84.4626 186.717C84.2582 187.292 88.1023 189.233 87.4382 190.306C86.7741 191.379 84.8329 192.618 83.8751 194.201C82.9811 195.683 81.4486 220.816 81.7807 225.733C81.8062 226.141 82.1893 226.435 82.6236 226.397C83.7091 226.282 85.8291 226.001 87.9618 225.324C89.8774 224.711 91.8314 223.779 93.0702 222.348C96.3012 218.657 98.0125 210.561 100.184 207.738C102.355 204.903 107.348 201.902 106.569 200.063C105.777 198.224 101.844 194.623 102.763 189.833C103.67 185.044 104.998 182.899 103.9 181.52C103.21 180.651 96.3395 179.604 91.1418 179.068C88.0895 178.748 85.5992 178.608 85.2161 178.799L85.2288 178.787Z" fill="#5E1DBB"/>
<path d="M100.809 217.062C100.682 217.062 100.528 217.024 100.35 216.947C97.987 215.811 97.1185 208.889 97.0291 208.11C97.0036 207.931 97.1313 207.778 97.3101 207.752C97.4761 207.739 97.6421 207.854 97.6677 208.033C97.9103 210.064 98.8937 215.53 100.631 216.373C100.745 216.424 100.822 216.436 100.86 216.398C101.486 215.887 100.835 211.532 99.8898 207.791C99.8515 207.637 99.9281 207.471 100.081 207.42C100.222 207.356 100.401 207.42 100.477 207.548C101.346 209.017 103.938 212.899 105.573 213.231C105.828 213.282 106.02 213.231 106.199 213.116C106.339 213.014 106.416 212.861 106.416 212.669C106.492 210.983 102.559 207.037 101.039 205.645C100.911 205.53 100.899 205.326 101.014 205.198C101.129 205.07 101.333 205.058 101.461 205.173C102.048 205.696 107.144 210.409 107.042 212.695C107.029 213.078 106.863 213.41 106.569 213.627C106.25 213.87 105.854 213.946 105.432 213.857C103.938 213.563 102.074 211.137 100.924 209.464C101.512 212.107 102.201 216.104 101.244 216.883C101.141 216.973 100.988 217.05 100.784 217.05L100.809 217.062Z" fill="white"/>
<path d="M145.494 115.967C145.494 115.967 146.541 112.979 146.937 112.021C147.333 111.063 147.154 107.832 148.316 107.295C149.478 106.759 149.823 111.944 149.823 111.944C149.823 111.944 156.655 104.218 157.933 104.562C159.197 104.92 156.272 110.143 156.272 110.143C156.272 110.143 161.393 104.601 162.364 105.597C163.335 106.593 158.98 112.11 158.98 112.11C158.98 112.11 162.875 108.764 163.654 109.85C164.433 110.935 158.188 119.453 158.188 119.453C158.188 119.453 154.599 128.367 149.657 127.09C144.715 125.813 145.481 115.98 145.481 115.98L145.494 115.967Z" fill="#FD8753"/>
<path d="M155.915 81.8943C155.034 81.8943 154.408 80.4768 154.293 80.1958C154.242 80.0809 154.268 79.9659 154.344 79.8765C154.421 79.7871 154.536 79.7488 154.651 79.7744L157.23 80.3363C157.333 80.3618 157.409 80.4257 157.448 80.5151C157.486 80.6045 157.486 80.7194 157.435 80.8088C157.371 80.9238 156.783 81.9071 155.902 81.9071L155.915 81.8943ZM155.174 80.5279C155.404 80.911 155.698 81.2558 155.915 81.2558C156.17 81.2558 156.426 81.0515 156.617 80.8471L155.174 80.5279Z" fill="black"/>
<path d="M222.706 94.563C222.706 94.563 222.63 94.563 222.592 94.5375C222.553 94.5247 218.518 93.005 215.299 92.8006C215.146 92.8006 215.018 92.6729 215.006 92.5197C214.993 92.3664 215.082 92.2259 215.236 92.1749L217.662 91.5108C217.841 91.4597 218.007 91.5619 218.058 91.7279C218.109 91.8939 218.007 92.0727 217.841 92.1238L216.985 92.3664C219.859 92.839 222.694 93.8989 222.834 93.95C223 94.0139 223.077 94.1927 223.013 94.3587C222.962 94.4864 222.847 94.563 222.719 94.563H222.706Z" fill="black"/>
<path d="M234.609 89.8634H182.593L193.397 85.8916H245.413L234.609 89.8634Z" fill="#9364ED"/>
<path d="M234.826 89.8638H182.593V92.0476H234.826V89.8638Z" fill="white"/>
<path d="M245.414 85.8916V88.3053L234.827 92.0472V89.8634L245.414 85.8916Z" fill="#FFB700"/>
<path d="M193.398 85.8917L203.206 58.5619C203.333 58.2171 203.653 58 204.01 58H252.514C253.089 58 253.497 58.5491 253.331 59.0983L245.401 85.8917H193.385H193.398Z" fill="#07CBF5"/>
<path d="M199.298 81.1795L206.59 60.8865C206.692 60.6183 206.948 60.4268 207.229 60.4268H245.975C246.435 60.4268 246.767 60.861 246.627 61.308L240.535 81.8947C240.395 82.38 239.948 82.712 239.437 82.712H200.371C199.579 82.712 199.03 81.9202 199.298 81.1795Z" fill="white"/>
<path d="M232.299 63.7344H209.375V65.0626H232.299V63.7344Z" fill="#2E2865"/>
<path d="M230.97 67.3101H208.046V68.6382H230.97V67.3101Z" fill="#2E2865"/>
<path d="M142.199 88.9443C142.199 88.9443 126.938 95.1255 117.717 110.042C109.212 123.796 109.046 135.903 123.451 139.428C137.857 142.953 152.262 128.994 152.262 128.994L144.779 113.86L141.382 115.189L142.212 88.9571L142.199 88.9443Z" fill="#FFB700"/>
<path d="M149.198 114.741C149.198 114.741 149.16 114.741 149.134 114.741C148.994 114.703 148.904 114.563 148.942 114.409L149.581 111.881C149.619 111.74 149.773 111.651 149.9 111.689C150.041 111.727 150.13 111.868 150.092 112.021L149.453 114.55C149.428 114.677 149.313 114.754 149.198 114.754V114.741Z" fill="black"/>
<path d="M158.022 113.476C158.022 113.476 157.894 113.45 157.843 113.412C157.728 113.31 157.716 113.144 157.818 113.029L158.788 111.931C158.891 111.816 159.057 111.803 159.172 111.905C159.286 112.007 159.299 112.173 159.197 112.288L158.226 113.387C158.226 113.387 158.099 113.476 158.022 113.476Z" fill="black"/>
<path d="M155.264 111.485C155.2 111.485 155.124 111.459 155.073 111.408C154.971 111.306 154.958 111.14 155.073 111.025L156.094 109.965C156.197 109.863 156.363 109.85 156.478 109.965C156.58 110.067 156.592 110.233 156.478 110.348L155.456 111.408C155.456 111.408 155.328 111.485 155.264 111.485Z" fill="black"/>
<path d="M219.003 139.504H193.397V160.04H219.003V139.504Z" fill="#2E2865"/>
<path d="M238.696 148.074H213.09V168.609H238.696V148.074Z" fill="#5E1DBB"/>
<path d="M107.45 77.7563H68.6265V80.0679H107.45V77.7563Z" fill="#5E1DBB"/>
<path d="M107.45 83.8999H68.6265V86.2114H107.45V83.8999Z" fill="#5E1DBB"/>
<path d="M107.45 90.042H68.6265V92.3535H107.45V90.042Z" fill="#5E1DBB"/>
<path d="M127.985 77.8584H111.702V92.3662H127.985V77.8584Z" fill="#07CBF5"/>
<path d="M177.447 120.079C177.293 120.079 177.153 119.964 177.127 119.811L175.774 111.267C175.748 111.089 175.863 110.935 176.042 110.897C176.221 110.872 176.374 110.986 176.412 111.165L177.766 119.709C177.791 119.888 177.676 120.041 177.498 120.079C177.485 120.079 177.459 120.079 177.447 120.079Z" fill="white"/>
<path d="M124.627 120.079C124.525 120.079 124.422 120.028 124.359 119.926C124.269 119.773 124.307 119.581 124.461 119.492C131.255 115.214 141.267 113.553 141.369 113.541C141.561 113.502 141.701 113.63 141.74 113.809C141.765 113.987 141.65 114.141 141.472 114.179C141.369 114.192 131.472 115.827 124.806 120.041C124.754 120.079 124.691 120.092 124.639 120.092L124.627 120.079Z" fill="white"/>
<path d="M126.797 117.309C125.495 117.309 124.409 117.142 124.128 116.67C124.026 116.491 123.924 116.134 124.409 115.661C126.235 113.899 131.931 115.916 132.174 116.006C132.302 116.057 132.391 116.172 132.391 116.312C132.391 116.453 132.302 116.568 132.174 116.606C131.178 116.925 128.751 117.309 126.81 117.309H126.797ZM126.836 115.572C125.993 115.572 125.265 115.725 124.856 116.121C124.703 116.274 124.69 116.351 124.69 116.351C124.971 116.836 128.56 116.747 130.91 116.261C129.747 115.929 128.151 115.572 126.836 115.572Z" fill="white"/>
<path d="M187.485 102.813C187.485 102.813 187.434 102.813 187.396 102.813C187.089 102.788 186.808 102.635 186.591 102.366C185.506 101.064 185.863 97.0282 185.914 96.5813C185.927 96.4408 186.029 96.3258 186.17 96.3003C186.31 96.2748 186.451 96.3514 186.515 96.4791C186.91 97.2964 188.877 101.396 188.124 102.494C187.983 102.711 187.753 102.813 187.485 102.813ZM186.476 97.8839C186.438 99.3142 186.515 101.268 187.089 101.958C187.204 102.098 187.319 102.162 187.46 102.175C187.575 102.175 187.6 102.149 187.613 102.137C187.907 101.702 187.306 99.7868 186.489 97.8967L186.476 97.8839Z" fill="white"/>
<path d="M141.42 136.835C141.305 136.835 141.19 136.772 141.139 136.669C141.063 136.516 141.114 136.325 141.267 136.235C141.344 136.197 148.789 132.212 151.126 129.02C151.228 128.879 151.433 128.854 151.573 128.956C151.714 129.058 151.752 129.262 151.637 129.403C149.21 132.71 141.867 136.644 141.561 136.797C141.51 136.823 141.459 136.835 141.407 136.835H141.42Z" fill="white"/>
</svg>
