<svg width="238" height="328" viewBox="0 0 238 328" fill="none" xmlns="http://www.w3.org/2000/svg">
<path d="M195.563 36.9308H133.033C131.4 36.9308 130.065 35.5959 130.065 33.9624V3.40006C130.065 1.76655 131.4 0.431641 133.033 0.431641H195.563C197.197 0.431641 198.532 1.76655 198.532 3.40006V33.9624C198.532 35.5959 197.197 36.9308 195.563 36.9308ZM133.033 1.32742C131.874 1.32742 130.943 2.25835 130.943 3.41761V33.9799C130.943 35.1392 131.874 36.0701 133.033 36.0701H195.563C196.722 36.0701 197.653 35.1392 197.653 33.9799V3.41761C197.653 2.25835 196.722 1.32742 195.563 1.32742H133.033Z" fill="white"/>
<path d="M198.093 7.36993H130.504C130.258 7.36993 130.065 7.17672 130.065 6.93081C130.065 6.68491 130.258 6.4917 130.504 6.4917H198.093C198.338 6.4917 198.532 6.68491 198.532 6.93081C198.532 7.17672 198.338 7.36993 198.093 7.36993Z" fill="white"/>
<path d="M191.244 5.42103C191.103 5.42103 190.945 5.35078 190.875 5.21026C190.752 4.99949 190.822 4.736 191.033 4.61304L194.634 2.48775C194.845 2.3648 195.108 2.43505 195.231 2.64582C195.354 2.8566 195.284 3.12006 195.073 3.24301L191.472 5.36833C191.472 5.36833 191.332 5.43858 191.244 5.43858V5.42103Z" fill="white"/>
<path d="M194.843 5.42102C194.843 5.42102 194.684 5.40347 194.614 5.35078L191.013 3.22545C190.803 3.1025 190.732 2.83904 190.855 2.62826C190.978 2.41749 191.242 2.34721 191.453 2.47016L195.053 4.59549C195.264 4.71844 195.334 4.9819 195.211 5.19268C195.124 5.33319 194.983 5.40347 194.843 5.40347V5.42102Z" fill="white"/>
<path d="M141.254 18.5925V94.0323C141.254 96.3332 139.392 98.1951 137.074 98.1951H4.16279C1.86183 98.1951 0 96.3332 0 94.0323V18.5925C0 16.2915 1.86183 14.4297 4.16279 14.4297H137.074C139.392 14.4297 141.254 16.2915 141.254 18.5925Z" fill="#E0DDFF"/>
<path d="M141.254 18.5925V23.0012H0V18.5925C0 16.2915 1.86183 14.4297 4.16279 14.4297H137.074C139.392 14.4297 141.254 16.2915 141.254 18.5925Z" fill="white"/>
<path d="M135.617 18.7156C135.617 19.9275 134.633 20.9287 133.404 20.9287C132.174 20.9287 131.19 19.9451 131.19 18.7156C131.19 17.486 132.174 16.5024 133.404 16.5024C134.633 16.5024 135.617 17.486 135.617 18.7156Z" fill="#FFB700"/>
<path d="M128.537 18.7156C128.537 19.9275 127.554 20.9287 126.324 20.9287C125.094 20.9287 124.111 19.9451 124.111 18.7156C124.111 17.486 125.094 16.5024 126.324 16.5024C127.554 16.5024 128.537 17.486 128.537 18.7156Z" fill="#9364ED"/>
<path d="M121.476 18.7156C121.476 19.9275 120.492 20.9287 119.262 20.9287C118.033 20.9287 117.049 19.9451 117.049 18.7156C117.049 17.486 118.033 16.5024 119.262 16.5024C120.492 16.5024 121.476 17.486 121.476 18.7156Z" fill="#5E1DBB"/>
<path d="M126.641 36.4907H14.6143V43.0247H126.641V36.4907Z" fill="#07CBF5"/>
<path d="M63.7597 56.742H17.9865C17.7406 56.742 17.5474 56.5488 17.5474 56.3029C17.5474 56.057 17.7406 55.8638 17.9865 55.8638H63.7597C64.0056 55.8638 64.1988 56.057 64.1988 56.3029C64.1988 56.5488 64.0056 56.742 63.7597 56.742Z" fill="#9364ED"/>
<path d="M63.7597 64.0667H17.9865C17.7406 64.0667 17.5474 63.8735 17.5474 63.6276C17.5474 63.3817 17.7406 63.1885 17.9865 63.1885H63.7597C64.0056 63.1885 64.1988 63.3817 64.1988 63.6276C64.1988 63.8735 64.0056 64.0667 63.7597 64.0667Z" fill="#9364ED"/>
<path d="M63.7597 71.3919H17.9865C17.7406 71.3919 17.5474 71.1987 17.5474 70.9528C17.5474 70.7069 17.7406 70.5137 17.9865 70.5137H63.7597C64.0056 70.5137 64.1988 70.7069 64.1988 70.9528C64.1988 71.1987 64.0056 71.3919 63.7597 71.3919Z" fill="#9364ED"/>
<path d="M123.268 56.742H77.4948C77.2489 56.742 77.0557 56.5488 77.0557 56.3029C77.0557 56.057 77.2489 55.8638 77.4948 55.8638H123.268C123.514 55.8638 123.707 56.057 123.707 56.3029C123.707 56.5488 123.514 56.742 123.268 56.742Z" fill="#9364ED"/>
<path d="M123.268 64.0667H77.4948C77.2489 64.0667 77.0557 63.8735 77.0557 63.6276C77.0557 63.3817 77.2489 63.1885 77.4948 63.1885H123.268C123.514 63.1885 123.707 63.3817 123.707 63.6276C123.707 63.8735 123.514 64.0667 123.268 64.0667Z" fill="#9364ED"/>
<path d="M123.268 71.3919H77.4948C77.2489 71.3919 77.0557 71.1987 77.0557 70.9528C77.0557 70.7069 77.2489 70.5137 77.4948 70.5137H123.268C123.514 70.5137 123.707 70.7069 123.707 70.9528C123.707 71.1987 123.514 71.3919 123.268 71.3919Z" fill="#9364ED"/>
<path d="M184.656 281.992V302.367H210.529V275.616L184.656 281.992Z" fill="#FD8753"/>
<path d="M117.278 274.386L111.85 294.006L136.827 300.909L143.941 275.142L117.278 274.386Z" fill="#FD8753"/>
<path d="M191.735 63.8748C191.735 63.8748 198.374 52.7037 208.983 58.1488C219.592 63.5762 218.433 74.8351 226.477 77.4171C234.522 79.9991 241.126 86.9371 236.436 95.895C232.52 103.377 221.928 101.006 221.928 101.006C221.928 101.006 215.342 112.23 203.679 108.401C192.016 104.572 186.711 98.5121 187.941 88.8516C189.153 79.1911 191.735 63.8923 191.735 63.8923V63.8748Z" fill="#5E1DBB"/>
<path d="M172.783 80.1039C172.783 80.1039 166.477 70.9001 179.229 63.6635C191.981 56.4093 201.273 66.3508 201.378 71.6905C201.484 77.0301 198.445 79.5067 198.445 79.5067C198.445 79.5067 199.639 91.0817 188.521 90.2913C177.403 89.5009 172.783 80.1039 172.783 80.1039Z" fill="#5E1DBB"/>
<path d="M189.573 88.4297L189.802 97.774C189.802 97.774 188.186 100.497 182.723 101.094C178.648 101.533 177.208 100.637 177.208 100.637L177.665 95.8946L178.104 91.2576L187.922 88.8337L189.573 88.4297Z" fill="#FD8753"/>
<path d="M189.557 87.9731C189.557 88.2366 189.452 88.5352 189.311 88.8865C187.344 93.6114 180.02 95.6137 177.666 95.8772L178.105 91.2402L189.54 87.9731H189.557Z" fill="black"/>
<path d="M175.487 69.9882C175.487 69.9882 170.867 81.8267 172.975 88.2905C175.065 94.7542 180.985 93.4896 184.498 92.0669C188.011 90.6617 189.574 88.4134 189.574 88.4134C189.574 88.4134 192.946 89.4146 195.054 86.2179C197.162 83.0387 195.634 79.5258 193.702 78.7881C191.769 78.0504 189.556 79.5082 189.556 79.5082L191.19 76.048C191.19 76.048 183.04 59.1685 175.469 69.9531L175.487 69.9882Z" fill="#FD8753"/>
<path d="M174.75 85.2854C174.539 85.2854 174.346 85.1273 174.311 84.9166C173.661 80.947 175.207 78.8392 175.277 78.7514C175.418 78.5582 175.699 78.5231 175.892 78.6636C176.085 78.8041 176.12 79.0852 175.98 79.2784C175.98 79.2959 174.592 81.1929 175.172 84.7761C175.207 85.022 175.049 85.2503 174.803 85.2854C174.785 85.2854 174.75 85.2854 174.733 85.2854H174.75Z" fill="black"/>
<path d="M189.838 84.3374C189.68 84.3374 189.521 84.2496 189.451 84.1091C189.346 83.8983 189.416 83.6348 189.627 83.5119L194.176 81.088C194.387 80.9826 194.65 81.0528 194.773 81.2636C194.879 81.4744 194.808 81.7379 194.598 81.8608L190.048 84.2847C190.048 84.2847 189.908 84.3374 189.838 84.3374Z" fill="black"/>
<path d="M194.071 85.1642C193.966 85.1642 193.86 85.1291 193.79 85.0588L191.594 83.1443C191.419 82.9862 191.384 82.7051 191.559 82.5295C191.717 82.3363 191.998 82.3363 192.174 82.4944L194.37 84.4089C194.545 84.567 194.58 84.848 194.405 85.0237C194.317 85.1291 194.194 85.1818 194.071 85.1818V85.1642Z" fill="black"/>
<path d="M173.661 75.8537C173.661 75.8537 173.872 72.9555 176.085 70.4965C178.439 67.8618 180.406 68.3009 180.406 68.3009C180.406 68.3009 176.946 75.8713 182.777 78.5411C186.923 80.4381 189.575 79.5247 189.575 79.5247L195.512 73.6406L183.708 64.0503C183.708 64.0503 172.959 62.5397 173.661 75.8361V75.8537Z" fill="#5E1DBB"/>
<path d="M177.682 87.6751C177.506 87.6751 177.33 87.5697 177.26 87.3765C177.172 87.1482 177.295 86.9023 177.523 86.8145C177.523 86.8145 178.683 86.3929 179.438 85.1458C179.561 84.935 179.824 84.8648 180.035 84.9877C180.246 85.1107 180.316 85.3742 180.193 85.5849C179.28 87.1306 177.875 87.6224 177.822 87.64C177.769 87.64 177.734 87.6575 177.682 87.6575V87.6751Z" fill="black"/>
<path d="M178.876 80.3333C178.876 80.3333 178.806 80.3333 178.771 80.3333C178.543 80.2806 178.385 80.0347 178.437 79.8064L178.876 77.9094L178.314 77.0136C178.191 76.8028 178.244 76.5393 178.455 76.4164C178.666 76.2934 178.929 76.3461 179.052 76.5569L179.719 77.6108C179.79 77.7162 179.807 77.8216 179.772 77.9445L179.298 80.0347C179.245 80.2455 179.07 80.3684 178.876 80.3684V80.3333Z" fill="black"/>
<path d="M173.063 80.2786C173.063 80.2786 172.993 80.2786 172.976 80.2786C172.747 80.2259 172.589 79.9976 172.642 79.7517L173.081 77.8547L172.519 76.9589C172.396 76.7481 172.449 76.4847 172.659 76.3617C172.87 76.2388 173.134 76.2915 173.257 76.5022L173.924 77.5561C173.994 77.6615 174.012 77.7669 173.977 77.8898L173.503 79.9624C173.45 80.1732 173.274 80.3137 173.081 80.3137L173.063 80.2786Z" fill="black"/>
<path d="M174.047 74.8882C173.836 74.8882 173.661 74.7477 173.625 74.5369C173.573 74.3086 173.731 74.0627 173.959 74.01L175.259 73.7289C175.505 73.6762 175.733 73.8343 175.786 74.0627C175.839 74.291 175.68 74.5369 175.452 74.5896L174.152 74.8706C174.152 74.8706 174.082 74.8706 174.065 74.8706L174.047 74.8882Z" fill="black"/>
<path d="M128.345 93.8233L107.303 106.733L83.731 75.1697L104.773 62.2598L128.345 93.8233Z" fill="#9364ED"/>
<path d="M131.067 92.312L110.025 105.222L86.4531 73.6585L107.495 60.7485L131.067 92.312Z" fill="white"/>
<path d="M92.3561 76.2229C92.2156 76.2229 92.0574 76.1527 91.9872 76.0121C91.8642 75.8014 91.917 75.5379 92.1277 75.415L107.567 65.9477C107.778 65.8247 108.041 65.8774 108.164 66.0881C108.287 66.2989 108.234 66.5624 108.024 66.6854L92.5844 76.1527C92.5844 76.1527 92.4263 76.2229 92.3561 76.2229Z" fill="#5E1DBB"/>
<path d="M94.8673 79.49C94.7268 79.49 94.5687 79.4198 94.4984 79.2792C94.3755 79.0685 94.4282 78.805 94.6389 78.6821L110.078 69.2147C110.289 69.0918 110.552 69.1445 110.675 69.3553C110.798 69.566 110.746 69.8295 110.535 69.9525L95.0956 79.4198C95.0956 79.4198 94.9375 79.49 94.8673 79.49Z" fill="#5E1DBB"/>
<path d="M97.3082 82.7737C97.1677 82.7737 97.0096 82.7034 96.9393 82.5629C96.8164 82.3521 96.8691 82.0887 97.0799 81.9657L112.519 72.4984C112.73 72.3755 112.993 72.4282 113.116 72.6389C113.239 72.8497 113.187 73.1132 112.976 73.2361L97.5365 82.7034C97.5365 82.7034 97.3784 82.7737 97.3082 82.7737Z" fill="#5E1DBB"/>
<path d="M99.7501 86.0774C99.6096 86.0774 99.4515 86.0072 99.3812 85.8667C99.2583 85.6559 99.311 85.3924 99.5217 85.2695L114.961 75.8021C115.172 75.6792 115.435 75.7319 115.558 75.9427C115.681 76.1534 115.628 76.4169 115.418 76.5399L99.9784 86.0072C99.9784 86.0072 99.8203 86.0774 99.7501 86.0774Z" fill="#5E1DBB"/>
<path d="M153.531 77.4346L176.347 107.821L154.444 120.608L140.252 83.0552L153.531 77.4346Z" fill="#FD8753"/>
<path d="M180.687 75.4138C180.687 75.4138 180.599 75.4138 180.546 75.3962L177.841 74.4478C177.613 74.3599 177.49 74.114 177.578 73.8857C177.666 73.6574 177.911 73.5344 178.14 73.6222L180.845 74.5707C181.073 74.6585 181.196 74.9044 181.108 75.1328C181.038 75.3084 180.88 75.4314 180.687 75.4314V75.4138Z" fill="black"/>
<path d="M120.493 107.557C120.493 107.557 120.001 98.898 117.384 95.4553C114.767 92.0302 110.182 89.3604 109.216 91.3452C108.233 93.33 111.342 96.2106 110.85 97.3874C110.358 98.5642 107.091 97.967 102.19 96.2281C97.2899 94.4892 94.0229 88.7983 94.0229 88.7983C94.0229 88.7983 93.0393 91.0466 93.373 93.0841C93.7067 95.1216 94.3566 96.2106 94.3566 96.2106C94.3566 96.2106 93.3203 93.8569 93.3027 98.1603C93.3027 100.321 95.1646 101.831 95.1646 101.831C95.1646 101.831 93.6892 103.605 96.7981 107.54C99.907 111.474 108.566 115.057 108.566 115.057C108.566 115.057 118.209 138.594 134.07 144.812C149.931 151.03 162.349 142.686 162.349 142.686L157.449 116.849C157.449 116.849 140.446 122.891 120.51 107.522L120.493 107.557Z" fill="#FD8753"/>
<path d="M102.085 101.148C102.085 101.148 102.032 101.148 101.997 101.148C98.1154 100.34 93.8297 95.9309 93.654 95.7377C93.4784 95.5621 93.496 95.281 93.654 95.123C93.8297 94.9649 94.1107 94.9649 94.2688 95.123C94.3039 95.1581 98.537 99.5317 102.155 100.287C102.401 100.34 102.542 100.568 102.489 100.814C102.436 101.025 102.261 101.165 102.05 101.165L102.085 101.148Z" fill="black"/>
<path d="M101.348 105.431C96.799 104.676 94.8845 102.235 94.8142 102.129C94.6737 101.936 94.7089 101.655 94.8845 101.515C95.0777 101.374 95.3587 101.392 95.4992 101.585C95.5168 101.602 97.3084 103.851 101.419 104.553C101.664 104.588 101.822 104.817 101.77 105.063C101.735 105.273 101.541 105.431 101.331 105.431H101.348Z" fill="black"/>
<path d="M171.202 155.298C171.202 155.298 150.124 183.7 132.806 215.246C115.487 246.792 105.862 286.242 105.862 286.242L150.195 288.982L182.443 211.031L172.958 287.928L215.833 286.435C215.833 286.435 225.108 215.035 220.172 181.364C215.219 147.693 209.422 140.597 209.422 140.597L171.202 155.281V155.298Z" fill="#FFB700"/>
<path d="M196.722 81.0167C196.634 81.0167 196.529 80.9816 196.441 80.9289C196.248 80.7884 196.213 80.5073 196.371 80.3141C203.309 71.5845 194.211 63.9615 193.807 63.6278C193.613 63.4697 193.596 63.1887 193.736 63.013C193.894 62.8198 194.158 62.8023 194.351 62.9428C194.456 63.0306 204.521 71.4265 197.038 80.8411C196.951 80.9465 196.828 80.9991 196.687 80.9991L196.722 81.0167Z" fill="white"/>
<path d="M146.91 117.2C146.91 117.2 163.789 98.318 184.164 97.0885C204.539 95.859 211.407 105.678 212.39 110.332C213.374 114.987 215.095 148.342 213.866 150.555C212.636 152.768 204.275 156.685 190.681 157.669C177.086 158.652 169.972 156.931 168.988 156.193C168.005 155.456 166.775 145.163 166.775 145.163L155.253 148.114L146.91 117.217V117.2Z" fill="#E2209E"/>
<path d="M189.592 88.4297C189.592 88.4297 183.849 101.34 189.821 106.451C195.793 111.562 204.68 108.26 204.68 108.26C204.68 108.26 207.684 110.175 213.41 108.242C219.136 106.31 221.946 100.988 221.946 100.988L189.61 88.4121L189.592 88.4297Z" fill="#5E1DBB"/>
<path d="M153.532 77.4352C153.532 77.4352 147.805 68.4421 144.925 66.4749C142.044 64.5077 125.99 58.1844 124.409 59.7301C122.829 61.2758 132.208 67.7044 132.208 67.7044C132.208 67.7044 130.592 68.0557 130.206 69.3555C129.819 70.6553 130.522 71.7092 130.522 71.7092C130.522 71.7092 128.52 71.6389 127.958 72.9914C127.395 74.3438 128.326 75.8368 128.326 75.8368C128.326 75.8368 132.015 82.564 134.105 82.7221C136.195 82.8626 135.932 79.139 135.932 79.139C135.932 79.139 136.687 82.5289 138.531 84.4083C140.358 86.2877 144.117 86.4809 147.981 84.4259C151.863 82.3884 153.549 77.4176 153.549 77.4176L153.532 77.4352Z" fill="#FD8753"/>
<path d="M149.052 83.3182C144.661 82.8615 143.186 78.2771 142.817 76.8193C141.359 77.1179 138.197 77.5921 137.354 76.5031C137.161 76.2396 136.985 75.783 137.337 75.0979C138.637 72.516 144.082 70.1272 144.31 70.0218C144.538 69.934 144.784 70.0218 144.89 70.2501C144.977 70.4785 144.889 70.7244 144.661 70.8298C144.608 70.8473 139.286 73.201 138.127 75.5019C138.057 75.66 137.969 75.8708 138.057 75.9762C138.478 76.5031 140.99 76.345 143.08 75.8883C143.203 75.8708 143.326 75.8884 143.414 75.9586C143.519 76.0289 143.59 76.1342 143.607 76.2396C143.607 76.2923 144.696 82.0008 149.123 82.4575C149.369 82.4751 149.544 82.7034 149.509 82.9493C149.491 83.1776 149.298 83.3357 149.07 83.3357L149.052 83.3182Z" fill="black"/>
<path d="M138.215 74.9926C138.215 74.9926 138.127 74.9927 138.075 74.9751C135.229 74.0442 131.945 68.16 131.804 67.9141C131.681 67.7034 131.769 67.4399 131.98 67.3169C132.191 67.194 132.454 67.2818 132.577 67.4926C132.612 67.5453 135.827 73.324 138.356 74.1496C138.584 74.2198 138.707 74.4657 138.637 74.7116C138.584 74.9048 138.409 75.0102 138.215 75.0102V74.9926Z" fill="black"/>
<path d="M137.162 79.91C134.44 79.91 130.558 72.7436 130.119 71.9181C130.013 71.7073 130.084 71.4438 130.294 71.3209C130.505 71.2155 130.769 71.2857 130.892 71.4965C132.437 74.4298 135.493 79.0317 137.145 79.0317C137.777 78.9966 138.198 78.8209 138.462 78.4696C138.954 77.8373 138.743 76.8186 138.725 76.801C138.673 76.5727 138.813 76.3268 139.059 76.2741C139.305 76.2214 139.533 76.3795 139.586 76.6078C139.586 76.6605 139.885 78.0305 139.164 78.9966C138.743 79.5411 138.093 79.8572 137.232 79.8924H137.162V79.91Z" fill="black"/>
<path d="M166.757 145.604C166.476 145.568 166.335 145.393 166.318 145.2C166.195 143.197 165.879 136.575 167.319 135.732C167.495 135.627 167.846 135.504 168.303 135.802C170.463 137.243 167.723 143.988 167.161 145.323C167.091 145.481 166.933 145.586 166.757 145.586V145.604ZM167.828 136.54C167.301 136.751 167.02 139.596 167.108 143.057C168.074 140.281 168.742 137.155 167.828 136.54Z" fill="white"/>
<path d="M185.043 163.29C178.579 163.29 173.678 162.518 173.204 162.447C172.958 162.412 172.8 162.184 172.835 161.938C172.871 161.692 173.099 161.552 173.345 161.569C173.626 161.622 200.833 165.89 213.076 153.964C213.251 153.788 213.533 153.806 213.691 153.964C213.866 154.139 213.849 154.42 213.691 154.578C206.349 161.727 194.141 163.273 185.043 163.273V163.29Z" fill="white"/>
<path d="M182.251 211.487C182.251 211.487 182.093 211.47 182.023 211.435C181.812 211.312 181.742 211.048 181.865 210.837C181.935 210.732 188.241 200.123 204.558 193.905C204.787 193.817 205.032 193.94 205.12 194.151C205.208 194.362 205.085 194.625 204.874 194.713C188.873 200.808 182.69 211.153 182.62 211.259C182.532 211.399 182.392 211.47 182.234 211.47L182.251 211.487Z" fill="white"/>
<path d="M219.645 187.635C216.167 187.635 213.304 186.599 211.161 184.544C206.805 180.399 206.876 173.654 206.876 173.355C206.876 173.18 206.981 173.022 207.157 172.951L217.976 168.648C218.205 168.56 218.451 168.666 218.556 168.894C218.644 169.122 218.538 169.368 218.31 169.474L207.771 173.654C207.806 174.971 208.193 180.487 211.776 183.894C213.989 186.002 217.045 186.933 220.839 186.687C221.103 186.634 221.296 186.862 221.314 187.091C221.314 187.337 221.156 187.547 220.91 187.565C220.488 187.6 220.084 187.6 219.68 187.6L219.645 187.635Z" fill="white"/>
<path d="M174.698 191.656C174.224 191.656 173.732 191.621 173.222 191.533C171.115 191.2 169.569 190.163 168.603 188.46C165.424 182.839 169.78 171.843 169.955 171.387C170.043 171.176 170.271 171.071 170.5 171.123L186.87 176.199C187.081 176.27 187.221 176.48 187.169 176.709C187.133 176.867 183.972 191.656 174.715 191.656H174.698ZM170.623 172.089C169.885 174.074 166.706 183.331 169.358 188.038C170.184 189.496 171.536 190.392 173.363 190.69C182.128 192.095 185.623 179.344 186.22 176.937L170.64 172.107L170.623 172.089Z" fill="white"/>
<path d="M137.494 319.667C137.494 319.667 143.783 290.211 139.023 290.105C134.28 290.018 126.604 293.074 126.604 293.074C126.604 293.074 116.839 285.82 111.692 288.226C106.563 290.632 102.822 297.079 102.822 297.079L74.3147 309.936C74.3147 309.936 70.4154 314.45 70.9248 317.085C71.3288 319.14 110.902 324.11 128.273 326.201C132.752 326.745 136.809 323.847 137.459 319.667H137.494Z" fill="#9364ED"/>
<path d="M99.9779 306.125C99.9779 306.125 99.89 306.125 99.8373 306.107L90.9848 303.279C90.7565 303.209 90.6335 302.963 90.7038 302.735C90.7741 302.507 91.02 302.384 91.2483 302.454L99.1348 304.966L97.3256 301.207C97.2554 301.049 97.2729 300.873 97.3783 300.733C97.4837 300.592 97.6594 300.557 97.835 300.592L108.022 303.227L102.525 297.395C102.367 297.22 102.367 296.939 102.525 296.781C102.7 296.605 102.981 296.622 103.139 296.781L109.691 303.719C109.832 303.859 109.849 304.07 109.744 304.245C109.638 304.421 109.445 304.491 109.252 304.456L98.5025 301.681L100.329 305.51C100.399 305.668 100.382 305.861 100.259 305.984C100.171 306.09 100.048 306.142 99.9252 306.142L99.9779 306.125Z" fill="#5E1DBB"/>
<path d="M181.898 293.514C181.898 293.514 164.984 321.143 167.899 324.55C170.815 327.958 191.418 328.432 200.833 326.922C210.248 325.411 213.848 324.287 214.551 321.986C215.271 319.685 210.792 291.301 210.792 291.301C210.792 291.301 206.647 286.628 200.973 287.84C195.3 289.052 186.395 293.443 186.395 293.443C186.395 293.443 184.182 289.65 181.881 293.514H181.898Z" fill="#9364ED"/>
<path d="M182.566 296.166C182.425 296.166 182.267 296.095 182.197 295.955C182.074 295.744 182.144 295.48 182.355 295.358L186.201 293.074C186.412 292.951 186.676 293.021 186.799 293.232C186.922 293.443 186.851 293.706 186.641 293.829L182.794 296.113C182.794 296.113 182.653 296.183 182.566 296.183V296.166Z" fill="#5E1DBB"/>
<path d="M39.2054 118.816H83.0114C84.9084 118.816 86.4365 120.362 86.4365 122.241V142.195C86.4365 144.092 84.8908 145.62 83.0114 145.62H39.2054C37.3084 145.62 35.7803 144.074 35.7803 142.195V122.241C35.7803 120.345 37.326 118.816 39.2054 118.816Z" fill="white"/>
<path d="M63.8828 120.783L79.9017 109.331L75.9848 120.783H63.8828Z" fill="white"/>
<path d="M50.5182 124.05H44.9678V140.402H50.5182V124.05Z" fill="#9364ED"/>
<path d="M59.4215 126.983H53.8711V140.385H59.4215V126.983Z" fill="#FFB700"/>
<path d="M77.2511 126.983H71.7007V140.385H77.2511V126.983Z" fill="#07CBF5"/>
<path d="M68.3272 132.217H62.7769V140.385H68.3272V132.217Z" fill="#352F75"/>
</svg>
