<svg width="305" height="269" viewBox="0 0 305 269" fill="none" xmlns="http://www.w3.org/2000/svg">
<path d="M268.926 134.456H183.157C182.895 134.456 182.689 134.25 182.689 133.988V26.0558C182.689 25.7935 182.895 25.5874 183.157 25.5874C183.42 25.5874 183.626 25.7935 183.626 26.0558V133.519H268.457V50.2613C268.457 49.999 268.664 49.7929 268.926 49.7929C269.188 49.7929 269.394 49.999 269.394 50.2613V133.988C269.394 134.25 269.188 134.456 268.926 134.456Z" fill="#E2209E"/>
<path d="M124.873 218.5L130.343 237.029L153.5 233.076L148.198 215.783L124.873 218.5Z" fill="#FD8753"/>
<path d="M88.7712 215.146L86.2607 236.317L109.398 240.738L111.553 220.936L88.7712 215.146Z" fill="#FD8753"/>
<path d="M163.691 26.729C163.691 26.729 166.052 34.1293 161.986 35.6656C157.921 37.1831 157.902 32.9677 157.902 32.9677L160.412 27.6658L163.691 26.729Z" fill="#FD8753"/>
<path d="M144.958 41.4555C144.958 41.4555 150.278 27.7603 155.112 25.3622C159.945 22.9829 169.163 23.2827 170.568 25.7744C171.973 28.2849 167.758 28.3411 166.671 28.0788C165.585 27.8165 162.306 28.5472 161.519 29.6525C160.732 30.7766 160.433 35.4791 160.433 35.4791C160.433 35.4791 164.03 36.2097 165.585 34.8983C167.14 33.5869 168.713 31.2263 169.8 32.9499C170.887 34.6735 166.521 43.7225 163.393 46.2329C160.264 48.7247 152.302 51.8534 152.302 51.8534L144.958 41.4368V41.4555Z" fill="#FD8753"/>
<path d="M160.414 35.9657C160.114 35.947 159.926 35.7034 159.945 35.4599C159.945 35.3849 160.095 33.8487 160.676 31.282C161.313 28.453 163.879 27.9097 163.992 27.891C164.254 27.8535 164.498 28.0034 164.535 28.2657C164.591 28.5092 164.423 28.7715 164.179 28.809C164.104 28.809 162.1 29.2586 161.594 31.4881C161.032 33.9798 160.882 35.5348 160.882 35.5536C160.863 35.7971 160.657 35.9845 160.414 35.9845V35.9657Z" fill="black"/>
<path d="M191.589 15.9565H174.727C173.807 15.9565 173.06 16.7031 173.06 17.624V34.4854C173.06 35.4063 173.807 36.1528 174.727 36.1528H191.589C192.51 36.1528 193.256 35.4063 193.256 34.4854V17.624C193.256 16.7031 192.51 15.9565 191.589 15.9565Z" fill="#816AA6"/>
<path d="M191.589 41.7734H174.727C173.807 41.7734 173.06 42.52 173.06 43.4408V60.3023C173.06 61.2232 173.807 61.9697 174.727 61.9697H191.589C192.51 61.9697 193.256 61.2232 193.256 60.3023V43.4408C193.256 42.52 192.51 41.7734 191.589 41.7734Z" fill="#816AA6"/>
<path d="M191.589 67.5728H174.727C173.807 67.5728 173.06 68.3192 173.06 69.2401V86.1016C173.06 87.0224 173.807 87.769 174.727 87.769H191.589C192.51 87.769 193.256 87.0224 193.256 86.1016V69.2401C193.256 68.3192 192.51 67.5728 191.589 67.5728Z" fill="#816AA6"/>
<path d="M174.876 37.5024L165.453 29.5213L167.869 26.6549L174.558 32.3128L180.01 26.3926L182.764 28.9405L174.876 37.5024Z" fill="white"/>
<path d="M182.933 59.4221L175.177 52.8275L177.612 49.9797L182.333 53.989L188.422 45.8955L191.42 48.1624L182.933 59.4221Z" fill="white"/>
<path d="M182.933 85.2395L175.177 78.6448L177.612 75.7784L182.333 79.8064L188.422 71.7129L191.42 73.9611L182.933 85.2395Z" fill="white"/>
<path d="M293.657 32.9678H244.178C242.15 32.9678 240.506 34.6118 240.506 36.6398V63.8991C240.506 65.9271 242.15 67.5712 244.178 67.5712H293.657C295.685 67.5712 297.329 65.9271 297.329 63.8991V36.6398C297.329 34.6118 295.685 32.9678 293.657 32.9678Z" fill="#07CBF5"/>
<path d="M304.448 118.661V196.093C304.448 200.739 300.682 204.505 296.055 204.505H175.065C170.419 204.505 166.653 200.739 166.653 196.093V118.661C166.653 114.015 170.419 110.25 175.065 110.25H296.055C300.682 110.25 304.448 114.015 304.448 118.661Z" fill="#E0DDFF"/>
<path d="M61.8678 155.702H49.8213V237.836H61.8678V155.702Z" fill="#6C29D6"/>
<path d="M81.2017 242.744H30.6736C28.5753 242.744 26.8892 241.058 26.8892 238.96C26.8892 236.861 28.5753 235.175 30.6736 235.175H81.2017C83.3 235.175 84.9862 236.861 84.9862 238.96C84.9862 241.058 83.3 242.744 81.2017 242.744Z" fill="#6C29D6"/>
<path d="M29.3062 256.682C33.7968 256.682 37.4372 253.042 37.4372 248.551C37.4372 244.061 33.7968 240.42 29.3062 240.42C24.8156 240.42 21.1753 244.061 21.1753 248.551C21.1753 253.042 24.8156 256.682 29.3062 256.682Z" fill="#6C29D6"/>
<path d="M63.966 248.551C63.966 253.048 60.3127 256.682 55.8351 256.682C51.3574 256.682 47.7041 253.029 47.7041 248.551C47.7041 244.074 51.3574 240.42 55.8351 240.42C60.3127 240.42 63.966 244.074 63.966 248.551Z" fill="#6C29D6"/>
<path d="M90.4001 248.551C90.4001 253.048 86.7468 256.682 82.2692 256.682C77.7915 256.682 74.1382 253.029 74.1382 248.551C74.1382 244.074 77.7915 240.42 82.2692 240.42C86.7468 240.42 90.4001 244.074 90.4001 248.551Z" fill="#6C29D6"/>
<path d="M30.9923 64.9307C30.9923 64.9307 -4.81018 84.6773 1.24121 126.775C6.78674 165.425 46.1488 177.752 79.4595 168.666C112.77 159.58 107.206 133.332 107.206 133.332L31.011 64.9307H30.9923Z" fill="#E0DDFF"/>
<path d="M29.5313 143.843C29.0068 148.095 39.6107 152.91 53.2123 154.615C66.8139 156.32 78.2796 154.259 78.8229 150.006C79.3662 145.754 68.7435 140.939 55.142 139.234C41.5404 137.529 30.0747 139.59 29.5313 143.843Z" fill="#2E2865"/>
<path d="M16.0042 148.039C15.8918 148.039 15.7794 148.001 15.6857 147.908C7.18007 140.039 5.60632 125.201 5.55012 124.564C5.53139 124.302 5.71874 124.077 5.96229 124.058C6.20584 124.021 6.44938 124.227 6.46811 124.47C6.46811 124.62 8.07933 139.589 16.3227 147.215C16.5101 147.383 16.5288 147.683 16.3414 147.87C16.2478 147.964 16.1166 148.02 16.0042 148.02V148.039Z" fill="#3E3789"/>
<path d="M132.516 254.565C130.811 254.677 129.331 253.328 129.125 251.53C128.319 244.392 125.659 228.486 126.952 228.336C128.619 228.148 145.818 230.846 145.818 230.846C145.818 230.846 145.181 220.898 152.262 221.91C157.696 222.678 164.515 228.298 167.4 230.865C168.318 231.689 169.424 232.195 170.585 232.345C175.644 233.019 189.639 235.549 190.65 242.799C191.887 251.661 188.196 251.042 186.547 251.23C185.124 251.398 144.094 253.89 132.516 254.602V254.565Z" fill="#FFB700"/>
<path d="M80.3589 248.589C78.7664 247.989 77.9608 246.153 78.5229 244.43C80.7336 237.591 84.874 222.004 86.1293 222.397C87.7217 222.922 102.279 232.458 102.279 232.458C102.279 232.458 105.801 223.128 111.852 226.969C116.48 229.91 120.395 237.835 121.95 241.376C122.456 242.5 123.243 243.418 124.236 244.055C128.564 246.753 140.273 254.846 138.194 261.853C135.664 270.434 132.573 268.354 130.981 267.83C129.613 267.38 91.2252 252.729 80.3776 248.589H80.3589Z" fill="#FFB700"/>
<path d="M69.0801 12.5842C69.0801 12.5842 55.235 8.85597 44.9307 21.4833C34.6265 34.0919 41.0339 49.6232 57.352 49.1923C73.6701 48.7426 77.4733 32.0686 77.4733 32.0686L69.0801 12.603V12.5842Z" fill="white"/>
<path d="M89.8765 22.9829C89.8765 22.9829 93.8108 18.805 92.8366 12.1728C92.1621 7.67646 90.2137 6.1964 90.2137 6.1964C90.2137 6.1964 93.3611 0.145038 84.3309 0.332387C75.2819 0.519736 67.8817 -0.248403 63.8536 7.52659C61.4743 12.1166 62.4298 22.0649 62.4298 22.0649L89.8952 22.9829H89.8765Z" fill="white"/>
<path d="M69.9043 30.0459L69.9605 41.0808C69.9605 41.0808 71.9651 44.247 78.4287 44.7341C83.2436 45.09 84.7424 42.617 84.7424 42.617L83.5246 32.9685L71.8527 30.4768L69.9043 30.0646V30.0459Z" fill="#FD8753"/>
<path d="M69.9231 29.3713C69.9605 29.6711 70.0729 30.027 70.2415 30.4392C72.7333 35.9285 81.445 38.1767 84.2178 38.4015L83.5246 32.9497L69.9043 29.3525L69.9231 29.3713Z" fill="black"/>
<path d="M85.8473 7.7895C85.8473 7.7895 91.7114 21.5784 89.4819 29.2785C87.2524 36.9785 80.2269 35.6858 76.0302 34.1683C71.8336 32.6507 69.9039 30.0278 69.9039 30.0278C69.9039 30.0278 65.9696 31.3206 63.3654 27.6485C60.78 23.9765 62.4287 19.7798 64.6769 18.8431C66.9251 17.9063 69.5854 19.555 69.5854 19.555L67.5246 15.5458C67.5246 15.5458 76.5174 -4.66923 85.8286 7.7895H85.8473Z" fill="#FD8753"/>
<path d="M69.5861 19.5537C69.5861 19.5537 75.4689 20.8651 79.703 14.3641C83.9371 7.86308 83.5999 5.16527 83.5999 5.16527L87.5529 12.0222C87.5529 12.0222 88.5646 7.33851 86.7286 4.30345C84.9113 1.2684 82.9441 1.84918 82.9441 1.84918L69.8484 4.84678L66.2139 15.2259L69.5674 19.5537H69.5861Z" fill="white"/>
<path d="M84.4233 25.2688C84.4233 25.2688 84.3296 25.2688 84.2734 25.2501C84.0299 25.1751 83.8987 24.9128 83.9737 24.6505C84.8167 22.1026 83.6926 19.3111 83.6926 19.2924C83.599 19.0488 83.6927 18.7865 83.955 18.6741C84.1798 18.5804 84.4608 18.6741 84.5732 18.9364C84.6294 19.0675 85.8284 22.0651 84.873 24.9503C84.8168 25.1564 84.6294 25.2688 84.4233 25.2688Z" fill="black"/>
<path d="M68.9112 26.018C68.78 26.018 68.6489 25.9618 68.574 25.8682L64.9019 21.8589C64.7333 21.6715 64.7333 21.3718 64.9394 21.2032C65.1267 21.0346 65.4265 21.0346 65.5951 21.2407L69.2672 25.2499C69.4358 25.4373 69.4358 25.737 69.2297 25.9056C69.136 25.9806 69.0236 26.0368 68.9112 26.0368V26.018Z" fill="black"/>
<path d="M64.9766 24.8947C64.7518 24.8947 64.5457 24.7261 64.5082 24.4825C64.4707 24.2203 64.6581 23.9954 64.9016 23.958L67.4871 23.602C67.7493 23.5833 67.9742 23.7519 68.0116 23.9954C68.0491 24.2577 67.8618 24.4826 67.6182 24.52L65.0328 24.876C65.0328 24.876 64.9953 24.876 64.9766 24.876V24.8947Z" fill="black"/>
<path d="M87.9079 14.0842L85.4536 13.6158C85.1913 13.5596 85.0415 13.3161 85.0789 13.0725C85.1351 12.8103 85.3599 12.6416 85.6222 12.6978L87.9828 13.1662C88.2451 13.2224 88.395 13.466 88.3576 13.7095C88.3201 13.9343 88.114 14.0842 87.8892 14.0842H87.9079Z" fill="black"/>
<path d="M78.8607 14.6279C78.6734 14.6279 78.486 14.5155 78.4298 14.3282C78.3361 14.0846 78.4673 13.8223 78.7108 13.7286L81.1651 12.8107C81.4086 12.717 81.6709 12.8481 81.7646 13.0917C81.8583 13.3352 81.7271 13.5975 81.4836 13.6912L79.0293 14.6092C79.0293 14.6092 78.9169 14.6467 78.8607 14.6467V14.6279Z" fill="black"/>
<path d="M86.5969 19.7236C86.3908 19.7236 86.2034 19.5925 86.1472 19.3864L85.4353 16.8946C85.3978 16.7448 85.4353 16.5761 85.529 16.4637L86.3158 15.5457C86.4844 15.3584 86.7842 15.3209 86.9715 15.4895C87.1589 15.6581 87.1963 15.9579 87.0277 16.1452L86.4095 16.8759L87.0465 19.1241C87.1214 19.3677 86.9715 19.6299 86.728 19.7049C86.6905 19.7049 86.6343 19.7049 86.5969 19.7049V19.7236Z" fill="black"/>
<path d="M79.6466 20.2482C79.4406 20.2482 79.2532 20.117 79.197 19.911L78.4851 17.4192C78.4476 17.2693 78.4851 17.1007 78.5787 16.9883L79.6466 15.7893C79.8153 15.6019 80.115 15.5832 80.3024 15.7518C80.4897 15.9204 80.5084 16.2202 80.3398 16.4075L79.4406 17.4192L80.0775 19.6674C80.1525 19.911 80.0026 20.1732 79.759 20.2482C79.7216 20.2482 79.6654 20.2482 79.6279 20.2482H79.6466Z" fill="black"/>
<path d="M82.7571 29.2596C82.6447 29.2596 82.5323 29.2596 82.4012 29.2221C80.8649 28.9786 80.0219 27.1051 79.9844 27.0301C79.9095 26.8615 79.9282 26.6741 80.0406 26.543C80.153 26.4119 80.3404 26.3369 80.509 26.3744L84.7056 27.2924C84.8742 27.3299 85.0053 27.4423 85.0428 27.6109C85.099 27.7608 85.0428 27.9481 84.9304 28.0606C84.1997 28.8474 83.4691 29.2221 82.7197 29.2221L82.7571 29.2596ZM81.427 27.5547C81.7267 27.9107 82.1202 28.2479 82.5698 28.3041C82.907 28.3603 83.263 28.2666 83.6189 28.0231L81.427 27.536V27.5547Z" fill="black"/>
<path d="M89.0894 110.231C89.0894 110.231 131.655 112.629 142.727 121.21C153.8 129.79 154.399 219.549 154.399 219.549L119.683 223.502L119.365 135.617L89.0894 110.231Z" fill="#E2209E"/>
<path d="M67.0757 41.6799C67.0757 41.6799 68.2934 37.3897 68.9117 37.3897C69.7173 37.3897 74.195 39.5442 78.2604 39.5254C82.3259 39.488 83.0191 38.2327 84.2369 38.4013C85.4547 38.5699 85.8856 41.6799 85.8856 41.6799C85.8856 41.6799 93.3983 44.1717 102.147 46.2138C110.897 48.2372 124.629 45.5956 130.4 42.7853C136.17 39.9751 146.006 33.8862 146.006 33.8862L156.16 60.5835C156.16 60.5835 135.552 86.9623 116.667 87.1309C97.7822 87.2995 74.9818 83.5338 74.9818 83.5338L67.0944 41.6987L67.0757 41.6799Z" fill="#5E1DBB"/>
<path d="M38.0731 111.599C38.0731 111.599 34.9443 145.153 39.9278 148.3C51.5622 155.682 83.4115 153.827 83.5614 155.195C83.7113 156.562 80.0018 217.732 80.0018 217.732L121.968 225.563C121.968 225.563 137.387 136.273 128.656 121.865C119.926 107.458 68.4986 108.826 68.4986 108.826L38.0731 111.58V111.599Z" fill="#E2209E"/>
<path d="M119.776 103.767L96.4697 101.444L105.256 63.562L128.563 65.8852L119.776 103.767Z" fill="#FFB700"/>
<path d="M123.261 104.124L99.9736 101.801L108.76 63.9189L132.067 66.2421L123.261 104.124Z" fill="white"/>
<path d="M92.9857 80.4053L93.8663 109.126C93.8663 109.126 75.4499 114.278 61.5485 115.533C47.6472 116.788 38.1299 115.533 38.1299 115.533V104.442L92.9857 80.4053Z" fill="#5E1DBB"/>
<path d="M89.9893 84.1515C89.9893 84.1515 92.7808 78.3811 95.591 76.339C98.4012 74.2969 102.692 74.3157 102.692 74.3157L101.83 78.4373C101.83 78.4373 108.368 79.2991 109.474 78.4373C110.579 77.5755 115.263 73.8286 116.518 74.1471C117.773 74.4656 115.113 78.4373 115.113 78.4373C115.113 78.4373 117.923 75.8707 118.86 77.4257C119.797 78.9807 116.199 85.2381 116.199 85.2381C116.199 85.2381 119.478 81.9782 118.391 87.1116C117.305 92.2637 107.806 97.2472 104.509 97.7156C101.211 98.184 88.0596 98.2214 88.0596 98.2214L90.008 84.1328L89.9893 84.1515Z" fill="#FD8753"/>
<path d="M101.829 78.9252C101.829 78.9252 101.773 78.9252 101.735 78.9252L98.3067 78.2132C98.0444 78.157 97.8945 77.9135 97.932 77.6699C97.9882 77.4076 98.2317 77.2578 98.4753 77.2952L101.904 78.0072C102.166 78.0634 102.316 78.3069 102.278 78.5692C102.241 78.794 102.035 78.9439 101.81 78.9439L101.829 78.9252Z" fill="black"/>
<path d="M105.257 84.3021C105.014 84.3021 104.808 84.1148 104.789 83.8525C104.789 83.5902 104.976 83.3841 105.239 83.3653C105.276 83.3653 108.442 83.1967 110.203 82.3162C111.965 81.4356 114.719 78.1757 114.737 78.1383C114.906 77.9322 115.206 77.9135 115.393 78.0821C115.599 78.2507 115.618 78.5505 115.449 78.7378C115.337 78.8877 112.564 82.1851 110.616 83.1593C108.667 84.1335 105.407 84.3021 105.276 84.3021H105.257Z" fill="black"/>
<path d="M106.044 90.2402C105.782 90.2402 105.576 90.0341 105.576 89.7905C105.576 89.5282 105.782 89.3222 106.025 89.3035C106.044 89.3035 108.667 89.2285 110.896 88.1419C113.8 86.7368 115.842 84.9195 115.861 84.9007C116.049 84.7321 116.348 84.7508 116.517 84.9382C116.686 85.1255 116.667 85.4253 116.479 85.5939C116.386 85.6689 114.306 87.5236 111.29 88.9849C108.873 90.1652 106.138 90.2402 106.025 90.2402H106.044Z" fill="black"/>
<path d="M263.08 42.4688H251.39V54.1594H263.08V42.4688Z" fill="#7E59D8"/>
<path d="M278.574 38.29L282.209 44.585L285.843 50.8799H278.574H271.286L274.921 44.585L278.574 38.29Z" fill="#E2209E"/>
<path d="M276.588 54.1576C276.588 58.6353 272.954 62.2699 268.476 62.2699C263.998 62.2699 260.364 58.6353 260.364 54.1576C260.364 49.68 263.998 46.0454 268.476 46.0454C272.954 46.0454 276.588 49.68 276.588 54.1576Z" fill="white"/>
<path d="M271.4 80.0298C271.4 81.3975 270.275 82.5216 268.908 82.5216C267.54 82.5216 266.416 81.3975 266.416 80.0298C266.416 78.6622 267.54 77.5381 268.908 77.5381C270.275 77.5381 271.4 78.6622 271.4 80.0298Z" fill="#E2209E"/>
<path d="M271.4 104.124C271.4 105.492 270.275 106.616 268.908 106.616C267.54 106.616 266.416 105.492 266.416 104.124C266.416 102.756 267.54 101.632 268.908 101.632C270.275 101.632 271.4 102.756 271.4 104.124Z" fill="#E2209E"/>
<path d="M185.649 99.0083C185.649 100.376 184.525 101.5 183.157 101.5C181.79 101.5 180.666 100.376 180.666 99.0083C180.666 97.6407 181.79 96.5166 183.157 96.5166C184.525 96.5166 185.649 97.6407 185.649 99.0083Z" fill="#E2209E"/>
<path d="M304.448 118.661V120.891H166.653V118.661C166.653 114.015 170.419 110.25 175.065 110.25H296.055C300.682 110.25 304.448 114.015 304.448 118.661Z" fill="#9977CE"/>
<path d="M290.883 118.7C290.77 118.7 290.658 118.662 290.564 118.587C290.377 118.419 290.358 118.119 290.527 117.932L294.892 113.079C295.061 112.892 295.36 112.873 295.548 113.042C295.735 113.21 295.754 113.51 295.585 113.698L291.22 118.55C291.126 118.644 290.995 118.7 290.864 118.7H290.883Z" fill="white"/>
<path d="M295.248 118.7C295.117 118.7 294.986 118.644 294.892 118.55L290.527 113.698C290.358 113.51 290.377 113.21 290.564 113.042C290.752 112.873 291.051 112.892 291.22 113.079L295.585 117.932C295.754 118.119 295.735 118.419 295.548 118.587C295.454 118.662 295.342 118.7 295.229 118.7H295.248Z" fill="white"/>
<path d="M214.07 163.607H183.476C183.213 163.607 183.007 163.401 183.007 163.139V132.545C183.007 132.282 183.213 132.076 183.476 132.076H214.07C214.332 132.076 214.538 132.282 214.538 132.545V163.139C214.538 163.401 214.332 163.607 214.07 163.607ZM183.944 162.67H213.601V133.013H183.944V162.67Z" fill="#5E1DBB"/>
<path d="M257.235 177.995H198.764C198.501 177.995 198.295 177.789 198.295 177.527V146.933C198.295 146.67 198.501 146.464 198.764 146.464H257.235C257.498 146.464 257.704 146.67 257.704 146.933V177.527C257.704 177.789 257.498 177.995 257.235 177.995ZM199.232 177.059H256.767V147.401H199.232V177.059Z" fill="#5E1DBB"/>
<path d="M123.149 216.197C122.811 216.141 122.643 215.897 122.68 215.635C122.811 214.923 135.851 144.686 130.305 129.997C124.816 115.478 90.7373 115.103 90.3813 115.103C90.1565 115.103 89.9504 114.935 89.9129 114.691C89.8755 114.466 90.0254 114.241 90.2689 114.185L98.2687 112.106C98.5123 112.049 98.7746 112.199 98.8308 112.443C98.887 112.686 98.7371 112.949 98.4935 113.005L93.6225 114.279C102.465 114.747 126.427 117.145 131.167 129.679C136.825 144.611 124.142 212.918 123.598 215.822C123.561 216.047 123.355 216.197 123.13 216.197H123.149Z" fill="white"/>
<path d="M68.9121 41.3804C68.9121 41.3804 42.0275 41.9986 26.5711 72.4429C11.1148 102.887 27.358 118.493 53.5869 115.065C79.8158 111.636 92.9864 103.356 92.9864 103.356L89.9889 77.5388L68.9121 41.3804Z" fill="#5E1DBB"/>
<path d="M52.5183 81.6237C52.3122 81.6237 52.1249 81.4925 52.0687 81.2864C51.9938 81.0429 52.1436 80.7806 52.3872 80.7057C62.9724 77.6893 84.5738 77.6519 85.5105 77.6519C85.7916 77.6519 85.9977 77.8579 85.9977 78.1202C85.9977 78.3825 85.7916 78.5886 85.5293 78.5886C84.5925 78.5886 63.1036 78.6261 52.6495 81.6237C52.612 81.6237 52.5558 81.6237 52.5183 81.6237Z" fill="#FFB700"/>
<path d="M75.3565 44.8647C71.085 44.8647 67.0008 42.2043 66.8134 42.0732C66.5886 41.9233 66.5324 41.6422 66.6823 41.4174C66.8322 41.1926 67.1132 41.1364 67.338 41.2863C67.3755 41.305 71.7969 44.1902 75.9935 43.8904C76.2371 43.853 76.4806 44.0591 76.4994 44.3213C76.4994 44.5836 76.3308 44.8085 76.0685 44.8272C75.8437 44.8272 75.6001 44.8459 75.3753 44.8459L75.3565 44.8647Z" fill="#FFB700"/>
<path d="M115.618 56.2743C115.337 56.2743 115.075 56.1993 114.812 56.0307C112.714 54.7193 112.096 47.6562 112.04 46.8694C112.04 46.6633 112.152 46.4759 112.339 46.401C112.527 46.326 112.752 46.401 112.883 46.5509C113.388 47.1879 117.735 52.8083 117.098 55.1689C116.967 55.656 116.648 55.9933 116.18 56.1806C115.993 56.2556 115.805 56.293 115.618 56.293V56.2743ZM113.164 48.4806C113.52 51.2346 114.269 54.5881 115.318 55.2439C115.487 55.3563 115.655 55.375 115.843 55.3001C116.03 55.2251 116.143 55.1127 116.199 54.9254C116.517 53.7451 114.794 50.7662 113.164 48.4806Z" fill="#FFB700"/>
<path d="M54.0357 80.6298C49.9515 80.6298 44.9868 80.3113 44.2748 78.7751C44.125 78.4378 44.05 77.8945 44.687 77.22C48.0218 73.6229 58.4946 79.3745 58.9443 79.6181C59.1316 79.7118 59.2253 79.9366 59.1691 80.1427C59.1316 80.3488 58.9443 80.4986 58.7382 80.4986C57.7265 80.5548 55.9842 80.6298 54.0357 80.6298ZM48.0218 76.9765C46.8977 76.9765 45.961 77.2388 45.3802 77.8758C45.249 78.0069 45.0617 78.2505 45.1367 78.4003C45.6238 79.4308 51.3192 79.8242 56.9209 79.6556C54.4479 78.4566 50.7009 76.9952 48.0218 76.9952V76.9765Z" fill="#FFB700"/>
<path d="M83.5628 155.682C83.4504 155.682 83.3381 155.645 83.2444 155.551C83.0945 155.401 83.057 155.195 83.1507 155.008C84.1062 153.078 87.3661 146.821 89.352 146.821C89.7079 146.821 90.1388 146.989 90.4198 147.664C91.8062 150.961 84.6307 155.158 83.8064 155.626C83.7315 155.664 83.6565 155.682 83.5816 155.682H83.5628ZM89.3332 147.758C88.5089 147.758 86.4855 150.718 84.7619 153.903C87.0476 152.366 90.2699 149.743 89.5393 148.02C89.5018 147.945 89.4269 147.758 89.3332 147.758Z" fill="white"/>
<path d="M66.2707 110.719C66.0459 110.719 65.8585 110.569 65.8023 110.344C65.7461 110.082 65.9147 109.838 66.177 109.801C66.3082 109.782 79.7036 107.215 90.1577 101.108C90.3825 100.976 90.6636 101.051 90.7947 101.276C90.9258 101.501 90.8509 101.782 90.6261 101.913C80.0409 108.114 66.4955 110.681 66.3456 110.719C66.3081 110.719 66.2894 110.719 66.2519 110.719H66.2707Z" fill="#FFB700"/>
</svg>
