<svg width="523" height="713" viewBox="0 0 523 713" fill="none" xmlns="http://www.w3.org/2000/svg">
<path d="M501.228 558.902C502.554 557.66 503.632 556.255 504.524 554.752C504.802 558.129 507.24 560.157 509.564 561.35C508.903 561.78 508.284 562.33 507.819 562.996C507.799 563.021 507.779 563.047 507.759 563.073C506.902 564.18 505.708 565.724 505.131 567.546C504.813 568.522 504.522 569.524 504.248 570.527C503.419 568.558 502.039 566.834 500.031 565.47C499.857 565.351 499.679 565.228 499.497 565.102C498.29 564.267 496.903 563.308 495.28 562.543C497.614 561.676 499.579 560.446 501.228 558.902ZM491.598 561.269C491.594 561.262 491.595 561.263 491.599 561.271C491.599 561.27 491.598 561.27 491.598 561.269Z" stroke="#2EC5E7" stroke-width="5.48455"/>
<path d="M142.891 10.9134C142.506 11.4093 141.906 12.1822 141.484 13.1226C141.095 12.7126 140.649 12.3336 140.145 11.9909C140.047 11.9243 139.946 11.8537 139.84 11.78C139.67 11.6621 139.488 11.5363 139.296 11.4062C139.899 11.0298 140.455 10.6011 140.966 10.1224C141.209 9.89457 141.439 9.65871 141.655 9.41604C142.022 9.9729 142.477 10.4368 142.96 10.8209C142.949 10.8357 142.939 10.8506 142.928 10.8655C142.916 10.8812 142.903 10.8972 142.891 10.9134Z" stroke="#8B5CF6" stroke-width="5.48455"/>
<path d="M11.2748 701.205C10.7503 701.882 9.97622 702.881 9.59946 704.07C9.49686 704.385 9.39855 704.705 9.30384 705.028C8.76026 704.102 7.99805 703.28 6.99574 702.599C6.88825 702.525 6.77767 702.449 6.66391 702.37C6.09823 701.978 5.4541 701.532 4.7205 701.126C5.88841 700.604 6.90265 699.924 7.77925 699.103C8.39083 698.53 8.91869 697.904 9.37777 697.241C9.80507 698.725 10.9018 699.729 12.017 700.395C11.7554 700.615 11.5147 700.868 11.3139 701.154C11.301 701.171 11.288 701.188 11.2748 701.205Z" stroke="#2A47CB" stroke-width="4.11341"/>
</svg>
