<svg width="36" height="36" viewBox="0 0 36 36" fill="none" xmlns="http://www.w3.org/2000/svg">
<rect width="36" height="36" fill="#412D72"/>
<path d="M1.5 28.5H34.5V31.5H1.5V28.5ZM33 4.5H3V27H32.985L33 4.5ZM23.205 22.545L20.07 19.41C18.045 20.715 15.315 20.475 13.53 18.705C11.475 16.65 11.475 13.335 13.53 11.28C15.585 9.225 18.9 9.225 20.955 11.28C22.725 13.05 22.965 15.78 21.66 17.82L24.795 20.955L23.205 22.545Z" fill="#2EC5E7"/>
<path d="M17.25 18C18.9069 18 20.25 16.6569 20.25 15C20.25 13.3431 18.9069 12 17.25 12C15.5931 12 14.25 13.3431 14.25 15C14.25 16.6569 15.5931 18 17.25 18Z" fill="#2EC5E7"/>
</svg>
