<svg width="428" height="428" viewBox="0 0 428 428" fill="none" xmlns="http://www.w3.org/2000/svg">
<g clip-path="url(#clip0_384_1265)">
<path d="M214 428C332.189 428 428 332.189 428 214C428 95.8111 332.189 0 214 0C95.8111 0 0 95.8111 0 214C0 332.189 95.8111 428 214 428Z" fill="#AE8FF9"/>
<path d="M123.561 317.65C123.348 317.65 123.147 317.516 123.074 317.301L93.8231 232.658C93.7296 232.389 93.8723 232.094 94.1412 232.003C94.4102 231.909 94.7049 232.052 94.7961 232.323L124.047 316.967C124.141 317.236 123.998 317.53 123.729 317.622C123.673 317.64 123.617 317.65 123.561 317.65Z" fill="#101623"/>
<path d="M227.124 317.649C226.956 317.649 226.79 317.564 226.692 317.412C226.537 317.174 226.605 316.853 226.844 316.699L282.909 280.385C283.148 280.228 283.468 280.298 283.623 280.537C283.777 280.775 283.709 281.096 283.471 281.25L227.405 317.564C227.318 317.621 227.22 317.649 227.124 317.649Z" fill="#101623"/>
<path d="M302.475 168.735C302.456 168.735 302.435 168.735 302.416 168.731L177.141 154.335C176.858 154.303 176.654 154.048 176.687 153.765C176.72 153.482 176.977 153.274 177.258 153.311L302.533 167.706C302.816 167.739 303.02 167.994 302.987 168.277C302.956 168.539 302.734 168.733 302.475 168.733V168.735Z" fill="#101623"/>
<path d="M50.5977 293.753C50.5673 293.753 50.5345 293.751 50.5041 293.744C50.2235 293.692 50.0387 293.423 50.0901 293.143L64.2679 216.8C64.3194 216.519 64.5907 216.332 64.869 216.386C65.1497 216.437 65.3344 216.706 65.283 216.987L51.1052 293.33C51.0584 293.578 50.8432 293.751 50.5977 293.751V293.753Z" fill="#101623"/>
<path d="M110.483 351.854C110.403 351.854 110.324 351.835 110.247 351.798L57.4482 324.654C57.1956 324.523 57.095 324.211 57.226 323.959C57.3569 323.706 57.668 323.606 57.9206 323.737L110.719 350.881C110.972 351.012 111.072 351.323 110.941 351.575C110.85 351.753 110.67 351.856 110.483 351.856V351.854Z" fill="#101623"/>
<path d="M294.645 393.383C294.607 393.383 294.572 393.378 294.535 393.371L224.544 378.223C224.266 378.162 224.088 377.889 224.149 377.61C224.209 377.332 224.485 377.154 224.761 377.215L294.752 392.363C295.031 392.424 295.208 392.698 295.148 392.976C295.096 393.217 294.881 393.383 294.645 393.383Z" fill="#101623"/>
<path d="M331.513 355.958C331.48 355.958 331.447 355.956 331.417 355.949C331.136 355.895 330.954 355.626 331.007 355.345C333.889 340.213 338.211 315.562 337.54 313.829C337.439 313.567 337.561 313.263 337.818 313.156C338.075 313.05 338.368 313.156 338.482 313.411C339.523 315.74 333.283 348.911 332.02 355.539C331.973 355.787 331.756 355.958 331.515 355.958H331.513Z" fill="#101623"/>
<path d="M309.777 166.303C309.525 166.303 309.302 166.116 309.267 165.859L300.389 101.45C300.35 101.167 300.548 100.908 300.829 100.87C301.107 100.831 301.372 101.027 301.411 101.31L310.289 165.716C310.329 165.999 310.13 166.258 309.85 166.296C309.826 166.301 309.803 166.301 309.78 166.301L309.777 166.303Z" fill="#101623"/>
<path d="M156.566 110.015C156.346 110.015 156.143 109.875 156.075 109.655C155.991 109.383 156.141 109.093 156.412 109.009L255.006 78.0107C255.278 77.9265 255.568 78.0762 255.652 78.3475C255.736 78.6188 255.586 78.9088 255.315 78.993L156.721 109.991C156.669 110.008 156.618 110.015 156.566 110.015Z" fill="#101623"/>
<path d="M173.22 106.728L165.839 110.418C163.376 107.149 160.682 104.12 157.794 101.339L162.336 94.4561L139.015 79.0551L134.462 85.9545C130.736 84.3782 126.889 83.0942 122.962 82.1189L123.453 73.8653L95.5652 72.186L95.0741 80.4209C91.0958 80.9121 87.1245 81.7166 83.1953 82.8556L79.5 75.4697L54.517 87.9589L58.2123 95.3448C54.945 97.8052 51.9163 100.497 49.1378 103.386L42.2523 98.839L26.8677 122.152L33.7695 126.71C32.1955 130.436 30.9139 134.281 29.9409 138.208L21.6873 137.71L20.0244 165.6L28.2593 166.096C28.7528 170.074 29.5597 174.048 30.701 177.977L23.3198 181.668L35.823 206.66L43.2042 202.969C45.667 206.239 48.3613 209.268 51.2497 212.048L46.7078 218.932L70.0279 234.333L74.5816 227.433C78.3073 229.009 82.1546 230.293 86.0814 231.269L85.5903 239.522L113.478 241.202L113.969 232.967C117.948 232.476 121.919 231.671 125.848 230.532L129.543 237.918L154.526 225.429L150.831 218.043C154.098 215.582 157.127 212.89 159.906 210.002L166.791 214.549L182.176 191.236L175.274 186.677C176.848 182.951 178.129 179.107 179.102 175.18L187.356 175.678L189.019 147.788L180.784 147.292C180.291 143.314 179.484 139.34 178.342 135.411L185.724 131.72L173.22 106.728ZM158.184 153.022C159.641 167.188 154.912 181.394 145.255 191.853C112.444 227.386 55.8127 208.496 50.8568 160.366C49.3997 146.2 54.1288 131.991 63.7857 121.535C96.5967 86.0013 153.228 104.892 158.184 153.022Z" fill="#573F9D"/>
<path d="M104.657 218.326C82.0288 218.326 60.2032 205.83 49.4073 184.25C42.7628 170.965 41.1303 155.74 44.8139 141.377C48.4601 127.155 57.0481 114.701 68.9924 106.302C69.2262 106.139 69.5467 106.195 69.7104 106.429C69.8741 106.662 69.818 106.983 69.5841 107.147C45.291 124.224 37.0117 157.173 50.3288 183.789C60.9446 205.007 82.4077 217.295 104.654 217.297C113.748 217.297 122.972 215.246 131.642 210.91C156.332 198.568 169.561 171.108 163.812 144.135C163.753 143.856 163.931 143.583 164.21 143.522C164.488 143.463 164.761 143.641 164.822 143.919C170.669 171.351 157.217 199.279 132.105 211.831C123.288 216.237 113.904 218.326 104.659 218.326H104.657Z" fill="#AE8FF9"/>
<path d="M143.794 193.383C119.718 217.779 83.8995 214.248 64.4033 192.134L64.5998 188.488L64.7752 185.184H140.8L141.991 188.444L143.796 193.383H143.794Z" fill="#363E44"/>
<path d="M23.8191 156.695L70.9249 137.122L53.3979 104.259L8.41113 134.514L23.8191 156.695Z" fill="#84524D"/>
<path d="M193.67 131.509L141.72 128.577L143.83 91.3921L197.363 99.9638L193.67 131.509Z" fill="#84524D"/>
<path d="M179.384 126.734C189.995 94.9029 198.747 72.689 202.728 58.3639C204.515 51.9345 205.074 45.1567 209.955 40.9889C212.118 39.1413 214.84 37.5813 216.036 39.305C217.9 41.9969 211.522 47.3388 213.103 49.4905C214.691 51.6538 222.327 48.1901 222.488 45.0327C222.619 42.4858 216.482 42.6401 217.306 39.733C217.869 37.7427 221.349 37.9204 223.683 38.4677C224.425 38.6408 227.531 39.3728 228.988 42.446C230.529 45.6969 228.894 48.7678 228.724 49.0765C230.742 48.7584 232.613 49.6004 233.233 50.9335C234.061 52.7133 232.802 55.6766 229.785 56.5045C230.174 56.4718 233.067 56.2472 233.764 57.5663C234.449 58.8597 232.985 61.561 229.519 63.6682C231.827 63.5911 233.371 64.3114 233.63 65.1277C234.36 67.415 231.542 70.8975 222.357 75.6055C221.251 80.269 217.525 99.0636 214.665 113.658C211.575 129.414 193.132 136.802 180.175 127.321C179.913 127.129 179.651 126.933 179.387 126.734H179.384Z" fill="#84524D"/>
<path d="M200.108 17.9266C200.108 7.91893 208.416 -0.149922 218.51 0.240657C227.51 0.589138 234.907 7.79498 235.473 16.7806C235.911 23.7362 232.328 29.8919 226.827 33.1569L226.509 38.6975C226.244 43.3096 222.428 46.9137 217.811 46.9137C213.192 46.9137 209.375 43.3096 209.113 38.6975L208.795 33.1569C203.598 30.0744 200.111 24.4075 200.111 17.9266H200.108Z" fill="#FFEBAF"/>
<path d="M217.809 52.045C221.423 52.045 224.351 49.1168 224.351 45.5034V43.5879H211.268V45.5034C211.268 49.1168 214.196 52.045 217.809 52.045Z" fill="#363E44"/>
<path d="M213.381 42.0427C213.123 42.0427 212.901 41.8509 212.868 41.589L209.924 17.4854L214.365 20.0019L217.621 17.5274L220.909 20.1563L225.694 18.2712L222.228 41.582C222.186 41.8626 221.922 42.0521 221.641 42.017C221.361 41.9749 221.164 41.713 221.206 41.43L224.41 19.885L220.729 21.335L217.604 18.8348L214.447 21.2344L211.194 19.3915L213.89 41.4627C213.926 41.7457 213.724 42.003 213.441 42.0357C213.42 42.0381 213.399 42.0404 213.378 42.0404L213.381 42.0427Z" fill="#363E44"/>
<path d="M211.832 74.1269C211.787 74.1269 211.741 74.1199 211.694 74.1082C211.42 74.031 211.259 73.7481 211.334 73.4744C211.654 72.3144 212.515 70.1065 214.671 68.3571C217.111 66.3808 219.767 66.1119 221.122 66.1329C221.407 66.1376 221.634 66.3715 221.631 66.6545C221.627 66.9375 221.398 67.1643 221.117 67.1643C221.082 67.1643 221.051 67.1643 221.014 67.1643C219.969 67.1643 217.52 67.3772 215.321 69.1593C213.387 70.7263 212.615 72.7096 212.328 73.7504C212.265 73.9796 212.056 74.1293 211.832 74.1293V74.1269Z" fill="#363E44"/>
<path d="M226.834 39.864C226.834 39.864 221.684 35.0859 220.498 38.262C219.542 40.8253 223.632 43.4307 224.317 46.1343C225.48 50.7161 226.832 39.864 226.832 39.864H226.834Z" fill="#84524D"/>
<path d="M227.33 69.822C227.33 69.822 227.315 69.822 227.308 69.822C223.728 69.677 220.86 68.3275 220.779 66.7465C220.725 65.701 221.878 64.6369 223.693 63.9001C221.555 63.547 220.089 62.7284 219.862 61.6526C219.572 60.282 221.239 58.5677 223.889 57.3024C221.55 57.0709 219.773 56.1728 219.466 54.9028C219.038 53.1323 221.59 50.3725 225.938 49.2429C226.214 49.1681 226.495 49.3364 226.567 49.6124C226.64 49.8884 226.474 50.1691 226.198 50.2416C222.058 51.3174 220.241 53.7264 220.467 54.6619C220.69 55.5764 223.075 56.6218 226.459 56.2546C226.745 56.2219 227.007 56.4137 227.063 56.6966C227.119 56.9773 226.953 57.2533 226.677 57.3351C222.5 58.5934 220.701 60.6445 220.87 61.4421C221.022 62.1671 223.078 63.126 226.546 63.0582C226.836 63.0629 227.086 63.2733 227.11 63.5634C227.135 63.8534 226.93 64.113 226.642 64.1574C223.412 64.6836 221.777 66.0893 221.81 66.6927C221.843 67.3312 223.828 68.6479 227.351 68.7906C227.636 68.8023 227.856 69.0408 227.844 69.3262C227.832 69.6045 227.605 69.822 227.33 69.822Z" fill="#363E44"/>
<path d="M209.56 41.2351C209.56 41.2351 214.71 36.457 215.896 39.633C216.852 42.1964 212.762 44.8018 212.077 47.5054C210.914 52.0871 209.562 41.2351 209.562 41.2351H209.56Z" fill="#84524D"/>
<path d="M157.263 187.624V188.433H156.779C156.945 188.164 157.104 187.897 157.263 187.624Z" fill="#FFB700"/>
<path d="M174.588 92.269C174.558 93.6044 174.527 94.9516 174.49 96.3011C174.382 100.333 174.254 104.417 174.113 108.517V108.531C173.877 115.832 173.617 123.186 173.433 130.363C173.398 131.647 173.365 132.927 173.334 134.199C167.085 134.987 163.806 135.385 157.262 136.215V168.837C155.7 175.921 152.596 182.631 148.129 188.436L141.987 188.44L64.5967 188.487L61.4557 188.492L58.4854 184.001L58.4129 148.819L50.765 151.216L47.4182 152.264L46.3517 147.329L45.1963 141.987V141.975L39.1108 113.861L38.8535 112.659C47.1258 106.456 67.0851 91.5416 96.6125 86.705C99.5406 86.2255 102.569 85.8443 105.682 85.58C110.065 85.2082 114.504 85.0444 118.92 85.0444C123.876 85.0444 128.806 85.2456 133.591 85.5964L133.596 85.6011H133.605L134.641 85.6783C140.792 86.1577 146.698 86.8757 152.112 87.699L152.117 87.7037C161.477 89.121 169.377 90.8657 174.583 92.262L174.588 92.269Z" fill="#FFB700"/>
<path d="M157.333 136.641H157.331C157.046 136.641 156.817 136.407 156.819 136.122C156.842 132.054 156.882 130.006 156.933 127.41C156.957 126.175 156.985 124.828 157.011 123.097C157.015 122.812 157.242 122.594 157.535 122.589C157.82 122.594 158.047 122.828 158.042 123.113C158.014 124.846 157.988 126.193 157.963 127.431C157.911 130.022 157.871 132.066 157.848 136.126C157.848 136.409 157.616 136.639 157.333 136.639V136.641Z" fill="#363E44"/>
<path d="M57.5072 149.485C57.2874 149.485 57.0816 149.343 57.0137 149.121C56.9295 148.849 57.0839 148.559 57.3552 148.475C61.8878 147.081 64.1798 146.403 67.0823 145.542C68.4621 145.133 69.966 144.689 71.9002 144.108C72.1715 144.029 72.4592 144.181 72.541 144.455C72.6229 144.728 72.4685 145.016 72.1949 145.098C70.2607 145.675 68.7568 146.122 67.3746 146.531C64.4745 147.39 62.1848 148.068 57.6569 149.46C57.6054 149.476 57.5563 149.483 57.5049 149.483L57.5072 149.485Z" fill="#363E44"/>
<path d="M26.4517 155.504C26.4517 155.504 34.5977 107.549 35.4724 101.492C35.5636 100.858 35.7297 99.74 35.5449 98.2806C34.8573 92.878 30.437 91.47 27.1229 86.1188C23.3621 80.0473 24.6812 74.4974 22.878 74.2331C21.6221 74.0483 20.5345 76.0012 19.9475 80.4683C20.0036 77.0232 19.875 72.348 17.9712 72.3223C15.7704 72.4111 15.2769 77.9213 15.1412 81.2682C15.305 77.215 14.18 75.0119 13.1158 75.2621C11.4389 75.6574 10.5806 78.7703 10.5712 84.1332C9.54217 80.4262 8.7423 79.6825 7.85355 80.1315C6.23277 80.9548 6.30761 85.3657 6.97183 89.2552C7.72024 93.6334 9.81815 96.7697 11.1887 98.7156C6.15793 117.709 7.06538 117.695 2.54448 132.909C-1.75189 147.365 8.89666 164.625 26.454 155.502L26.4517 155.504Z" fill="#84524D"/>
<path d="M29.02 91.7367C30.5589 84.8396 32.5773 82.6762 33.6625 82.9569C35.4868 83.427 36.5837 89.854 35.6037 100.217C33.5573 98.0187 31.0665 93.9352 29.02 91.7367Z" fill="#84524D"/>
<path d="M22.2712 101.898C22.2338 101.898 22.1964 101.894 22.1566 101.887C21.8783 101.823 21.7053 101.547 21.7661 101.269C22.0257 100.114 22.18 98.3246 21.4363 96.36C20.3838 93.5792 18.1596 92.2039 17.2522 91.7409C16.9973 91.6122 16.8967 91.3012 17.0277 91.0486C17.1563 90.7936 17.4674 90.6931 17.7223 90.824C18.7373 91.3409 21.2235 92.8799 22.4022 95.9951C23.2372 98.1983 23.0641 100.203 22.7741 101.496C22.7203 101.735 22.5075 101.898 22.2712 101.898Z" fill="#363E44"/>
<path d="M34.1897 95.4568C34.0143 95.4568 33.8435 95.3679 33.7476 95.2065C32.9852 93.9342 31.907 92.842 30.7633 91.6866C30.2114 91.1277 29.6384 90.5476 29.0607 89.9115C28.8689 89.701 28.8853 89.3736 29.0958 89.1818C29.3063 88.99 29.6337 89.0064 29.8231 89.2169C30.3844 89.8366 30.9481 90.4073 31.493 90.9593C32.6811 92.1614 33.8014 93.2957 34.6294 94.6756C34.7767 94.9188 34.6972 95.2369 34.4516 95.3819C34.3674 95.4311 34.2762 95.4544 34.1873 95.4544L34.1897 95.4568Z" fill="#363E44"/>
<path d="M21.8941 87.1125C21.714 87.1125 21.5386 87.019 21.4451 86.8506C21.0054 86.0741 20.6382 85.2532 20.3505 84.4112C19.9342 83.1904 19.6793 81.9134 19.5998 80.62C19.581 80.337 19.7986 80.0914 20.0815 80.0727C20.3692 80.061 20.6101 80.2715 20.6288 80.5545C20.7037 81.7567 20.9399 82.9424 21.3258 84.0768C21.5924 84.8579 21.9339 85.6204 22.3432 86.3407C22.4835 86.5886 22.397 86.9044 22.1467 87.0447C22.0672 87.0891 21.9807 87.1102 21.8941 87.1102V87.1125Z" fill="#363E44"/>
<path d="M17.1295 87.3917C16.9494 87.3917 16.774 87.2982 16.6804 87.1298C16.2407 86.3533 15.8735 85.5324 15.5859 84.6904C15.1696 83.4696 14.917 82.1926 14.8351 80.8992C14.8164 80.6162 15.0339 80.3707 15.3169 80.3519C15.6069 80.3356 15.8455 80.5507 15.8642 80.8337C15.939 82.0382 16.1752 83.2217 16.5611 84.356C16.8278 85.1371 17.1692 85.8996 17.5785 86.6199C17.7188 86.8678 17.63 87.1836 17.3821 87.3239C17.3025 87.3683 17.216 87.3894 17.1295 87.3894V87.3917Z" fill="#363E44"/>
<path d="M12.3956 90.7564C12.2155 90.7564 12.0401 90.6628 11.9465 90.4945C11.5068 89.718 11.1396 88.897 10.852 88.0551C10.4357 86.8342 10.1831 85.5596 10.1012 84.2639C10.0825 83.9809 10.3 83.7353 10.583 83.7166C10.8683 83.7073 11.1116 83.9154 11.1303 84.1984C11.2051 85.4029 11.4414 86.5863 11.8273 87.7206C12.0939 88.5018 12.4377 89.2642 12.8446 89.9846C12.985 90.2325 12.8984 90.5482 12.6482 90.6886C12.5687 90.733 12.4821 90.7541 12.3956 90.7541V90.7564Z" fill="#363E44"/>
<path d="M30.131 133.749C30.1053 133.749 30.0772 133.749 30.0491 133.742C29.7685 133.697 29.5767 133.433 29.6211 133.153L31.9857 118.236C32.0301 117.955 32.2944 117.763 32.575 117.808C32.8557 117.852 33.0475 118.116 33.003 118.397L30.6385 133.314C30.5988 133.569 30.3789 133.749 30.1287 133.749H30.131Z" fill="#363E44"/>
<path d="M95.82 56.9545C97.8617 59.7096 97.6161 63.3535 95.2703 65.0912C92.9245 66.8289 89.3672 66.0034 87.3254 63.2482C85.2837 60.4931 85.5292 56.8493 87.8751 55.1116C90.2209 53.3738 93.7782 54.1994 95.82 56.9545Z" fill="#84524D"/>
<path d="M121.035 55.6711C119.284 58.6203 119.899 62.2197 122.408 63.7096C124.918 65.1994 128.372 64.0183 130.124 61.0691C131.876 58.1198 131.261 54.5204 128.751 53.0306C126.242 51.5408 122.787 52.7219 121.035 55.6711Z" fill="#84524D"/>
<path d="M123.196 33.1426L91.5083 34.7866L92.8631 60.8993L124.551 59.2552L123.196 33.1426Z" fill="#363E44"/>
<path d="M97.6343 64.3735L119.815 65.3924L118.691 89.8725C118.462 94.8653 114.222 98.7326 109.229 98.5033L105.141 98.3155C100.148 98.0861 96.2805 93.8464 96.5098 88.8536L97.6343 64.3735Z" fill="#84524D"/>
<path d="M123.912 58.6242C124.415 68.5103 118.002 76.8739 109.587 77.3019C101.172 77.7299 93.9431 70.0633 93.4403 60.1749C92.9374 50.2888 99.3504 44.6406 107.765 44.2126C116.18 43.7846 123.41 48.7358 123.912 58.6242Z" fill="#84524D"/>
<path d="M108.913 77.8352C104.944 77.8352 101.155 76.1208 98.1757 72.9611C97.9793 72.7553 97.991 72.4279 98.1968 72.2314C98.4049 72.0349 98.73 72.0466 98.9265 72.2525C101.871 75.3748 105.653 76.9932 109.566 76.785C113.481 76.5862 117.078 74.6006 119.688 71.1953C119.861 70.9708 120.186 70.9264 120.411 71.0994C120.638 71.2725 120.68 71.5976 120.507 71.8221C117.707 75.473 113.841 77.6013 109.617 77.8141C109.383 77.8258 109.147 77.8328 108.913 77.8328V77.8352Z" fill="#363E44"/>
<path d="M123.911 63.9432C123.881 63.9432 123.851 63.9408 123.818 63.9361C123.537 63.8847 123.352 63.6157 123.401 63.3374C123.68 61.8102 123.778 60.2338 123.698 58.6551C123.626 57.2472 123.413 55.8509 123.06 54.5108C122.987 54.2348 123.154 53.9542 123.427 53.8817C123.705 53.8138 123.984 53.9752 124.056 54.2512C124.426 55.6615 124.65 57.1256 124.725 58.606C124.809 60.2642 124.704 61.9201 124.414 63.5245C124.37 63.7748 124.152 63.9478 123.907 63.9478L123.911 63.9432Z" fill="#363E44"/>
<path d="M93.9108 65.3577C93.6862 65.3577 93.4804 65.2104 93.4149 64.9835C92.9752 63.4423 92.711 61.8332 92.6291 60.203C92.5519 58.6922 92.6314 57.186 92.8677 55.7196C92.9121 55.4389 93.1787 55.2471 93.4594 55.2916C93.74 55.336 93.9318 55.6003 93.8874 55.8833C93.6652 57.2772 93.588 58.7132 93.6605 60.1516C93.74 61.7045 93.9903 63.2365 94.4089 64.7029C94.4861 64.9765 94.3271 65.2618 94.0534 65.3414C94.0066 65.3554 93.9599 65.3601 93.9108 65.3601V65.3577Z" fill="#363E44"/>
<path d="M99.0979 60.3958C99.3763 60.7326 100.316 60.8098 100.716 60.9033C101.369 61.0553 102.253 61.3196 102.896 61.046C103.02 60.9945 103.151 61.0413 103.205 61.1465C104.94 60.9127 106.236 60.2227 106.236 60.2227C106.236 60.2227 105.642 59.4229 104.613 58.609C104.552 58.6721 104.458 58.7002 104.36 58.6394C103.612 58.1646 103.041 57.6688 102.169 57.3764C101.077 57.0092 99.9001 56.9063 98.7635 57.1098C98.677 57.1262 98.5694 57.0934 98.5179 57.0162C96.9533 57.2875 95.8213 57.8886 95.8213 57.8886C95.8213 57.8886 96.9579 59.4088 98.8079 60.3935C98.8875 60.3139 99.0114 60.2882 99.1026 60.4005L99.0979 60.3958Z" fill="white"/>
<mask id="mask0_384_1265" style="mask-type:luminance" maskUnits="userSpaceOnUse" x="95" y="56" width="12" height="6">
<path d="M106.233 60.2215C106.233 60.2215 103.452 61.7066 100.575 61.0611C97.6983 60.4156 95.8179 57.885 95.8179 57.885C95.8179 57.885 98.601 56.3999 101.475 57.0454C104.352 57.6909 106.233 60.2215 106.233 60.2215Z" fill="white"/>
</mask>
<g mask="url(#mask0_384_1265)">
<path d="M103.665 60.7487C102.395 62.0094 100.347 62.0023 99.0837 60.7347C97.8231 59.4647 97.8301 57.416 99.0977 56.153C100.368 54.8924 102.416 54.8994 103.679 56.167C104.94 57.437 104.933 59.4858 103.665 60.7464V60.7487Z" fill="#363E44"/>
</g>
<path d="M118.987 55.897C118.295 56.5799 116.866 56.8956 115.991 57.1786C115.152 57.4499 114.073 58.058 113.154 57.9013C111.992 58.9842 111.372 60.1091 111.372 60.1091C111.372 60.1091 113.002 60.7102 114.974 60.598C115.657 60.5582 116.139 59.6203 116.85 59.3537C117.72 59.0286 118.709 59.3444 119.324 58.8158C120.659 57.6674 121.37 56.3717 121.37 56.3717C121.37 56.3717 120.369 56.0046 118.99 55.8993L118.987 55.897Z" fill="white"/>
<mask id="mask1_384_1265" style="mask-type:luminance" maskUnits="userSpaceOnUse" x="111" y="55" width="11" height="6">
<path d="M111.368 60.1083C111.368 60.1083 114.326 61.1982 117.088 60.1644C119.848 59.1307 121.366 56.3662 121.366 56.3662C121.366 56.3662 118.407 55.2763 115.645 56.3101C112.886 57.3438 111.368 60.1083 111.368 60.1083Z" fill="white"/>
</mask>
<g mask="url(#mask1_384_1265)">
<path d="M114.374 60.254C115.803 61.3298 117.833 61.0422 118.909 59.6132C119.985 58.1842 119.697 56.1541 118.268 55.0782C116.839 54.0024 114.809 54.2901 113.733 55.7191C112.657 57.1481 112.945 59.1782 114.374 60.254Z" fill="#363E44"/>
</g>
<path d="M109.739 65.54C109.585 65.54 109.433 65.4698 109.33 65.3389C109.157 65.112 109.199 64.7892 109.423 64.6162C109.669 64.4267 109.963 64.1437 109.968 63.8771C109.97 63.7321 109.884 63.6011 109.713 63.3649C109.512 63.0843 109.259 62.7334 109.15 62.2025C109.051 61.7254 109.091 61.2249 109.271 60.7104C109.365 60.4414 109.659 60.2987 109.928 60.3946C110.197 60.4882 110.34 60.7829 110.244 61.0518C110.127 61.3863 110.099 61.7044 110.16 61.9944C110.225 62.3101 110.384 62.5323 110.55 62.7638C110.766 63.0632 111.009 63.4023 110.999 63.8982C110.988 64.4408 110.67 64.9576 110.052 65.4324C109.959 65.5049 109.849 65.54 109.739 65.54Z" fill="#363E44"/>
<path d="M107.369 69.0134C106.724 69.0134 105.76 68.8848 104.818 68.2767C104.219 67.8908 103.709 67.3552 103.344 66.7331C103.199 66.4875 103.281 66.1718 103.527 66.0268C103.772 65.8818 104.088 65.966 104.233 66.2092C104.518 66.6957 104.914 67.1096 105.377 67.409C106.263 67.982 107.182 68.0077 107.652 67.9703C107.938 67.9422 108.183 68.1598 108.207 68.4451C108.228 68.7281 108.017 68.976 107.732 68.9994C107.627 69.0064 107.505 69.0134 107.369 69.0134Z" fill="#363E44"/>
<path d="M407.621 189.72L400.24 193.411C397.777 190.141 395.083 187.113 392.195 184.332L396.736 177.449L373.416 162.048L368.863 168.947C365.137 167.371 361.29 166.087 357.363 165.112L357.854 156.858L329.966 155.179L329.475 163.414C325.497 163.905 321.525 164.709 317.596 165.848L313.901 158.462L288.918 170.952L292.613 178.337C289.346 180.798 286.317 183.49 283.539 186.378L276.653 181.832L261.269 205.145L268.17 209.703C266.596 213.429 265.315 217.274 264.342 221.201L256.088 220.702L254.425 248.593L262.66 249.088C263.154 253.067 263.961 257.04 265.102 260.97L257.721 264.66L270.224 289.653L277.605 285.962C280.068 289.232 282.762 292.26 285.651 295.041L281.109 301.924L304.429 317.325L308.982 310.426C312.708 312.002 316.555 313.286 320.482 314.261L319.991 322.515L347.879 324.194L348.37 315.959C352.348 315.468 356.32 314.664 360.249 313.525L363.944 320.911L388.927 308.421L385.232 301.036C388.499 298.575 391.528 295.883 394.306 292.995L401.192 297.541L416.577 274.228L409.675 269.67C411.249 265.944 412.53 262.099 413.503 258.172L421.757 258.671L423.42 230.78L415.185 230.285C414.691 226.306 413.885 222.333 412.743 218.403L420.124 214.713L407.621 189.72ZM392.585 236.015C394.042 250.181 389.313 264.387 379.656 274.846C346.845 310.379 290.214 291.489 285.258 243.358C283.801 229.192 288.53 214.984 298.187 204.527C330.998 168.994 387.629 187.884 392.585 236.015Z" fill="#352F75"/>
<path d="M339.058 301.316C316.43 301.316 294.604 288.82 283.808 267.24C277.164 253.956 275.531 238.73 279.215 224.368C282.861 210.148 291.449 197.691 303.393 189.295C303.627 189.131 303.948 189.187 304.111 189.421C304.275 189.655 304.219 189.975 303.987 190.139C279.694 207.217 271.415 240.166 284.732 266.782C295.348 288.002 316.811 300.287 339.058 300.29C348.151 300.29 357.375 298.238 366.045 293.902C390.736 281.56 403.964 254.101 398.215 227.127C398.157 226.849 398.334 226.575 398.613 226.517C398.891 226.454 399.165 226.634 399.225 226.914C405.072 254.346 391.62 282.274 366.508 294.826C357.691 299.232 348.308 301.321 339.06 301.321L339.058 301.316Z" fill="#AE8FF9"/>
<path d="M337.507 143.521H316.697V181.751H337.507V143.521Z" fill="#9E6C5A"/>
<path d="M276.582 188.22C243.205 202.075 226.916 213.842 233.193 226.046C236.834 233.125 260.512 231.928 287.427 222.39C284.719 211.295 280.156 201.57 276.582 188.22Z" fill="#E2A18D"/>
<path d="M385.992 187.245C398.416 200.522 436.503 236.806 421.925 251.578C409.867 263.798 374.247 226.934 361.096 214.489C369.394 205.408 377.692 196.324 385.99 187.242L385.992 187.245Z" fill="#E2A18D"/>
<path d="M396.076 185.685L395.411 187.619L393.002 194.575L386.129 214.468L381.9 226.714L382.375 229.509L383.355 235.27L387.651 260.568L387.986 262.533C385.862 266.993 383.067 271.149 379.657 274.842C346.846 310.376 290.21 291.487 285.261 243.355C285.055 241.365 284.971 239.374 285.013 237.389L286.049 228.148L286.473 224.399L285.895 222.923L282.882 215.266L272.858 189.782L272.318 188.4L271.89 187.317C271.89 187.317 272.421 187.1 273.422 186.719C274.846 186.183 277.213 185.311 280.326 184.249C282.684 183.449 285.462 182.546 288.582 181.594C296.321 179.237 306.147 176.617 316.701 174.721C318.507 174.4 320.331 174.096 322.172 173.822C322.193 173.818 322.209 173.813 322.228 173.813C325.544 173.313 328.905 172.901 332.278 172.597C334.016 172.443 335.763 172.349 337.512 172.309C337.652 172.305 337.79 172.298 337.924 172.298C338.719 172.281 339.507 172.277 340.295 172.288C340.698 172.288 341.1 172.293 341.497 172.302C351.636 172.513 361.686 174.374 370.339 176.643C380.034 179.176 387.981 182.228 392.369 184.059C394.745 185.049 396.076 185.683 396.076 185.683V185.685Z" fill="white"/>
<path d="M333.156 119.829C332.307 119.635 324.142 117.898 318.448 122.9C314.21 126.621 313.071 131.954 312.514 141.185C311.859 152.056 312.986 158.644 315.814 161.17C320.284 165.162 335.937 159.538 342.67 150.84C347.53 144.562 348.204 135.757 344.855 128.495C341.515 121.254 333.699 119.956 333.156 119.832V119.829Z" fill="#E2A18D"/>
<path d="M331.507 187.234H332.218C337.343 187.234 341.498 183.079 341.498 177.954V149.352C341.498 144.227 337.343 140.072 332.218 140.072H331.507C326.381 140.072 322.226 144.227 322.226 149.352V177.954C322.226 183.079 326.381 187.234 331.507 187.234Z" fill="#E2A18D"/>
<path d="M322.181 163.209C321.924 163.209 321.702 163.018 321.669 162.756C321.634 162.473 321.837 162.215 322.12 162.183C328.283 161.444 337.503 157.005 342.262 150.858C342.435 150.631 342.76 150.592 342.985 150.767C343.209 150.942 343.251 151.265 343.076 151.49C337.968 158.087 328.529 162.452 322.242 163.207C322.221 163.209 322.2 163.212 322.179 163.212L322.181 163.209Z" fill="#363E44"/>
<path d="M332.027 195.83C341.361 195.83 348.927 190.393 348.927 183.686C348.927 176.98 341.361 171.543 332.027 171.543C322.693 171.543 315.127 176.98 315.127 183.686C315.127 190.393 322.693 195.83 332.027 195.83Z" fill="#E2A18D"/>
<path d="M330.068 138.723C330.068 138.723 328.679 141.754 325.854 143.882C325.26 144.332 322.769 138.681 323.538 138.522C326.944 137.82 330.068 138.723 330.068 138.723Z" fill="white"/>
<path d="M315.024 145.623C315.024 145.623 319.72 146.977 323.874 145.073C324.599 144.741 325.261 144.329 325.857 143.878C326.077 141.747 325.149 139.748 323.549 138.522C322.775 138.681 321.984 138.922 321.215 139.275C317.061 141.179 315.024 145.623 315.024 145.623Z" fill="#363E44"/>
<path d="M318.613 153.258C318.036 153.258 317.449 153.078 316.946 152.718C316.714 152.552 316.66 152.229 316.826 151.997C316.993 151.766 317.313 151.712 317.547 151.878C318.185 152.336 319.034 152.341 319.61 151.892C320.325 151.331 320.206 150.327 320.206 150.316C320.171 150.033 320.367 149.775 320.65 149.738C320.931 149.705 321.191 149.897 321.228 150.178C321.237 150.243 321.429 151.775 320.248 152.704C319.778 153.071 319.2 153.256 318.616 153.256L318.613 153.258Z" fill="#363E44"/>
<path d="M313.084 144.714C313.049 145.243 312.918 146.012 312.452 146.765C311.891 147.675 311.255 147.888 311.192 148.501C311.15 148.91 311.36 149.532 312.612 150.393L313.084 144.717V144.714Z" fill="#E2A18D"/>
<path d="M312.611 150.908C312.511 150.908 312.408 150.88 312.319 150.817C311.136 150.001 310.598 149.227 310.679 148.448C310.733 147.926 311.051 147.606 311.355 147.295C311.564 147.084 311.797 146.846 312.015 146.495C312.335 145.976 312.522 145.365 312.569 144.68C312.588 144.397 312.831 144.191 313.119 144.201C313.402 144.219 313.617 144.467 313.598 144.75C313.54 145.604 313.301 146.373 312.892 147.037C312.614 147.487 312.324 147.781 312.09 148.017C311.823 148.289 311.72 148.406 311.704 148.553C311.669 148.901 312.104 149.418 312.904 149.968C313.138 150.129 313.198 150.45 313.037 150.686C312.936 150.831 312.775 150.908 312.611 150.908Z" fill="#363E44"/>
<path d="M346.48 117.053C329.699 109.155 312.097 119.692 313.473 132.492C313.473 132.492 319.787 125.197 319.787 125.045C320.933 127.297 322.966 130.583 326.423 133.64C331.762 138.362 337.497 139.882 340.296 140.427V207.764H353.305V191.013L357.112 207.764H371.746C371.746 207.764 373.4 129.72 346.48 117.053Z" fill="#9E6C5A"/>
<path d="M342.114 146.827C344.16 143.641 343.636 139.657 340.944 137.928C338.252 136.199 334.411 137.38 332.366 140.566C330.32 143.751 330.844 147.735 333.536 149.464C336.228 151.193 340.069 150.012 342.114 146.827Z" fill="#E2A18D"/>
<path d="M339.291 146.366C339.167 146.366 339.04 146.321 338.942 146.23C338.732 146.038 338.718 145.711 338.909 145.5C339.047 145.351 339.174 145.185 339.286 145.011C340.17 143.634 339.974 141.924 338.846 141.202C338.58 141.031 338.28 140.926 337.957 140.89C337.674 140.86 337.469 140.607 337.499 140.322C337.529 140.039 337.784 139.831 338.067 139.864C338.552 139.915 339.001 140.072 339.403 140.332C341.007 141.363 341.344 143.711 340.154 145.566C340.011 145.788 339.847 146.001 339.669 146.195C339.569 146.305 339.429 146.361 339.288 146.361L339.291 146.366Z" fill="#363E44"/>
<path d="M231.179 152.036C228.651 144.148 229.411 140.766 230.674 140.406C232.797 139.8 237.713 145.649 242.861 156.714C239.489 155.704 234.551 153.047 231.179 152.036Z" fill="#E2A18D"/>
<path d="M266.435 217.279C254.481 186.833 246.585 165.005 243.882 158.362C243.599 157.668 243.105 156.438 242.053 155.072C238.156 150.013 232.852 151.208 226.329 147.758C218.927 143.843 216.976 137.451 214.993 138.251C213.613 138.808 213.671 141.427 215.722 146.294C213.739 142.777 210.839 138.125 208.898 139.226C206.725 140.618 209.489 146.486 211.335 149.952C209.101 145.756 206.657 144.192 205.729 145.076C204.267 146.467 205.242 150.125 208.409 155.556C205.174 152.417 203.921 152.137 203.292 153.119C202.141 154.91 204.828 159.328 207.806 162.867C211.155 166.852 215.135 168.782 217.673 169.937C223.833 192.13 232.318 223.877 232.318 223.877C232.318 223.877 255.936 223.465 266.43 217.277L266.435 217.279Z" fill="#E2A18D"/>
<path d="M238.706 153.012C238.622 153.012 238.538 152.991 238.458 152.949C236.924 152.109 235.182 151.641 233.334 151.148C232.445 150.909 231.524 150.664 230.567 150.362C230.296 150.276 230.144 149.988 230.23 149.717C230.315 149.445 230.607 149.293 230.878 149.38C231.816 149.674 232.724 149.918 233.603 150.154C235.511 150.664 237.312 151.148 238.956 152.046C239.207 152.184 239.298 152.495 239.16 152.745C239.066 152.916 238.889 153.014 238.706 153.014V153.012Z" fill="#363E44"/>
<path d="M220.595 151.237C220.507 151.237 220.418 151.214 220.336 151.167C219.438 150.645 218.582 150.037 217.796 149.359C216.657 148.377 215.649 147.242 214.805 145.987C214.646 145.75 214.709 145.43 214.945 145.271C215.181 145.112 215.502 145.175 215.661 145.411C216.453 146.59 217.398 147.656 218.469 148.578C219.206 149.214 220.008 149.785 220.853 150.276C221.098 150.419 221.182 150.734 221.04 150.98C220.944 151.146 220.771 151.237 220.593 151.237H220.595Z" fill="#363E44"/>
<path d="M215.936 154.343C215.847 154.343 215.759 154.319 215.677 154.272C214.779 153.751 213.923 153.143 213.139 152.465C212 151.482 210.992 150.348 210.148 149.092C209.989 148.856 210.052 148.535 210.288 148.376C210.524 148.217 210.845 148.28 211.004 148.517C211.797 149.695 212.742 150.762 213.813 151.683C214.549 152.32 215.352 152.89 216.196 153.381C216.442 153.524 216.526 153.84 216.383 154.085C216.287 154.249 216.114 154.343 215.936 154.343Z" fill="#363E44"/>
<path d="M213.142 160.552C213.054 160.552 212.965 160.528 212.883 160.481C211.982 159.958 211.129 159.349 210.345 158.674C209.206 157.691 208.201 156.557 207.354 155.301C207.195 155.065 207.258 154.744 207.494 154.585C207.73 154.426 208.051 154.489 208.21 154.726C209.003 155.904 209.948 156.971 211.019 157.895C211.753 158.529 212.555 159.099 213.402 159.593C213.648 159.735 213.732 160.051 213.589 160.297C213.493 160.46 213.32 160.554 213.142 160.554V160.552Z" fill="#363E44"/>
<path d="M230.065 166.305C229.848 166.305 229.644 166.164 229.574 165.945C229.148 164.609 228.234 162.691 226.302 161.131C223.566 158.921 220.476 158.849 219.274 158.919C218.993 158.924 218.745 158.72 218.729 158.435C218.713 158.152 218.93 157.906 219.213 157.89C220.534 157.813 223.935 157.894 226.95 160.329C229.08 162.05 230.086 164.162 230.556 165.631C230.643 165.902 230.493 166.193 230.222 166.279C230.17 166.295 230.116 166.305 230.065 166.305Z" fill="#363E44"/>
<path d="M266.3 217.447C266.094 217.447 265.9 217.323 265.821 217.12C263.185 210.403 260.586 203.702 257.88 196.639C257.778 196.372 257.911 196.075 258.178 195.972C258.442 195.869 258.741 196.003 258.844 196.269C261.55 203.33 264.146 210.028 266.782 216.743C266.887 217.007 266.756 217.307 266.49 217.412C266.429 217.435 266.363 217.447 266.302 217.447H266.3Z" fill="#363E44"/>
<path d="M408.362 224.584C394.317 227.639 360.889 233.198 357.647 233.872C351.588 235.13 321.663 240.098 322.427 246.003C322.725 248.288 326.413 248.611 328.529 248.15C327.002 249.366 324.631 251.048 325.601 253.441C326.74 256.254 331.069 254.961 331.235 254.984C329.561 256.062 327.898 257.852 328.555 259.676C329.411 262.047 331.717 262.447 333.934 261.797C333.792 262.169 331.619 263.944 332.384 266.131C332.95 267.747 335.307 267.955 338.149 267.602C343.533 266.489 364.692 263.287 375.043 262.223C399.355 259.718 418.585 253.609 418.585 253.609C418.585 253.609 415.254 228.1 408.362 224.584Z" fill="#E2A18D"/>
<path d="M382.807 229.585C382.561 229.585 382.346 229.409 382.299 229.162C382.248 228.881 382.435 228.614 382.713 228.563C389.505 227.326 403.587 224.732 408.257 223.771C408.536 223.714 408.809 223.892 408.865 224.171C408.924 224.449 408.744 224.722 408.466 224.781C403.786 225.745 389.697 228.341 382.9 229.578C382.87 229.585 382.837 229.587 382.807 229.587V229.585Z" fill="#363E44"/>
<path d="M227.294 311.492L221.407 314.434C219.445 311.826 217.296 309.41 214.992 307.193L218.615 301.704L200.017 289.423L196.387 294.926C193.414 293.668 190.348 292.646 187.216 291.867L187.609 285.285L165.37 283.945L164.979 290.513C161.805 290.903 158.639 291.546 155.505 292.454L152.558 286.565L132.634 296.526L135.58 302.415C132.975 304.377 130.559 306.524 128.344 308.828L122.853 305.2L110.583 323.791L116.087 327.426C114.831 330.396 113.811 333.462 113.034 336.594L106.453 336.196L105.127 358.438L111.694 358.834C112.087 362.007 112.733 365.174 113.64 368.308L107.753 371.25L117.724 391.182L123.61 388.239C125.573 390.847 127.722 393.263 130.026 395.48L126.403 400.969L145.001 413.25L148.631 407.747C151.604 409.006 154.67 410.028 157.801 410.806L157.408 417.388L179.648 418.728L180.039 412.161C183.212 411.77 186.379 411.127 189.513 410.219L192.46 416.108L212.384 406.147L209.437 400.258C212.043 398.296 214.459 396.149 216.674 393.845L222.165 397.473L234.434 378.882L228.931 375.247C230.187 372.277 231.207 369.211 231.983 366.079L238.565 366.477L239.891 344.235L233.323 343.84C232.931 340.666 232.285 337.499 231.378 334.365L237.264 331.423L227.294 311.492ZM215.303 348.41C216.465 359.706 212.693 371.035 204.991 379.375C178.827 407.71 133.665 392.648 129.715 354.266C128.552 342.97 132.325 331.64 140.026 323.3C166.193 294.966 211.353 310.028 215.303 348.41Z" fill="white"/>
<path d="M172.618 400.589C154.534 400.589 137.094 390.604 128.466 373.356C123.155 362.74 121.852 350.573 124.797 339.095C127.711 327.73 134.573 317.776 144.117 311.066C144.351 310.903 144.672 310.959 144.835 311.193C144.999 311.427 144.943 311.747 144.711 311.911C125.381 325.499 118.793 351.717 129.39 372.897C137.838 389.781 154.916 399.559 172.618 399.559C179.854 399.559 187.193 397.927 194.093 394.477C213.739 384.657 224.266 362.805 219.691 341.342C219.632 341.064 219.81 340.79 220.088 340.732C220.367 340.669 220.64 340.849 220.701 341.129C225.374 363.051 214.623 385.368 194.556 395.401C187.511 398.923 180.011 400.591 172.623 400.591L172.618 400.589Z" fill="#AE8FF9"/>
<path d="M202.397 310.264C226.98 331.102 252.143 345.011 240.599 357.276C233.765 364.535 209.189 345.168 187.7 328.247C193 321.932 197.097 316.578 202.397 310.264Z" fill="#BC8271"/>
<path d="M219.598 319.771L217.488 322.426L210.294 331.496L204.075 339.34L204.344 341.145L209.185 373.942C207.957 375.86 206.556 377.68 204.987 379.378C192.627 392.765 176.028 396.463 161.537 392.59C161.521 392.625 161.502 392.657 161.481 392.693C160.538 394.161 158.96 394.058 157.491 393.326C157.987 393.976 158.784 394.781 159.203 395.632L152.299 395.679L151.391 395.684L139.716 395.766L138.694 386.439L137.646 376.868L137.527 375.806L135.948 361.374L129.888 355.763L127.093 353.174L123.772 350.101L114.494 341.515L111.84 339.054C111.84 339.054 126.191 319.191 148.524 309.312C152.444 307.579 156.609 306.15 160.983 305.196C164.397 304.447 167.742 304.015 170.993 303.846C198.719 302.387 219.593 319.776 219.593 319.776L219.598 319.771Z" fill="#352F75"/>
<path d="M163.665 322.036C157.474 323.599 151.189 319.847 149.627 313.657L144.26 292.392C142.697 286.201 146.449 279.917 152.639 278.355C158.83 276.792 165.115 280.544 166.677 286.735L172.044 307.999C173.607 314.19 169.855 320.474 163.665 322.036Z" fill="#BC8271"/>
<path d="M141.14 248.475C142.148 247.825 151.88 241.727 161.476 245.203C168.616 247.79 172.487 253.873 177.368 265.087C183.117 278.295 184.637 287.035 182.135 291.542C178.18 298.661 155.472 299.21 142.873 291.637C133.778 286.169 128.941 275.539 129.977 264.893C131.011 254.275 140.497 248.891 141.14 248.477V248.475Z" fill="#BC8271"/>
<path d="M165.329 298.143C162.018 298.143 158.598 297.811 155.268 297.158C154.99 297.105 154.807 296.833 154.861 296.553C154.915 296.274 155.184 296.09 155.467 296.146C160.037 297.042 164.768 297.322 169.153 296.955C169.434 296.927 169.687 297.142 169.71 297.425C169.733 297.708 169.523 297.958 169.24 297.982C167.963 298.089 166.656 298.141 165.332 298.141L165.329 298.143Z" fill="#363E44"/>
<path d="M120.741 270.455C121.524 258.882 131.733 252.083 133.26 251.099C138.693 243.285 147.848 238.93 157.224 239.732C170.894 240.899 177.536 252.385 178.06 253.33C172.788 255.047 165.985 258.297 161.859 261.497L153.451 256.398L159.053 264.053C156.171 267.049 153.056 271.301 152.354 274.08C151.961 273.909 148.827 273.037 146.451 274.512C143.57 276.302 143.081 280.198 144.702 283.023C146.945 286.936 151.169 288.828 152.048 289.146C147.665 295.021 143.413 295.915 141.718 296.104C131.532 297.252 119.85 283.613 120.741 270.457V270.455Z" fill="#363E44"/>
<path d="M157.328 270.957C157.328 270.957 160.66 275.251 165.055 275.497C169.45 275.742 173.241 271.846 173.241 271.846C173.241 271.846 172.371 270.725 170.932 269.596C169.557 268.515 165.186 270.877 165.186 270.877C165.186 270.877 162.22 267.748 160.911 268.396C158.726 269.479 157.328 270.957 157.328 270.957Z" fill="white"/>
<path d="M165.515 267.306C167.676 267.425 169.58 268.527 170.958 269.612C170.974 269.839 170.983 270.066 170.969 270.3C170.81 273.146 168.373 275.326 165.527 275.167C162.681 275.008 160.501 272.571 160.66 269.724C160.686 269.259 160.777 268.817 160.917 268.393C162.243 267.725 163.834 267.212 165.515 267.306Z" fill="#363E44"/>
<path d="M150.688 284.759C150.62 284.759 150.55 284.745 150.485 284.717C147.776 283.55 146.841 280.931 147.526 279.174C148.167 277.53 150.038 276.987 150.407 276.894C150.683 276.824 150.964 276.992 151.032 277.268C151.102 277.544 150.934 277.825 150.658 277.892C150.375 277.963 148.946 278.374 148.487 279.546C147.973 280.863 148.817 282.874 150.894 283.768C151.156 283.88 151.275 284.184 151.163 284.446C151.079 284.642 150.889 284.757 150.688 284.757V284.759Z" fill="#363E44"/>
<path d="M178.648 274.85C178.575 274.85 178.5 274.834 178.428 274.801C178.171 274.679 178.058 274.373 178.18 274.116C178.461 273.517 178.737 272.708 178.456 272.242C178.332 272.039 178.136 271.952 177.74 271.791C177.427 271.662 177.039 271.503 176.613 271.211C175.853 270.689 175.257 269.938 174.836 268.977C174.721 268.715 174.84 268.411 175.102 268.299C175.364 268.184 175.668 268.304 175.78 268.566C176.122 269.347 176.597 269.95 177.195 270.362C177.53 270.591 177.834 270.717 178.129 270.837C178.573 271.019 179.031 271.206 179.335 271.709C179.756 272.406 179.684 273.337 179.111 274.555C179.022 274.742 178.837 274.852 178.643 274.852L178.648 274.85Z" fill="#363E44"/>
<path d="M172.849 282.705C171.2 282.705 169.905 282.116 169.236 281.735C168.988 281.592 168.904 281.278 169.044 281.031C169.184 280.783 169.5 280.698 169.748 280.839C170.396 281.211 171.733 281.809 173.415 281.646C174.32 281.559 175.216 281.257 176.006 280.776C176.25 280.626 176.568 280.703 176.715 280.946C176.862 281.19 176.785 281.508 176.542 281.655C175.618 282.219 174.57 282.569 173.513 282.672C173.286 282.693 173.064 282.705 172.847 282.705H172.849Z" fill="#363E44"/>
<path d="M133.863 359.509C133.863 359.509 133.879 359.495 133.863 359.511C118.24 377.312 106.466 393.103 95.9836 382.12C89.9589 375.808 101.127 357.939 114.563 341.437C114.572 341.425 114.565 341.437 114.565 341.437L133.86 359.506L133.863 359.509Z" fill="#BC8271"/>
<path d="M223.644 339.04C234.133 336.152 258.501 328.13 260.913 327.442C265.417 326.156 289.773 319.876 291.06 323.293C291.675 324.925 287.037 326.347 285.456 326.782C286.906 327.061 292.594 327.526 292.786 329.472C293.01 331.759 286.148 332.241 286.048 332.316C287.549 332.449 293.553 332.739 293.754 334.192C294.014 336.084 288.349 337.489 286.632 337.831C286.859 338.03 292.596 337.473 293.003 339.714C293.303 341.36 288.101 342.642 285.847 343.203C281.845 344.349 246.845 357.075 237.955 358.934C234.475 359.661 220.262 343.821 223.646 339.04H223.644Z" fill="#BC8271"/>
<path d="M227.13 338.294C226.908 338.294 226.702 338.149 226.636 337.925C226.555 337.651 226.711 337.366 226.985 337.284C228.856 336.73 231.16 336.042 233.543 335.326C233.817 335.247 234.104 335.399 234.186 335.672C234.268 335.944 234.114 336.231 233.84 336.316C231.454 337.031 229.151 337.719 227.28 338.273C227.231 338.287 227.181 338.294 227.132 338.294H227.13Z" fill="#363E44"/>
<path d="M277.331 328.107C277.113 328.107 276.91 327.969 276.84 327.749C276.751 327.477 276.9 327.187 277.172 327.098C278.9 326.539 280.685 326.196 282.481 326.074C283.482 326.006 284.497 326.009 285.498 326.081C285.781 326.102 285.996 326.348 285.975 326.633C285.954 326.916 285.713 327.138 285.423 327.11C284.469 327.042 283.5 327.04 282.549 327.105C280.837 327.22 279.134 327.548 277.487 328.081C277.434 328.097 277.382 328.107 277.328 328.107H277.331Z" fill="#363E44"/>
<path d="M280.289 333.722C280.072 333.722 279.868 333.584 279.798 333.364C279.712 333.093 279.859 332.803 280.13 332.714C281.859 332.155 283.646 331.811 285.439 331.689C285.657 331.675 285.872 331.664 286.083 331.657C286.363 331.636 286.606 331.867 286.616 332.152C286.625 332.438 286.403 332.676 286.12 332.686C285.919 332.693 285.715 332.704 285.51 332.718C283.798 332.833 282.095 333.16 280.448 333.694C280.395 333.71 280.343 333.719 280.289 333.719V333.722Z" fill="#363E44"/>
<path d="M283.136 339.129C282.919 339.129 282.715 338.991 282.645 338.773C282.556 338.502 282.706 338.212 282.977 338.123C284.105 337.758 285.265 337.482 286.427 337.305C286.705 337.263 286.972 337.454 287.014 337.737C287.059 338.018 286.864 338.282 286.584 338.324C285.475 338.495 284.369 338.757 283.295 339.106C283.242 339.122 283.19 339.131 283.136 339.131V339.129Z" fill="#363E44"/>
<path d="M272.64 338.544C272.497 338.544 272.355 338.485 272.254 338.369C272.065 338.156 272.086 337.828 272.298 337.641C276.749 333.712 278.138 330.559 277.666 329.897C277.151 329.177 273.723 329.6 268.865 332.255C268.615 332.393 268.301 332.299 268.166 332.049C268.03 331.799 268.121 331.485 268.372 331.35C272.39 329.154 277.275 327.575 278.506 329.299C279.78 331.085 276.536 335.277 272.981 338.415C272.883 338.502 272.762 338.544 272.64 338.544Z" fill="#363E44"/>
<path d="M161.542 392.589C161.525 392.624 161.507 392.657 161.486 392.692C160.543 394.161 158.964 394.058 157.496 393.326C157.991 393.976 158.789 394.781 159.208 395.632C159.542 396.317 159.631 397.035 159.114 397.734C159.011 397.875 158.897 397.992 158.775 398.09C157.264 399.332 154.35 397.847 154.238 397.833C155.264 398.937 156.81 401.299 155.992 402.515C154.918 404.094 152.491 403.217 150.984 402.323C151.02 402.623 154.249 404.737 153.052 406.676C152.17 408.098 148.861 406.886 146.807 405.794C145.156 404.994 137.34 401.699 128.45 397.884C117.844 393.331 105.698 388.026 100.672 385.292C100.368 385.128 100.09 384.972 99.8373 384.829C96.7594 383.044 97.6294 362.402 103.343 361.109C105.839 362.358 109.237 363.965 112.951 365.684C116.534 367.344 120.412 369.103 124.053 370.747C125.709 371.495 127.313 372.218 128.817 372.892C132.711 374.646 135.939 376.089 137.656 376.868C138.093 377.069 138.43 377.223 138.657 377.333C138.717 377.359 138.769 377.385 138.811 377.406C142.983 379.443 163.562 388.725 161.546 392.591L161.542 392.589Z" fill="#BC8271"/>
<path d="M125.548 371.844C125.475 371.844 125.4 371.828 125.33 371.795C122.428 370.441 119.471 369.024 116.611 367.651C115.196 366.973 113.819 366.311 112.502 365.684C112.245 365.56 112.135 365.254 112.259 364.996C112.38 364.739 112.689 364.632 112.946 364.753C114.265 365.382 115.645 366.042 117.06 366.722C119.918 368.093 122.872 369.51 125.77 370.862C126.027 370.981 126.139 371.29 126.02 371.547C125.933 371.734 125.746 371.844 125.552 371.844H125.548Z" fill="#363E44"/>
<path d="M157.625 393.709C157.489 393.709 157.354 393.655 157.253 393.553C156.591 392.865 155.873 392.217 155.12 391.625C153.773 390.568 152.285 389.672 150.704 388.968C150.445 388.852 150.328 388.547 150.442 388.288C150.557 388.028 150.863 387.911 151.123 388.026C152.781 388.765 154.341 389.703 155.756 390.814C156.547 391.434 157.3 392.114 157.994 392.835C158.193 393.04 158.186 393.365 157.98 393.564C157.88 393.66 157.751 393.709 157.623 393.709H157.625Z" fill="#363E44"/>
<path d="M154.371 398.281C154.254 398.281 154.137 398.242 154.041 398.162C153.887 398.033 153.728 397.905 153.564 397.776C152.215 396.717 150.727 395.821 149.149 395.117C148.889 395 148.772 394.696 148.887 394.436C149.004 394.177 149.308 394.057 149.567 394.174C151.223 394.913 152.783 395.851 154.201 396.962C154.371 397.096 154.54 397.231 154.701 397.367C154.921 397.549 154.949 397.874 154.767 398.092C154.664 398.213 154.519 398.277 154.371 398.277V398.281Z" fill="#363E44"/>
<path d="M150.904 402.744C150.808 402.744 150.709 402.716 150.621 402.66C149.683 402.045 148.684 401.5 147.653 401.041C147.393 400.924 147.276 400.62 147.391 400.361C147.508 400.101 147.812 399.984 148.071 400.099C149.152 400.58 150.2 401.151 151.184 401.797C151.423 401.953 151.488 402.271 151.334 402.51C151.236 402.662 151.07 402.744 150.901 402.744H150.904Z" fill="#363E44"/>
<path d="M59.8991 298.032L60.4072 298.661L61.1477 298.337L66.1318 296.156L70.7645 306.742L65.7805 308.923L65.0398 309.247L65.157 310.047C65.4597 312.114 65.4955 314.188 65.2781 316.222L65.192 317.026L65.9457 317.321L71.0118 319.302L66.8042 330.061L61.738 328.08L60.9852 327.786L60.5024 328.434C59.2801 330.076 57.8471 331.576 56.2215 332.89L55.5928 333.398L55.9168 334.138L58.0976 339.123L47.5121 343.755L45.3314 338.771L45.0073 338.031L44.2073 338.148C42.1397 338.45 40.0657 338.486 38.0324 338.269L37.2278 338.183L36.9331 338.936L34.9521 344.003L24.1929 339.795L26.174 334.729L26.4684 333.976L25.82 333.493C24.1782 332.271 22.678 330.838 21.3641 329.212L20.856 328.584L20.1155 328.908L15.1314 331.088L10.4987 320.503L15.4827 318.322L16.2234 317.998L16.1062 317.198C15.8035 315.13 15.7677 313.056 15.9851 311.023L16.0712 310.219L15.3175 309.924L10.2514 307.943L14.459 297.184L19.5252 299.165L20.278 299.459L20.7608 298.811C21.9831 297.169 23.4161 295.669 25.0417 294.355L25.6703 293.847L25.3463 293.106L23.1656 288.122L33.7511 283.489L35.9318 288.473L36.2559 289.214L37.0559 289.097C39.1235 288.794 41.1975 288.758 43.2308 288.976L44.0354 289.062L44.3301 288.308L46.3111 283.242L57.0703 287.45L55.0892 292.516L54.7948 293.269L55.4432 293.751C57.085 294.974 58.5852 296.407 59.8991 298.032ZM46.7642 327.63L46.7644 327.63C54.4991 324.243 58.0247 315.227 54.6398 307.492L54.6397 307.492C51.2523 299.757 42.2361 296.232 34.5014 299.616L34.5011 299.617C26.7668 303.004 23.2383 312.02 26.6259 319.755C30.0132 327.49 39.0294 331.015 46.7642 327.63Z" fill="#101623" stroke="#AE8FF9" stroke-width="2.11881"/>
<path d="M324.607 63.5145L317.59 47.482L309.97 50.8172C308.216 48.6468 306.214 46.7336 304.023 45.1035L307.054 37.3551L290.755 30.9795L287.724 38.7279C285.008 38.4379 282.239 38.487 279.48 38.8893L276.144 31.2695L260.112 38.2859L263.447 45.9057C261.277 47.6598 259.364 49.6618 257.733 51.8533L249.985 48.8222L243.609 65.1213L251.358 68.1523C251.068 70.8677 251.117 73.6368 251.519 76.3966L243.899 79.7317L250.916 95.7642L258.536 92.4291C260.29 94.5995 262.292 96.5126 264.483 98.1427L261.452 105.891L277.751 112.267L280.782 104.518C283.498 104.808 286.267 104.759 289.027 104.357L292.362 111.977L308.394 104.96L305.059 97.3405C307.229 95.5864 309.142 93.5844 310.773 91.393L318.521 94.4241L324.897 78.125L317.148 75.0939C317.438 72.3785 317.389 69.6094 316.987 66.8496L324.607 63.5145ZM291.557 88.3104C282.342 92.3449 271.6 88.142 267.568 78.9272C263.534 69.7123 267.736 58.9702 276.951 54.9381C286.166 50.9037 296.908 55.1065 300.94 64.3214C304.975 73.5363 300.772 84.2784 291.557 88.3104Z" fill="white"/>
<path d="M327.114 418.186C327.114 418.186 327.093 418.186 327.083 418.186L316.142 417.527C315.857 417.51 315.642 417.265 315.658 416.982L315.827 414.168C314.545 413.832 313.28 413.408 312.052 412.91L310.501 415.261C310.426 415.375 310.309 415.455 310.174 415.483C310.04 415.511 309.9 415.483 309.785 415.408L300.636 409.367C300.398 409.21 300.332 408.89 300.491 408.651L302.039 406.305C301.097 405.37 300.21 404.371 299.396 403.323L296.882 404.579C296.627 404.706 296.319 404.603 296.19 404.348L291.286 394.543C291.225 394.422 291.215 394.279 291.257 394.151C291.302 394.022 291.393 393.914 291.517 393.854L294.031 392.598C293.68 391.321 293.412 390.011 293.229 388.696L290.423 388.528C290.137 388.512 289.922 388.266 289.938 387.983L290.591 377.042C290.598 376.907 290.661 376.778 290.764 376.687C290.867 376.596 291.003 376.553 291.138 376.558L293.952 376.727C294.289 375.447 294.71 374.18 295.208 372.952L292.855 371.399C292.616 371.242 292.551 370.922 292.71 370.685L298.744 361.541C298.819 361.426 298.936 361.347 299.071 361.319C299.207 361.29 299.345 361.318 299.46 361.393L301.805 362.942C302.739 361.999 303.737 361.115 304.785 360.301L303.527 357.785C303.466 357.663 303.457 357.52 303.499 357.392C303.543 357.263 303.634 357.155 303.758 357.095L313.558 352.195C313.813 352.069 314.122 352.171 314.25 352.426L315.508 354.943C316.788 354.592 318.095 354.323 319.41 354.143L319.578 351.339C319.585 351.203 319.648 351.075 319.751 350.983C319.854 350.892 319.99 350.848 320.125 350.855L331.066 351.514C331.351 351.531 331.567 351.776 331.55 352.059L331.382 354.873C332.664 355.21 333.929 355.633 335.157 356.131L336.707 353.781C336.782 353.666 336.899 353.586 337.035 353.558C337.168 353.533 337.308 353.558 337.423 353.633L346.572 359.674C346.811 359.831 346.876 360.151 346.717 360.39L345.169 362.733C346.112 363.667 346.998 364.668 347.812 365.715L350.326 364.459C350.581 364.333 350.89 364.436 351.018 364.691L355.923 374.495C355.984 374.617 355.993 374.76 355.951 374.888C355.907 375.017 355.815 375.124 355.691 375.185L353.177 376.441C353.528 377.718 353.797 379.028 353.979 380.342L356.786 380.511C357.071 380.527 357.286 380.773 357.27 381.056L356.618 391.997C356.611 392.132 356.547 392.261 356.444 392.352C356.342 392.443 356.208 392.492 356.07 392.481L353.257 392.312C352.92 393.592 352.499 394.859 352.001 396.087L354.354 397.64C354.592 397.797 354.658 398.117 354.499 398.353L348.464 407.498C348.39 407.613 348.273 407.692 348.137 407.72C348.001 407.748 347.863 407.72 347.749 407.645L345.403 406.097C344.47 407.04 343.471 407.926 342.423 408.738L343.682 411.254C343.742 411.376 343.752 411.518 343.71 411.647C343.665 411.776 343.574 411.883 343.45 411.944L333.651 416.844C333.396 416.97 333.087 416.867 332.958 416.612L331.7 414.096C330.421 414.447 329.113 414.716 327.799 414.896L327.63 417.7C327.623 417.836 327.56 417.964 327.457 418.055C327.364 418.14 327.24 418.186 327.116 418.186H327.114ZM316.72 416.528L326.629 417.125L326.791 414.409C326.805 414.161 326.997 413.958 327.242 413.927C328.786 413.738 330.327 413.422 331.822 412.987C332.06 412.919 332.315 413.029 332.425 413.251L333.644 415.686L342.522 411.247L341.303 408.812C341.191 408.59 341.256 408.319 341.455 408.169C342.697 407.234 343.873 406.191 344.954 405.07C345.127 404.89 345.403 404.862 345.609 404.998L347.88 406.497L353.348 398.213L351.07 396.709C350.862 396.574 350.782 396.307 350.878 396.078C351.484 394.644 351.98 393.152 352.354 391.646C352.415 391.405 352.635 391.239 352.885 391.255L355.607 391.419L356.199 381.509L353.484 381.346C353.236 381.332 353.034 381.142 353.002 380.894C352.81 379.348 352.494 377.807 352.062 376.313C351.991 376.074 352.104 375.819 352.326 375.707L354.761 374.491L350.317 365.608L347.882 366.824C347.658 366.934 347.389 366.871 347.239 366.672C346.303 365.43 345.26 364.251 344.138 363.171C343.958 362.998 343.927 362.722 344.065 362.516L345.564 360.245L337.278 354.772L335.777 357.048C335.639 357.256 335.374 357.336 335.145 357.24C333.711 356.634 332.219 356.136 330.711 355.762C330.47 355.701 330.306 355.479 330.32 355.231L330.481 352.508L320.57 351.912L320.408 354.627C320.394 354.875 320.202 355.079 319.957 355.109C318.413 355.298 316.872 355.614 315.377 356.047C315.139 356.115 314.884 356.005 314.774 355.783L313.556 353.348L304.677 357.787L305.896 360.222C306.008 360.444 305.943 360.715 305.744 360.865C304.502 361.8 303.326 362.843 302.245 363.964C302.074 364.144 301.796 364.174 301.59 364.036L299.319 362.537L293.851 370.821L296.129 372.325C296.337 372.461 296.417 372.727 296.321 372.956C295.715 374.39 295.219 375.882 294.845 377.388C294.784 377.629 294.569 377.788 294.314 377.779L291.592 377.615L291 387.525L293.716 387.688C293.963 387.702 294.165 387.892 294.197 388.14C294.389 389.686 294.705 391.227 295.138 392.719C295.208 392.958 295.095 393.213 294.873 393.325L292.439 394.541L296.882 403.422L299.317 402.205C299.539 402.093 299.81 402.159 299.96 402.357C300.896 403.599 301.939 404.776 303.061 405.859C303.241 406.032 303.272 406.308 303.134 406.513L301.635 408.784L309.923 414.257L311.425 411.982C311.563 411.773 311.827 411.692 312.056 411.79C313.49 412.395 314.982 412.894 316.491 413.268C316.732 413.329 316.895 413.551 316.881 413.799L316.72 416.521V416.528ZM323.589 406.041C321.327 406.041 319.045 405.678 316.814 404.937C308.621 402.208 302.958 394.957 302.039 386.016C301.45 380.3 303.349 374.601 307.245 370.381C313.336 363.786 322.207 361.382 330.393 364.109C338.585 366.838 344.248 374.088 345.167 383.03C345.756 388.746 343.857 394.445 339.961 398.664C335.529 403.464 329.628 406.043 323.589 406.043V406.041ZM323.622 364.034C317.864 364.034 312.234 366.499 308.003 371.078C304.308 375.082 302.507 380.487 303.066 385.909C303.945 394.443 309.339 401.359 317.141 403.957C324.939 406.553 333.391 404.256 339.203 397.963C342.898 393.959 344.699 388.556 344.14 383.132C343.261 374.598 337.867 367.682 330.065 365.084C327.944 364.378 325.773 364.034 323.622 364.034Z" fill="white"/>
</g>
<defs>
<clipPath id="clip0_384_1265">
<rect width="428" height="428" fill="white"/>
</clipPath>
</defs>
</svg>
