<svg width="303" height="290" viewBox="0 0 303 290" fill="none" xmlns="http://www.w3.org/2000/svg">
<path d="M299.232 124.781H229.028C226.955 124.781 225.26 123.086 225.26 121.013V88.9399C225.26 86.8666 226.955 85.1719 229.028 85.1719H299.232C301.305 85.1719 303 86.8666 303 88.9399V121.013C303 123.086 301.305 124.781 299.232 124.781ZM229.028 86.0733C227.442 86.0733 226.162 87.3533 226.162 88.9399V121.013C226.162 122.599 227.442 123.879 229.028 123.879H299.232C300.819 123.879 302.099 122.599 302.099 121.013V88.9399C302.099 87.3533 300.819 86.0733 299.232 86.0733H229.028Z" fill="#07CBF5"/>
<path d="M302.549 93.3023H225.711C225.459 93.3023 225.26 93.104 225.26 92.8516C225.26 92.5992 225.459 92.4009 225.711 92.4009H302.549C302.802 92.4009 303 92.5992 303 92.8516C303 93.104 302.802 93.3023 302.549 93.3023Z" fill="#07CBF5"/>
<path d="M293.536 91.2475C293.392 91.2475 293.265 91.1754 293.175 91.0672C293.031 90.8689 293.085 90.5804 293.283 90.4362L297.376 87.5156C297.574 87.3713 297.863 87.4254 298.007 87.6237C298.151 87.8221 298.097 88.1105 297.899 88.2547L293.806 91.1754C293.806 91.1754 293.644 91.2655 293.554 91.2655L293.536 91.2475Z" fill="#07CBF5"/>
<path d="M297.628 91.2489C297.538 91.2489 297.448 91.2309 297.376 91.1588L293.283 88.2382C293.085 88.0939 293.031 87.8055 293.175 87.6071C293.319 87.4088 293.608 87.3547 293.806 87.499L297.899 90.4196C298.097 90.5638 298.151 90.8523 298.007 91.0506C297.917 91.1768 297.773 91.2309 297.646 91.2309L297.628 91.2489Z" fill="#07CBF5"/>
<path d="M127.491 68.1711C127.491 68.1711 139.137 65.8454 141.734 62.2217C144.33 58.5979 137.118 48.9165 137.118 48.9165L128.699 50.7915L122.695 63.5558L127.509 68.1892L127.491 68.1711Z" fill="#FD8753"/>
<path d="M133.134 5.30527V89.0847C133.134 91.6267 134.901 93.718 137.083 93.718H262.598C264.762 93.718 266.529 91.6447 266.529 89.0847V5.30527C266.529 2.76322 264.762 0.671875 262.598 0.671875H137.083C134.901 0.671875 133.134 2.74519 133.134 5.30527Z" fill="#E0DDFF"/>
<path d="M133.134 5.30527V10.2091H266.529V5.30527C266.529 2.76322 264.762 0.671875 262.598 0.671875H137.083C134.901 0.671875 133.134 2.74519 133.134 5.30527Z" fill="white"/>
<path d="M244.641 7.72049C245.896 7.72049 246.913 6.70346 246.913 5.44888C246.913 4.1943 245.896 3.17725 244.641 3.17725C243.387 3.17725 242.37 4.1943 242.37 5.44888C242.37 6.70346 243.387 7.72049 244.641 7.72049Z" fill="#FFB700"/>
<path d="M249.636 5.44888C249.636 6.69286 250.645 7.72049 251.907 7.72049C253.169 7.72049 254.179 6.71089 254.179 5.44888C254.179 4.18687 253.169 3.17725 251.907 3.17725C250.645 3.17725 249.636 4.18687 249.636 5.44888Z" fill="#07CBF5"/>
<path d="M256.883 5.44888C256.883 6.69286 257.892 7.72049 259.154 7.72049C260.416 7.72049 261.426 6.71089 261.426 5.44888C261.426 4.18687 260.416 3.17725 259.154 3.17725C257.892 3.17725 256.883 4.18687 256.883 5.44888Z" fill="#5E1DBB"/>
<path d="M118.477 56.3992C118.477 56.3992 125.292 49.0074 128.501 47.1865C131.71 45.3656 141.319 46.844 141.716 48.9173C142.113 50.9906 133.91 51.3872 133.91 51.3872C133.91 51.3872 130.899 64.0073 123.687 62.0061C116.476 60.0049 118.477 56.3992 118.477 56.3992Z" fill="#FD8753"/>
<path d="M178.819 115.172C177.882 114.342 176.854 113.621 175.718 112.99C174.528 112.323 173.284 111.836 172.004 111.476L170.814 113.585L167.082 113.189L166.47 110.881C163.891 111.025 161.385 111.746 159.132 112.99L159.799 115.514L156.86 117.822L154.697 116.506C153.813 117.479 153.038 118.561 152.371 119.769C151.776 120.869 151.307 121.987 150.965 123.14L153.363 124.456L153.002 128.17L150.262 128.91C150.388 131.47 151.091 133.958 152.299 136.211L154.841 135.4L157.167 138.339L155.869 140.772C156.842 141.656 157.942 142.431 159.132 143.098C160.268 143.729 161.44 144.216 162.647 144.558L164.018 142.125L167.75 142.521L168.453 145.208C171.013 145.045 173.501 144.324 175.736 143.08L174.853 140.196L177.81 137.906L180.388 139.33C181.181 138.429 181.884 137.419 182.479 136.337C183.146 135.129 183.651 133.885 183.993 132.623L181.542 131.398L181.92 127.684L184.57 126.836C184.39 124.276 183.633 121.77 182.353 119.517L179.973 120.274L177.647 117.335L178.819 115.154V115.172ZM174.745 132.065C172.527 136.103 167.443 137.581 163.405 135.346C159.366 133.128 157.888 128.044 160.123 124.006C162.341 119.967 167.425 118.489 171.463 120.725C175.502 122.942 176.98 128.026 174.745 132.065Z" fill="white"/>
<path d="M202.111 124.331C201.715 123.718 201.264 123.123 200.723 122.582C200.146 122.005 199.533 121.519 198.884 121.104L197.857 122.095L195.819 121.248L195.855 119.842C194.377 119.499 192.827 119.481 191.348 119.806L191.294 121.338L189.257 122.149L188.247 121.05C187.58 121.446 186.967 121.933 186.39 122.51C185.868 123.033 185.417 123.592 185.038 124.187L186.174 125.341L185.363 127.378L183.686 127.342C183.325 128.802 183.307 130.335 183.632 131.813L185.2 131.777L186.03 133.814L184.894 134.968C185.291 135.635 185.777 136.248 186.354 136.825C186.895 137.366 187.472 137.834 188.103 138.231L189.293 137.077L191.33 137.925L191.294 139.565C192.772 139.908 194.287 139.908 195.765 139.565V137.78L197.784 136.969L199.01 138.195C199.605 137.816 200.164 137.366 200.687 136.843C201.264 136.266 201.751 135.653 202.165 134.986L200.976 133.886L201.805 131.849L203.446 131.813C203.77 130.335 203.752 128.784 203.409 127.306L201.931 127.342L201.102 125.305L202.129 124.259L202.111 124.331ZM196.991 133.219C195.062 135.13 191.943 135.13 190.032 133.201C188.121 131.272 188.121 128.153 190.05 126.242C191.979 124.331 195.098 124.331 197.009 126.26C198.92 128.189 198.92 131.308 196.991 133.219Z" fill="#07CBF5"/>
<path d="M84.5469 249.396V262.594L109.877 261.656V249.396H84.5469Z" fill="#FD8753"/>
<path d="M22.2749 247.917V261.114L45.7122 260.176V247.917H22.2749Z" fill="#FD8753"/>
<path d="M51.5361 282.911C51.5361 285.255 50.7428 287.905 49.1022 288.572C47.4796 289.257 34.2466 290.646 22.6902 289.654C11.6025 288.717 9.31286 287.905 8.50156 286.932C8.10493 286.427 8.88017 284.083 9.76357 281.83C9.81766 281.721 9.87174 281.595 9.92583 281.487C9.96189 281.415 9.97992 281.343 10.016 281.271C10.4306 280.207 10.8633 279.197 11.1878 278.458C11.5304 277.719 11.945 277.016 12.4499 276.331C13.6397 274.708 16.0195 271.355 16.6325 269.624C17.4258 267.316 18.6337 262.323 19.463 259.979C20.2743 257.653 22.2575 257.184 22.2575 257.184C22.2575 257.184 45.0458 255.652 46.6683 256.986C48.2909 258.32 49.1022 269.3 49.1022 270.958V272.617C49.1022 274.167 50.1839 277.214 50.8871 279.756C51.0854 280.387 51.2296 280.982 51.3378 281.523C51.4099 281.811 51.464 282.082 51.482 282.334C51.5181 282.551 51.5361 282.731 51.5361 282.911Z" fill="#5E1DBB"/>
<path d="M152.533 287.67C151 288.283 86.3672 290.014 84.8709 287.67C84.4562 287.021 84.1497 284.929 83.9334 282.243L83.8793 281.54C83.3564 274.419 83.3564 263.836 83.3564 263.836C83.3564 263.836 83.8252 259.797 83.9334 258.103C84.0055 256.444 114.131 257.526 114.131 257.526L134.143 270.47C134.143 270.47 139.894 272.183 145.952 273.157C149.125 273.661 151.198 277.448 152.226 281.035C152.226 281.071 152.226 281.107 152.262 281.143C153.164 284.371 153.254 287.363 152.533 287.67Z" fill="#5E1DBB"/>
<path d="M69.817 102.678C69.817 102.678 98.3925 131.217 109.787 175.911C121.181 220.622 120.424 253.524 120.424 253.524H77.335C77.335 253.524 76.1992 226.211 71.4756 203.855C66.7341 181.5 59.8291 165.057 59.8291 165.057L55.1957 253.524H12.1973C12.1973 253.524 20.0938 125.124 27.738 105.941C33.9579 90.3464 69.817 102.678 69.817 102.678Z" fill="#9364ED"/>
<path d="M59.8296 165.508C59.5772 165.508 59.3789 165.292 59.3789 165.057L59.7575 134.463C59.7575 134.282 59.8657 134.12 60.046 134.048L71.2959 129.721C71.5303 129.631 71.7827 129.739 71.8728 129.973C71.9629 130.208 71.8548 130.46 71.6204 130.55L60.6589 134.769L60.2803 165.057C60.2803 165.31 60.082 165.508 59.8296 165.508Z" fill="white"/>
<path d="M29.2342 125.304C28.9277 125.304 28.6212 125.304 28.2967 125.25C28.0443 125.232 27.864 124.998 27.9001 124.764C27.9181 124.511 28.1525 124.331 28.3869 124.367C34.138 124.962 38.0322 119.355 38.0683 119.283C38.2125 119.066 38.4829 119.03 38.6993 119.157C38.8976 119.301 38.9517 119.571 38.8255 119.788C38.6632 120.022 35.0214 125.304 29.2342 125.304Z" fill="white"/>
<path d="M118.061 50.5943L132.502 69.6146C132.502 69.6146 123.091 87.1024 109.155 92.1324C95.2184 97.1625 79.7318 92.1324 79.7318 92.1324V114.668H24.7803C24.7803 114.668 27.2322 52.7037 29.035 52.0907C42.0157 47.7277 59.8461 46.0691 68.1213 47.9982C71.5107 48.7914 92.1175 59.5546 95.2184 59.9151C98.3194 60.2937 118.061 50.5943 118.061 50.5943Z" fill="#E2209E"/>
<path d="M44.7397 41.561L44.5054 50.8818C44.5054 50.8818 46.182 53.5861 51.825 54.145C56.0257 54.5597 57.5221 53.6582 57.5221 53.6582L57.0533 48.9167L56.5846 44.3014L46.4344 41.9396L44.7397 41.543V41.561Z" fill="#FD8753"/>
<path d="M46.4336 41.957C46.4516 42.2094 46.5417 42.5159 46.686 42.8584C48.7412 47.5639 54.6186 48.6637 57.0344 48.9161L56.5657 44.3007L46.4155 41.939L46.4336 41.957Z" fill="black"/>
<path d="M59.2519 23.0823C59.2519 23.0823 64.0295 34.873 61.8841 41.3273C59.7387 47.7816 53.6269 46.5557 49.9851 45.1674C46.3614 43.7792 44.7388 41.5437 44.7388 41.5437C44.7388 41.5437 41.2592 42.5533 39.0778 39.3983C36.8963 36.2252 38.4648 32.7276 40.4479 31.9885C42.4491 31.2493 44.7207 32.6916 44.7207 32.6916L43.026 29.2481C43.026 29.2481 51.4094 12.3552 59.2339 23.0823H59.2519Z" fill="#FD8753"/>
<path d="M44.271 37.7935C44.1808 37.7935 44.0907 37.7574 44.0005 37.7033L39.7277 34.6024C39.5294 34.4582 39.4753 34.1697 39.6196 33.9714C39.7638 33.7731 40.0523 33.719 40.2506 33.8632L44.5234 36.9642C44.7217 37.1084 44.7758 37.3969 44.6315 37.5952C44.5414 37.7214 44.3972 37.7755 44.271 37.7755V37.7935Z" fill="black"/>
<path d="M50.3456 28.9239C50.2375 28.9239 50.1473 28.8878 50.0572 28.8157C49.8589 28.6534 49.8408 28.365 50.0031 28.1847C51.6797 26.1655 53.699 26.8686 53.7891 26.9046C54.0235 26.9948 54.1497 27.2472 54.0595 27.4816C53.9694 27.716 53.717 27.8421 53.4826 27.752C53.4105 27.734 51.9502 27.2472 50.6882 28.7616C50.598 28.8698 50.4718 28.9239 50.3456 28.9239Z" fill="black"/>
<path d="M60.4239 27.6617C60.3157 27.6617 60.2256 27.6256 60.1354 27.5535C59.1619 26.7603 58.1162 27.2831 58.0801 27.3191C57.8638 27.4273 57.5934 27.3552 57.4672 27.1389C57.359 26.9225 57.4311 26.6521 57.6475 26.5259C57.7196 26.4899 59.27 25.6605 60.7123 26.8684C60.9107 27.0307 60.9287 27.3192 60.7664 27.4994C60.6763 27.6076 60.5501 27.6617 60.4239 27.6617Z" fill="black"/>
<path d="M60.1899 32.1496C59.9916 32.1496 59.8113 32.0053 59.7573 31.807L59.1984 29.6616C59.1443 29.4272 59.2885 29.1748 59.5229 29.1207C59.7753 29.0666 60.0097 29.2109 60.0637 29.4453L60.6226 31.5907C60.6767 31.8251 60.5325 32.0775 60.2981 32.1315C60.2621 32.1315 60.226 32.1315 60.1899 32.1315V32.1496Z" fill="black"/>
<path d="M53.2495 32.6002C53.0512 32.6002 52.8709 32.456 52.8168 32.2577L52.2579 30.1123C52.2038 29.8779 52.3481 29.6255 52.5825 29.5714C52.8168 29.5173 53.0692 29.6616 53.1233 29.8959L53.6822 32.0414C53.7363 32.2757 53.5921 32.5281 53.3577 32.5822C53.3216 32.5822 53.2856 32.5822 53.2495 32.5822V32.6002Z" fill="black"/>
<path d="M55.3049 40.8941C55.1967 40.8941 55.0705 40.8941 54.9443 40.8581C54.0429 40.6597 53.3217 39.7403 52.7989 38.1357C52.7448 37.9554 52.7989 37.7571 52.9431 37.649C53.0873 37.5408 53.2857 37.5227 53.4479 37.6129L56.7291 39.4879C56.8553 39.56 56.9275 39.6682 56.9455 39.8124C56.9635 39.9566 56.9275 40.0828 56.8373 40.191C56.8013 40.2271 56.1703 40.9121 55.2869 40.9121L55.3049 40.8941ZM54.1691 39.0371C54.4756 39.578 54.8001 39.8845 55.1426 39.9746C55.3409 40.0107 55.5212 39.9747 55.6835 39.9025L54.1691 39.0371Z" fill="black"/>
<path d="M40.3216 37.956C40.1774 37.956 40.0151 37.8839 39.943 37.7396C39.8168 37.5233 39.8709 37.2528 40.0873 37.1266L42.3408 35.7384C42.5572 35.6122 42.8276 35.6663 42.9538 35.8826C43.08 36.099 43.0259 36.3694 42.8096 36.4956L40.556 37.8838C40.556 37.8838 40.3937 37.956 40.3216 37.956Z" fill="black"/>
<path d="M57.5211 36.567C57.5211 36.567 57.431 36.567 57.3769 36.549C57.1425 36.4769 57.0163 36.2064 57.0884 35.9721C58.1521 32.799 56.1329 31.573 56.0608 31.519C55.8444 31.3928 55.7723 31.1223 55.8985 30.906C56.0247 30.6896 56.2952 30.6175 56.5115 30.7437C56.5476 30.7437 59.2519 32.3663 57.9538 36.2605C57.8817 36.4408 57.7194 36.567 57.5211 36.567Z" fill="black"/>
<path d="M29.0361 52.0889C29.0361 52.0889 -3.92038 62.4193 0.38848 89.4624C3.74182 110.484 49.5528 107.978 49.5528 107.978V81.3494L31.8486 80.1235L29.0361 52.1069V52.0889Z" fill="#E2209E"/>
<path d="M49.5528 81.7829C49.5528 81.7829 49.4807 81.7829 49.4447 81.7829C49.3365 81.7649 38.6995 79.349 28.3511 79.6555C28.0987 79.6555 27.9004 79.4572 27.8823 79.2228C27.8823 78.9704 28.0806 78.7721 28.315 78.7541C38.7897 78.5017 49.5348 80.8815 49.6249 80.8995C49.8593 80.9536 50.0216 81.206 49.9675 81.4404C49.9134 81.6567 49.7331 81.7829 49.5348 81.7829H49.5528Z" fill="#5E1DBB"/>
<path d="M24.1684 80.1605C22.2573 80.1605 20.4004 79.9261 19.4449 79.1328C18.9941 78.7542 18.7598 78.2675 18.7598 77.7086C18.7598 77.1497 18.9941 76.717 19.4268 76.4285C21.6263 75.0043 29.2705 78.3756 30.1359 78.7542C30.3162 78.8444 30.4243 79.0247 30.4063 79.223C30.3883 79.4213 30.226 79.5835 30.0457 79.6016C29.559 79.6917 26.8186 80.1424 24.1684 80.1424V80.1605ZM20.9773 76.9694C20.5266 76.9694 20.148 77.0415 19.9136 77.1857C19.7874 77.2578 19.6612 77.3841 19.6612 77.7086C19.6612 77.997 19.7694 78.2314 20.0218 78.4477C21.3559 79.5655 25.5926 79.3131 28.2969 78.9706C25.827 77.979 22.7261 76.9694 20.9593 76.9694H20.9773Z" fill="#5E1DBB"/>
<path d="M52.8521 54.7222C50.0576 54.7222 46.524 54.001 43.6935 51.0984C43.5132 50.9181 43.5312 50.6297 43.6935 50.4674C43.8738 50.2871 44.1622 50.3052 44.3245 50.4674C49.4446 55.7318 57.1429 53.2258 57.233 53.2078C57.4674 53.1356 57.7198 53.2618 57.81 53.4962C57.8821 53.7306 57.7559 53.983 57.5215 54.0732C57.4854 54.0732 55.5023 54.7402 52.8521 54.7402V54.7222Z" fill="#5E1DBB"/>
<path d="M93.7053 67.6301C93.4169 67.6301 93.1645 67.5039 92.9842 67.2876C92.0827 66.0797 94.138 61.1939 94.8051 59.7336C94.8952 59.5352 95.0935 59.4271 95.2918 59.4812C95.4902 59.5172 95.6524 59.6795 95.6704 59.8958C95.7966 61.6266 96.0671 67.3236 93.8676 67.6482C93.8135 67.6482 93.7594 67.6482 93.7053 67.6482V67.6301ZM94.8411 61.9871C93.9217 64.3669 93.4169 66.4042 93.7053 66.7287C94.4986 66.6025 94.8231 64.2948 94.8411 61.9871Z" fill="#5E1DBB"/>
<path d="M124.805 268.379C124.642 268.379 124.48 268.289 124.39 268.127C124.282 267.911 124.39 267.64 124.606 267.532C124.678 267.496 131.259 264.305 131.259 260.753C131.259 260.555 131.223 260.303 131.079 260.23C130.105 259.816 126.013 262.827 122.767 265.855C122.605 266 122.353 266.018 122.172 265.873C121.992 265.729 121.956 265.477 122.064 265.297C123.543 262.791 125.652 258.265 124.985 256.841C124.877 256.607 124.696 256.48 124.408 256.444C124.083 256.39 123.795 256.481 123.507 256.715C121.794 258.067 121.037 263.566 120.874 265.567C120.856 265.819 120.64 266.018 120.388 265.982C120.135 265.982 119.955 265.747 119.973 265.495C119.991 265.188 120.568 257.869 122.948 255.994C123.434 255.597 123.975 255.453 124.552 255.543C125.129 255.633 125.562 255.94 125.796 256.444C126.517 257.977 125.183 261.222 124.083 263.458C126.463 261.42 129.979 258.77 131.439 259.401C131.764 259.545 132.16 259.888 132.16 260.753C132.16 264.864 125.291 268.199 124.985 268.343C124.931 268.379 124.859 268.379 124.787 268.379H124.805Z" fill="#FFB700"/>
<path d="M28.3514 274.997C28.2252 274.997 28.099 274.942 28.0088 274.834C27.504 274.257 23.123 269.119 24.385 266.523C24.6735 265.91 25.1242 265.82 25.3766 265.82C26.4403 265.82 27.7925 267.623 28.8742 269.354C28.3333 266.523 27.8285 262.557 28.8381 261.024C29.1086 260.628 29.4872 260.375 29.9199 260.321C30.3525 260.267 30.7672 260.411 31.0917 260.718C33.0208 262.593 32.2095 271.301 32.1013 272.292C32.0833 272.545 31.8489 272.725 31.6146 272.689C31.3622 272.671 31.1819 272.436 31.2179 272.202C31.5785 268.65 31.6867 262.557 30.4787 261.367C30.3525 261.241 30.2083 261.187 30.0461 261.205C29.9379 261.205 29.7576 261.277 29.5953 261.511C28.4595 263.206 29.8117 269.75 30.4247 272.13C30.4787 272.346 30.3706 272.581 30.1542 272.671C29.9379 272.761 29.7035 272.671 29.5953 272.454C28.1891 269.678 26.1879 266.685 25.4127 266.685C25.3406 266.685 25.2685 266.793 25.2324 266.884C24.385 268.632 27.468 272.761 28.73 274.203C28.8922 274.384 28.8742 274.672 28.6939 274.834C28.6038 274.906 28.4956 274.942 28.4054 274.942L28.3514 274.997Z" fill="#FFB700"/>
<path d="M54.8895 244.637H12.7925C12.5401 244.637 12.3418 244.439 12.3418 244.187C12.3418 243.934 12.5401 243.736 12.7925 243.736H54.8715C55.1239 243.736 55.3222 243.934 55.3222 244.187C55.3222 244.439 55.1239 244.637 54.8715 244.637H54.8895Z" fill="white"/>
<path d="M120.244 244.637H76.7769C76.5245 244.637 76.3262 244.439 76.3262 244.187C76.3262 243.934 76.5245 243.736 76.7769 243.736H120.244C120.497 243.736 120.695 243.934 120.695 244.187C120.695 244.439 120.497 244.637 120.244 244.637Z" fill="white"/>
<path d="M67.4731 97.6296C67.4731 97.6296 78.1822 96.2234 79.3 98.0262C80.4178 99.8291 79.4081 101.037 78.2002 101.235C76.9923 101.434 67.4912 97.6296 67.4912 97.6296H67.4731Z" fill="#FD8753"/>
<path d="M50.6357 91.5197C50.6357 91.5197 55.0347 86.5078 57.6489 86.2193C60.245 85.9128 66.6633 86.616 66.4649 88.0222C66.2666 89.4284 60.9482 90.6183 60.9482 90.6183C60.9482 90.6183 68.6644 96.9284 69.656 97.5233C70.6656 98.1183 76.561 100.228 78.4721 100.732C80.3831 101.237 81.573 101.94 79.68 103.545C77.7689 105.149 67.6548 105.041 64.0491 104.951C60.4434 104.843 50.6357 102.842 50.6357 102.842V91.5197Z" fill="#FD8753"/>
<path d="M78.4887 101.182C74.6126 101.055 69.6547 98.0446 69.4383 97.9004C69.222 97.7742 69.1679 97.4858 69.2941 97.2875C69.4203 97.0711 69.7088 97.017 69.9071 97.1432C69.9612 97.1793 74.883 100.172 78.5068 100.28C78.7592 100.28 78.9575 100.497 78.9395 100.749C78.9395 101.001 78.7231 101.182 78.4887 101.182Z" fill="black"/>
<path d="M129.006 62.6726C128.88 62.6726 128.735 62.6185 128.645 62.5103C128.483 62.312 128.519 62.0416 128.717 61.8793C128.753 61.8433 132.828 58.5079 133.459 51.3505C133.477 51.0981 133.675 50.8998 133.946 50.9359C134.198 50.9539 134.378 51.1703 134.36 51.4227C133.693 58.9947 129.456 62.4382 129.276 62.5644C129.186 62.6365 129.096 62.6545 129.006 62.6545V62.6726Z" fill="black"/>
<path d="M44.2716 32.4391C44.2716 32.4391 45.5156 35.4679 46.4531 34.9811C47.3905 34.4943 45.3713 30.6362 45.3713 30.6362C45.3713 30.6362 48.923 30.2035 51.7715 27.4271C54.602 24.6507 55.7018 21.748 55.7018 21.748L59.2715 23.0822C59.2715 23.0822 61.4169 16.2313 58.7126 14.0318C56.0083 11.8323 54.2054 14.0318 54.2054 14.0318C54.2054 14.0318 47.697 13.8334 43.4963 17.8358C39.2957 21.8382 38.4844 26.9403 38.4844 26.9403C38.4844 26.9403 36.375 27.0305 36.0865 29.5545C35.7801 32.0605 38.0517 35.0172 38.0517 35.0172C38.0517 35.0172 38.9711 30.6182 44.2896 32.421L44.2716 32.4391Z" fill="white"/>
<path d="M184.336 26.8315H150.28V65.2146H184.336V26.8315Z" fill="white"/>
<path d="M184.336 51.3684V65.2144H150.28V60.0041C152.894 57.3359 158.014 53.658 167.317 51.6929C174.546 50.1605 180.28 50.5211 184.336 51.3684Z" fill="#5E1DBB"/>
<path d="M251.907 28.9766H191.944V32.9248H251.907V28.9766Z" fill="#5E1DBB"/>
<path d="M251.907 38.3154H191.944V42.2637H251.907V38.3154Z" fill="#5E1DBB"/>
<path d="M251.907 47.6733H191.944V51.6216H251.907V47.6733Z" fill="#5E1DBB"/>
<path d="M251.907 57.0117H191.944V60.96H251.907V57.0117Z" fill="#5E1DBB"/>
<path d="M152.533 287.671C151 288.284 86.3675 290.014 84.8711 287.671C84.4564 287.022 84.1499 284.93 83.9336 282.244C92.3169 282.424 114.817 282.803 129.907 282.172C139.66 281.757 147.214 281.343 152.226 281.036C152.226 281.072 152.226 281.108 152.262 281.144C153.164 284.371 153.254 287.364 152.533 287.671Z" fill="#FFB700"/>
<path d="M51.5361 282.911C51.5361 285.254 50.7428 287.905 49.1022 288.572C47.4796 289.257 34.2466 290.645 22.6902 289.653C11.6025 288.716 9.31286 287.905 8.50156 286.931C8.10493 286.426 8.88017 284.082 9.76357 281.829C9.81766 281.721 9.87174 281.595 9.92583 281.486C9.96189 281.414 9.97992 281.342 10.016 281.27C14.5412 282.135 23.0688 283.506 31.8848 283.361C40.2681 283.235 47.4616 282.676 51.482 282.334C51.5181 282.55 51.5361 282.73 51.5361 282.911Z" fill="#FFB700"/>
<path d="M251.907 78.7013L150.279 78.2506C150.027 78.2506 149.829 78.0522 149.829 77.7998C149.829 77.5474 150.027 77.3491 150.279 77.3491L251.907 77.7998C252.16 77.7998 252.358 77.9982 252.358 78.2506C252.358 78.503 252.16 78.7013 251.907 78.7013Z" fill="#7E59D8"/>
</svg>
