<svg width="532" height="471" viewBox="0 0 532 471" fill="none" xmlns="http://www.w3.org/2000/svg">
<path d="M223.43 37.4027C221.825 30.8426 215.21 26.8197 208.65 28.4245C202.09 30.0293 198.067 36.6437 199.672 43.2038C201.277 49.764 207.891 53.7868 214.451 52.182C221.012 50.5772 225.034 43.9629 223.43 37.4027Z" fill="#181B3A"/>
<path d="M149.23 404.11C123.835 409.64 96.9328 408.057 72.3729 399.588C56.2165 394.015 40.689 385.177 30.2145 371.667C10.2087 345.871 13.0171 307.518 29.8675 279.564C40.2119 262.4 55.2949 247.837 61.9309 228.916C67.9598 211.751 66.3224 192.927 63.9044 174.895C61.4864 156.862 58.3527 138.505 61.5948 120.603C64.8369 102.701 76.0271 84.9502 93.4413 79.6587C113.425 73.5974 138.137 91.0007 157.612 83.4756C170.287 78.5744 184.47 59.1108 195.357 50.9676C213.953 37.0665 242.926 36.0364 263.517 46.7712C287.633 59.3494 293.922 82.4238 322.233 86.6201C350.545 90.8164 358.938 64.5975 391.435 67.742C413.219 69.8456 426.773 100.207 442.105 115.821C455.019 128.974 472.987 135.588 488.525 145.499C504.063 155.409 518.387 171.642 516.229 189.934C513.942 209.3 493.751 225.609 498.588 244.497C501.407 255.492 511.816 262.475 519.179 271.118C539.781 295.341 532.462 337.652 504.931 353.548C482.193 366.668 449.934 363.751 433.832 384.483C426.545 393.863 424.431 406.159 419.313 416.861C409.326 437.756 384.528 452.254 362.353 445.574C348.767 441.486 338.433 430.752 327.818 421.34C309.373 404.977 287.915 391.423 264.049 385.232C240.183 379.04 213.714 380.753 192.353 393.071" stroke="white" stroke-width="0.95207" stroke-miterlimit="10" stroke-linecap="round"/>
<path d="M401.443 151.615C408.318 155.659 418.207 152.471 421.677 145.597C424.138 140.717 423.78 134.667 426.871 130.134C432.986 121.145 448.774 122.956 455.15 114.14C460.777 106.344 456.006 94.2865 461.873 86.6529C464.583 83.118 469.04 81.3397 472.748 78.7807C476.457 76.2217 479.731 71.9061 478.322 67.6447C477.606 65.4977 475.849 63.8387 474.331 62.1146C469.517 56.6388 466.763 48.8859 469.278 42.2607C470.027 40.2872 471.198 38.5089 472.195 36.6439C474.342 32.5994 475.654 28.132 476.034 23.567C476.283 20.5309 475.839 16.9309 473.149 15.2719C470.352 13.537 466.741 14.8382 463.846 16.2803C458.229 19.0996 452.883 22.3959 447.874 26.126C445.684 27.7633 443.45 29.5307 440.717 30.0512C434.049 31.3416 426.968 24.8465 420.777 27.5031C416.797 29.2054 415.366 33.8897 414.683 38.0644C414 42.239 413.403 46.8799 410.085 49.6015C407.353 51.8353 403.493 52.1497 400.153 53.4292C390.416 57.1701 386.555 68.4579 385.547 78.5963C385.287 81.2421 385.081 84.0722 383.443 86.1757C382.457 87.4444 381.036 88.3227 379.854 89.4287C376.732 92.3347 375.409 96.5961 374.368 100.695C372.21 109.109 370.692 117.925 372.383 126.513C374.075 135.1 379.507 143.504 387.868 146.909C391.066 148.21 394.807 148.904 396.965 151.56" fill="#7F36FF"/>
<path d="M471.957 16.5843C467.349 21.3228 462.914 26.2348 458.587 31.2227C453.057 37.6094 447.712 44.1587 442.529 50.8381C436.511 58.591 430.72 66.5174 425.158 74.5956C418.988 83.5738 413.089 92.7471 407.538 102.116C401.606 112.113 396.033 122.338 390.926 132.78C390.275 134.103 389.646 135.426 389.006 136.749C388.855 137.074 389.332 137.356 389.494 137.031C394.526 126.48 400.012 116.147 405.889 106.041C411.398 96.564 417.253 87.2822 423.401 78.1955C429.007 69.9113 434.852 61.7897 440.935 53.8525C446.194 46.9887 451.615 40.2551 457.243 33.6841C461.667 28.5119 466.21 23.4264 470.916 18.5036C471.404 17.994 471.892 17.4952 472.38 16.9855C472.629 16.7253 472.239 16.3349 471.979 16.5843H471.957Z" fill="#F9FBFC"/>
<path d="M472.727 26.8739C470.038 28.6197 467.186 30.0944 464.215 31.2871C463.89 31.4172 464.031 31.9594 464.367 31.8293C467.392 30.6148 470.287 29.1293 473.009 27.351C473.313 27.1559 473.031 26.6679 472.727 26.8631V26.8739Z" fill="#F9FBFC"/>
<path d="M467.717 33.1412C466.86 33.4014 465.992 33.6617 465.136 33.9219C464.789 34.0304 464.941 34.5725 465.288 34.4641C466.144 34.2038 467.012 33.9436 467.868 33.6834C468.215 33.5749 468.064 33.0328 467.717 33.1412Z" fill="#F9FBFC"/>
<path d="M454.705 25.7034C454.076 27.0696 453.707 28.5334 453.609 30.0298C453.588 30.3876 454.152 30.3876 454.173 30.0298C454.26 28.631 454.596 27.2539 455.182 25.9853C455.334 25.66 454.846 25.3781 454.694 25.7034H454.705Z" fill="#F9FBFC"/>
<path d="M440.566 35.4621C438.972 40.0488 437.822 44.7764 437.128 49.58C437.074 49.9378 437.616 50.0896 437.67 49.7318C438.364 44.9282 439.525 40.2006 441.108 35.6139C441.227 35.2778 440.685 35.1259 440.566 35.4621Z" fill="#F9FBFC"/>
<path d="M434.743 43.6592C434.548 44.9495 434.363 46.2398 434.168 47.541C434.146 47.6928 434.201 47.8446 434.363 47.888C434.493 47.9205 434.689 47.8446 434.71 47.6928C434.905 46.4025 435.09 45.1121 435.285 43.811C435.307 43.6592 435.252 43.5073 435.09 43.464C434.96 43.4314 434.765 43.5073 434.743 43.6592Z" fill="#F9FBFC"/>
<path d="M460.441 51.4892C459.465 52.1614 458.305 52.4976 457.123 52.465C456.765 52.465 456.765 53.0181 457.123 53.0289C458.392 53.0614 459.671 52.7036 460.723 51.9771C461.016 51.7711 460.734 51.2831 460.441 51.4892Z" fill="#F9FBFC"/>
<path d="M426.795 91.8682C425.657 92.2261 424.442 92.2152 423.315 91.8465C422.968 91.7381 422.827 92.2694 423.163 92.3887C424.377 92.7899 425.722 92.8007 426.947 92.4104C427.294 92.302 427.142 91.7598 426.795 91.8682Z" fill="#F9FBFC"/>
<path d="M444.122 105.065C443.32 105.922 442.247 106.475 441.097 106.67C440.945 106.692 440.869 106.876 440.902 107.017C440.945 107.18 441.097 107.234 441.249 107.212C442.496 106.996 443.656 106.377 444.524 105.456C444.773 105.196 444.372 104.794 444.122 105.055V105.065Z" fill="#F9FBFC"/>
<path d="M462.676 59.9346C455.812 62.5803 448.428 63.7947 441.076 63.5345C438.94 63.4586 436.804 63.2526 434.69 62.9273C434.332 62.8731 434.18 63.4152 434.538 63.4694C441.9 64.5971 449.48 64.261 456.701 62.4285C458.772 61.8972 460.811 61.2466 462.806 60.4767C463.142 60.3466 462.99 59.8044 462.654 59.9346H462.676Z" fill="#F9FBFC"/>
<path d="M430.167 108.99C423.303 111.635 415.919 112.85 408.567 112.59C406.431 112.514 404.295 112.308 402.181 111.982C401.823 111.928 401.671 112.47 402.029 112.525C409.391 113.652 416.971 113.316 424.192 111.484C426.264 110.952 428.302 110.302 430.297 109.532C430.633 109.402 430.482 108.86 430.145 108.99H430.167Z" fill="#F9FBFC"/>
<path d="M443.991 68.708C442.441 69.2393 440.749 69.2176 439.21 68.6537C438.873 68.5345 438.722 69.0766 439.058 69.1959C440.684 69.7814 442.506 69.814 444.143 69.2501C444.479 69.1308 444.338 68.5887 443.991 68.708Z" fill="#F9FBFC"/>
<path d="M466.199 74.1391C462.751 75.5596 459.042 76.2319 455.312 76.1235C454.954 76.1235 454.954 76.6765 455.312 76.6873C459.086 76.7849 462.848 76.1235 466.34 74.6813C466.665 74.5512 466.524 74.009 466.188 74.1391H466.199Z" fill="#F9FBFC"/>
<path d="M422.446 118.651C418.879 119.779 415.127 120.147 411.408 119.735C411.05 119.692 411.05 120.256 411.408 120.299C415.17 120.711 418.987 120.332 422.598 119.193C422.945 119.085 422.793 118.543 422.446 118.651Z" fill="#F9FBFC"/>
<path d="M462.284 72.3934C461.471 72.8922 460.473 72.9898 459.573 72.6862C459.227 72.5669 459.086 73.1091 459.422 73.2284C460.452 73.5753 461.634 73.4561 462.555 72.8814C462.859 72.697 462.577 72.2091 462.273 72.3934H462.284Z" fill="#F9FBFC"/>
<path d="M444.696 80.7435C441.346 81.3507 437.897 81.3182 434.558 80.6676C434.211 80.6026 434.059 81.1339 434.406 81.2098C437.854 81.8821 441.389 81.9146 444.848 81.2857C445.206 81.2206 445.054 80.6785 444.696 80.7435Z" fill="#F9FBFC"/>
<path d="M454.239 88.6158C451.159 89.3748 447.96 89.5158 444.837 89.0279C444.48 88.9736 444.328 89.5158 444.686 89.57C447.917 90.0688 451.213 89.9387 454.39 89.158C454.737 89.0712 454.596 88.5291 454.239 88.6158Z" fill="#F9FBFC"/>
<path d="M420.321 50.5026C418.889 57.6591 418.64 65.0216 419.583 72.2541C419.627 72.6011 420.19 72.6119 420.147 72.2541C419.204 65.065 419.442 57.7567 420.863 50.6544C420.939 50.3074 420.396 50.1556 420.321 50.5026Z" fill="#F9FBFC"/>
<path d="M424.474 57.4304C423.835 58.7967 423.477 60.2822 423.455 61.7894C423.455 62.1472 424.008 62.1472 424.019 61.7894C424.041 60.3798 424.355 58.9918 424.962 57.7123C425.114 57.387 424.637 57.1051 424.474 57.4304Z" fill="#F9FBFC"/>
<path d="M404.1 61.1281C404.176 62.657 404.577 64.1317 405.271 65.498C405.433 65.8232 405.921 65.5413 405.759 65.216C405.119 63.9474 404.74 62.5594 404.664 61.139C404.642 60.7811 404.089 60.7811 404.1 61.139V61.1281Z" fill="#F9FBFC"/>
<path d="M416.201 43.5084C415.637 46.3277 415.062 49.1469 414.498 51.9661C414.423 52.3131 414.965 52.4649 415.041 52.1179C415.604 49.2987 416.179 46.4795 416.743 43.6602C416.819 43.3132 416.277 43.1614 416.201 43.5084Z" fill="#F9FBFC"/>
<path d="M412.188 51.6069C412.069 52.3876 411.961 53.1575 411.841 53.9382C411.82 54.09 411.874 54.2418 412.037 54.2852C412.167 54.3177 412.362 54.2418 412.384 54.09C412.503 53.3093 412.611 52.5394 412.731 51.7587C412.752 51.6069 412.698 51.4551 412.535 51.4117C412.405 51.3792 412.21 51.4551 412.188 51.6069Z" fill="#F9FBFC"/>
<path d="M393.202 91.4674C392.574 94.3083 392.281 97.2143 392.335 100.131C392.335 100.489 392.899 100.489 392.899 100.131C392.845 97.2685 393.127 94.4168 393.755 91.6192C393.831 91.2722 393.289 91.1204 393.213 91.4674H393.202Z" fill="#F9FBFC"/>
<path d="M391.499 88.8218C391.401 89.4723 391.304 90.1121 391.217 90.7627C391.195 90.9145 391.249 91.0663 391.412 91.1097C391.542 91.1422 391.737 91.0663 391.759 90.9145C391.857 90.2639 391.954 89.6241 392.041 88.9736C392.063 88.8218 392.008 88.6699 391.846 88.6266C391.716 88.594 391.521 88.6699 391.499 88.8218Z" fill="#F9FBFC"/>
<path d="M392.596 130.33C388.942 123.954 386.719 116.787 386.177 109.457C386.025 107.397 386.014 105.336 386.133 103.276C386.155 102.918 385.591 102.918 385.569 103.276C385.157 110.693 386.469 118.164 389.343 125.006C390.145 126.925 391.067 128.801 392.108 130.601C392.292 130.916 392.769 130.634 392.596 130.319V130.33Z" fill="#F9FBFC"/>
<path d="M411.463 133.073C407.776 134.895 403.471 135.22 399.525 134.082C399.178 133.984 399.026 134.526 399.373 134.624C403.461 135.806 407.917 135.448 411.734 133.561C412.059 133.399 411.777 132.922 411.452 133.073H411.463Z" fill="#F9FBFC"/>
<path d="M407.787 130.871C406.941 130.98 406.095 131.088 405.249 131.196C405.097 131.218 404.967 131.316 404.967 131.478C404.967 131.619 405.097 131.782 405.249 131.76C406.095 131.652 406.941 131.543 407.787 131.435C407.938 131.413 408.068 131.316 408.068 131.153C408.068 131.012 407.938 130.849 407.787 130.871Z" fill="#F9FBFC"/>
<path d="M402.744 129.213C402.343 129.148 401.942 129.083 401.54 129.018C401.465 129.007 401.399 129.007 401.324 129.05C401.269 129.083 401.215 129.148 401.193 129.213C401.161 129.343 401.237 129.538 401.389 129.56C401.79 129.625 402.191 129.69 402.592 129.755C402.668 129.766 402.733 129.766 402.809 129.723C402.863 129.69 402.918 129.625 402.939 129.56C402.972 129.43 402.896 129.235 402.744 129.213Z" fill="#F9FBFC"/>
<path d="M419.562 141.79C417.317 142.853 414.899 143.493 412.427 143.709C412.069 143.742 412.069 144.306 412.427 144.273C414.997 144.046 417.513 143.384 419.844 142.278C420.169 142.126 419.887 141.638 419.562 141.79Z" fill="#F9FBFC"/>
<path d="M409.988 144.23C409.586 144.165 409.185 144.1 408.784 144.046C408.708 144.035 408.643 144.035 408.567 144.079C408.513 144.111 408.459 144.176 408.437 144.241C408.405 144.371 408.48 144.567 408.632 144.588C409.033 144.653 409.435 144.718 409.836 144.773C409.912 144.783 409.977 144.783 410.053 144.74C410.107 144.707 410.161 144.642 410.183 144.577C410.215 144.447 410.139 144.252 409.988 144.23Z" fill="#F9FBFC"/>
<path d="M420.267 137.183C419.302 137.866 418.153 138.223 416.971 138.213C416.613 138.213 416.613 138.766 416.971 138.776C418.24 138.776 419.508 138.408 420.549 137.67C420.842 137.464 420.56 136.976 420.267 137.183Z" fill="#F9FBFC"/>
<path d="M174.896 150.65C174.896 150.65 178.778 118.847 174.072 98.6788C169.366 78.5104 155.216 59.8818 149.848 54.5577C144.481 49.2229 126.817 33.1966 107.213 25.7473C89.1698 18.8944 88.2481 19.2956 87.5758 23.557C84.6482 42.0447 86.8385 66.2576 89.4192 80.9176C93.377 103.363 105.651 126.199 129.442 136.966C153.232 147.734 174.896 150.65 174.896 150.65Z" fill="#CC1D54"/>
<path d="M88.281 21.1066C93.1387 26.3114 97.4218 32.0691 101.64 37.7944C107.159 45.2653 112.483 52.8881 117.699 60.576C122.914 68.2638 127.566 75.3119 132.294 82.8154C135.395 87.7274 138.583 92.6611 141.196 97.855C144.091 103.591 146.845 109.403 149.589 115.204C152.668 121.721 155.607 128.314 158.144 135.069C158.751 136.695 159.337 138.322 159.9 139.959C160.041 140.36 160.67 140.187 160.54 139.786C155.91 126.243 149.502 113.415 143.256 100.577C142.031 98.061 140.784 95.5996 139.374 93.1707C137.748 90.3623 136.056 87.5864 134.332 84.8323C129.735 77.4589 124.974 70.1939 120.127 62.994C114.869 55.176 109.49 47.434 103.939 39.822C99.5254 33.7715 95.0363 27.721 90.0701 22.1151C89.6364 21.6271 89.1918 21.1392 88.7472 20.6621C88.4544 20.3476 87.9882 20.8139 88.281 21.1283V21.1066Z" fill="#F9FBFC"/>
<path d="M143.061 65.8899C142.605 70.6935 141.272 75.3886 139.201 79.7476C139.016 80.1271 139.591 80.4632 139.764 80.0837C141.879 75.6163 143.245 70.8236 143.711 65.8899C143.755 65.467 143.093 65.467 143.05 65.8899H143.061Z" fill="#F9FBFC"/>
<path d="M167.664 95.426C166.427 100.165 164.367 104.654 161.613 108.698C161.374 109.045 161.949 109.381 162.177 109.034C164.953 104.936 167.045 100.392 168.292 95.5995C168.401 95.1875 167.761 95.014 167.653 95.426H167.664Z" fill="#F9FBFC"/>
<path d="M137.239 72.1448C137.228 73.4785 136.913 74.8122 136.339 76.0158C136.263 76.1785 136.295 76.3737 136.458 76.4712C136.599 76.558 136.838 76.5146 136.913 76.352C137.532 75.0291 137.889 73.6086 137.9 72.1448C137.9 71.7219 137.25 71.7219 137.239 72.1448Z" fill="#F9FBFC"/>
<path d="M139.906 57.3225C139.852 58.602 139.624 59.8707 139.244 61.096C139.125 61.4972 139.754 61.6707 139.884 61.2695C140.275 59.99 140.502 58.6671 140.567 57.3225C140.589 56.8996 139.928 56.8996 139.906 57.3225Z" fill="#F9FBFC"/>
<path d="M149.208 63.4934C149.111 64.4259 148.905 65.3476 148.612 66.2367C148.558 66.4102 148.677 66.5945 148.84 66.6379C149.013 66.6921 149.187 66.5728 149.241 66.4102C149.544 65.456 149.75 64.4801 149.859 63.4825C149.881 63.309 149.696 63.1572 149.534 63.1572C149.338 63.1572 149.219 63.309 149.208 63.4825V63.4934Z" fill="#F9FBFC"/>
<path d="M116.343 37.2847C117.655 43.8231 117.362 50.611 115.703 57.0519C115.594 57.4639 116.234 57.6374 116.343 57.2254C118.023 50.6544 118.316 43.7581 116.982 37.1003C116.896 36.6883 116.267 36.8618 116.343 37.2738V37.2847Z" fill="#F9FBFC"/>
<path d="M152.743 84.2571C151.344 90.9907 148.449 97.3557 144.394 102.907C144.145 103.254 144.719 103.58 144.958 103.244C149.046 97.6485 151.963 91.2184 153.372 84.4306C153.459 84.0185 152.819 83.845 152.732 84.2571H152.743Z" fill="#F9FBFC"/>
<path d="M166.797 107.408C166.276 108.47 165.68 109.5 165.008 110.476C164.91 110.628 164.975 110.845 165.127 110.932C165.29 111.029 165.474 110.964 165.582 110.812C166.255 109.837 166.851 108.806 167.371 107.744C167.447 107.581 167.415 107.386 167.252 107.288C167.111 107.202 166.884 107.245 166.797 107.408Z" fill="#F9FBFC"/>
<path d="M125.04 48.8766C125.116 50.514 124.725 52.1404 123.966 53.5934C123.771 53.9729 124.335 54.2982 124.53 53.9296C125.343 52.379 125.777 50.6332 125.69 48.8875C125.669 48.4646 125.007 48.4646 125.029 48.8875L125.04 48.8766Z" fill="#F9FBFC"/>
<path d="M161.256 92.2378C161.039 93.8751 160.356 95.4257 159.358 96.7486C159.25 96.8895 159.337 97.1172 159.478 97.204C159.64 97.3016 159.825 97.2257 159.933 97.0847C161.007 95.6751 161.69 94.0052 161.917 92.2486C161.939 92.0751 161.755 91.9233 161.592 91.9233C161.397 91.9233 161.288 92.0751 161.267 92.2486L161.256 92.2378Z" fill="#F9FBFC"/>
<path d="M104.795 54.8932C102.518 54.2101 100.48 52.8438 99.0377 50.9571C98.7883 50.621 98.2136 50.9571 98.4739 51.2932C100.024 53.3318 102.171 54.8064 104.622 55.5329C105.034 55.6522 105.208 55.0233 104.795 54.8932Z" fill="#F9FBFC"/>
<path d="M110.715 102.55C108.319 103.114 105.803 103.016 103.494 102.127C103.103 101.975 102.93 102.615 103.32 102.767C105.738 103.699 108.384 103.786 110.889 103.19C111.301 103.092 111.127 102.463 110.715 102.55Z" fill="#F9FBFC"/>
<path d="M104.187 91.0236C101.758 91.2404 99.3077 90.7959 97.1824 89.5706C96.8137 89.3537 96.4776 89.9284 96.8462 90.1344C99.0583 91.4139 101.639 91.9127 104.176 91.6742C104.599 91.6308 104.599 90.9802 104.176 91.0127L104.187 91.0236Z" fill="#F9FBFC"/>
<path d="M100.262 45.308C100.066 45.1996 99.8713 45.0803 99.6761 44.961C99.6328 44.9285 99.5894 44.9068 99.5569 44.8743L99.4918 44.8201C99.4918 44.8201 99.4267 44.7658 99.4484 44.7875C99.3942 44.7441 99.2858 44.6574 99.2099 44.5923C99.0472 44.4514 98.8846 44.2996 98.7328 44.1369C98.6569 44.0502 98.581 43.9743 98.5051 43.8875C98.4725 43.8442 98.44 43.8116 98.4075 43.7683C98.3966 43.7466 98.3966 43.7466 98.4075 43.7683L98.3858 43.7466L98.3207 43.6598C98.2231 43.5189 98.028 43.443 97.8653 43.5406C97.7244 43.6273 97.6376 43.8442 97.746 43.996C98.3207 44.7767 99.0581 45.4273 99.9147 45.8935C100.066 45.9803 100.283 45.9369 100.37 45.7743C100.457 45.6116 100.413 45.4056 100.251 45.3188L100.262 45.308Z" fill="#F9FBFC"/>
<path d="M119.141 90.2969C118.285 90.6548 117.363 90.8499 116.43 90.8499C116.008 90.8499 116.008 91.5005 116.43 91.5114C117.417 91.5114 118.404 91.3162 119.315 90.9367C119.477 90.8716 119.597 90.7198 119.542 90.5355C119.499 90.3837 119.304 90.2319 119.141 90.3078V90.2969Z" fill="#F9FBFC"/>
<path d="M130.777 79.9635C128.836 81.1996 126.385 81.0912 124.173 80.9827C121.961 80.8743 119.868 80.549 117.765 80.0285C113.688 79.0201 109.817 77.2635 106.401 74.8129C104.482 73.4359 102.736 71.8311 101.185 70.0528C100.904 69.7275 100.437 70.2046 100.719 70.519C106.488 77.1334 114.924 81.0261 123.642 81.6117C126.114 81.7743 128.922 81.9261 131.102 80.5382C131.46 80.3105 131.124 79.7358 130.766 79.9743L130.777 79.9635Z" fill="#F9FBFC"/>
<path d="M108.058 80.9604C105.998 80.4074 104.09 79.3665 102.539 77.8918C102.235 77.599 101.769 78.0653 102.073 78.3581C103.71 79.9086 105.716 81.0146 107.885 81.6002C108.297 81.7086 108.47 81.0797 108.058 80.9604Z" fill="#F9FBFC"/>
<path d="M100.74 76.136C100.675 76.0926 100.61 76.0493 100.545 76.0059C100.512 75.9842 100.479 75.9517 100.447 75.93C100.49 75.9625 100.479 75.9517 100.447 75.93L100.404 75.8975C100.284 75.7999 100.165 75.6806 100.067 75.5613C100.046 75.5288 100.013 75.5071 99.9916 75.4746C99.9916 75.4746 99.9482 75.4095 99.9699 75.4529C99.9916 75.4963 99.9699 75.442 99.959 75.4312C99.9157 75.3661 99.8723 75.3011 99.8289 75.236C99.7422 75.0951 99.6663 74.9541 99.6012 74.8023C99.5687 74.7372 99.4711 74.6722 99.406 74.6505C99.3301 74.6288 99.2217 74.6397 99.1566 74.683C99.0916 74.7264 99.0265 74.7915 99.0048 74.8782C98.9831 74.9758 99.0048 75.0408 99.0374 75.1276C99.3084 75.7782 99.8072 76.3312 100.414 76.689C100.566 76.7758 100.783 76.7324 100.87 76.5697C100.957 76.4071 100.913 76.2119 100.751 76.1143L100.74 76.136Z" fill="#F9FBFC"/>
<path d="M123.401 75.7993C122.458 75.7451 121.515 75.5391 120.647 75.1596C120.485 75.0837 120.289 75.1162 120.192 75.2788C120.105 75.4198 120.148 75.6584 120.311 75.7343C121.287 76.168 122.328 76.4065 123.39 76.4716C123.564 76.4716 123.716 76.309 123.716 76.1463C123.716 75.962 123.564 75.8319 123.39 75.821L123.401 75.7993Z" fill="#F9FBFC"/>
<path d="M152.017 119.811C143.288 122.436 134.158 121.536 125.375 119.725C122.957 119.226 120.539 118.662 118.143 118.087C117.731 117.99 117.557 118.619 117.969 118.727C126.677 120.798 135.622 122.815 144.633 121.937C147.203 121.687 149.74 121.199 152.202 120.451C152.603 120.332 152.429 119.692 152.028 119.811H152.017Z" fill="#F9FBFC"/>
<path d="M138.094 115.735C136.782 115.844 135.47 115.735 134.202 115.356C133.79 115.236 133.616 115.876 134.028 115.995C135.351 116.386 136.728 116.505 138.094 116.397C138.517 116.364 138.517 115.703 138.094 115.735Z" fill="#F9FBFC"/>
<path d="M130.569 124.42C129.257 124.55 127.945 124.323 126.796 123.661C126.427 123.455 126.091 124.019 126.46 124.225C127.696 124.93 129.149 125.212 130.569 125.071C130.743 125.049 130.894 124.93 130.894 124.746C130.894 124.583 130.743 124.399 130.569 124.42Z" fill="#F9FBFC"/>
<path d="M140.979 128.075C138.799 128.27 136.609 128.227 134.451 127.912C134.039 127.847 133.855 128.487 134.277 128.552C136.5 128.877 138.745 128.942 140.989 128.736C141.412 128.704 141.412 128.042 140.989 128.075H140.979Z" fill="#F9FBFC"/>
<path d="M136.035 125.114C135.883 125.169 135.72 125.223 135.558 125.255C135.46 125.277 135.471 125.277 135.362 125.277C135.276 125.277 135.189 125.277 135.102 125.277C135.026 125.277 134.94 125.277 134.864 125.266C134.842 125.266 134.842 125.266 134.864 125.266H134.799C134.799 125.266 134.723 125.244 134.679 125.234C134.603 125.212 134.528 125.19 134.452 125.169C134.419 125.158 134.376 125.147 134.343 125.125C134.387 125.147 134.278 125.093 134.267 125.093C134.116 125.017 133.91 125.049 133.812 125.212C133.736 125.364 133.769 125.581 133.931 125.667C134.636 126.004 135.46 126.025 136.197 125.743C136.36 125.678 136.49 125.516 136.425 125.342C136.371 125.19 136.197 125.049 136.024 125.114H136.035Z" fill="#F9FBFC"/>
<path d="M152.711 107.852C152.819 109.208 152.646 110.552 152.234 111.843C152.104 112.244 152.743 112.417 152.873 112.016C153.307 110.672 153.491 109.251 153.372 107.852C153.34 107.429 152.678 107.429 152.711 107.852Z" fill="#F9FBFC"/>
<path d="M210.549 85.9378C213.162 85.8185 215.732 85.1137 217.998 83.8776C219.082 83.2921 220.134 82.5439 220.73 81.4704C221.327 80.3969 221.381 78.9114 220.557 77.9355C219.798 77.0138 218.497 76.7427 217.336 76.7861C213.628 76.9162 210.321 79.8764 209.79 83.5415" fill="#7F36FF"/>
<path d="M210.168 85.9821C207.685 87.6628 204.378 88.1182 201.439 87.1857C199.943 86.7086 198.317 85.4725 198.555 83.9436C198.707 83.0002 199.531 82.3388 200.377 81.9267C202.99 80.6581 206.373 81.0051 208.78 82.805" fill="#7F36FF"/>
<path d="M215.08 102.659C218.203 103.927 221.955 103.222 224.264 100.924C225.023 100.175 225.641 99.2321 225.782 98.1586C225.923 97.0851 225.501 95.8707 224.568 95.2743C223.755 94.7538 222.725 94.7647 221.792 94.9382C218.68 95.5129 215.98 97.7249 214.809 100.653" fill="#7F36FF"/>
<path d="M214.386 102.778C211.946 103.884 209.029 103.981 206.438 103.027C204.909 102.463 203.293 101.151 203.532 99.568C203.684 98.5813 204.562 97.8657 205.516 97.5946C206.47 97.3235 207.5 97.4211 208.498 97.5078C210.547 97.703 212.987 98.5922 214.711 100.349" fill="#7F36FF"/>
<path d="M216.728 123.163C220.046 124.996 224.644 124.757 226.877 121.851C227.333 121.265 227.68 120.571 227.68 119.823C227.68 118.37 226.346 117.123 224.915 116.831C223.483 116.538 222.03 117.004 220.762 117.655C219.406 118.359 218.17 119.292 217.118 120.398" fill="#7F36FF"/>
<path d="M216.295 122.771C214.105 123.183 211.752 122.793 209.767 121.676C208.249 120.82 206.829 119.204 207.198 117.534C207.458 116.363 208.596 115.55 209.789 115.387C210.982 115.214 212.218 115.582 213.324 116.114C214.961 116.894 216.61 118.38 216.458 120.158" fill="#7F36FF"/>
<path d="M215.232 143.407C216.988 144.328 218.908 144.925 220.859 145.142C222.974 145.38 225.598 144.795 226.053 142.745C226.389 141.216 225.186 139.601 223.7 138.993C222.215 138.386 220.567 138.56 219.038 138.896C217.455 139.254 215.861 139.796 214.668 140.869" fill="#7F36FF"/>
<path d="M214.365 143.288C211.697 143.754 208.78 143.006 206.601 141.282C205.679 140.555 204.844 139.558 204.801 138.409C204.725 136.403 207.23 135.221 209.171 135.795C211.112 136.37 212.988 138.81 214.278 140.404" fill="#7F36FF"/>
<path d="M212.695 149.392C218.929 125.797 217.097 99.3291 206.037 76.6885C205.831 76.2656 206.503 76.0271 206.709 76.4499C217.813 99.1773 219.678 125.819 213.41 149.512C213.291 149.956 212.575 149.826 212.695 149.392Z" fill="#7F36FF"/>
<path d="M157.534 185.477C154.921 193.024 144.837 196.992 137.236 193.978C131.846 191.842 127.878 186.973 122.239 185.509C111.06 182.592 99.8156 194.206 88.5495 191.581C78.5954 189.261 73.8895 176.943 63.8703 174.894C59.2294 173.95 54.4476 175.468 49.7091 175.913C44.9706 176.358 39.3321 175.176 37.4562 171.001C36.5129 168.897 36.7406 166.49 36.7297 164.181C36.6864 156.872 33.4334 149.152 26.7648 145.715C24.7805 144.695 22.601 144.088 20.4974 143.297C15.9433 141.594 11.7578 139.024 8.25543 135.771C5.9133 133.603 3.74465 130.567 4.7097 127.552C5.70728 124.419 9.49156 123.063 12.8096 122.304C19.2505 120.819 25.8106 119.886 32.4033 119.496C35.2876 119.322 38.3128 119.236 40.8502 117.869C47.0525 114.54 48.0934 104.988 54.8813 103.003C59.2403 101.735 63.6643 104.391 67.145 107.145C70.6257 109.899 74.3666 113.066 78.9099 113.001C82.6508 112.946 85.9363 110.68 89.482 109.498C99.8373 106.05 110.843 112.187 118.78 119.311C120.851 121.166 122.998 123.193 125.785 123.746C127.466 124.082 129.201 123.833 130.914 123.909C135.446 124.115 139.48 126.522 143.199 128.973C150.833 134.015 158.239 139.773 162.945 147.45C167.651 155.116 169.245 165.07 165.005 173.083C163.379 176.152 160.906 179.112 161.058 182.538" fill="#181B3A"/>
<g style="mix-blend-mode:overlay">
<path d="M157.534 185.477C154.921 193.024 144.837 196.992 137.236 193.978C131.846 191.842 127.878 186.973 122.239 185.509C111.06 182.592 99.8156 194.206 88.5495 191.581C78.5954 189.261 73.8895 176.943 63.8703 174.894C59.2294 173.95 54.4476 175.468 49.7091 175.913C44.9706 176.358 39.3321 175.176 37.4562 171.001C36.5129 168.897 36.7406 166.49 36.7297 164.181C36.6864 156.872 33.4334 149.152 26.7648 145.715C24.7805 144.695 22.601 144.088 20.4974 143.297C15.9433 141.594 11.7578 139.024 8.25543 135.771C5.9133 133.603 3.74465 130.567 4.7097 127.552C5.70728 124.419 9.49156 123.063 12.8096 122.304C19.2505 120.819 25.8106 119.886 32.4033 119.496C35.2876 119.322 38.3128 119.236 40.8502 117.869C47.0525 114.54 48.0934 104.988 54.8813 103.003C59.2403 101.735 63.6643 104.391 67.145 107.145C70.6257 109.899 74.3666 113.066 78.9099 113.001C82.6508 112.946 85.9363 110.68 89.482 109.498C99.8373 106.05 110.843 112.187 118.78 119.311C120.851 121.166 122.998 123.193 125.785 123.746C127.466 124.082 129.201 123.833 130.914 123.909C135.446 124.115 139.48 126.522 143.199 128.973C150.833 134.015 158.239 139.773 162.945 147.45C167.651 155.116 169.245 165.07 165.005 173.083C163.379 176.152 160.906 179.112 161.058 182.538" fill="url(#paint0_linear_384_923)"/>
</g>
<path d="M6.53192 128.377C13.5258 129.027 20.498 129.906 27.4485 130.925C36.2966 132.226 45.1121 133.777 53.8951 135.522C64.1094 137.561 74.2695 139.87 84.3646 142.451C95.5656 145.314 106.68 148.523 117.675 152.091C129.321 155.864 140.825 160.039 152.156 164.68C153.674 165.298 155.193 165.927 156.7 166.566C157.058 166.718 157.372 166.187 157.014 166.035C145.607 161.221 134.005 156.873 122.262 152.947C111.191 149.25 99.9897 145.921 88.7019 142.939C78.3574 140.207 67.9371 137.767 57.4626 135.609C48.4735 133.766 39.4411 132.128 30.3653 130.74C23.198 129.645 16.0089 128.691 8.78731 127.975C8.03913 127.9 7.29095 127.824 6.54277 127.759C6.15241 127.726 6.15241 128.333 6.54277 128.366L6.53192 128.377Z" fill="#F9FBFC"/>
<path d="M13.2439 136.748C16.6487 136.336 19.9993 135.62 23.2631 134.579C23.6426 134.46 23.4799 133.875 23.1004 133.994C19.8908 135.013 16.5945 135.729 13.2439 136.141C12.8536 136.184 12.8536 136.802 13.2439 136.748Z" fill="#F9FBFC"/>
<path d="M21.7886 138.266C22.656 137.908 23.5235 137.55 24.3909 137.192C24.5427 137.127 24.6512 136.986 24.6078 136.813C24.5644 136.672 24.3801 136.531 24.2283 136.596C23.3608 136.954 22.4934 137.312 21.6259 137.669C21.4741 137.734 21.3657 137.875 21.4091 138.049C21.4524 138.19 21.6368 138.331 21.7886 138.266Z" fill="#F9FBFC"/>
<path d="M26.4184 124.125C27.7955 124.722 29.0642 125.557 30.1377 126.608C30.4196 126.88 30.8533 126.446 30.5714 126.175C29.4545 125.09 28.1534 124.223 26.722 123.605C26.5702 123.54 26.3968 123.562 26.2992 123.713C26.2233 123.843 26.2558 124.071 26.4076 124.136L26.4184 124.125Z" fill="#F9FBFC"/>
<path d="M44.4288 122.413C48.8745 124.874 53.1034 127.726 57.0286 130.947C57.3322 131.196 57.7659 130.762 57.4623 130.513C53.4937 127.26 49.2323 124.365 44.7324 121.882C44.3854 121.687 44.0818 122.218 44.4179 122.413H44.4288Z" fill="#F9FBFC"/>
<path d="M54.7522 124.862C55.8149 125.73 56.8775 126.597 57.9293 127.465C58.0594 127.573 58.2329 127.595 58.363 127.465C58.4715 127.356 58.4931 127.139 58.363 127.031C57.3004 126.163 56.2378 125.296 55.186 124.429C55.0558 124.32 54.8824 124.298 54.7522 124.429C54.6438 124.537 54.6221 124.754 54.7522 124.862Z" fill="#F9FBFC"/>
<path d="M40.3192 147.634C41.6746 147.515 42.9541 146.972 43.9951 146.083C44.2987 145.823 43.8541 145.389 43.5614 145.65C42.6614 146.43 41.512 146.918 40.3192 147.027C40.1566 147.038 40.0156 147.157 40.0156 147.33C40.0156 147.482 40.1566 147.656 40.3192 147.634Z" fill="#F9FBFC"/>
<path d="M95.5766 156.721C96.8345 156.222 97.9079 155.355 98.6236 154.205C98.8296 153.869 98.2983 153.566 98.0923 153.891C97.4634 154.899 96.5092 155.691 95.414 156.125C95.2622 156.19 95.1538 156.331 95.1971 156.504C95.2405 156.645 95.414 156.775 95.5766 156.721Z" fill="#F9FBFC"/>
<path d="M90.8926 178.071C92.2155 178.212 93.5709 177.93 94.7311 177.269C95.0781 177.074 94.7636 176.543 94.4166 176.738C93.3431 177.345 92.107 177.583 90.8817 177.453C90.7191 177.432 90.5781 177.605 90.5781 177.757C90.5781 177.941 90.7191 178.05 90.8817 178.061L90.8926 178.071Z" fill="#F9FBFC"/>
<path d="M44.6459 155.506C51.9543 153.088 58.7638 149.217 64.5433 144.131C66.1914 142.689 67.742 141.138 69.2058 139.512C69.4661 139.219 69.0323 138.785 68.7721 139.078C63.7083 144.738 57.4735 149.303 50.588 152.502C48.6037 153.424 46.5543 154.226 44.4833 154.92C44.1146 155.039 44.2664 155.636 44.6459 155.506Z" fill="#F9FBFC"/>
<path d="M104.956 172.011C112.264 169.593 119.074 165.722 124.853 160.636C126.501 159.194 128.052 157.643 129.516 156.017C129.776 155.724 129.342 155.29 129.082 155.583C124.018 161.243 117.784 165.808 110.898 169.007C108.914 169.929 106.864 170.731 104.793 171.425C104.425 171.544 104.576 172.141 104.956 172.011Z" fill="#F9FBFC"/>
<path d="M65.6384 150.127C67.33 149.499 68.7938 148.317 69.7047 146.755C69.8998 146.419 69.3685 146.105 69.1733 146.441C68.3493 147.861 67.0155 148.967 65.4758 149.531C65.1071 149.661 65.2698 150.258 65.6384 150.117V150.127Z" fill="#F9FBFC"/>
<path d="M51.8464 168.67C55.609 167.521 59.1005 165.601 62.0824 163.021C62.386 162.761 61.9415 162.327 61.6487 162.587C58.7536 165.092 55.3488 166.957 51.6838 168.074C51.3043 168.193 51.4669 168.779 51.8464 168.659V168.67Z" fill="#F9FBFC"/>
<path d="M117.881 174.406C121.535 172.953 124.854 170.785 127.608 167.976C127.879 167.694 127.456 167.261 127.174 167.543C124.507 170.275 121.264 172.411 117.719 173.821C117.361 173.962 117.513 174.558 117.881 174.406Z" fill="#F9FBFC"/>
<path d="M53.6456 164.821C54.7624 164.669 55.7925 163.997 56.3781 163.032C56.5841 162.696 56.0528 162.381 55.8467 162.718C55.3371 163.553 54.448 164.095 53.4829 164.225C53.3203 164.246 53.2335 164.453 53.266 164.604C53.3094 164.778 53.4829 164.843 53.6456 164.821Z" fill="#F9FBFC"/>
<path d="M73.6292 159.756C76.752 158.032 79.5387 155.744 81.805 152.99C82.0543 152.686 81.6206 152.253 81.3712 152.556C79.1375 155.278 76.405 157.533 73.3256 159.225C72.9786 159.42 73.293 159.941 73.64 159.756H73.6292Z" fill="#F9FBFC"/>
<path d="M71.5903 171.967C74.5939 170.546 77.3047 168.529 79.5167 166.046C79.777 165.753 79.3432 165.32 79.083 165.612C76.9035 168.063 74.2361 170.036 71.2759 171.435C70.918 171.609 71.2325 172.129 71.5903 171.967Z" fill="#F9FBFC"/>
<path d="M71.0712 120.797C77.1217 125.253 82.4566 130.664 86.7938 136.801C87.0216 137.116 87.5529 136.812 87.3252 136.487C82.9228 130.252 77.5229 124.776 71.3856 120.255C71.0712 120.016 70.7567 120.547 71.0712 120.786V120.797Z" fill="#F9FBFC"/>
<path d="M72.7191 128.832C74.107 129.428 75.3649 130.285 76.4058 131.38C76.6769 131.662 77.1106 131.228 76.8395 130.946C75.7661 129.819 74.4649 128.908 73.0336 128.301C72.8818 128.236 72.7083 128.257 72.6107 128.409C72.5348 128.539 72.5673 128.767 72.7191 128.832Z" fill="#F9FBFC"/>
<path d="M91.3049 118.336C92.2374 119.453 92.9205 120.765 93.3 122.163C93.4084 122.543 93.994 122.38 93.8855 122.001C93.4735 120.494 92.7253 119.106 91.7277 117.902C91.4783 117.598 91.0446 118.032 91.294 118.336H91.3049Z" fill="#F9FBFC"/>
<path d="M69.4232 112.784C71.8629 114.574 74.2918 116.363 76.7207 118.152C77.0352 118.39 77.3496 117.859 77.0352 117.62C74.6063 115.831 72.1666 114.042 69.7377 112.253C69.4232 112.015 69.1088 112.546 69.4232 112.784Z" fill="#F9FBFC"/>
<path d="M78.2489 116.341C78.8887 116.861 79.5176 117.382 80.1573 117.902C80.2766 118 80.4718 118.032 80.591 117.902C80.6886 117.794 80.7212 117.577 80.591 117.469C79.9513 116.948 79.3224 116.428 78.6826 115.907C78.5634 115.81 78.3682 115.777 78.2489 115.907C78.1513 116.016 78.1188 116.232 78.2489 116.341Z" fill="#F9FBFC"/>
<path d="M121.427 134.59C123.878 136.314 126.111 138.32 128.096 140.554C128.356 140.847 128.79 140.413 128.529 140.12C126.513 137.843 124.225 135.816 121.742 134.059C121.416 133.831 121.113 134.363 121.427 134.59Z" fill="#F9FBFC"/>
<path d="M120.852 131.423C121.383 131.857 121.915 132.291 122.446 132.725C122.565 132.822 122.76 132.855 122.88 132.725C122.977 132.616 123.01 132.399 122.88 132.291C122.348 131.857 121.817 131.423 121.286 130.99C121.166 130.892 120.971 130.86 120.852 130.99C120.754 131.098 120.722 131.315 120.852 131.423Z" fill="#F9FBFC"/>
<path d="M150.161 163.325C148.535 155.93 145.184 148.957 140.489 143.026C139.134 141.313 137.659 139.697 136.098 138.168C135.816 137.897 135.382 138.331 135.664 138.602C141.064 143.861 145.282 150.334 147.83 157.437C148.535 159.41 149.12 161.438 149.565 163.487C149.652 163.867 150.237 163.704 150.15 163.325H150.161Z" fill="#F9FBFC"/>
<path d="M136.683 178.342C140.944 177.345 144.772 174.753 147.233 171.121C147.45 170.795 146.919 170.492 146.702 170.806C144.327 174.308 140.63 176.781 136.52 177.746C136.141 177.832 136.303 178.429 136.683 178.331V178.342Z" fill="#F9FBFC"/>
<path d="M138.255 174.189C139.003 173.722 139.752 173.256 140.5 172.801C140.641 172.714 140.695 172.53 140.608 172.378C140.521 172.226 140.326 172.183 140.185 172.269C139.437 172.736 138.689 173.202 137.941 173.657C137.8 173.744 137.746 173.928 137.832 174.08C137.919 174.232 138.114 174.275 138.255 174.189Z" fill="#F9FBFC"/>
<path d="M141.206 169.537C141.477 169.234 141.759 168.919 142.03 168.616C142.084 168.551 142.117 168.486 142.117 168.399C142.117 168.323 142.084 168.236 142.03 168.182C141.911 168.073 141.716 168.052 141.596 168.182C141.325 168.486 141.043 168.8 140.772 169.104C140.718 169.169 140.686 169.234 140.686 169.32C140.686 169.396 140.718 169.483 140.772 169.537C140.892 169.646 141.087 169.667 141.206 169.537Z" fill="#F9FBFC"/>
<path d="M136.38 190.259C138.95 189.608 141.4 188.502 143.601 187.006C143.927 186.789 143.623 186.257 143.287 186.474C141.129 187.938 138.744 189.023 136.206 189.662C135.827 189.76 135.989 190.345 136.369 190.248L136.38 190.259Z" fill="#F9FBFC"/>
<path d="M146.029 185.737C146.3 185.433 146.582 185.118 146.853 184.815C146.908 184.75 146.94 184.685 146.94 184.598C146.94 184.522 146.908 184.435 146.853 184.381C146.734 184.273 146.539 184.251 146.42 184.381C146.149 184.685 145.867 184.999 145.596 185.303C145.541 185.368 145.509 185.433 145.509 185.52C145.509 185.596 145.541 185.682 145.596 185.737C145.715 185.845 145.91 185.867 146.029 185.737Z" fill="#F9FBFC"/>
<path d="M132.498 187.2C133.865 187.092 135.144 186.571 136.196 185.704C136.326 185.596 136.304 185.379 136.196 185.27C136.066 185.14 135.892 185.162 135.762 185.27C134.84 186.029 133.68 186.496 132.498 186.593C132.108 186.626 132.108 187.233 132.498 187.2Z" fill="#F9FBFC"/>
<path d="M490.226 352.615C491.841 350.294 493.988 348.321 496.46 346.879C497.642 346.195 498.954 345.61 500.331 345.61C501.709 345.61 503.151 346.315 503.617 347.551C504.062 348.711 503.574 350.023 502.869 351.053C500.624 354.349 495.897 355.868 492.091 354.501" fill="#181B3A"/>
<path d="M489.976 352.942C486.94 354.352 484.62 357.127 483.828 360.272C483.427 361.877 483.687 363.98 485.281 364.533C486.268 364.869 487.374 364.457 488.252 363.894C490.963 362.159 492.557 358.917 492.221 355.815" fill="#181B3A"/>
<path d="M476.835 340.069C477.399 336.6 480.24 333.542 483.753 332.598C484.902 332.295 486.16 332.197 487.277 332.609C488.383 333.021 489.305 334.019 489.348 335.168C489.381 336.177 488.773 337.098 488.079 337.857C485.748 340.395 482.083 341.739 478.624 341.327" fill="#181B3A"/>
<path d="M476.324 340.634C473.863 342.293 472.106 344.895 471.532 347.725C471.195 349.395 471.532 351.531 473.18 352.106C474.21 352.464 475.403 352.03 476.205 351.293C477.007 350.566 477.506 349.579 477.994 348.625C478.981 346.663 479.534 344.006 478.829 341.545" fill="#181B3A"/>
<path d="M458.162 328.229C458.303 324.293 461.165 320.237 465.221 319.673C466.034 319.554 466.901 319.587 467.628 319.966C469.016 320.693 469.449 322.536 468.907 323.989C468.376 325.431 467.096 326.526 465.741 327.339C464.288 328.218 462.694 328.868 461.024 329.259" fill="#181B3A"/>
<path d="M458.282 328.815C456.634 330.593 455.658 332.935 455.593 335.299C455.538 337.11 456.276 339.224 458.087 339.723C459.366 340.081 460.787 339.452 461.632 338.455C462.478 337.457 462.825 336.156 462.955 334.876C463.15 332.99 462.673 330.745 460.884 329.997" fill="#181B3A"/>
<path d="M437.94 319.37C438.071 317.31 438.602 315.261 439.502 313.374C440.478 311.335 442.549 309.243 444.772 309.872C446.431 310.338 447.276 312.246 447.016 313.894C446.745 315.543 445.639 316.963 444.436 318.177C443.189 319.446 441.757 320.606 440.044 321.159" fill="#181B3A"/>
<path d="M437.549 320.228C435.565 322.418 434.621 325.444 435.022 328.306C435.196 329.51 435.662 330.778 436.747 331.386C438.622 332.47 441.192 330.789 441.745 328.729C442.309 326.669 441.04 323.741 440.26 321.768" fill="#181B3A"/>
<path d="M430.762 318.666C456.905 324.9 481.172 339.929 496.493 361.388C496.775 361.789 497.393 361.301 497.111 360.9C481.725 339.344 457.306 324.217 431.054 317.95C430.566 317.831 430.274 318.546 430.762 318.666Z" fill="#181B3A"/>
<path d="M54.7618 365.767C52.8209 363.717 50.392 362.091 47.7246 361.05C46.4559 360.551 45.068 360.172 43.7126 360.378C42.3572 360.584 41.0343 361.494 40.7632 362.796C40.503 364.01 41.1753 365.224 42.0319 366.146C44.7535 369.063 49.6547 369.844 53.2113 367.924" fill="#F6F6F7"/>
<path d="M55.0655 366.049C58.2751 366.982 60.9967 369.378 62.2546 372.371C62.8943 373.9 62.9594 376.014 61.463 376.795C60.5413 377.283 59.3919 377.034 58.4269 376.611C55.4775 375.309 53.4173 372.338 53.2764 369.226" fill="#F6F6F7"/>
<path d="M66.1152 351.335C65.0309 347.985 61.7671 345.393 58.1454 344.992C56.9635 344.862 55.7057 344.959 54.6648 345.534C53.6346 346.109 52.8756 347.236 53.0057 348.375C53.125 349.373 53.8624 350.197 54.6648 350.847C57.3539 353.005 61.1815 353.775 64.5429 352.842" fill="#F6F6F7"/>
<path d="M66.6994 351.822C69.3777 353.091 71.5138 355.401 72.5114 358.111C73.097 359.716 73.097 361.874 71.5464 362.698C70.5813 363.208 69.3343 362.958 68.4235 362.351C67.5127 361.755 66.8729 360.855 66.2549 359.976C64.9862 358.187 64.0429 355.639 64.3573 353.102" fill="#F6F6F7"/>
<path d="M82.7702 336.805C82.0329 332.934 78.5847 329.366 74.4968 329.41C73.6727 329.41 72.8161 329.583 72.1655 330.06C70.8969 330.982 70.7559 332.879 71.5041 334.224C72.2523 335.569 73.6727 336.458 75.1366 337.065C76.7088 337.715 78.3787 338.117 80.0811 338.258" fill="#F6F6F7"/>
<path d="M82.7484 337.401C84.646 338.908 85.958 341.077 86.3917 343.408C86.717 345.197 86.305 347.387 84.6026 348.157C83.399 348.699 81.8918 348.298 80.9051 347.442C79.9183 346.585 79.3762 345.349 79.0509 344.102C78.5738 342.269 78.7039 339.982 80.3629 338.962" fill="#F6F6F7"/>
<path d="M101.42 324.985C100.987 322.969 100.152 321.028 98.9697 319.304C97.6902 317.439 95.3373 315.671 93.2337 316.636C91.6614 317.352 91.1192 319.358 91.6289 320.952C92.1385 322.546 93.4505 323.782 94.8276 324.801C96.2481 325.864 97.842 326.796 99.6203 327.078" fill="#F6F6F7"/>
<path d="M101.93 325.777C104.218 327.642 105.617 330.494 105.649 333.378C105.66 334.593 105.389 335.916 104.413 336.686C102.721 338.041 99.9348 336.772 99.0673 334.821C98.1998 332.869 99.0022 329.779 99.4793 327.718" fill="#F6F6F7"/>
<path d="M108.413 323.207C83.5173 333.323 61.7984 351.844 49.9033 375.384C49.6865 375.829 49.0033 375.438 49.2202 374.994C61.1694 351.356 83.0185 332.705 108.023 322.545C108.489 322.361 108.89 323.011 108.413 323.207Z" fill="#F6F6F7"/>
<path d="M390.329 182.149C390.329 182.149 400.923 189.045 417.958 190.542C434.992 192.038 453.784 186.128 459.574 183.461C465.364 180.794 483.266 171.642 495.15 158.912C506.091 147.201 506.07 146.421 502.99 144.87C489.653 138.126 470.287 133.756 458.175 132.042C439.622 129.429 418.174 132.899 402.419 147.917C386.664 162.924 390.34 182.16 390.34 182.16L390.329 182.149Z" fill="#EDB636"/>
<path style="mix-blend-mode:overlay" d="M390.329 182.149C390.329 182.149 400.923 189.045 417.958 190.542C434.992 192.038 453.784 186.128 459.574 183.461C465.364 180.794 483.266 171.642 495.15 158.912C506.091 147.201 506.07 146.421 502.99 144.87C489.653 138.126 470.287 133.756 458.175 132.042C439.622 129.429 418.174 132.899 402.419 147.917C386.664 162.924 390.34 182.16 390.34 182.16L390.329 182.149Z" fill="url(#paint1_linear_384_923)"/>
<path d="M504.672 145.955C499.207 148.243 493.493 149.988 487.832 151.691C480.426 153.924 472.955 155.974 465.474 157.936C457.992 159.899 450.998 161.634 443.711 163.304C438.897 164.41 434.061 165.559 429.17 166.264C423.944 167.023 418.685 167.587 413.437 168.183C407.311 168.877 401.152 169.463 394.993 169.68C393.507 169.734 392.022 169.766 390.525 169.777C390.189 169.777 390.178 170.309 390.525 170.309C402.865 170.222 415.107 168.519 427.327 167.023C432.087 166.438 436.782 165.397 441.456 164.356C448.558 162.762 455.617 161.027 462.665 159.216C470.277 157.253 477.878 155.193 485.414 152.97C491.421 151.192 497.45 149.37 503.284 147.082C503.794 146.887 504.303 146.681 504.813 146.464C505.127 146.334 504.986 145.825 504.672 145.955Z" fill="#F9FBFC"/>
<path d="M452.981 175.621C449.446 174.103 446.215 171.956 443.439 169.289C443.19 169.05 442.821 169.43 443.06 169.668C445.868 172.368 449.132 174.548 452.71 176.077C453.024 176.207 453.296 175.751 452.981 175.621Z" fill="#F9FBFC"/>
<path d="M422.425 186.563C419.216 184.514 416.397 181.89 414.13 178.832C413.924 178.561 413.469 178.832 413.675 179.103C416.006 182.237 418.88 184.926 422.165 187.019C422.458 187.203 422.718 186.748 422.436 186.563H422.425Z" fill="#F9FBFC"/>
<path d="M449.912 169.722C448.904 169.386 447.982 168.822 447.212 168.085C446.963 167.846 446.594 168.226 446.832 168.464C447.667 169.267 448.665 169.874 449.771 170.232C450.096 170.34 450.237 169.83 449.912 169.722Z" fill="#F9FBFC"/>
<path d="M460.507 175.371C459.553 175.014 458.642 174.537 457.807 173.951C457.688 173.864 457.515 173.929 457.45 174.049C457.374 174.179 457.428 174.33 457.547 174.406C458.425 175.024 459.369 175.512 460.377 175.881C460.507 175.935 460.67 175.827 460.703 175.697C460.746 175.545 460.648 175.415 460.518 175.371H460.507Z" fill="#F9FBFC"/>
<path d="M452.894 180.783C452.19 180.469 451.517 180.089 450.899 179.634C450.78 179.547 450.606 179.612 450.541 179.731C450.465 179.861 450.52 180.013 450.639 180.089C451.268 180.544 451.929 180.924 452.634 181.238C452.764 181.293 452.916 181.282 452.992 181.141C453.057 181.032 453.024 180.837 452.894 180.783Z" fill="#F9FBFC"/>
<path d="M483.342 162.826C477.996 162.197 472.846 160.332 468.292 157.459C467.999 157.274 467.739 157.73 468.021 157.914C472.651 160.842 477.899 162.718 483.342 163.357C483.678 163.401 483.678 162.869 483.342 162.826Z" fill="#F9FBFC"/>
<path d="M435.718 178.246C431.056 175.589 427.033 171.902 423.997 167.478C423.801 167.197 423.346 167.468 423.541 167.75C426.632 172.249 430.719 176.001 435.458 178.701C435.751 178.875 436.022 178.408 435.729 178.246H435.718Z" fill="#F9FBFC"/>
<path d="M413.458 182.952C412.818 182.323 412.221 181.64 411.69 180.913C411.603 180.794 411.462 180.74 411.332 180.816C411.213 180.881 411.148 181.065 411.235 181.174C411.799 181.933 412.406 182.659 413.078 183.321C413.317 183.559 413.696 183.19 413.458 182.941V182.952Z" fill="#F9FBFC"/>
<path d="M471.675 166.414C470.418 166.078 469.279 165.384 468.379 164.441C468.141 164.191 467.772 164.571 468 164.82C468.965 165.829 470.19 166.566 471.535 166.924C471.86 167.011 472.001 166.501 471.675 166.414Z" fill="#F9FBFC"/>
<path d="M426.958 182.615C425.786 182.062 424.767 181.195 424.052 180.11C423.867 179.828 423.401 180.089 423.596 180.381C424.355 181.542 425.429 182.485 426.686 183.071C426.817 183.136 426.968 183.103 427.044 182.973C427.109 182.854 427.077 182.669 426.947 182.615H426.958Z" fill="#F9FBFC"/>
<path d="M473.378 149.944C474.647 148.383 476.36 147.212 478.279 146.604C478.604 146.507 478.463 145.986 478.138 146.095C476.132 146.724 474.332 147.938 472.998 149.576C472.781 149.836 473.161 150.215 473.378 149.955V149.944Z" fill="#F9FBFC"/>
<path d="M427.511 157.535C427.435 156.689 427.652 155.811 427.825 154.987C428.096 153.707 428.443 152.45 428.812 151.203C429.181 149.956 429.571 148.741 429.994 147.527C430.287 146.703 430.569 145.857 430.981 145.087C431.143 144.783 430.688 144.512 430.525 144.816C429.788 146.193 429.333 147.776 428.856 149.262C428.216 151.246 427.619 153.274 427.218 155.323C427.077 156.039 426.915 156.809 426.98 157.535C427.012 157.871 427.543 157.871 427.511 157.535Z" fill="#F9FBFC"/>
<path d="M434.786 142.56C435.111 140.587 435.989 138.744 437.366 137.291C437.605 137.041 437.225 136.662 436.987 136.911C435.556 138.429 434.612 140.359 434.276 142.419C434.222 142.756 434.731 142.897 434.786 142.56Z" fill="#F9FBFC"/>
<path d="M445.738 140.5C446.345 138.591 447.505 136.9 449.067 135.664C449.338 135.447 448.958 135.078 448.687 135.284C447.05 136.585 445.846 138.364 445.217 140.359C445.109 140.684 445.629 140.825 445.727 140.5H445.738Z" fill="#F9FBFC"/>
<path d="M482.237 148.893C482.79 148.426 483.44 148.079 484.134 147.873C484.275 147.83 484.362 147.689 484.318 147.548C484.275 147.407 484.134 147.32 483.993 147.364C483.213 147.602 482.486 147.993 481.857 148.513C481.749 148.6 481.76 148.795 481.857 148.893C481.966 149.001 482.117 148.99 482.237 148.893Z" fill="#F9FBFC"/>
<path d="M441.607 151.776C441.607 151.061 441.726 150.345 442.008 149.695C442.062 149.564 442.052 149.413 441.911 149.337C441.802 149.272 441.607 149.304 441.553 149.434C441.228 150.182 441.065 150.974 441.076 151.787C441.076 152.123 441.607 152.134 441.607 151.787V151.776Z" fill="#F9FBFC"/>
<path d="M445.922 162.978C445.554 161.015 446.627 158.977 447.495 157.285C448.264 155.8 449.154 154.369 450.173 153.035C452.222 150.324 454.76 147.971 457.622 146.128C459.259 145.076 460.994 144.187 462.816 143.493C463.13 143.373 462.99 142.853 462.675 142.983C455.996 145.542 450.368 150.595 447.083 156.949C446.117 158.814 445.001 160.972 445.413 163.13C445.478 163.466 445.987 163.325 445.922 162.989V162.978Z" fill="#F9FBFC"/>
<path d="M452.298 145.856C453.382 144.447 454.802 143.297 456.407 142.517C456.711 142.365 456.451 141.91 456.136 142.061C454.445 142.885 452.981 144.1 451.831 145.585C451.745 145.705 451.81 145.878 451.929 145.943C452.07 146.03 452.2 145.965 452.287 145.846L452.298 145.856Z" fill="#F9FBFC"/>
<path d="M458.317 141.617L458.361 141.584C458.393 141.563 458.415 141.541 458.447 141.53C458.502 141.498 458.545 141.465 458.599 141.433C458.653 141.4 458.718 141.368 458.783 141.335C458.783 141.335 458.881 141.292 458.838 141.313C458.87 141.303 458.892 141.292 458.924 141.281C459.044 141.237 459.163 141.194 459.293 141.172C459.358 141.162 459.423 141.151 459.477 141.14C459.51 141.14 459.51 141.14 459.477 141.14H459.532C459.532 141.14 459.597 141.129 459.629 141.129C459.77 141.129 459.9 141.01 459.889 140.869C459.889 140.739 459.77 140.587 459.629 140.609C459 140.652 458.426 140.88 457.938 141.27C457.829 141.357 457.84 141.552 457.938 141.649C458.057 141.758 458.198 141.736 458.317 141.649V141.617Z" fill="#F9FBFC"/>
<path d="M451.43 158.608C451.777 157.881 452.254 157.22 452.829 156.667C453.079 156.428 452.699 156.049 452.45 156.287C451.842 156.873 451.333 157.578 450.964 158.337C450.899 158.467 450.932 158.619 451.062 158.694C451.181 158.759 451.365 158.727 451.42 158.597L451.43 158.608Z" fill="#F9FBFC"/>
<path d="M408.545 168.91C409.271 161.613 412.915 155.085 416.981 149.132C418.13 147.452 419.312 145.803 420.505 144.166C420.711 143.884 420.245 143.624 420.05 143.895C415.777 149.794 411.407 155.877 409.239 162.914C408.632 164.866 408.22 166.872 408.024 168.91C407.992 169.247 408.523 169.247 408.556 168.91H408.545Z" fill="#F9FBFC"/>
<path d="M416.06 159.572C416.385 158.575 416.884 157.642 417.534 156.829C417.621 156.72 417.643 156.558 417.534 156.449C417.437 156.352 417.252 156.341 417.155 156.449C416.439 157.339 415.897 158.347 415.539 159.431C415.431 159.757 415.951 159.898 416.049 159.572H416.06Z" fill="#F9FBFC"/>
<path d="M411.722 151.832C412.037 150.802 412.666 149.891 413.501 149.219C413.609 149.132 413.598 148.937 413.501 148.839C413.392 148.731 413.24 148.752 413.121 148.839C412.21 149.566 411.549 150.574 411.202 151.68C411.104 152.005 411.614 152.146 411.711 151.821L411.722 151.832Z" fill="#F9FBFC"/>
<path d="M405.639 158.662C406.17 156.981 406.908 155.366 407.819 153.848C407.992 153.555 407.537 153.284 407.363 153.577C406.42 155.127 405.672 156.786 405.13 158.51C405.021 158.836 405.542 158.977 405.639 158.651V158.662Z" fill="#F9FBFC"/>
<path d="M409.457 155.724C409.457 155.659 409.457 155.594 409.468 155.518C409.468 155.561 409.468 155.475 409.468 155.518V155.475C409.468 155.475 409.49 155.41 409.501 155.366C409.511 155.301 409.533 155.236 409.555 155.171C409.555 155.139 409.577 155.117 409.587 155.084C409.587 155.084 409.609 155.03 409.587 155.063C409.577 155.095 409.598 155.03 409.598 155.03C409.652 154.911 409.717 154.802 409.793 154.694L409.826 154.651C409.848 154.629 409.869 154.607 409.891 154.575C409.934 154.521 409.989 154.477 410.043 154.423C410.14 154.325 410.14 154.141 410.043 154.043C409.934 153.946 409.772 153.946 409.663 154.043C409.197 154.466 408.937 155.084 408.915 155.713C408.915 155.854 409.034 155.984 409.175 155.973C409.316 155.963 409.436 155.854 409.436 155.713L409.457 155.724Z" fill="#F9FBFC"/>
<path d="M417.523 172.38C416.461 172.131 415.474 171.676 414.596 171.036C414.476 170.949 414.303 171.014 414.238 171.134C414.162 171.264 414.216 171.415 414.335 171.491C415.246 172.153 416.298 172.63 417.393 172.89C417.729 172.966 417.87 172.456 417.534 172.38H417.523Z" fill="#F9FBFC"/>
<path d="M73.8917 427.239C68.4701 424.788 62.0834 427.185 59.6329 432.606C57.1823 438.028 59.5786 444.414 65.0003 446.865C70.4219 449.316 76.8085 446.919 79.2591 441.498C81.7097 436.076 79.3133 429.689 73.8917 427.239Z" stroke="#181B3A" stroke-width="0.981515" stroke-miterlimit="10"/>
<path d="M497.199 101.888C494.683 101.627 492.428 103.449 492.167 105.965C491.907 108.48 493.729 110.736 496.244 110.996C498.76 111.256 501.015 109.434 501.276 106.919C501.536 104.403 499.714 102.148 497.199 101.888Z" stroke="#181B3A" stroke-width="0.981515" stroke-miterlimit="10"/>
<path d="M39.8319 73.0882C37.3163 72.828 35.0609 74.6497 34.8006 77.1653C34.5404 79.6809 36.362 81.9363 38.8777 82.1965C41.3933 82.4568 43.6487 80.6351 43.9089 78.1195C44.1692 75.6039 42.3475 73.3485 39.8319 73.0882Z" fill="#F6F6F7"/>
<path d="M491.354 292.642C490.14 294.398 490.574 296.816 492.33 298.031C494.087 299.245 496.505 298.812 497.719 297.055C498.934 295.298 498.5 292.88 496.743 291.666C494.987 290.451 492.569 290.885 491.354 292.642Z" fill="#181B3A"/>
<path d="M0.340901 383.041C-0.537401 384.992 0.340901 387.291 2.29268 388.159C4.24446 389.037 6.54322 388.159 7.41068 386.207C8.27814 384.255 7.41068 381.956 5.4589 381.089C3.50712 380.211 1.20836 381.089 0.340901 383.041Z" fill="#F6F6F7"/>
<path d="M307.28 459.258C309.416 458.499 310.522 456.157 309.774 454.021C309.014 451.885 306.672 450.779 304.536 451.527C302.4 452.275 301.294 454.628 302.042 456.764C302.801 458.901 305.143 460.007 307.28 459.258Z" stroke="#181B3A" stroke-width="0.981515" stroke-miterlimit="10"/>
<path d="M475.437 215.644C474.071 210.027 468.4 206.59 462.794 207.967C457.177 209.333 453.74 214.994 455.117 220.61C456.483 226.227 462.154 229.664 467.76 228.287C473.377 226.921 476.814 221.25 475.437 215.644Z" fill="#F6F6F7"/>
<path d="M491.93 403.199C490.075 395.609 482.42 390.968 474.83 392.822C467.24 394.676 462.588 402.332 464.442 409.922C466.296 417.512 473.951 422.153 481.542 420.31C489.132 418.455 493.784 410.8 491.93 403.21V403.199Z" stroke="#F6F6F7" stroke-width="0.981515" stroke-miterlimit="10"/>
<path d="M49.7203 306.499C47.9962 302.671 43.4854 300.969 39.6578 302.703C35.8301 304.428 34.1277 308.938 35.8626 312.766C37.5867 316.594 42.0975 318.296 45.9251 316.561C49.7528 314.837 51.4552 310.326 49.7203 306.499Z" fill="#181B3A"/>
<path d="M254.311 425.536C251.34 430.188 252.706 436.357 257.358 439.329C262.009 442.3 268.179 440.933 271.15 436.282C274.121 431.63 272.755 425.46 268.103 422.489C263.452 419.518 257.282 420.884 254.311 425.536Z" fill="#F6F6F7"/>
<path d="M29.043 208.096C26.1479 201.688 18.8613 198.728 12.7674 201.482C6.67348 204.236 4.0711 211.664 6.96625 218.072C9.86139 224.48 17.148 227.441 23.2419 224.686C29.3358 221.932 31.9382 214.505 29.043 208.096Z" stroke="#F6F6F7" stroke-width="0.981515" stroke-miterlimit="10"/>
<path d="M371.115 107.668C369.293 107.495 367.601 107.397 366.029 107.364C363.015 104.426 359.274 101.108 354.644 97.3344C349.244 92.9429 346.251 90.0369 342.044 86.8599C342.044 86.8599 338.032 89.5815 333.857 94.5477C330.312 98.7657 328.1 104.068 328.1 104.068C328.1 104.068 342.087 117.644 348.55 127.923C349.244 132.38 350.523 137.519 352.182 143.364L358.775 167.349C358.775 167.349 388.236 177.65 401.617 161.732C401.617 161.732 407.982 111.246 371.104 107.69L371.115 107.668Z" fill="#CC1D54"/>
<path style="mix-blend-mode:overlay" d="M371.115 107.668C369.293 107.495 367.601 107.397 366.029 107.364C363.015 104.426 359.274 101.108 354.644 97.3344C349.244 92.9429 346.251 90.0369 342.044 86.8599C342.044 86.8599 338.032 89.5815 333.857 94.5477C330.312 98.7657 328.1 104.068 328.1 104.068C328.1 104.068 342.087 117.644 348.55 127.923C349.244 132.38 350.523 137.519 352.182 143.364L358.775 167.349C358.775 167.349 388.236 177.65 401.617 161.732C401.617 161.732 407.982 111.246 371.104 107.69L371.115 107.668Z" fill="url(#paint2_linear_384_923)"/>
<path d="M205.04 462.989H213.715L247.329 75.8862H242.991L205.04 462.989Z" fill="#181B3A"/>
<path d="M337.327 462.989H328.652L295.038 80.4185H299.375L337.327 462.989Z" fill="#181B3A"/>
<path d="M300.46 110.78H241.364V116.201H300.46V110.78Z" fill="#181B3A"/>
<path d="M325.943 397.583H215.884V403.005H325.943V397.583Z" fill="#181B3A"/>
<path d="M413.586 350.414H128.778L141.79 133.55H400.574L413.586 350.414Z" fill="#F6F6F7"/>
<path opacity="0.3" d="M413.586 350.414H128.778L141.79 133.55H400.574L413.586 350.414Z" fill="#D3D2DB"/>
<path d="M428.952 346.077H113.414V351.499H428.952V346.077Z" fill="#181B3A"/>
<path d="M264.699 233.08H159.52L163.607 152.873H264.699V233.08Z" fill="#D3D2DB"/>
<path d="M240.821 279.933H167.814L166.729 276.322L235.4 274.153L240.821 279.933Z" fill="#D3D2DB"/>
<path d="M242.99 299.093H168.898L175.784 293.313L239.759 294.918L242.99 299.093Z" fill="#D3D2DB"/>
<path d="M245.18 317.168H166.729L168.193 313.351L239.737 311.378L245.18 317.168Z" fill="#D3D2DB"/>
<path d="M239.759 260.784H161.308L168.194 254.994L235.4 258.247L239.759 260.784Z" fill="#D3D2DB"/>
<path d="M310.108 275.215C313.58 270.365 312.463 263.619 307.613 260.147C302.764 256.675 296.017 257.792 292.545 262.641C289.073 267.491 290.19 274.238 295.04 277.71C299.889 281.182 306.636 280.065 310.108 275.215Z" fill="#D3D2DB"/>
<path d="M272.196 279.456C277.999 278.08 281.589 272.259 280.212 266.455C278.836 260.652 273.016 257.063 267.212 258.439C261.408 259.815 257.819 265.635 259.195 271.439C260.572 277.243 266.392 280.832 272.196 279.456Z" fill="#D3D2DB"/>
<path d="M332.326 279.462C338.13 278.086 341.719 272.265 340.343 266.462C338.967 260.658 333.146 257.069 327.342 258.445C321.539 259.821 317.95 265.642 319.326 271.445C320.702 277.249 326.522 280.838 332.326 279.462Z" fill="#D3D2DB"/>
<path d="M286.83 311.368C292.795 311.368 297.63 306.533 297.63 300.568C297.63 294.604 292.795 289.769 286.83 289.769C280.866 289.769 276.03 294.604 276.03 300.568C276.03 306.533 280.866 311.368 286.83 311.368Z" fill="#D3D2DB"/>
<path d="M315.348 311.368C321.313 311.368 326.148 306.533 326.148 300.568C326.148 294.604 321.313 289.769 315.348 289.769C309.384 289.769 304.548 294.604 304.548 300.568C304.548 306.533 309.384 311.368 315.348 311.368Z" fill="#D3D2DB"/>
<path d="M366.256 277.027C370.715 273.065 371.118 266.239 367.157 261.78C363.195 257.321 356.369 256.918 351.91 260.88C347.451 264.841 347.048 271.667 351.01 276.126C354.971 280.585 361.797 280.988 366.256 277.027Z" fill="#D3D2DB"/>
<path d="M339.149 65.8338C333.554 63.2965 330.247 56.5195 331.711 50.5449C332.665 46.663 335.278 43.4425 337.078 39.8751C343.638 26.8307 337.176 9.1129 324.055 2.73708C312.963 -2.652 298.476 0.123866 290.159 9.24302C281.853 18.3622 280.422 33.0439 286.82 43.5943C291.764 51.7593 300.872 58.5363 309.861 61.7351C320.206 65.4109 332.882 66.8531 339.203 65.8663" fill="#F6F6F7"/>
<path d="M318.979 37.8798C321.495 35.7545 323.089 32.5883 323.089 29.0426C323.089 22.4607 317.591 17.1476 310.945 17.462C304.97 17.7439 300.08 22.7101 299.906 28.6956C299.798 32.3606 301.392 35.6461 303.961 37.8473C304.439 38.2485 304.829 38.7256 305.165 39.2352H317.808C318.134 38.7473 318.524 38.281 318.979 37.9015V37.8798Z" fill="#ECB13E"/>
<path d="M309.372 39.3975C310.402 36.2963 310.489 32.8916 309.589 29.747C309.405 29.0856 309.199 28.3374 308.711 27.8278C308.321 27.4157 307.67 27.188 307.128 27.4157C306.586 27.6435 306.38 28.2181 306.445 28.7603C306.531 29.4001 306.998 29.8663 307.529 30.1808C308.809 30.929 310.413 31.2 311.877 31.0808C313.178 30.9832 314.892 30.6145 315.694 29.476C316.366 28.5218 316.008 26.9495 314.686 26.917C313.233 26.8736 312.615 28.3374 312.452 29.541C311.953 33.3361 312.311 37.3156 313.265 41.024C313.341 41.3276 313.818 41.1975 313.742 40.8939C313.037 38.118 312.701 35.2662 312.755 32.4036C312.766 31.688 312.81 30.9723 312.875 30.2675C312.929 29.6494 312.983 28.9989 313.254 28.4242C313.493 27.9037 313.927 27.4916 314.512 27.4266C315.098 27.3615 315.521 27.7519 315.553 28.3157C315.629 29.6386 314.002 30.2025 312.972 30.441C311.715 30.7338 310.37 30.6904 309.123 30.3217C308.537 30.1482 307.887 29.9205 307.421 29.5085C307.03 29.1723 306.727 28.5218 307.106 28.0555C307.562 27.5133 308.31 28.0338 308.581 28.4784C308.906 28.9989 309.058 29.6494 309.21 30.2458C309.98 33.2169 309.86 36.3722 308.895 39.2782C308.798 39.5818 309.275 39.712 309.372 39.4084V39.3975Z" fill="#EEEEF1"/>
<path d="M305.166 39.2134C305.567 39.8206 305.87 40.4712 306.076 41.1652C306.239 41.7182 306.337 42.2929 306.369 42.8675C306.521 45.5241 308.635 47.6386 311.292 47.6386H311.693C314.393 47.6386 316.486 45.4699 316.638 42.7808C316.67 42.2278 316.768 41.6856 316.909 41.1652C317.104 40.4712 317.418 39.8098 317.809 39.2134H305.166Z" fill="#1B172C"/>
<path d="M306.315 41.2307H311.574C311.888 41.2307 311.888 40.7319 311.574 40.7319H306.315C306 40.7319 306 41.2307 306.315 41.2307Z" fill="#EEEEF1"/>
<path d="M306.585 42.846H307.659C307.789 42.846 307.908 42.7267 307.908 42.5966C307.908 42.4664 307.8 42.3472 307.659 42.3472H306.585C306.455 42.3472 306.336 42.4664 306.336 42.5966C306.336 42.7267 306.444 42.846 306.585 42.846Z" fill="#EEEEF1"/>
<path d="M312.918 41.2307H313.861C313.991 41.2307 314.111 41.1114 314.111 40.9813C314.111 40.8512 314.002 40.7319 313.861 40.7319H312.918C312.788 40.7319 312.668 40.8512 312.668 40.9813C312.668 41.1114 312.777 41.2307 312.918 41.2307Z" fill="#EEEEF1"/>
<path d="M310.196 7.38914C310.196 9.06984 310.228 10.7505 310.283 12.4312C310.293 12.7782 310.836 12.7782 310.825 12.4312C310.77 10.7505 310.738 9.06984 310.738 7.38914C310.738 7.04216 310.196 7.04216 310.196 7.38914Z" fill="#161616"/>
<path d="M321.831 13.1586C321.202 14.1128 320.562 15.067 319.934 16.0212C319.738 16.314 320.205 16.5851 320.4 16.2923C321.029 15.3381 321.668 14.3839 322.297 13.4297C322.493 13.1369 322.026 12.8659 321.831 13.1586Z" fill="#161616"/>
<path d="M333.607 27.8828H326.895C326.548 27.8828 326.548 28.425 326.895 28.425H333.607C333.954 28.425 333.954 27.8828 333.607 27.8828Z" fill="#161616"/>
<path d="M327.861 39.4529C326.592 38.824 325.324 38.1843 324.044 37.5554C323.73 37.4036 323.459 37.8698 323.773 38.0216C325.042 38.6505 326.31 39.2903 327.59 39.9192C327.904 40.071 328.175 39.6047 327.861 39.4529Z" fill="#161616"/>
<path d="M297.879 15.6736C298.703 16.3459 299.528 17.0182 300.352 17.7013C300.46 17.7989 300.623 17.8097 300.731 17.7013C300.829 17.6037 300.85 17.4085 300.731 17.3218C299.907 16.6495 299.083 15.9772 298.259 15.2941C298.15 15.1965 297.988 15.1857 297.879 15.2941C297.782 15.3917 297.76 15.5869 297.879 15.6736Z" fill="#161616"/>
<path d="M289.02 28.7833L295.07 28.4797L295.937 28.4363C296.284 28.4147 296.284 27.8725 295.937 27.8942L289.887 28.1978L289.02 28.2412C288.673 28.2629 288.673 28.805 289.02 28.7833Z" fill="#161616"/>
<path d="M297.705 37.4031C296.447 38.0753 295.2 38.7368 293.942 39.4091C293.639 39.5717 293.91 40.038 294.213 39.8753C295.471 39.203 296.718 38.5416 297.976 37.8693C298.28 37.7067 298.009 37.2404 297.705 37.4031Z" fill="#161616"/>
<path d="M342.022 86.8587C328.63 76.7311 314.794 78.2817 308.787 81.9467C302.596 85.731 287.675 96.4766 295.2 125.634C302.346 153.328 320.574 145.401 316.627 137.464C310.641 125.45 309.535 108.415 315.748 103.796C320.519 100.25 324.39 100.987 328.207 103.785C328.706 102.657 330.766 98.1899 333.846 94.5357C337.966 89.6454 341.924 86.9237 342.022 86.8587Z" fill="#EDB636"/>
<path d="M312.018 124.756C313.786 130.871 316.54 135.252 318.101 138.646C321.864 145.391 323.49 147.288 321.842 148.296C320.118 149.359 317.743 146.356 316.041 143.157C315.943 142.983 315.857 142.799 315.77 142.625L315.716 142.647C316.572 144.219 316.117 145.076 315.434 145.586C314.816 146.052 313.851 146.182 313.168 145.456C313.308 146.421 313.027 147.06 312.419 147.396C311.79 147.743 310.966 147.689 310.11 147.06C310.218 147.906 309.503 148.676 308.917 148.882C306.065 149.869 300.286 139.383 297.705 133.214" fill="#EDB636"/>
<g style="mix-blend-mode:soft-light">
<path d="M313.656 81.2737C313.862 83.6592 311.129 86.7062 307.562 88.0724C304.949 89.07 302.618 88.8856 301.479 87.7905C304.136 84.9496 306.89 83.1171 308.798 81.946C309.991 81.2195 311.498 80.5797 313.244 80.0918C313.472 80.4279 313.623 80.8291 313.656 81.2845V81.2737Z" fill="#161616"/>
</g>
<path d="M332.35 107.515C334.865 102.473 338.379 97.9834 342.51 94.1666C343.778 92.9956 345.101 91.9004 346.478 90.8594C346.75 90.6534 346.478 90.1872 346.207 90.3932C341.523 93.9281 337.403 98.2003 334.226 103.145C333.369 104.468 332.599 105.834 331.894 107.244C331.742 107.547 332.198 107.818 332.361 107.515H332.35Z" fill="#EEEEF1"/>
<path d="M359.642 113.793C364.587 115.885 370.518 115.061 374.833 111.917C376.048 111.038 377.111 109.987 378 108.783C378.184 108.534 377.772 108.295 377.588 108.545C374.519 112.698 369.162 114.877 364.055 114.422C362.624 114.291 361.204 113.944 359.87 113.381C359.588 113.261 359.349 113.673 359.631 113.793H359.642Z" fill="#EEEEF1"/>
<path d="M350.132 121.026C348.614 124.648 348.213 128.671 348.939 132.531C348.993 132.834 349.46 132.704 349.406 132.401C348.69 128.627 349.113 124.691 350.598 121.145C350.718 120.863 350.251 120.733 350.132 121.015V121.026Z" fill="#EEEEF1"/>
<path d="M202.676 440.977L211.101 448.567C211.101 448.567 220.61 442.625 232.159 431.934L218.008 437.149L209.084 430.828L202.676 440.966V440.977Z" fill="#F6F6F7"/>
<path d="M107.125 456.212L101.791 466.459C101.791 466.459 116.071 469.365 130.503 470.547L118.164 464.193L120.148 454.325L107.115 456.212H107.125Z" fill="#181B3A"/>
<path d="M187.213 211.98L100.714 224.845L111.75 299.042L198.249 286.177L187.213 211.98Z" fill="#F2F5F0"/>
<path d="M179.842 221.308L110.492 231.623L119.132 289.71L188.481 279.396L179.842 221.308Z" fill="#D3D2DB"/>
<path d="M168.824 239.858C168.271 236.106 164.779 233.526 161.027 234.079C157.276 234.632 154.695 238.123 155.248 241.875C155.801 245.627 159.292 248.207 163.044 247.654C166.796 247.101 169.377 243.61 168.824 239.858Z" fill="#F2F5F0"/>
<mask id="mask0_384_923" style="mask-type:luminance" maskUnits="userSpaceOnUse" x="110" y="221" width="79" height="69">
<path d="M179.843 221.308L110.494 231.623L119.133 289.71L188.483 279.396L179.843 221.308Z" fill="white"/>
</mask>
<g mask="url(#mask0_384_923)">
<path d="M148.991 279.674C153.61 272.16 158.956 264.917 165.072 258.541C167.37 256.145 170.103 253.369 173.681 253.369C177.682 253.369 181.282 256.838 184.297 259.05C185.891 260.222 187.485 261.403 189.133 262.509C190.282 263.279 193.535 264.418 194.218 265.491C194.663 266.185 194.685 266.359 194.739 267.237C194.891 269.655 192.744 272.941 191.735 274.979C187.875 282.689 183.234 290.008 178.832 297.414C177.129 300.276 175.308 303.128 173.866 306.132C173.746 306.381 172.011 309.775 173.334 309.135C165.224 299.311 157.113 289.498 149.013 279.685L148.991 279.674Z" fill="#262946"/>
<path d="M187.919 290.246C166.981 286.191 156.571 244.618 137.097 243.577C122.61 242.796 111.062 280.498 109.62 292.567C133.801 293.13 164.53 285.714 187.919 290.246Z" fill="#181B3A"/>
</g>
<path d="M91.457 336.568C91.457 336.568 105.51 353.31 111.083 364.728C116.646 376.146 121.048 390.654 120.105 401.02C117.936 424.875 103.612 458.251 103.113 457.047C103.113 457.047 112.515 462.469 122.273 461.742C122.273 461.742 147.213 425.959 152.916 390.925L204.205 445.607C204.205 445.607 214.799 438.386 218.778 432.108C218.778 432.108 180.827 369.943 160.583 347.53C143.678 328.815 127.251 312.724 127.251 312.724L91.457 336.568Z" fill="#7F36FF"/>
<path d="M98.0604 345.329C100.153 343.822 102.246 342.304 104.339 340.796C104.599 340.601 104.339 340.167 104.078 340.352C101.986 341.859 99.8929 343.377 97.8002 344.884C97.5399 345.079 97.8002 345.513 98.0604 345.329Z" fill="#EEEEF1"/>
<path d="M100.218 348.202C102.04 346.923 103.851 345.654 105.672 344.375C105.943 344.19 105.683 343.746 105.412 343.93C103.59 345.21 101.779 346.478 99.9578 347.758C99.6868 347.942 99.947 348.387 100.218 348.202Z" fill="#EEEEF1"/>
<path d="M106.876 329.586C112.504 338.846 117.861 348.312 122.241 358.234C126.351 367.537 129.745 377.318 130.417 387.532C131.024 396.803 129.766 406.106 127.479 415.085C125.342 423.477 122.296 431.62 118.75 439.514C116.05 445.521 113.014 451.366 109.891 457.167C109.609 457.688 109.327 458.208 109.056 458.729C108.904 459.021 109.338 459.271 109.501 458.989C112.482 453.448 115.443 447.896 118.099 442.182C121.71 434.429 124.855 426.448 127.186 418.207C129.701 409.305 131.263 400.067 131.089 390.796C131.003 386.111 130.45 381.416 129.354 376.851C128.118 371.701 126.329 366.67 124.323 361.768C120.181 351.663 114.933 342.034 109.349 332.665C108.687 331.548 108.015 330.442 107.343 329.326C107.169 329.044 106.735 329.304 106.898 329.586H106.876Z" fill="#EEEEF1"/>
<path d="M111.442 336.785C115.042 334.28 116.896 329.867 116.115 325.551C115.887 324.283 115.432 323.057 114.792 321.94C114.63 321.659 114.185 321.908 114.348 322.201C116.462 325.898 116.191 330.572 113.632 333.987C112.949 334.898 112.114 335.7 111.181 336.351C110.91 336.535 111.171 336.98 111.442 336.796V336.785Z" fill="#EEEEF1"/>
<path d="M113.426 340.407C115.746 338.78 117.622 336.536 118.804 333.955C120.062 331.201 120.474 328.132 120.051 325.139C119.801 323.372 119.248 321.669 118.424 320.086C118.273 319.794 117.839 320.054 117.98 320.347C119.368 323.036 119.942 326.104 119.617 329.119C119.324 331.916 118.207 334.605 116.483 336.817C115.54 338.032 114.423 339.095 113.165 339.973C112.894 340.157 113.155 340.602 113.426 340.417V340.407Z" fill="#EEEEF1"/>
<path d="M152.916 390.925L163.575 402.04C163.575 402.04 168.259 360.293 131.262 327.764C131.262 327.764 157.784 358.027 152.905 390.915L152.916 390.925Z" fill="#181B3A"/>
<path d="M131.393 328.577C134.06 332.014 136.598 335.538 138.961 339.192C141.325 342.846 143.44 346.544 145.337 350.404C147.235 354.264 148.916 358.396 150.217 362.581C151.518 366.766 152.516 371.277 153.025 375.745C153.535 380.212 153.578 384.614 153.112 389.028C153.047 389.602 152.982 390.188 152.895 390.763C152.852 391.088 153.34 391.218 153.383 390.893C154.012 386.425 154.099 381.904 153.697 377.425C153.296 372.947 152.45 368.512 151.225 364.197C150 359.881 148.406 355.761 146.53 351.738C144.654 347.715 142.561 343.963 140.252 340.276C137.942 336.59 135.394 332.968 132.727 329.477C132.412 329.054 132.087 328.642 131.762 328.23C131.556 327.969 131.209 328.338 131.404 328.587L131.393 328.577Z" fill="#EEEEF1"/>
<path d="M128.692 273.872C129.809 273.428 130.362 272.159 129.918 271.042C129.473 269.925 128.204 269.372 127.088 269.817C125.971 270.261 125.418 271.53 125.862 272.647C126.307 273.764 127.576 274.317 128.692 273.872Z" fill="#0D0D0D"/>
<path d="M90.2969 248.434L89.8198 242.894C89.8198 242.894 97.5944 243.154 96.4233 236.529C94.3739 224.991 94.4715 221.749 89.18 219.071C83.8885 216.393 72.9043 223.593 75.3874 233.113L79.3127 246.006L90.3077 248.434H90.2969Z" fill="#ECB13E"/>
<path d="M86.9034 230.608C86.9467 231.074 87.1528 231.443 87.3588 231.421C87.5648 231.399 87.7058 231.009 87.6624 230.543C87.619 230.076 87.413 229.708 87.207 229.729C87.001 229.751 86.86 230.141 86.9034 230.608Z" fill="#181B3A"/>
<path d="M92.8458 230.033C92.8891 230.499 93.0951 230.868 93.3012 230.846C93.5072 230.825 93.6481 230.434 93.6048 229.968C93.5614 229.502 93.3554 229.133 93.1494 229.155C92.9433 229.176 92.8024 229.567 92.8458 230.033Z" fill="#181B3A"/>
<path d="M89.8203 242.883C89.8203 242.883 86.1227 242.948 83.0107 240.573L90.113 246.58L89.8203 242.883Z" fill="#181B3A"/>
<path d="M90.8286 234.869C90.5792 234.978 90.2647 234.989 89.9937 234.924C89.7009 234.848 89.4515 234.696 89.2563 234.457C89.1804 234.36 89.0069 234.371 88.931 234.457C88.8334 234.555 88.8551 234.685 88.931 234.783C89.4407 235.412 90.3407 235.585 91.0672 235.271C91.1864 235.216 91.2081 235.054 91.1539 234.956C91.0888 234.837 90.9479 234.826 90.8394 234.869H90.8286Z" fill="#181B3A"/>
<g style="mix-blend-mode:soft-light">
<path d="M78.7933 234.403C78.7499 232.169 80.539 230.326 82.7727 230.283C85.0064 230.239 86.8498 232.028 86.8931 234.262C86.9365 236.496 85.1474 238.339 82.9137 238.382C80.68 238.426 78.8366 236.637 78.7933 234.403Z" fill="#181B3A"/>
</g>
<path d="M94.0383 233.145C94.0166 231.963 94.5154 230.9 95.3069 230.152C95.6214 231.952 95.9684 234.034 96.4129 236.528C96.4238 236.614 96.4238 236.679 96.4346 236.755C95.0467 236.137 94.0708 234.76 94.0383 233.145Z" fill="#ECB13E"/>
<g style="mix-blend-mode:soft-light">
<path d="M94.0383 233.145C94.0166 231.963 94.5154 230.9 95.3069 230.152C95.6214 231.952 95.9684 234.034 96.4129 236.528C96.4238 236.614 96.4238 236.679 96.4346 236.755C95.0467 236.137 94.0708 234.76 94.0383 233.145Z" fill="#181B3A"/>
</g>
<g style="mix-blend-mode:soft-light">
<path d="M90.8835 227.127L89.8101 227.149L89.9077 233.167L92.4883 233.123L90.8835 227.127Z" fill="#181B3A"/>
</g>
<path d="M86.1119 226.965C86.177 227.279 86.6757 227.442 87.2179 227.323C87.7601 227.214 88.1613 226.867 88.0962 226.553C88.0311 226.238 87.5324 226.076 86.9902 226.195C86.448 226.303 86.0468 226.65 86.1119 226.965Z" fill="#181B3A"/>
<path d="M92.0001 226.281C91.9025 226.585 92.2711 226.965 92.8025 227.127C93.3338 227.29 93.8434 227.171 93.941 226.867C94.0386 226.563 93.6699 226.184 93.1386 226.021C92.6073 225.859 92.0977 225.978 92.0001 226.281Z" fill="#181B3A"/>
<path d="M79.2698 234.284C80.3758 234.522 81.4385 233.546 81.7746 232.473C82.1108 231.399 81.9373 230.228 81.8614 229.101C81.7855 227.973 81.8505 226.737 82.5553 225.859C83.2168 225.034 84.2902 224.688 85.3203 224.503C88.942 223.853 93.0624 224.612 96.0226 222.432C98.5816 220.556 99.384 217.011 99.0804 213.855C98.9178 212.174 98.4732 210.472 97.3997 209.16C96.3371 207.859 94.5479 207.046 92.9215 207.49C89.5058 208.434 88.9203 213.823 85.4938 214.744C84.1276 215.113 82.6963 214.625 81.3192 214.289C79.5951 213.866 77.7301 213.682 76.1036 214.386C73.9675 215.297 72.6338 217.791 73.0458 220.079C73.2627 221.239 73.8591 222.432 73.4579 223.538C72.9049 225.056 70.8013 225.457 70.0748 226.889C69.641 227.756 69.8145 228.84 70.3459 229.654C70.8663 230.467 71.6904 231.052 72.547 231.519C72.9265 231.714 73.3169 231.909 73.6097 232.213C74.1518 232.798 74.2169 233.666 74.4663 234.425C74.8458 235.585 75.8976 236.604 77.1229 236.572C78.3373 236.539 79.3999 235.075 78.771 234.024" fill="#181B3A"/>
<path d="M71.8965 234.794C71.864 232.831 73.4254 231.216 75.3772 231.183C77.3398 231.151 78.9554 232.712 78.988 234.664C79.0205 236.616 77.4591 238.242 75.5073 238.275C73.5447 238.307 71.929 236.746 71.8965 234.794Z" fill="#ECB13E"/>
<path d="M74.6729 233.503C75.6271 233.308 76.6789 234.088 76.7765 235.064C76.7873 235.184 76.8741 235.292 77.0042 235.292C77.1235 235.292 77.2427 235.184 77.2319 235.064C77.1126 233.774 75.8114 232.798 74.5428 233.058C74.4235 233.08 74.3476 233.232 74.3801 233.34C74.4126 233.47 74.5428 233.525 74.662 233.503H74.6729Z" fill="#181B3A"/>
<path d="M192.972 250.245C190.868 244.845 184.785 242.166 179.385 244.27C173.985 246.374 171.307 252.457 173.411 257.856C175.514 263.256 181.597 265.935 186.997 263.831C192.397 261.728 195.075 255.644 192.972 250.245Z" fill="#D85C5A"/>
<path d="M108.243 277.527C108.243 277.527 128.292 281.213 149.74 277.407C177.498 272.474 197.732 258.323 197.732 258.323C197.732 258.323 201.028 256.74 200.28 254.04C200.128 253.476 199.673 253.075 199.185 252.771C200.302 251.871 200.8 250.484 200.323 249.28C199.965 248.38 199.141 247.794 198.155 247.588C199.065 246.688 199.445 245.452 199.011 244.357C198.632 243.403 197.732 242.796 196.669 242.622C197.135 241.798 197.298 240.855 196.984 240.074C196.365 238.523 193.622 239.055 190.358 240.616C190.358 240.616 177.054 247.697 160.203 252.121C139.493 257.553 126.98 256.371 111.767 252.121C110.162 251.676 108.492 249.931 106.941 249.659" fill="#ECB13E"/>
<path d="M107.126 248.466C94.4932 246.287 85.0054 242.763 77.8597 247.057C69.8032 251.904 67.1357 258.551 65.9864 264.211C64.837 269.871 63.8719 284.986 69.749 301.414C76.2657 319.63 91.4571 336.557 91.4571 336.557C112.688 328.283 127.251 312.712 127.251 312.712C113.382 297.022 108.6 277.743 108.6 277.743" fill="#ECB13E"/>
<g style="mix-blend-mode:soft-light">
<path d="M149.978 271.835C145.956 272.453 143.05 275.25 143.494 278.069C143.494 278.091 143.494 278.113 143.505 278.134C144.286 278.069 145.077 278.015 145.89 277.939C150.065 277.581 154.142 276.887 158.067 275.987C158.067 275.933 158.067 275.879 158.057 275.825C157.623 273.006 154.012 271.216 149.989 271.835H149.978Z" fill="#181B3A"/>
</g>
<path d="M191.454 245.236C193.319 244.661 195.108 243.837 196.756 242.785C197.016 242.623 196.778 242.2 196.506 242.362C194.891 243.392 193.145 244.206 191.323 244.769C191.031 244.856 191.15 245.333 191.454 245.236Z" fill="#181B3A"/>
<path d="M194.348 255.45C196.213 254.875 198.002 254.051 199.65 252.999C199.911 252.836 199.672 252.413 199.401 252.576C197.785 253.606 196.04 254.419 194.218 254.983C193.925 255.07 194.044 255.547 194.348 255.45Z" fill="#181B3A"/>
<path d="M193.144 250.137C195.009 249.562 196.798 248.738 198.446 247.686C198.707 247.523 198.468 247.1 198.197 247.263C196.581 248.293 194.835 249.106 193.014 249.67C192.721 249.757 192.84 250.234 193.144 250.137Z" fill="#181B3A"/>
<path d="M121.265 279.056L124.084 255.364C121.352 255.277 94.0811 238.741 77.8597 247.069C69.4887 251.363 67.1357 258.562 65.9864 264.223C64.837 269.883 63.8719 284.998 69.749 301.426C76.2657 319.642 91.4571 336.569 91.4571 336.569C112.688 328.295 127.251 312.724 127.251 312.724C113.382 297.034 109.359 278.08 109.359 278.08C109.359 278.08 114.065 279.067 121.265 279.056Z" fill="#CC1D54"/>
<path style="mix-blend-mode:overlay" d="M121.265 279.056L124.084 255.364C121.352 255.277 94.0811 238.741 77.8597 247.069C69.4887 251.363 67.1357 258.562 65.9864 264.223C64.837 269.883 63.8719 284.998 69.749 301.426C76.2657 319.642 91.4571 336.569 91.4571 336.569C112.688 328.295 127.251 312.724 127.251 312.724C113.382 297.034 109.359 278.08 109.359 278.08C109.359 278.08 114.065 279.067 121.265 279.056Z" fill="url(#paint3_linear_384_923)"/>
<path d="M109.392 278.069C109.392 278.069 99.3187 276.171 90.4272 273.623C90.4272 273.623 98.1259 281.658 111.116 285.323L109.392 278.08V278.069Z" fill="#181B3A"/>
<path d="M117.317 253.552C116.471 259.939 115.539 266.325 114.964 272.744C114.791 274.696 114.639 276.648 114.52 278.611C114.498 278.936 115.008 278.936 115.029 278.611C115.441 272.159 116.19 265.751 117.057 259.342C117.317 257.412 117.578 255.482 117.838 253.563C117.881 253.238 117.371 253.238 117.328 253.563L117.317 253.552Z" fill="#EEEEF1"/>
<path d="M108.535 277.46L111.744 299.049L153.751 292.804L152.992 287.892L117.567 291.502L113.598 280.659L108.535 277.46Z" fill="#F2F5F0"/>
<path d="M200.105 440.272C204.529 437.485 208.617 434.2 212.076 430.264C213.063 429.136 213.996 427.976 214.885 426.772C215.08 426.512 214.635 426.252 214.44 426.512C211.371 430.665 207.685 434.308 203.51 437.355C202.317 438.223 201.092 439.047 199.845 439.828C199.574 440.001 199.823 440.446 200.105 440.272Z" fill="#EEEEF1"/>
<path d="M106.236 450.758C111.039 453.014 116.071 454.662 121.34 455.399C122.967 455.627 124.604 455.768 126.242 455.855C126.567 455.876 126.567 455.367 126.242 455.345C120.863 455.063 115.583 454.011 110.551 452.07C109.174 451.539 107.819 450.954 106.485 450.325C106.192 450.184 105.932 450.628 106.225 450.769L106.236 450.758Z" fill="#EEEEF1"/>
<path d="M354.036 95.793C351.878 93.8087 350.067 91.4557 348.701 88.8642C348.224 87.9533 347.79 86.8907 348.137 85.9257C348.733 84.2558 351.097 84.0715 352.236 82.7052C353.158 81.5992 353.06 80.0052 353.125 78.5631C353.201 77.121 353.711 75.4294 355.109 75.0499C357.083 74.5077 358.514 76.9908 360.455 77.6414C362.591 78.3679 364.738 76.7414 366.571 75.4186C368.403 74.0957 371.136 73.0547 372.73 74.6595C374.822 76.7631 372.383 80.8185 374.172 83.1823C375.061 84.3642 376.666 84.657 378.075 85.1016C379.669 85.6004 381.22 86.4244 382.185 87.7907C383.15 89.1569 383.367 91.1304 382.369 92.4641C381.133 94.1448 378.466 94.4051 377.49 96.2484C376.427 98.2652 377.988 101.106 376.568 102.895C375.256 104.543 372.654 103.86 370.734 102.993C368.815 102.125 366.3 101.312 364.847 102.83C363.957 103.763 363.881 105.237 363.036 106.224" fill="#161616"/>
<path d="M361.789 111.082L360.824 107.027C360.824 107.027 354.361 109.293 353.613 103.416C352.301 93.1911 351.369 90.4911 355.109 86.8478C358.85 83.2045 369.965 86.3707 370.702 98.7103L371.786 108.448C371.786 108.448 369.932 110.66 367.08 111.484C364.164 112.34 361.789 111.072 361.789 111.072V111.082Z" fill="#EDB636"/>
<path d="M360.119 95.9231C360.173 96.3351 360.076 96.6821 359.892 96.7146C359.707 96.7363 359.512 96.4327 359.458 96.0207C359.404 95.6086 359.501 95.2616 359.685 95.2291C359.87 95.2074 360.065 95.511 360.119 95.9231Z" fill="#161616"/>
<path d="M354.915 96.6272C354.969 97.0392 354.871 97.3862 354.687 97.4187C354.503 97.4404 354.307 97.1368 354.253 96.7248C354.199 96.3127 354.297 95.9658 354.481 95.9332C354.665 95.9115 354.86 96.2151 354.915 96.6272Z" fill="#161616"/>
<path d="M360.833 107.026C360.833 107.026 363.956 106.104 365.941 103.296L361.56 110.214L360.833 107.037V107.026Z" fill="#161616"/>
<g style="mix-blend-mode:soft-light">
<path d="M367.905 97.8315C367.525 96.0857 365.801 94.9797 364.056 95.3593C362.31 95.7388 361.204 97.4628 361.583 99.2086C361.963 100.954 363.687 102.06 365.433 101.681C367.178 101.301 368.285 99.5773 367.905 97.8315Z" fill="#172228"/>
</g>
<path d="M354.719 99.9563C354.427 98.9588 353.733 98.1997 352.865 97.7769C353.071 99.3708 353.331 101.214 353.613 103.426C353.613 103.502 353.646 103.556 353.657 103.632C354.654 102.743 355.121 101.333 354.719 99.9672V99.9563Z" fill="#ECB13E"/>
<g style="mix-blend-mode:soft-light">
<path d="M354.719 99.9563C354.427 98.9588 353.733 98.1997 352.865 97.7769C353.071 99.3708 353.331 101.214 353.613 103.426C353.613 103.502 353.646 103.556 353.657 103.632C354.654 102.743 355.121 101.333 354.719 99.9672V99.9563Z" fill="#172228"/>
</g>
<g style="mix-blend-mode:soft-light">
<path d="M356.009 93.7435L356.941 93.5483L358.069 98.7206L355.857 99.1977L356.009 93.7435Z" fill="#172228"/>
</g>
<path d="M360.064 92.6372C360.064 92.9191 359.684 93.1576 359.186 93.1685C358.698 93.1793 358.286 92.9625 358.286 92.6914C358.286 92.4095 358.665 92.1709 359.164 92.1601C359.652 92.1492 360.064 92.3661 360.064 92.6372Z" fill="#161616"/>
<path d="M354.881 93.2442C355.022 93.4827 354.794 93.8839 354.371 94.1333C353.948 94.3827 353.482 94.3827 353.341 94.1333C353.2 93.8948 353.428 93.4936 353.851 93.2442C354.274 92.9948 354.74 92.9948 354.881 93.2442Z" fill="#161616"/>
<path d="M373.564 95.0999C373.076 93.4409 371.341 92.4975 369.693 92.9855C368.034 93.4734 367.091 95.2083 367.579 96.8565C368.067 98.5155 369.802 99.4589 371.45 98.9709C373.109 98.483 374.052 96.7481 373.564 95.0999Z" fill="#EDB636"/>
<path d="M358.741 101.129C358.405 101.248 357.797 101.226 357.494 100.923C357.385 100.814 357.179 100.565 357.396 100.37C357.613 100.175 358.003 100.348 358.296 100.24C358.589 100.131 358.827 99.589 359.25 99.6215C359.565 99.6432 359.727 99.7842 359.782 100.034C359.858 100.402 359.467 100.912 358.806 101.118" fill="#161616"/>
<path d="M371.125 94.578C370.117 94.5021 369.184 95.3479 369.13 96.3454C369.13 96.4647 369.238 96.5623 369.347 96.5623C369.466 96.5623 369.553 96.4647 369.564 96.3454C369.607 95.5864 370.366 94.9575 371.125 95.0117C371.244 95.0117 371.342 94.9033 371.342 94.7948C371.342 94.6647 371.244 94.5888 371.125 94.578Z" fill="#172228"/>
<path d="M370.073 91.0436C371.092 92.3231 369.487 94.5568 367.947 94.0038C366.061 93.3207 365.822 90.0135 363.816 89.9376C362.363 89.8834 361.235 91.7701 359.826 91.434C358.731 91.1629 357.95 89.6231 356.898 90.0352C356.323 90.2629 356.128 90.9677 355.749 91.4556C354.556 93.0279 351.704 91.7809 351.368 89.8292C351.043 87.8882 352.398 86.034 353.97 84.8413C358.6 81.3064 365.735 81.5775 370.083 85.4485" fill="#161616"/>
<path d="M391.228 233.675H278.773V185.867H388.311L391.228 233.675Z" fill="#D3D2DB"/>
<path d="M313.168 130.904C314.741 130.438 316.454 131.197 317.614 132.346C318.829 133.55 319.62 135.404 318.959 136.976C318.525 137.996 317.582 138.7 316.616 139.243C316.139 139.503 315.63 139.752 315.088 139.741C314.545 139.741 314.036 139.47 313.602 139.145C312.247 138.137 311.423 136.467 311.444 134.786" fill="#EDB636"/>
<path d="M316.356 135.762C316.703 136.662 317.169 137.518 317.69 138.332C317.852 138.581 318.253 138.353 318.091 138.093C317.592 137.323 317.137 136.499 316.8 135.632C316.757 135.512 316.638 135.436 316.508 135.469C316.399 135.502 316.302 135.642 316.345 135.762H316.356Z" fill="#172228"/>
<path d="M437.974 458.065L442.072 468.865C442.072 468.865 427.553 470.08 413.078 469.57L426.068 464.701L425.244 454.671L437.963 458.065H437.974Z" fill="#181B3A"/>
<path d="M389.547 458.065L393.646 468.865C393.646 468.865 379.127 470.08 364.651 469.57L377.641 464.701L376.817 454.671L389.536 458.065H389.547Z" fill="#181B3A"/>
<path d="M311.552 292.067C310.284 293.465 307.952 293.693 306.423 292.576C305.252 291.72 304.645 290.31 303.799 289.128C302.813 287.762 301.457 286.677 299.917 286.027C300.611 285.734 301.327 285.485 302.043 285.268C304.472 284.552 307.193 284.324 309.47 285.474C311.747 286.623 313.32 289.464 312.387 291.85" fill="#7F36FF"/>
<path d="M318.535 291.861L312.756 289.692C312.756 289.692 311.314 290.418 311.129 292.587L316.909 296.198L318.535 291.861Z" fill="#CC1D54"/>
<path d="M379.973 299.678C379.973 299.678 373.684 323.067 353.71 329.606C336.914 335.114 313.113 322.731 313.113 299.331L327.112 295.2C327.112 295.2 329.909 311.02 342.509 311.02C355.109 311.02 361.973 289.854 361.973 289.854L379.983 299.668L379.973 299.678Z" fill="#EDB636"/>
<path d="M399.697 260.133C399.697 260.133 394.654 264.6 411.006 271.128C424.094 276.354 435.848 274.055 436.564 287.761C436.943 294.874 421.014 301.077 408.653 301.261C400.488 301.38 401.703 319.64 427.379 313.785C454.412 307.626 456.895 290.884 457.372 284.216C457.979 275.725 449.901 257.693 423.259 254.711C393.364 251.361 399.686 260.111 399.686 260.111L399.697 260.133Z" fill="#ECB13E"/>
<path d="M431.142 277.775C426.382 275.671 418.022 273.925 411.006 271.117C394.654 264.589 399.697 260.122 399.697 260.122C399.697 260.122 393.548 250.58 423.443 253.931C429.808 254.646 434.948 256.999 439.329 259.103C439.329 259.103 438.797 263.538 436.498 269.046C434.547 273.73 431.142 277.775 431.142 277.775Z" fill="#7F36FF"/>
<path d="M426.947 276.019C430.037 271.801 432.249 266.965 433.626 261.933C434.049 260.394 434.396 258.832 434.667 257.249C434.721 256.935 434.244 256.805 434.19 257.119C433.279 262.421 431.523 267.583 428.823 272.245C428.118 273.46 427.348 274.642 426.524 275.769C426.34 276.03 426.763 276.268 426.947 276.019Z" fill="#EEEEF1"/>
<g style="mix-blend-mode:soft-light">
<path d="M455.875 279.976C453.837 280.822 452.503 284.335 452.894 287.826C453.175 290.385 454.314 292.218 455.702 292.684C456.895 289.312 457.242 286.287 457.393 284.226C457.48 282.947 457.372 281.44 457.036 279.802C456.667 279.759 456.277 279.802 455.886 279.965L455.875 279.976Z" fill="#181B3A"/>
</g>
<path d="M375.202 237.308C375.202 237.308 367.243 263.906 384.679 254.581L383.931 271.323L397.127 258.409L392.432 242.068C392.432 242.068 394.178 226.389 375.213 237.297L375.202 237.308Z" fill="#ECB13E"/>
<path d="M377.197 245.982C377.273 246.405 377.197 246.774 377.002 246.807C376.818 246.839 376.601 246.535 376.525 246.113C376.449 245.69 376.525 245.321 376.72 245.289C376.905 245.256 377.121 245.56 377.197 245.982Z" fill="#181B3A"/>
<path d="M374.735 251.068C375.44 251.166 376.188 250.786 376.481 250.114C376.524 250.006 376.513 249.886 376.405 249.832C376.318 249.778 376.166 249.8 376.123 249.908C376.091 249.973 376.058 250.038 376.025 250.093C376.004 250.114 375.971 250.168 375.971 250.179C375.971 250.168 375.95 250.212 375.95 250.212L375.917 250.255C375.809 250.374 375.733 250.44 375.603 250.505C375.57 250.526 375.538 250.537 375.505 250.559L375.462 250.58H375.44C375.375 250.613 375.31 250.635 375.234 250.646C375.201 250.646 375.169 250.656 375.125 250.667C375.169 250.667 375.093 250.667 375.093 250.667H375.039C375.039 250.667 374.963 250.667 374.93 250.667H374.876C374.876 250.667 374.811 250.667 374.844 250.667C374.735 250.656 374.616 250.689 374.583 250.808C374.562 250.906 374.616 251.047 374.724 251.068H374.735Z" fill="#181B3A"/>
<path d="M376.992 242.61C377.014 242.903 376.623 243.163 376.114 243.196C375.604 243.228 375.181 243.033 375.16 242.74C375.138 242.448 375.528 242.187 376.038 242.155C376.547 242.122 376.97 242.318 376.992 242.61Z" fill="#181B3A"/>
<path d="M374.214 242.22L373.791 242.968L371.818 248.596L373.65 249.355L374.214 242.22Z" fill="#ECB13E"/>
<g style="mix-blend-mode:soft-light">
<path d="M374.214 242.22L373.791 242.968L371.818 248.596L373.65 249.355L374.214 242.22Z" fill="#181B3A"/>
</g>
<path d="M382.292 255.601L385.155 254.397L384.396 260.025L382.292 255.601Z" fill="#181B3A"/>
<path d="M397.984 311.844C397.984 311.844 426.154 314.848 442.614 301.446C442.614 301.446 424.409 245.972 393.885 255.08C367.091 263.072 376.731 283.912 397.995 311.844H397.984Z" fill="#7F36FF"/>
<path d="M397.268 310.424C397.268 310.424 422.933 312.126 442.213 301.022C442.213 301.022 449.803 319.131 443.384 344.254C436.954 369.378 426.674 410.149 442.148 461.014C442.148 461.014 431.901 464.473 422.803 461.253C422.803 461.253 402.494 412.61 403.654 381.056C403.654 381.056 387.292 409.682 394.307 459.93C394.307 459.93 383.789 464.018 374.443 460.515C374.443 460.515 367.427 437.148 366.852 412.025C366.267 386.901 372.111 358.86 380.873 340.741C389.634 322.633 395.131 315.834 397.278 310.413L397.268 310.424Z" fill="#CC1D54"/>
<path style="mix-blend-mode:overlay" d="M397.268 310.424C397.268 310.424 422.933 312.126 442.213 301.022C442.213 301.022 449.803 319.131 443.384 344.254C436.954 369.378 426.674 410.149 442.148 461.014C442.148 461.014 431.901 464.473 422.803 461.253C422.803 461.253 402.494 412.61 403.654 381.056C403.654 381.056 387.292 409.682 394.307 459.93C394.307 459.93 383.789 464.018 374.443 460.515C374.443 460.515 367.427 437.148 366.852 412.025C366.267 386.901 372.111 358.86 380.873 340.741C389.634 322.633 395.131 315.834 397.278 310.413L397.268 310.424Z" fill="url(#paint4_linear_384_923)"/>
<path d="M403.73 381.783C404.196 372.252 413.305 363.372 418.661 355.478C424.007 347.584 430.773 340.362 430.827 330.82C430.827 330.82 431.489 343.182 422.944 367.048C416.861 384.039 407.167 410.279 412.426 430.73C412.426 430.73 402.646 404.121 403.741 381.783H403.73Z" fill="#181B3A"/>
<path d="M404.186 320.399C409.564 321.169 415.072 320.93 420.364 319.673C421.871 319.315 423.346 318.87 424.799 318.361C425.124 318.241 424.983 317.732 424.658 317.851C419.605 319.64 414.226 320.475 408.87 320.291C407.352 320.236 405.834 320.106 404.327 319.889C403.99 319.846 403.849 320.356 404.186 320.399Z" fill="#EEEEF1"/>
<path d="M404.75 324.358C409.977 325.756 415.67 325.442 420.863 324.043C422.295 323.653 423.683 323.176 425.049 322.59C425.363 322.46 425.092 321.994 424.778 322.135C419.942 324.217 414.455 325.062 409.218 324.607C407.765 324.477 406.312 324.238 404.902 323.859C404.566 323.772 404.425 324.282 404.761 324.368L404.75 324.358Z" fill="#EEEEF1"/>
<path d="M433.452 316.257C437.269 316.214 441.042 314.934 444.089 312.624C444.36 312.418 444.089 311.952 443.818 312.169C440.836 314.424 437.193 315.682 433.452 315.726C433.105 315.726 433.105 316.268 433.452 316.257Z" fill="#EEEEF1"/>
<path d="M436.933 319.988C439.904 319.771 442.734 318.621 445.011 316.702C445.271 316.485 444.892 316.106 444.632 316.323C442.474 318.144 439.752 319.25 436.933 319.445C436.597 319.467 436.586 319.998 436.933 319.977V319.988Z" fill="#EEEEF1"/>
<path d="M399.274 310.923C399.274 315.976 398.276 320.92 396.487 325.648C394.698 330.376 392.431 334.453 390.122 338.703C387.628 343.29 385.177 347.909 383.193 352.745C381.697 356.378 380.482 360.119 379.441 363.903C377.197 372.024 375.7 380.341 374.746 388.712C373.543 399.241 373.228 409.867 373.749 420.45C374.345 432.606 376.047 444.717 378.856 456.558C379.224 458.109 379.615 459.649 380.016 461.188C380.103 461.524 380.612 461.383 380.526 461.047C377.37 449.011 375.353 436.683 374.508 424.267C373.781 413.532 373.9 402.743 374.93 392.03C375.765 383.312 377.186 374.638 379.387 366.158C380.255 362.808 381.252 359.479 382.423 356.215C384.288 351.043 386.728 346.131 389.33 341.295C393.863 332.87 398.71 324.466 399.631 314.751C399.751 313.471 399.805 312.192 399.805 310.912C399.805 310.565 399.274 310.565 399.274 310.912V310.923Z" fill="#EEEEF1"/>
<path d="M393.429 318.275C393.277 320.975 394.166 324.282 396.693 325.681C396.996 325.843 397.267 325.388 396.964 325.225C394.6 323.913 393.83 320.791 393.96 318.275C393.982 317.928 393.451 317.928 393.429 318.275Z" fill="#EEEEF1"/>
<path d="M391.456 322.428C391.662 323.805 391.977 325.171 392.595 326.418C393.213 327.665 394.123 328.652 395.251 329.411C395.533 329.606 395.804 329.14 395.522 328.956C394.438 328.229 393.581 327.242 393.017 326.071C392.454 324.9 392.172 323.577 391.977 322.287C391.922 321.951 391.413 322.092 391.467 322.428H391.456Z" fill="#EEEEF1"/>
<path d="M429.776 314.22C430.47 317.668 430.86 321.17 430.925 324.683C430.925 325.03 431.467 325.03 431.457 324.683C431.392 321.127 431.001 317.57 430.296 314.079C430.231 313.742 429.711 313.883 429.787 314.22H429.776Z" fill="#EEEEF1"/>
<path d="M427.792 306.986C428.225 308.255 428.626 309.545 428.973 310.846C429.06 311.183 429.581 311.042 429.483 310.705C429.136 309.404 428.746 308.114 428.301 306.845C428.193 306.52 427.672 306.661 427.792 306.986Z" fill="#EEEEF1"/>
<path d="M360.673 292.034C362.625 285.355 365.693 277.136 369.131 271.985C379.139 256.978 393.875 255.081 393.875 255.081C393.875 255.081 398.082 256.512 387.206 285.355C384.626 292.197 381.893 297.185 379.258 302.346C379.258 302.346 373.771 300.958 368.415 298.009C363.861 295.504 360.684 292.034 360.684 292.034H360.673Z" fill="#7F36FF"/>
<path d="M362.505 287.74C366.907 291.036 371.472 294.137 376.579 296.263C378.097 296.892 379.648 297.434 381.231 297.9C381.546 297.987 381.676 297.499 381.361 297.412C376.005 295.84 371.114 293.227 366.549 290.06C365.27 289.171 364.012 288.25 362.765 287.306C362.505 287.111 362.255 287.545 362.505 287.74Z" fill="#EEEEF1"/>
<path d="M384.678 292.23L387.985 285.073L393.711 306.684L384.678 292.23Z" fill="#181B3A"/>
<g style="mix-blend-mode:soft-light">
<path d="M378.401 248.77C378.368 247.024 379.756 245.593 381.502 245.56C383.248 245.528 384.679 246.916 384.712 248.661C384.744 250.407 383.356 251.838 381.611 251.871C379.865 251.903 378.433 250.515 378.401 248.77Z" fill="#181B3A"/>
</g>
<path d="M391.152 242.925C390.696 241.212 388.94 240.193 387.216 240.648C385.502 241.104 384.483 242.86 384.939 244.584C385.394 246.297 387.151 247.317 388.875 246.861C390.588 246.406 391.607 244.649 391.152 242.925Z" fill="#ECB13E"/>
<path d="M388.42 242.068C387.249 242.166 386.36 243.337 386.577 244.486C386.599 244.595 386.729 244.66 386.837 244.627C386.957 244.595 387 244.486 386.978 244.367C386.816 243.499 387.531 242.556 388.42 242.48C388.529 242.48 388.627 242.393 388.627 242.274C388.627 242.166 388.529 242.057 388.42 242.068Z" fill="#181B3A"/>
<path d="M313.871 300.882C312.917 296.978 314.49 292.695 317.949 290.646C318.415 290.364 319.25 290.017 319.781 290.158C321.332 290.559 321.234 292.413 320.518 293.172C319.716 294.039 319.174 295.373 319.597 296.468C319.976 297.423 320.291 298.279 321.332 298.821C322.373 299.363 323.76 299.494 324.032 298.355C324.172 297.77 323.977 297.162 323.739 296.609C323.218 295.395 322.481 294.267 321.581 293.302C321.223 292.923 320.822 292.532 320.681 292.023C320.421 291.058 321.31 290.06 322.297 289.919C323.283 289.778 324.27 290.277 325.029 290.927C327.458 293.009 328.13 296.88 326.547 299.656C324.964 302.443 321.288 303.831 318.263 302.801" fill="#EDB636"/>
<path d="M317.852 292.869C318.362 292.935 318.058 292.024 317.548 291.926C316.648 291.742 315.716 292.121 314.968 292.653C312.745 294.203 311.552 297.109 312.04 299.777C312.539 302.444 314.686 304.732 317.321 305.383C317.668 305.469 318.058 305.523 318.351 305.328C318.643 305.133 318.709 304.602 318.383 304.461" fill="#EDB636"/>
<path d="M316.171 291.992C314.056 293.781 313.265 297.478 314.739 299.885C314.88 300.113 315.238 299.907 315.097 299.669C313.72 297.413 314.49 293.954 316.463 292.284C316.67 292.111 316.377 291.818 316.171 291.992Z" fill="#181B3A"/>
<path d="M319.609 297.012C319.609 297.012 327.123 304.07 336.611 305.426C346.652 306.857 338.031 297.424 320.693 292.577C320.693 292.577 318.513 294.398 319.609 297.022V297.012Z" fill="#181B3A"/>
<path d="M375.321 238.349C371.982 236.452 372.513 230.499 376.135 229.219C378.379 228.428 380.906 229.284 383.226 228.742C385.98 228.091 387.856 225.63 390.155 223.982C392.454 222.334 396.281 221.813 397.637 224.296C398.103 225.153 398.146 226.183 398.504 227.094C399.545 229.75 403.015 230.65 405.791 229.967C408.556 229.295 410.898 227.495 413.414 226.14C415.929 224.784 418.998 223.873 421.589 225.077C426.176 227.202 426.241 234.283 430.524 236.972C433.886 239.086 438.451 237.623 442.105 239.151C445.911 240.745 447.461 246.742 444.1 249.127C441.042 251.296 436.748 249.312 433.105 250.147C426.762 251.6 424.333 260.892 417.859 261.619C413.056 262.161 408.556 257.444 403.882 258.713C401.074 259.472 398.97 262.302 396.064 262.367C393.701 262.421 391.651 260.502 390.806 258.301C389.96 256.089 390.079 253.649 390.285 251.285C390.415 249.691 390.48 247.837 389.277 246.785C387.65 245.375 384.831 246.416 383.183 245.029C382.294 244.28 382.033 243.055 381.524 242.014C380.288 239.455 377.23 237.926 374.443 238.447" fill="#181B3A"/>
<path d="M420.635 264.221C423.834 267.322 426.751 270.651 429.277 274.327C430.036 275.433 430.763 276.56 431.468 277.699C431.641 277.97 432.075 277.721 431.901 277.439C429.527 273.622 426.892 270.011 423.812 266.726C422.891 265.75 421.947 264.795 420.993 263.863C420.755 263.635 420.397 263.993 420.635 264.221Z" fill="#EEEEF1"/>
<defs>
<linearGradient id="paint0_linear_384_923" x1="-127.749" y1="76.8219" x2="137.661" y2="164.518" gradientUnits="userSpaceOnUse">
<stop stop-color="white"/>
<stop offset="1" stop-color="white" stop-opacity="0"/>
</linearGradient>
<linearGradient id="paint1_linear_384_923" x1="607.963" y1="105.574" x2="425.385" y2="164.648" gradientUnits="userSpaceOnUse">
<stop stop-color="white"/>
<stop offset="1" stop-color="white" stop-opacity="0"/>
</linearGradient>
<linearGradient id="paint2_linear_384_923" x1="387.889" y1="23.8174" x2="357.311" y2="168.629" gradientUnits="userSpaceOnUse">
<stop stop-color="white"/>
<stop offset="1" stop-color="white" stop-opacity="0"/>
</linearGradient>
<linearGradient id="paint3_linear_384_923" x1="-4.20183" y1="178.301" x2="123.748" y2="312.757" gradientUnits="userSpaceOnUse">
<stop stop-color="white"/>
<stop offset="1" stop-color="white" stop-opacity="0"/>
</linearGradient>
<linearGradient id="paint4_linear_384_923" x1="357.787" y1="165.916" x2="423.682" y2="445.476" gradientUnits="userSpaceOnUse">
<stop stop-color="white"/>
<stop offset="1" stop-color="white" stop-opacity="0"/>
</linearGradient>
</defs>
</svg>
