<svg width="31" height="31" viewBox="0 0 31 31" fill="none" xmlns="http://www.w3.org/2000/svg">
<path d="M27.5556 17.2222V25.8333C27.5556 26.7806 26.7806 27.5556 25.8333 27.5556H5.16667C4.21944 27.5556 3.44444 26.7806 3.44444 25.8333V17.2222C3.44444 16.275 2.66944 15.5 1.72222 15.5C0.775 15.5 0 16.275 0 17.2222V27.5556C0 29.45 1.55 31 3.44444 31H27.5556C29.45 31 31 29.45 31 27.5556V17.2222C31 16.275 30.225 15.5 29.2778 15.5C28.3306 15.5 27.5556 16.275 27.5556 17.2222ZM17.2222 16.6539L20.46 13.4161C20.6194 13.2567 20.8087 13.1302 21.0171 13.0439C21.2254 12.9576 21.4487 12.9132 21.6742 12.9132C21.8997 12.9132 22.1229 12.9576 22.3313 13.0439C22.5396 13.1302 22.7289 13.2567 22.8883 13.4161C23.0478 13.5756 23.1743 13.7648 23.2606 13.9732C23.3468 14.1815 23.3913 14.4048 23.3913 14.6303C23.3913 14.8558 23.3468 15.0791 23.2606 15.2874C23.1743 15.4957 23.0478 15.685 22.8883 15.8444L16.7056 22.0272C16.5462 22.1869 16.357 22.3135 16.1486 22.4C15.9403 22.4864 15.7169 22.5309 15.4914 22.5309C15.2658 22.5309 15.0425 22.4864 14.8341 22.4C14.6258 22.3135 14.4366 22.1869 14.2772 22.0272L8.09444 15.8444C7.77243 15.5224 7.59152 15.0857 7.59152 14.6303C7.59152 14.1749 7.77243 13.7381 8.09444 13.4161C8.41646 13.0941 8.85321 12.9132 9.30861 12.9132C9.76401 12.9132 10.2008 13.0941 10.5228 13.4161L13.7778 16.6539V1.72222C13.7778 0.775 14.5528 0 15.5 0C16.4472 0 17.2222 0.775 17.2222 1.72222V16.6539Z" fill="#2EC5E7"/>
</svg>
