<svg width="33" height="32" viewBox="0 0 33 32" fill="none" xmlns="http://www.w3.org/2000/svg">
<path d="M11.2895 5.11974C11.2895 6.47757 11.8384 7.7798 12.8156 8.73994C13.7928 9.70007 15.1181 10.2395 16.5 10.2395C17.8819 10.2395 19.2072 9.70007 20.1844 8.73994C21.1616 7.7798 21.7105 6.47757 21.7105 5.11974C21.7105 3.7619 21.1616 2.45967 20.1844 1.49954C19.2072 0.539399 17.8819 0 16.5 0C15.1181 0 13.7928 0.539399 12.8156 1.49954C11.8384 2.45967 11.2895 3.7619 11.2895 5.11974ZM0 25.5987C-1.01962e-08 26.271 0.134774 26.9368 0.396628 27.5579C0.658481 28.1791 1.04229 28.7435 1.52613 29.2189C2.00997 29.6943 2.58437 30.0714 3.21654 30.3287C3.84871 30.586 4.52627 30.7184 5.21053 30.7184C5.89478 30.7184 6.57234 30.586 7.20451 30.3287C7.83668 30.0714 8.41108 29.6943 8.89492 29.2189C9.37877 28.7435 9.76257 28.1791 10.0244 27.5579C10.2863 26.9368 10.4211 26.271 10.4211 25.5987C10.4211 24.2408 9.87209 22.9386 8.89492 21.9785C7.91776 21.0183 6.59244 20.4789 5.21053 20.4789C3.82861 20.4789 2.50329 21.0183 1.52613 21.9785C0.548965 22.9386 2.05922e-08 24.2408 0 25.5987ZM27.7895 30.7184C26.4076 30.7184 25.0822 30.179 24.1051 29.2189C23.1279 28.2587 22.5789 26.9565 22.5789 25.5987C22.5789 24.2408 23.1279 22.9386 24.1051 21.9785C25.0822 21.0183 26.4076 20.4789 27.7895 20.4789C29.1714 20.4789 30.4967 21.0183 31.4739 21.9785C32.451 22.9386 33 24.2408 33 25.5987C33 26.9565 32.451 28.2587 31.4739 29.2189C30.4967 30.179 29.1714 30.7184 27.7895 30.7184ZM8.17184 7.78541C8.4244 7.55901 8.57625 7.24413 8.59464 6.9087C8.61303 6.57327 8.49647 6.24418 8.27012 5.99244C8.04378 5.74069 7.72578 5.58647 7.38474 5.56304C7.0437 5.53962 6.70695 5.64887 6.44716 5.86722C4.82856 7.26708 3.53244 8.99005 2.64531 10.9212C1.75818 12.8523 1.30043 14.9471 1.30263 17.0658C1.30263 17.4052 1.43987 17.7308 1.68416 17.9708C1.92845 18.2109 2.25978 18.3457 2.60526 18.3457C2.95074 18.3457 3.28207 18.2109 3.52636 17.9708C3.77065 17.7308 3.90789 17.4052 3.90789 17.0658C3.90563 15.3099 4.28483 13.5737 5.02015 11.9733C5.75547 10.3729 6.82997 8.9451 8.17184 7.78541ZM26.5528 5.86722C26.293 5.64887 25.9563 5.53962 25.6153 5.56304C25.2742 5.58647 24.9562 5.74069 24.7299 5.99244C24.5035 6.24418 24.387 6.57327 24.4054 6.9087C24.4237 7.24413 24.5756 7.55901 24.8282 7.78541C26.17 8.9451 27.2445 10.3729 27.9799 11.9733C28.7152 13.5737 29.0944 15.3099 29.0921 17.0658C29.0921 17.4052 29.2293 17.7308 29.4736 17.9708C29.7179 18.2109 30.0493 18.3457 30.3947 18.3457C30.7402 18.3457 31.0715 18.2109 31.3158 17.9708C31.5601 17.7308 31.6974 17.4052 31.6974 17.0658C31.6996 14.9471 31.2418 12.8523 30.3547 10.9212C29.4676 8.99005 28.1714 7.26708 26.5528 5.86722ZM13.3511 29.0494C13.1837 29.002 13.0084 28.9881 12.8354 29.0084C12.6625 29.0288 12.4955 29.083 12.3442 29.1679C12.193 29.2528 12.0606 29.3667 11.9549 29.5027C11.8493 29.6388 11.7724 29.7943 11.729 29.96C11.6855 30.1258 11.6764 30.2984 11.702 30.4677C11.7276 30.6369 11.7876 30.7994 11.8782 30.9456C11.9689 31.0917 12.0885 31.2185 12.2299 31.3184C12.3713 31.4183 12.5317 31.4894 12.7015 31.5273C15.1932 32.1576 17.8068 32.1576 20.2985 31.5273C20.4683 31.4894 20.6287 31.4183 20.7701 31.3184C20.9115 31.2185 21.0311 31.0917 21.1218 30.9456C21.2124 30.7994 21.2724 30.6369 21.298 30.4677C21.3236 30.2984 21.3145 30.1258 21.271 29.96C21.2276 29.7943 21.1507 29.6388 21.0451 29.5027C20.9394 29.3667 20.807 29.2528 20.6558 29.1679C20.5045 29.083 20.3375 29.0288 20.1646 29.0084C19.9916 28.9881 19.8163 29.002 19.6489 29.0494C18.6201 29.3087 17.5621 29.4395 16.5 29.4385C15.4379 29.4387 14.38 29.308 13.3511 29.0494Z" fill="#2EC5E7"/>
</svg>
