<svg width="34" height="38" viewBox="0 0 34 38" fill="none" xmlns="http://www.w3.org/2000/svg">
<path d="M17.5348 0H3.50696C2.57686 0 1.68485 0.374339 1.02717 1.04067C0.369482 1.707 0 2.61073 0 3.55306V31.9776C0 32.9199 0.369482 33.8236 1.02717 34.49C1.68485 35.1563 2.57686 35.5306 3.50696 35.5306H15.7813C15.0624 35.0865 14.3785 34.5358 13.7824 33.9317C12.6802 32.9052 11.7893 31.6681 11.1607 30.2915C10.5321 28.9149 10.1783 27.426 10.1197 25.9105C10.061 24.3949 10.2986 22.8825 10.8189 21.4602C11.3391 20.038 12.1317 18.734 13.1511 17.6232C16.9912 13.324 23.3739 12.6667 28.0557 15.9888V10.6592L17.5348 0ZM15.7813 12.4357V2.6648L25.4255 12.4357H15.7813ZM28.5993 30.0234C30.9314 26.2749 29.8092 21.3184 26.1444 18.9734C22.4446 16.6106 17.5348 17.7653 15.2378 21.4605C12.8881 25.209 14.0279 30.1477 17.6926 32.5105C20.2527 34.1627 23.5142 34.1627 26.0918 32.546L31.5627 38L34 35.5306L28.5993 30.0234ZM21.9185 30.201C20.7559 30.201 19.6409 29.7331 18.8188 28.9002C17.9967 28.0673 17.5348 26.9376 17.5348 25.7597C17.5348 24.5818 17.9967 23.4521 18.8188 22.6192C19.6409 21.7863 20.7559 21.3184 21.9185 21.3184C23.0811 21.3184 24.1962 21.7863 25.0183 22.6192C25.8404 23.4521 26.3022 24.5818 26.3022 25.7597C26.3022 26.9376 25.8404 28.0673 25.0183 28.9002C24.1962 29.7331 23.0811 30.201 21.9185 30.201Z" fill="#2EC5E7"/>
</svg>
