<svg width="24" height="24" viewBox="0 0 24 24" fill="none" xmlns="http://www.w3.org/2000/svg">
<g clip-path="url(#clip0_384_873)">
<path d="M6.76 4.8398L4.96 3.0498L3.55 4.4598L5.34 6.2498L6.76 4.8398ZM4 10.4998H1V12.4998H4V10.4998ZM13 0.549805H11V3.4998H13V0.549805ZM20.45 4.4598L19.04 3.0498L17.25 4.8398L18.66 6.2498L20.45 4.4598ZM17.24 18.1598L19.03 19.9598L20.44 18.5498L18.64 16.7598L17.24 18.1598ZM20 10.4998V12.4998H23V10.4998H20ZM12 5.4998C8.69 5.4998 6 8.1898 6 11.4998C6 14.8098 8.69 17.4998 12 17.4998C15.31 17.4998 18 14.8098 18 11.4998C18 8.1898 15.31 5.4998 12 5.4998ZM11 22.4498H13V19.4998H11V22.4498ZM3.55 18.5398L4.96 19.9498L6.75 18.1498L5.34 16.7398L3.55 18.5398Z" fill="#573F9D"/>
</g>
<defs>
<clipPath id="clip0_384_873">
<rect width="24" height="24" fill="white"/>
</clipPath>
</defs>
</svg>
