<svg width="20" height="20" viewBox="0 0 20 20" fill="none" xmlns="http://www.w3.org/2000/svg">
<path d="M10 15V12.5" stroke="" stroke-width="1.5" stroke-linecap="round" stroke-linejoin="round"/>
<path d="M8.86055 2.93544L8.86092 2.93515C9.46861 2.44785 10.5198 2.44566 11.1385 2.94296L11.1401 2.94419L16.913 7.55921C16.9133 7.55945 16.9136 7.5597 16.9139 7.55995C17.1058 7.71485 17.3026 7.99341 17.4358 8.34238C17.5689 8.69119 17.6083 9.03171 17.5684 9.27808C17.5683 9.27845 17.5683 9.27882 17.5682 9.27919L16.4607 15.9075C16.4606 15.9079 16.4606 15.9082 16.4605 15.9086C16.3211 16.7239 15.4911 17.425 14.6667 17.425H5.33339C4.49982 17.425 3.67907 16.7315 3.53969 15.9091C3.53965 15.9088 3.53961 15.9086 3.53957 15.9084L2.43147 9.27644L2.43148 9.27643L2.43069 9.27185C2.3884 9.02807 2.42553 8.68982 2.55808 8.34238C2.6906 7.99504 2.88853 7.71706 3.08341 7.56215L3.08341 7.56216L3.08556 7.56044L8.86055 2.93544Z" stroke="" stroke-width="1.5" stroke-linecap="round" stroke-linejoin="round"/>
</svg>
