<svg width="20" height="20" viewBox="0 0 20 20" fill="none" xmlns="http://www.w3.org/2000/svg">
<path d="M17.3567 6.67498L11.8983 2.30831C10.8317 1.45831 9.16501 1.44997 8.10667 2.29997L2.64834 6.67498C1.86501 7.29998 1.39001 8.54997 1.55667 9.53331L2.60667 15.8166C2.84834 17.225 4.15667 18.3333 5.58167 18.3333H14.415C15.8233 18.3333 17.1567 17.2 17.3983 15.8083L18.4483 9.52498C18.5983 8.54998 18.1233 7.29998 17.3567 6.67498ZM10.6233 15C10.6233 15.3416 10.34 15.625 9.99834 15.625C9.65668 15.625 9.37334 15.3416 9.37334 15V12.5C9.37334 12.1583 9.65668 11.875 9.99834 11.875C10.34 11.875 10.6233 12.1583 10.6233 12.5V15Z" fill=""/>
</svg>
