<svg width="20" height="20" viewBox="0 0 20 20" fill="none" xmlns="http://www.w3.org/2000/svg">
<path d="M14.9604 16.968L14.9596 16.9676L11.1003 14.8244C10.7579 14.6308 10.3559 14.5564 9.99637 14.5564C9.63506 14.5564 9.23285 14.6315 8.88901 14.823C8.88872 14.8232 8.88842 14.8234 8.88813 14.8235L5.02959 16.9663C5.0292 16.9665 5.02882 16.9667 5.02844 16.9669C4.54821 17.231 4.27583 17.1646 4.16736 17.1007C4.0594 17.0371 3.87 16.8323 3.87 16.2858V5.1348C3.87 3.86996 4.90461 2.82996 6.17484 2.82996H13.804C15.073 2.82996 16.1099 3.86912 16.1168 5.13665V16.2858C16.1168 16.8383 15.9261 17.0438 15.8194 17.1066C15.7132 17.1692 15.4421 17.2363 14.9604 16.968Z" stroke="" stroke-width="1.5" stroke-linecap="round" stroke-linejoin="round"/>
</svg>
